<svg width="40" height="40" viewBox="0 0 40 40">
    <g fill="none" fill-rule="evenodd">
        <path fill="#FFF" fill-opacity="0" d="M0 0H40V40H0z"/>
        <path fill="#E05666" d="M10.319 9.835c-.778.417-1.405 1.002-1.919 1.788-.485.746-.71 1.797-.668 3.126.046 1.413.483 3.007 1.3 4.735.803 1.67 1.815 3.292 3.003 4.811 1.188 1.52 2.341 2.752 3.43 3.66 1.1.919 2.119 1.65 3.028 2.168 1.103.63 1.487.657 1.502.657.004 0 .388-.03 1.482-.665.91-.53 1.931-1.267 3.038-2.19 1.092-.912 2.245-2.143 3.43-3.66 1.185-1.517 2.197-3.137 3.005-4.815.653-1.385 1.068-2.695 1.232-3.894.157-1.135.112-2.09-.134-2.837-.247-.75-.623-1.403-1.115-1.939-.488-.53-1.027-.913-1.649-1.171-.631-.263-1.283-.39-1.989-.39-1.11 0-2.06.285-2.905.868-.732.499-1.364 1.47-1.894 2.176-.791 1.051-.893 1.418-1.02 1.63-.129.212-.652 1.245-1.513 1.198-.862-.047-1.297-.822-1.47-1.047-.172-.226-.37-.977-1.017-1.81-.51-.663-1.148-1.613-1.883-2.115-.862-.607-1.84-.867-2.89-.87-.877 0-1.65.194-2.384.586zm6.754 22.469c-1.051-.602-2.203-1.423-3.424-2.446-1.23-1.025-2.514-2.39-3.815-4.055-1.299-1.663-2.406-3.438-3.293-5.278-.964-2.04-1.479-3.955-1.535-5.7-.059-1.83.3-3.357 1.067-4.533.747-1.146 1.72-2.045 2.891-2.672 1.185-.636 2.499-.96 3.867-.922 1.612 0 3.097.46 4.388 1.372.948.648 1.787 1.787 2.466 2.664.11.145.217.284.315.42.082-.114.17-.233.265-.359.702-.935 1.543-2.106 2.512-2.767 1.307-.902 2.829-1.361 4.518-1.361 1.079 0 2.118.204 3.091.605.988.41 1.867 1.03 2.615 1.843.738.804 1.296 1.763 1.653 2.854.362 1.096.44 2.414.234 3.915-.2 1.442-.685 2.991-1.444 4.603-.893 1.85-2 3.624-3.297 5.285-1.297 1.66-2.58 3.025-3.816 4.058-1.222 1.021-2.373 1.847-3.415 2.452-1.23.717-2.16 1.051-2.926 1.051-.76 0-1.688-.327-2.917-1.03z"/>
    </g>
</svg>
