<svg width="14" height="14" viewBox="0 0 14 14">
    <path fill="larchYellow" fill-rule="evenodd" d="M13.907 5.901c-.476.874-1.491 1.972-3.045 3.293.408 1.68.65 3.026.728 4.036a.668.668 0 0 1-.32.641.718.718 0 0 1-.38.117.841.841 0 0 1-.32-.073 11.199 11.199 0 0 0-.801-.408c-1.312-.65-2.235-1.146-2.769-1.486-.534.34-1.457.835-2.769 1.486-.369.175-.636.31-.801.408a.633.633 0 0 1-.7-.044.668.668 0 0 1-.32-.64c.077-1.011.32-2.356.728-4.037C1.584 7.874.568 6.775.093 5.901a.649.649 0 0 1-.044-.583.614.614 0 0 1 .379-.408c.544-.242 1.919-.403 4.124-.48C5.348 2.118 5.999.71 6.505.204A.742.742 0 0 1 7 0c.185 0 .345.068.48.204.516.505 1.172 1.914 1.968 4.226 2.205.077 3.58.238 4.124.48.185.078.31.214.379.408a.649.649 0 0 1-.044.583z"/>
</svg>
