<svg width="16" height="16" viewBox="0 0 16 16">
    <g fill="#FFF" fill-rule="evenodd">
        <circle cx="8" cy="8" r="4" fill="#FFF"/>
        <path fill="#000000" d="M8 1.333c3.682 0 6.667 2.985 6.667 6.667S11.682 14.667 8 14.667 1.333 11.682 1.333 8 4.318 1.333 8 1.333zm3.416 4.353c-.223-.248-.585-.248-.808 0l-2.904 3.73c-.011.014-.024.028-.037.04-.135.124-.344.115-.467-.02L5.475 7.555c-.223-.248-.585-.248-.808 0-.223.248-.223.65 0 .898l2.312 2.518c.112.124.33.222.515.222.186 0 .394-.098.506-.222l3.416-4.387c.223-.248.223-.65 0-.898z"/>
    </g>
</svg>
