<svg width="16" height="16" viewBox="0 0 16 16">
    <g fill="none" fill-rule="evenodd">
        <path fill="#000000" d="M8 1.333c3.682 0 6.667 2.985 6.667 6.667S11.682 14.667 8 14.667 1.333 11.682 1.333 8 4.318 1.333 8 1.333zm0 1.25C5.008 2.583 2.583 5.008 2.583 8S5.008 13.417 8 13.417 13.417 10.992 13.417 8 10.992 2.583 8 2.583zm3.416 3.103c.223.248.223.65 0 .898L8 10.971c-.112.124-.32.222-.506.222s-.403-.098-.515-.222L4.667 8.453c-.223-.248-.223-.65 0-.898s.585-.248.808 0L7.332 9.58c.062.067.166.072.233.01l.019-.02 3.024-3.884c.223-.248.585-.248.808 0z"/>
    </g>
</svg>
