<svg width="32" height="33" viewBox="0 0 32 33">
    <g fill="none" fill-rule="evenodd" transform="translate(0 .5)">
        <circle cx="16" cy="16" r="15.5" fill="#FAFAFA" stroke="#E2E2E2"/>
        <g>
            <path fill="#FFF" fill-opacity="0" d="M0 0H16V16H0z" transform="translate(8 8)"/>
            <path fill="#121212" d="M8 1.333c3.682 0 6.667 2.985 6.667 6.667S11.682 14.667 8 14.667 1.333 11.682 1.333 8 4.318 1.333 8 1.333zm0 1.25C5.008 2.583 2.583 5.008 2.583 8S5.008 13.417 8 13.417 13.417 10.992 13.417 8 10.992 2.583 8 2.583zm3.416 3.103c.223.248.223.65 0 .898L8 10.971c-.112.124-.32.222-.506.222s-.403-.098-.515-.222L4.667 8.453c-.223-.248-.223-.65 0-.898s.585-.248.808 0l1.593 1.737c.185.202.498.215.7.03.02-.018.04-.039.056-.06l2.784-3.576c.223-.248.585-.248.808 0z" transform="translate(8 8)"/>
        </g>
    </g>
</svg>
