<svg width="32" height="33" viewBox="0 0 32 33">
    <g fill="#000000" fill-rule="evenodd" transform="translate(0 .5)">
        <circle cx="16" cy="16" r="15.5" fill="quartz" stroke="limestone" />
        <g>
            <path fill="primary" fill-rule="evenodd" fill-opacity="0" d="M0 0H16V16H0z" transform="translate(8 8)"/>
            <path fill="#000000" fill-rule="evenodd" d="M8 1.333c3.682 0 6.667 2.985 6.667 6.667S11.682 14.667 8 14.667 1.333 11.682 1.333 8 4.318 1.333 8 1.333zm0 1.25C5.008 2.583 2.583 5.008 2.583 8S5.008 13.417 8 13.417 13.417 10.992 13.417 8 10.992 2.583 8 2.583zm0 4.63c.368 0 .667.298.667.667v2.787c0 .368-.299.666-.667.666-.368 0-.667-.298-.667-.666V7.88c0-.369.299-.667.667-.667zm0-2.296c.368 0 .667.298.667.666 0 .369-.299.667-.667.667-.368 0-.667-.298-.667-.667 0-.368.299-.666.667-.666z" transform="translate(8 8)"/>
        </g>
    </g>
</svg>
