<svg xmlns="http://www.w3.org/2000/svg" width="121" height="148" viewBox="0 0 121 148">
    <g fill="none" fill-rule="evenodd">
        <path fill="#DADBE2" d="M118.089 146.804H1.802c-.991 0-1.802-.81-1.802-1.802 0-.99.81-1.802 1.802-1.802h116.287c.991 0 1.802.811 1.802 1.802s-.811 1.802-1.802 1.802" transform="translate(.5)"/>
        <path fill="#3D98D2" d="M25.416 96.83c-6.493 8.062-13.664 3.02-11.962-7.706.672-4.234 3.478-13.015 7.228-19.169C24.432 63.801 33.732 54 33.732 54L47.2 61.777s-8.314 6.645-13.469 16.175c-5.154 9.53-4.931 14.677-8.315 18.878M47.71 138.79c-1.592 9.161-11.573 8.998-15.43 0-1.523-3.552-3.64-14.546-3.47-20.94.17-6.393 1.846-15.05 1.846-15.05H48.8s-1.89 8.198-1.592 17.809c.299 9.61 1.32 13.47.501 18.181M87.226 140.027c-1.244 7.857-11.232 6.547-15.105-2.455-1.529-3.554-3.481-11.55-3.31-17.948.17-6.396 1.68-16.424 1.68-16.424h16.586s-.267 6.566.033 16.18c.299 9.617.87 15.886.116 20.647" transform="translate(.5)"/>
        <path fill="#3D98D2" d="M35.881 50h44.195s5.062 24.395 6.507 40.22c1.445 15.824-.102 29.916-.102 29.916S73.015 123.6 58.502 123.6c-14.512 0-29.026-3.464-29.026-3.464s-1.577-13.77.086-31.981C31.226 69.943 35.882 50 35.882 50" transform="translate(.5)"/>
        <path fill="#FEFEFE" d="M57 115.2c9.168 0 16.6-8.978 16.6-22.293C73.6 79.593 66.168 68.8 57 68.8c-9.168 0-16.6 10.793-16.6 24.107 0 13.315 7.432 22.293 16.6 22.293M73.193 24.71c2.961-1.083 6.35.766 7.569 4.13 1.22 3.364-.194 6.968-3.155 8.05-2.961 1.083-6.35-.766-7.569-4.13-1.219-3.364.193-6.968 3.155-8.05M44.007 24.71c2.962 1.082 4.374 4.686 3.155 8.05-1.22 3.364-4.608 5.213-7.57 4.13-2.96-1.082-4.373-4.686-3.154-8.05 1.22-3.364 4.608-5.213 7.57-4.13" transform="translate(.5)"/>
        <path fill="#4B4A4B" d="M75.368 34.4c-1.98 0-2.802-1.685-2.96-2.576-.051-.29.148-.566.445-.616.296-.05.578.144.63.433.014.077.338 1.692 1.885 1.692 1.565 0 1.937-1.637 1.952-1.707.062-.288.35-.472.644-.413.295.059.484.338.425.626-.182.886-1.05 2.561-3.02 2.561M41.369 34.4c-1.981 0-2.803-1.684-2.961-2.575-.051-.29.148-.567.445-.617.296-.05.578.144.63.433.014.075.337 1.692 1.886 1.692 1.564 0 1.936-1.637 1.951-1.707.062-.288.351-.474.645-.413.294.059.484.339.424.626-.183.886-1.05 2.561-3.02 2.561" transform="translate(.5)"/>
        <path fill="#3D98D2" d="M26.897 2.374C31.61-.543 36.074-1.472 39.06 3.686c2.986 5.158 4.236 14.15-1.349 17.365-5.584 3.216-12.77-2.36-15.756-7.518-2.986-5.157.23-8.242 4.942-11.16M91.878 2.277C86.953-.37 82.717-1.588 79.736 3.595c-2.982 5.184-4.23 14.22 1.346 17.452 5.575 3.231 12.748-2.372 15.73-7.556 2.98-5.183-.01-8.568-4.934-11.214" transform="translate(.5)"/>
        <path fill="#020303" d="M54.203 87.342c0 8.622 29.006 8.28 36.658 0 3.463-3.746 5.47-10.737 2.837-17.469-2.633-6.73-7.749-18.03-7.749-18.03l-14.675 5.342s4.331 3.686 7.762 13.996c1.814 5.45-3.295 8.566-8.798 7.996-5.503-.57-16.035 1.182-16.035 8.165" transform="translate(.5)"/>
        <path fill="#3D98D2" d="M54.203 87.342c0 8.622 29.006 8.28 36.658 0 3.463-3.746 5.47-10.737 2.837-17.469-2.633-6.73-7.749-18.03-7.749-18.03l-14.675 5.342s4.331 3.686 7.762 13.996c1.814 5.45-3.295 8.566-8.798 7.996-5.503-.57-16.035 1.182-16.035 8.165" transform="translate(.5)"/>
        <path fill="#DADBE2" d="M70.163 73.047l8.89-3.236L86.92 90.1s-2.305 1.217-4.73 1.971c-2.425.754-4.747.976-4.747.976l-7.28-20.001z" transform="translate(.5)"/>
        <path fill="#020303" d="M70.764 50.242l14.638 2.58-7.548 40.083s-3.458 1.04-7.096 1.138c-3.637.098-7.586-.744-7.586-.744l7.592-43.057z" transform="translate(.5)"/>
        <path fill="#DADBE2" d="M70.764 50.242l14.638 2.58-7.548 40.083s-3.458 1.04-7.096 1.138c-3.637.098-7.586-.744-7.586-.744l7.592-43.057z" transform="translate(.5)"/>
        <path fill="#FEFEFE" d="M44.407 22c2.962 1.074 4.374 4.653 3.155 7.992-1.22 3.34-4.608 5.175-7.57 4.101-2.96-1.075-4.373-4.653-3.154-7.992" transform="translate(.5)"/>
        <path fill="#3D98D2" d="M84.745 11.154c-2.416-1.708-7.597-3.12-13.827-4.021L25.15 38.003c.423 6.9 2.63 13.2 7.438 16.458 12.027 8.152 40.94 10.141 52.157 0 11.217-10.14 7.795-37.798 0-43.307" transform="translate(.5)"/>
        <path d="M84.795 11.221C82.38 9.514 77.198 8.101 70.968 7.2L25.2 38.07c.423 6.9 2.63 13.2 7.438 16.458 12.027 8.152 40.94 10.142 52.157 0 11.217-10.14 7.795-37.798 0-43.307" transform="translate(.5)"/>
        <path fill="#3D98D2" d="M32.588 11.154c-1.362 1.39-2.615 3.369-3.691 5.729l14.808-9.988c-5.003.786-9.061 2.16-11.117 4.259" transform="translate(.5)"/>
        <path fill="#D7D8D8" d="M28.13 18.703c.244-.629.5-1.235.767-1.82M69.768 6.973c-4.172-.55-8.752-.873-13.256-.907-4.51-.034-8.94.222-12.807.829l-14.808 9.988c-.267.584-.523 1.191-.767 1.82-.917 2.361-1.665 5.012-2.193 7.785-.713 3.749-1.02 7.722-.787 11.515l45.768-30.87c-.38-.055-.763-.109-1.15-.16" transform="translate(.5)"/>
        <path fill="#FEFEFE" d="M58.8 31.2c9.279 0 16.8 5.462 16.8 12.2 0 6.738-7.521 12.2-16.8 12.2S42 50.138 42 43.4c0-6.738 7.521-12.2 16.8-12.2" transform="translate(.5)"/>
        <path fill="#4C4E5F" d="M58.8 49.2L60 49.2 60 44 58.8 44z" transform="translate(.5)"/>
        <path fill="#E05666" d="M59 46.4c3.203 0 5.8-2.715 5.8-5.132 0-2.418-2.597-2.868-5.8-2.868s-5.8.45-5.8 2.868c0 2.417 2.597 5.132 5.8 5.132" transform="translate(.5)"/>
        <path fill="#4C4E5F" d="M64.647 52.8c-.23 0-.444-.15-.522-.387-.034-.097-.905-2.47-4.792-2.47-3.867 0-4.622 2.35-4.652 2.45-.09.3-.397.47-.688.38-.29-.091-.456-.404-.37-.705.037-.133.977-3.268 5.71-3.268 4.714 0 5.794 3.112 5.837 3.244.099.299-.055.623-.344.725-.06.021-.12.031-.179.031" transform="translate(.5)"/>
        <path fill="#FEFEFE" d="M81.162 26.1c1.219 3.34-.193 6.918-3.155 7.993-2.961 1.074-6.35-.761-7.569-4.1-1.219-3.34.193-6.918 3.155-7.993" transform="translate(.5)"/>
        <path fill="#4B4A4B" d="M42.2 27.2c1.436 0 2.6 1.164 2.6 2.6 0 1.436-1.164 2.6-2.6 2.6-1.436 0-2.6-1.164-2.6-2.6 0-1.436 1.164-2.6 2.6-2.6" transform="translate(.5)"/>
        <path fill="#4C4E5F" d="M75.8 27.2c1.436 0 2.6 1.164 2.6 2.6 0 1.436-1.164 2.6-2.6 2.6-1.436 0-2.6-1.164-2.6-2.6 0-1.436 1.164-2.6 2.6-2.6" transform="translate(.5)"/>
        <path fill="#4B4A4B" d="M42.2 27.2c1.436 0 2.6 1.164 2.6 2.6 0 1.436-1.164 2.6-2.6 2.6-1.436 0-2.6-1.164-2.6-2.6 0-1.436 1.164-2.6 2.6-2.6" transform="translate(.5)"/>
        <path fill="#84CEFD" d="M28.671 107.2c-.507 0-.934-.403-.968-.929-.232-3.522-.296-17.518 2.365-35.028.083-.544.58-.916 1.11-.83.53.084.893.593.81 1.137-3.088 20.319-2.355 34.453-2.346 34.587.036.549-.37 1.024-.904 1.06-.022.002-.045.003-.067.003" transform="translate(.5)"/>
        <path fill="#BBB" d="M29.6 18.4c-.157 0-.306-.094-.37-.25-.084-.205.013-.44.217-.526 7.093-2.96 9.995-4.319 14.01-6.2 2.53-1.184 5.394-2.527 9.982-4.59.201-.09.437.002.526.205.09.203 0 .442-.202.532-4.581 2.06-7.444 3.401-9.97 4.584-4.025 1.886-6.933 3.248-14.041 6.214-.05.02-.102.031-.153.031" transform="translate(.5)"/>
        <path fill="#EFF0F3" d="M67.616 92.4c-.024 0-.05-.002-.075-.006-.225-.04-.375-.249-.334-.467l.896-4.75c1.396-7.38 1.396-7.38 2.596-14.944.238-1.497.522-3.289.874-5.493.035-.22.248-.369.474-.335.227.033.383.238.348.457l-.873 5.492c-1.203 7.576-1.203 7.576-2.6 14.967l-.897 4.75c-.036.193-.212.329-.409.329M72.003 92.4c-.023 0-.048-.002-.072-.006-.219-.04-.364-.248-.325-.465l1.067-5.809c1.66-9.02 1.66-9.02 3.088-18.27.282-1.828.62-4.019 1.038-6.711.034-.219.241-.367.46-.334.219.033.37.237.336.455-.418 2.693-.756 4.883-1.038 6.711-1.43 9.26-1.43 9.26-3.091 18.293l-1.067 5.808c-.035.193-.205.328-.396.328" transform="translate(.5)"/>
        <path fill="#BBB" d="M27.599 26c-.157 0-.305-.093-.369-.248-.084-.204.013-.438.217-.522 10.052-4.17 14.164-6.084 19.856-8.734 3.581-1.667 7.64-3.557 14.137-6.461.201-.09.436 0 .525.203.09.201 0 .438-.202.528-6.49 2.901-10.546 4.79-14.125 6.455-5.7 2.654-9.82 4.572-19.887 8.749-.05.02-.102.03-.152.03" transform="translate(.5)"/>
        <path fill="#FEFEFE" d="M44.407 22c2.962 1.074 4.374 4.653 3.155 7.992-1.22 3.34-4.608 5.175-7.57 4.101-2.96-1.075-4.373-4.653-3.154-7.993" transform="translate(.5)"/>
        <path fill="#4C4E5F" d="M42.2 27.2c1.436 0 2.6 1.164 2.6 2.6 0 1.436-1.164 2.6-2.6 2.6-1.436 0-2.6-1.164-2.6-2.6 0-1.436 1.164-2.6 2.6-2.6" transform="translate(.5)"/>
        <path fill="#DADBE2" d="M69.647 6.912c-4.187-.551-8.783-.875-13.301-.909-4.525-.034-8.971.222-12.851.83L28.636 16.84c-.267.586-.524 1.194-.769 1.823-.92 2.367-1.67 5.022-2.2 7.8-.716 3.756-1.024 7.737-.79 11.537L70.8 7.071c-.381-.054-.765-.108-1.153-.16" transform="translate(.5)"/>
        <path fill="#EFF0F3" d="M29.2 20c-.157 0-.306-.094-.37-.25-.084-.205.013-.44.217-.526 7.093-2.96 9.995-4.319 14.01-6.2 2.53-1.184 5.394-2.527 9.982-4.59.201-.09.437.002.526.205.09.203 0 .442-.202.532-4.581 2.06-7.444 3.401-9.97 4.584-4.025 1.886-6.933 3.248-14.041 6.214-.05.02-.102.031-.153.031M27.599 27.6c-.157 0-.305-.093-.369-.248-.084-.204.013-.438.217-.522 10.052-4.17 14.164-6.084 19.856-8.734 3.581-1.667 7.64-3.557 14.137-6.461.201-.09.436 0 .525.203.09.201 0 .438-.202.528-6.49 2.901-10.546 4.79-14.125 6.455-5.7 2.654-9.82 4.572-19.887 8.749-.05.02-.102.03-.152.03" transform="translate(.5)"/>
    </g>
</svg>
