<svg xmlns="http://www.w3.org/2000/svg" width="132" height="178" viewBox="0 0 132 178">
    <g fill="none" fill-rule="evenodd">
        <path fill="#DADBE2" d="M130.017 177.722H12.535c-.926 0-1.685-.757-1.685-1.683 0-.927.759-1.684 1.685-1.684h117.482c.927 0 1.684.757 1.684 1.684 0 .926-.757 1.683-1.684 1.683"/>
        <path fill="#3D98D2" d="M24.043 84.16c-7.226-3.062-11.845 4.147-7.22 11.074 1.826 2.735 6.628 7.826 11.276 10.66 4.648 2.833 14.443 5.977 14.443 5.977l7.22-11.074s-6.743-2.433-13.471-7.09-8.483-7.952-12.248-9.547M121.038 145.027c3.474 5.41-3.337 12.576-10.404 11.195-2.79-.545-8.045-3.196-13.473-6.633-3.08-1.95-8.713-6.273-12.852-9.773-3.155-2.668-5.363-4.918-5.363-4.918l16.256-8.809s9.618 8.219 14.805 11.558c5.187 3.34 9.243 4.598 11.03 7.38M106.101 79.436c8.484-2.55 11.43 5.371 6.064 11.796-2.12 2.537-7.469 7.111-12.426 9.452-4.957 2.34-15.104 4.453-15.104 4.453L78.572 93.34s7.013-1.723 14.247-5.664c7.234-3.94 9.344-7.057 13.282-8.24"/>
        <path fill="#3D98D2" d="M42.695 87.724l40.954-5.036s7.238 20.192 10.228 33.5c2.991 13.307 3.028 25.482 3.028 25.482s-12.117 4.483-25.565 6.137c-13.449 1.654-17.92.455-21.66-3.112-3.742-3.568-8.498-8.073-8.858-23.767-.36-15.695 1.873-33.204 1.873-33.204"/>
        <path fill="#FEFEFE" d="M75.852 138.706c8.462-1.039 14.384-9.518 12.993-20.843-1.39-11.326-9.378-19.664-17.84-18.625-8.462 1.038-14.195 11.061-12.803 22.387 1.39 11.325 9.188 18.12 17.65 17.081"/>
        <path fill="#3D98D2" d="M66.58 169.765c.496 6.976-9.017 9.737-14.65 4.447-2.225-2.087-3.311-8.65-5.047-15.734-2.422-9.88-4.23-24.532-4.23-24.532l18.72 1.081s1.46 11.824 2.697 19.698c1.237 7.873 2.256 11.451 2.51 15.04M32.825 47.26c3.659-2.965 7.318-4.215 10.367-.144 3.05 4.072 5.037 11.58.675 14.889-4.364 3.308-10.988-.685-14.037-4.756-3.05-4.072-.665-7.025 2.995-9.99M77.063 40.12c-4.73-.928-8.533-.86-9.692 4.136-1.16 4.995.08 12.711 5.494 13.955 5.414 1.243 9.928-5.151 11.087-10.147 1.159-4.995-2.16-7.016-6.89-7.943"/>
        <path fill="#3D98D2" d="M37.044 55.31c5.76-7.563 36.914-9.29 44.073-5.426 7.16 3.863 12.924 26.974 4.5 36.745-8.425 9.77-33.063 11.09-44.073 5.426-11.01-5.665-10.26-29.182-4.5-36.745"/>
        <path fill="#FEFEFE" d="M68.71 67.871c7.822-.97 14.724 2.868 15.418 8.571.693 5.703-5.085 11.113-12.906 12.082-7.82.97-14.724-2.867-15.417-8.57-.693-5.704 5.085-11.113 12.906-12.083"/>
        <path fill="#4C4E5F" d="M72.249 82.688L71.463 76.107 72.922 75.953 73.708 82.533z"/>
        <path fill="#E05666" d="M72.568 78.535c2.778-.342 4.742-2.968 4.485-5.06-.257-2.093-2.557-2.206-5.334-1.865-2.778.342-4.982 1.008-4.725 3.1.256 2.093 2.796 4.166 5.574 3.825"/>
        <path fill="#FEFEFE" d="M79.602 58.472c2.416-1.229 5.504-.01 6.899 2.721 1.394 2.732.565 5.943-1.85 7.172-2.416 1.229-5.505.011-6.899-2.72-1.394-2.733-.565-5.944 1.85-7.173M55.856 61.471c2.598.599 4.154 3.463 3.475 6.399-.68 2.935-3.337 4.83-5.935 4.23-2.598-.597-4.154-3.462-3.474-6.397.679-2.935 3.336-4.83 5.934-4.232"/>
        <path fill="#4C4E5F" d="M54.936 63.247c1.128-.138 2.155.664 2.294 1.792.138 1.128-.664 2.155-1.792 2.293-1.127.138-2.154-.664-2.293-1.792-.139-1.128.663-2.155 1.791-2.293M81.127 59.88c1.128-.138 2.155.664 2.293 1.792.14 1.128-.663 2.154-1.79 2.292-1.129.139-2.155-.663-2.294-1.791-.139-1.128.663-2.155 1.79-2.293"/>
        <path fill="#84CEFD" d="M105.672 82.717c1.95-.245 3.71 1.05 3.932 2.893.22 1.844-1.182 3.537-3.132 3.783-1.95.245-3.71-1.05-3.931-2.894-.221-1.843 1.18-3.536 3.131-3.782M21.488 86.459c1.95-.245 3.71 1.05 3.931 2.893.221 1.843-1.18 3.537-3.13 3.782-1.952.245-3.712-1.05-3.933-2.893-.22-1.843 1.182-3.537 3.132-3.782"/>
        <path fill="#DADBE2" d="M84.138 16.089l2.291-2.287-2.156-2.303c-1.743-1.907-3.21-3.907-4.278-6.26l-.057.05c-.062 1.173-.72 2.314-1.839 2.951-.617.396-1.332.573-2.089.534l-.057.05c2.264 1.293 4.13 2.94 5.872 4.847l2.313 2.418z"/>
        <path fill="#DADBE2" d="M86.642 14.1l-3.594-3.998-2.231 2.264 3.494 3.886c1.348 1.5 2.954 4.123 4.166 6.197l.055-.05c.06-1.16.701-2.29 1.793-2.974.601-.392 1.347-.51 2.035-.528l.056-.05c-1.989-1.374-4.426-3.248-5.774-4.747"/>
        <path fill="#DADBE2" d="M92.665 26.56l-1.506-2.942.121-.258c.475-.878 1.465-1.357 2.425-1.254l.267.014 1.455 2.887c1.153-1.532.953-3.823-.693-5.128-1.182-.964-2.893-1.053-4.22-.273-2.104 1.27-2.407 3.96-.89 5.683.864.893 1.966 1.322 3.041 1.272M74.744 1.318l2.217 2.453-.05.281c-.232.97-1.064 1.69-2.018 1.839l-.261.055-2.153-2.412c-.718 1.778.069 3.94 1.997 4.774 1.39.625 3.066.268 4.146-.829 1.704-1.771 1.3-4.447-.61-5.72-1.066-.639-2.243-.767-3.268-.44M36.897 5.234c-2.334-1.848-3.5-1.476-5.842-1.185C34.4 2.042 36.92 1.365 39.63 2.256c1.164.357 1.661.75 2.654 1.536l1.787 1.416c.447.354.778.859.932 1.386.235.835.036 1.041.687 1.597.199.158.464.125.619-.077.155-.2.42-.234.619-.076l1.737 1.376c.397.315.463.852.153 1.255l-2.752 3.57c-.31.403-.84.47-1.238.154l-1.643-1.342c-.2-.157-.231-.426-.077-.628.155-.2.117-.514-.081-.672-.695-.55-.845-.304-1.695-.29-.586-.018-1.105-.227-1.552-.58L37.26 8.965c.892-1.157.828-2.787-.363-3.73M37.21 8.98L25.375 26.073c-.466.598-.4 1.492.19 1.915l.697.545c.596.468 1.433.32 1.899-.278l11.873-17.143L37.21 8.98zM111.818 54.24c-1.44.177-2.75-.848-2.927-2.287-.178-1.44.846-2.75 2.286-2.927 1.44-.176 2.75.848 2.927 2.287.177 1.44-.847 2.75-2.286 2.927m7.37-5.204l-1.645.202c-.853.105-1.408-.875-.879-1.553l1.02-1.306c.2-.254.155-.622-.1-.82l-1.666-1.302c-.254-.2-.622-.154-.82.1l-1.021 1.307c-.53.677-1.614.377-1.718-.477l-.203-1.646c-.04-.32-.33-.549-.652-.509l-2.098.257c-.32.04-.548.33-.509.652l.203 1.646c.105.853-.874 1.407-1.552.878l-1.307-1.022c-.254-.198-.622-.154-.82.1l-1.302 1.667c-.198.254-.153.621.102.82l1.306 1.021c.678.53.378 1.614-.476 1.719l-1.646.201c-.32.04-.548.331-.509.652l.258 2.098c.04.32.33.548.652.51l1.646-.203c.853-.104 1.407.875.878 1.552l-1.02 1.307c-.2.255-.154.622.1.82l1.666 1.302c.254.2.622.154.82-.1l1.021-1.307c.53-.677 1.614-.376 1.719.477l.202 1.646c.04.32.331.548.652.51l2.098-.258c.32-.04.548-.331.509-.652l-.203-1.646c-.105-.853.875-1.407 1.552-.877l1.307 1.02c.254.2.622.154.82-.1l1.302-1.666c.198-.254.153-.621-.1-.82l-1.308-1.021c-.678-.53-.377-1.614.476-1.719l1.646-.202c.32-.039.549-.33.51-.65l-.26-2.1c-.038-.32-.33-.547-.65-.508M5.986 46.193l3.742.202c-.153-1.083-2.318-4.425-3.523-4.49l-.219 4.288z"/>
        <path fill="#DADBE2" d="M17.348 64.25l-6.22-11.307c-1.041-1.935-1.559-4.183-1.444-6.399l-7.167-.379.221-4.26c-1.254.532-2.632 1.826-2.729 3.7-.095 1.832.57 2.85 1.716 3.594 2.457 1.54 4.503 3.655 5.935 6.21l5.95 10.78c.538 1.053 1.785 1.461 2.828.918s1.447-1.803.91-2.856"/>
        <path fill="#DADBE2" d="M5.238 49.615L8.138 49.762 8.231 48.038 5.332 47.891z"/>
        <path fill="#4C4E5F" d="M72.687 80.126c1.738-.3 3.353.602 3.606 2.017.254 1.414-.95 2.805-2.686 3.106-1.738.301-3.353-.602-3.607-2.016-.254-1.415.95-2.806 2.687-3.107"/>
        <path fill="#84CEFD" d="M44.358 145.171c-.407 0-.778-.281-.884-.704-.046-.184-.113-.436-.198-.753-2.914-10.901-4.076-21.697-3.453-32.087.032-.515.453-.91.968-.876.503.031.886.475.855.99-.61 10.185.53 20.776 3.391 31.478.09.33.159.594.207.785.125.5-.17 1.01-.659 1.137-.076.02-.152.03-.227.03"/>
    </g>
</svg>
