<svg xmlns="http://www.w3.org/2000/svg" width="127" height="185" viewBox="0 0 127 185">
    <g fill="none" fill-rule="evenodd">
        <path fill="#DADBE2" d="M118.576 184.14H2.978c-.985 0-1.791-.807-1.791-1.792s.806-1.792 1.791-1.792h115.598c.985 0 1.791.807 1.791 1.792s-.806 1.791-1.791 1.791"/>
        <path fill="#3D98D2" d="M50.192 176.168c-1.612 9.203-11.723 9.038-15.63 0-1.543-3.568-3.688-14.612-3.516-21.034.172-6.423 1.87-15.119 1.87-15.119h18.38s-1.914 8.236-1.612 17.89c.303 9.653 1.337 13.53.508 18.263M89.69 177.154c-1.256 7.888-11.333 6.573-15.241-2.465-1.543-3.568-3.513-11.597-3.34-18.02.171-6.422 1.694-16.49 1.694-16.49H89.54s-.27 6.593.033 16.246c.302 9.654.879 15.95.118 20.73"/>
        <path fill="#3D98D2" d="M38.132 86.764h44.436s5.09 24.604 6.542 40.564c1.453 15.96-.102 30.173-.102 30.173s-13.54 3.494-28.132 3.494c-14.591 0-29.184-3.494-29.184-3.494s-1.585-13.887.087-32.255c1.672-18.367 6.353-38.482 6.353-38.482"/>
        <path fill="#FEFEFE" d="M59.598 152.362c9.18 0 16.623-9.063 16.623-22.501 0-13.439-7.443-24.333-16.623-24.333-9.18 0-16.623 10.894-16.623 24.333 0 13.438 7.442 22.5 16.623 22.5"/>
        <path fill="#3D98D2" d="M28.773 39.141c4.736-2.94 9.224-3.875 12.23 1.33 3.005 5.205 4.266 14.279-1.347 17.52-5.614 3.24-12.84-2.389-15.846-7.593-3.005-5.206.227-8.316 4.963-11.257M93.951 39.141c-4.958-2.654-9.224-3.875-12.23 1.33-3.004 5.205-4.266 14.279 1.348 17.52 5.613 3.24 12.84-2.389 15.846-7.593 3.005-5.206-.005-8.603-4.964-11.257"/>
        <path fill="#3D98D2" d="M34.645 48.076c7.802-7.975 44.402-5.521 52.204 0 7.802 5.52 11.227 33.235 0 43.397-11.227 10.162-40.166 8.169-52.204 0-12.039-8.169-7.803-35.423 0-43.397"/>
        <path fill="#FEFEFE" d="M61.002 70.892c9.324 0 16.883 5.459 16.883 12.192 0 6.733-7.559 12.19-16.883 12.19-9.324 0-16.883-5.457-16.883-12.19s7.559-12.192 16.883-12.192"/>
        <path fill="#4C4E5F" d="M60.777 88.599L61.882 88.599 61.882 83.534 60.777 83.534z"/>
        <path fill="#E05666" d="M61.168 86.134c3.251 0 5.888-2.748 5.888-5.195s-2.637-2.903-5.888-2.903c-3.252 0-5.888.456-5.888 2.903s2.636 5.195 5.888 5.195"/>
        <path fill="#FEFEFE" d="M75.831 61.471c2.987-1.087 6.407.774 7.638 4.156 1.23 3.382-.193 7.006-3.18 8.093-2.987 1.087-6.406-.774-7.637-4.156-1.231-3.382.192-7.006 3.18-8.093M46.173 61.471c2.987 1.087 4.41 4.71 3.179 8.093-1.231 3.382-4.65 5.243-7.638 4.156-2.987-1.087-4.41-4.71-3.18-8.093 1.232-3.382 4.652-5.243 7.639-4.156"/>
        <path fill="#4C4E5F" d="M78.034 71.144c-2.006 0-2.839-1.747-2.999-2.67-.051-.301.15-.587.451-.64.3-.05.585.15.638.45.014.077.342 1.755 1.91 1.755 1.584 0 1.96-1.7 1.976-1.771.063-.298.355-.491.653-.429.298.062.49.351.43.65-.185.918-1.063 2.655-3.059 2.655M43.79 71.144c-2.007 0-2.84-1.747-2.999-2.67-.052-.301.15-.587.45-.64.3-.05.586.15.639.45.014.077.34 1.755 1.91 1.755 1.583 0 1.96-1.7 1.975-1.771.063-.298.356-.491.653-.429.298.062.49.351.43.65-.185.918-1.063 2.655-3.059 2.655M61.33 87.925c1.22 0 2.21.99 2.21 2.212 0 1.222-.99 2.212-2.21 2.212s-2.21-.99-2.21-2.212c0-1.221.99-2.212 2.21-2.212"/>
        <path fill="#84CEFD" d="M31.741 147.047c-.518 0-.955-.402-.99-.927-.238-3.516-.303-17.486 2.42-34.962.084-.543.592-.914 1.135-.829.542.084.913.593.83 1.135-3.16 20.28-2.41 34.388-2.402 34.521.037.548-.377 1.022-.925 1.06l-.068.002"/>
        <path fill="#F4BE19" d="M114.296 76.618L43.003 76.618 43.003 0 114.296 0.636z"/>
        <path fill="#F3A70C" d="M114.296 76.618L43.189 76.618 55.666 46.588 126.774 46.588zM43.002 76.618L10.983 76.618 10.983.636 43.002 0z"/>
        <path fill="#F4BE19" d="M11.169 76.618L43.002 76.618 31.833 46.588 0 46.588z"/>
        <path fill="#3D98D2" d="M102.964 71.275c8.799-7.646 12.906-1.294 9.35 9.024-1.405 4.073-5.714 12.274-10.5 17.71-4.787 5.436-15.7 13.515-15.7 13.515L74.14 101.476s10.059-4.859 16.823-13.391c6.765-8.532 7.917-13.26 12.001-16.81M18.697 71.828c-8.799-7.646-12.906-1.294-9.35 9.024 1.405 4.073 5.714 12.274 10.5 17.71 4.787 5.436 15.7 13.515 15.7 13.515l11.974-10.048s-10.06-4.86-16.824-13.391c-6.764-8.532-7.916-13.26-12-16.81"/>
    </g>
</svg>
