<svg xmlns="http://www.w3.org/2000/svg" width="32" height="32" viewBox="0 0 32 32" >
    <g fill="none" fill-rule="evenodd">
        <path fill="granite" fill-rule="nonzero" d="M16 0c8.731 0 15.83 6.992 15.997 15.685L32 16c0 8.731-6.992 15.83-15.685 15.997L16 32C7.163 32 0 24.838 0 16 0 7.269 6.992.17 15.685.003L16 0zm.01 1l-.306.003C7.544 1.16 1 7.825 1 16c0 8.18 6.546 14.83 14.677 14.997l.313.003.306-.003c8.054-.155 14.534-6.65 14.7-14.67L31 16.01l-.003-.306c-.155-8.054-6.65-14.534-14.68-14.7L16.01 1zm1.84 7.727c.387 0 .76.137 1.055.383l.122.112 1.592 1.626c.049.05.111.083.179.097l.069.007h1.67c.952 0 1.734.734 1.81 1.667l.005.149v8.857c0 .862-.662 1.57-1.505 1.642l-.142.006H9.295c-.862 0-1.57-.662-1.641-1.506l-.006-.142V12.95c0-1.053.814-1.915 1.848-1.992l.149-.005h1.851c.07 0 .138-.021.195-.06l.053-.044 1.593-1.626c.27-.277.63-.448 1.012-.486l.165-.009h3.336zM16 12.857c-2.297 0-4.16 1.802-4.16 4.024s1.863 4.024 4.16 4.024 4.16-1.802 4.16-4.024-1.863-4.024-4.16-4.024zm.061 1.524c1.428 0 2.584 1.12 2.584 2.5s-1.156 2.5-2.584 2.5c-1.427 0-2.584-1.12-2.584-2.5s1.157-2.5 2.584-2.5z"/>
    </g>
</svg>
