<svg xmlns="http://www.w3.org/2000/svg" width="32" height="32" viewBox="0 0 32 32" >
    <g fill="none" fill-rule="evenodd">
        <path fill="#6F6F6F" fill-rule="nonzero" d="M16 0c8.731 0 15.83 6.992 15.997 15.685L32 16c0 8.731-6.992 15.83-15.685 15.997L16 32C7.163 32 0 24.838 0 16 0 7.269 6.992.17 15.685.003L16 0zm.01 1l-.306.003C7.544 1.16 1 7.825 1 16c0 8.18 6.546 14.83 14.677 14.997l.313.003.306-.003c8.054-.155 14.534-6.65 14.7-14.67L31 16.01l-.003-.306c-.155-8.054-6.65-14.534-14.68-14.7L16.01 1zm-4.284 7c.231 0 .41.125.516.321l2.17 3.965c.054.107.09.196.09.321 0 .179-.09.34-.214.464l-1.69 1.679c-.178.196-.214.482-.071.714.48.804 1.067 1.572 1.778 2.268.712.714 1.477 1.322 2.26 1.804.23.143.515.107.711-.09l1.69-1.535c.107-.143.267-.232.462-.232.107 0 .303.107.303.107l3.949 2c.195.107.32.303.32.535-.071.983-.48 1.965-1.12 2.59-.73.732-1.762 1.089-2.936 1.089-2.401 0-5.425-1.41-7.951-3.946-3.771-3.804-5.14-8.804-2.935-11.018.623-.625 1.708-.947 2.668-1.036z"/>
    </g>
</svg>
