<svg xmlns="http://www.w3.org/2000/svg" width="32" height="32" viewBox="0 0 32 32" >
    <g fill="none" fill-rule="evenodd">
        <path fill="granite" fill-rule="nonzero" d="M16 0c8.731 0 15.83 6.992 15.997 15.685L32 16c0 8.731-6.992 15.83-15.685 15.997L16 32C7.163 32 0 24.838 0 16 0 7.269 6.992.17 15.685.003L16 0zm.01 1l-.306.003C7.544 1.16 1 7.825 1 16c0 8.18 6.546 14.83 14.677 14.997l.313.003.306-.003c8.054-.155 14.534-6.65 14.7-14.67L31 16.01l-.003-.306c-.155-8.054-6.65-14.534-14.68-14.7L16.01 1zm-.038 5.057c.224.073 8.663 4.029 8.647 4.023.006.004.011 2.61.012 4.51v.774c0 3.672-.886 8.862-8.66 10.693-7.778-1.83-8.654-6.943-8.654-10.693v-.754c-.001-1.927-.006-4.656 0-4.66-.016.005 8.474-3.833 8.655-3.893zm3.996 6.577l-.084.08-5.262 5.643-2.522-2.351c-.349-.326-.896-.306-1.221.043-.298.32-.307.805-.038 1.135l.08.086 3.242 3.022c.349.326.896.307 1.221-.042l.017-.018.024-.026 5.81-6.231c.349-.374.328-.958-.045-1.306-.344-.322-.87-.329-1.222-.035z"/>
    </g>
</svg>
