<svg xmlns="http://www.w3.org/2000/svg" width="32" height="32" viewBox="0 0 32 32" >
    <g fill="none" fill-rule="evenodd">
        <path fill="granite" fill-rule="nonzero" d="M16 0c8.731 0 15.83 6.992 15.997 15.685L32 16c0 7.97-5.826 14.579-13.453 15.798-.816.135-1.65.202-2.5.202l.316-.004-.048.001L16 32c-.15 0-.298-.002-.447-.006-.01-.002-.019-.002-.028-.002C6.908 31.742 0 24.679 0 16 0 7.269 6.992.17 15.685.003L16 0zm.01 1l-.306.003C7.544 1.16 1 7.825 1 16c0 7.452 5.432 13.634 12.546 14.802V20.625H9.484V16h4.062v-3.525c0-4.01 2.389-6.225 6.043-6.225 1.751 0 3.582.313 3.582.313V10.5h-2.018c-1.987 0-2.607 1.233-2.607 2.499V16h4.438l-.71 4.625h-3.728v10.16c6.98-1.192 12.3-7.2 12.45-14.458L31 16.01l-.003-.306c-.155-8.054-6.65-14.534-14.68-14.7L16.01 1z"/>
    </g>
</svg>
