<svg width="49" height="48" viewBox="0 0 49 48">
    <g fill="none" fill-rule="evenodd" transform="translate(.5)">
        <circle cx="24" cy="24" r="23.75" fill="#FAFAFA" stroke="#E2E2E2" stroke-width=".5"/>
        <g>
            <path fill="#FFF" fill-opacity="0" d="M0 0H24V24H0z" transform="translate(12 12)"/>
            <path fill="#121212" d="M14.378 2.321c2.553.697 4.039 2.736 4.15 5.101.038.784.035 1.1.022 1.884-.005.284.24.43.568.46 1.2.109 1.863 1.153 1.871 2.244.017 2.222.013 4.913-.005 7.135-.009 1.07-.686 1.827-1.87 2.12-1.118.276-2.265.418-3.415.539-2.078.217-4.16.255-6.245.107-1.513-.107-3.014-.292-4.491-.6C3.72 21.05 3.016 20.224 3 19.075v-5.6c.002-.49.003-.961.006-1.367.009-1.162.767-2.343 2.144-2.403.243-.01.33-.177.325-.4-.014-.598-.012-.91-.005-1.507.011-.883.13-1.571.529-2.388.811-1.666 1.925-2.682 3.892-3.157 1.494-.36 3.003-.338 4.487.067zm-3.106 1.465c-2.011.14-3.564 1.441-3.949 3.192-.071.324-.079.536-.08.817v.228c-.002 1.12.003 1.046.003 2.166 0 .71-.764 1.08-1.368 1.08-.662 0-1.143.097-1.145.7-.009 2.072-.048 5.104-.048 7.176 0 .395.203.607.617.678 1.176.202 2.688.41 3.886.503 3.063.234 6.1.1 9.106-.485.54-.105 1.07-.38 1.073-.877.004-1.045.008-5.683.004-6.692-.002-.669-.532-1.004-1.306-1.004-.72 0-1.294-.483-1.294-1.143 0-1.233.03-1.162-.005-2.393-.057-2.036-1.415-3.527-3.666-3.906-.604-.102-1.22-.082-1.828-.04zm1.137 1.609c1.47.122 2.162.776 2.461 1.874.089.324.126.482.13.816.016 1.138.007 1.013.003 2.152-.002.498-.246.84-.788.842-.906.005-3.532.005-4.396 0-.539-.003-.915-.346-.917-.842-.003-1.176.002-1.085-.002-2.262-.007-2.028 1.491-2.748 3.509-2.58zm-.58 1.701c-.67.03-1.001.165-1.03.749-.035.687-.008.77-.015 1.46-.002.204.14.3.388.296.546-.006 1.093-.007 1.639.001.244.004.386-.087.38-.297-.008-.354-.003-1.423-.005-1.46-.04-.586-.307-.716-.98-.748-.125-.006-.251-.006-.377 0z" transform="translate(12 12)"/>
        </g>
    </g>
</svg>
