<svg xmlns="http://www.w3.org/2000/svg" width="32" height="32" viewBox="0 0 32 32">
    <g fill="none" fill-rule="evenodd">
        <rect width="31" height="31" x=".5" y=".5" fill="crystal" stroke="granite" rx="15.5"/>
        <path fill="granite" d="M15.972 6.057c-.18.06-8.67 3.898-8.655 3.892-.007.005 0 3.553 0 5.415 0 3.75.876 8.862 8.653 10.693 7.775-1.83 8.661-7.021 8.661-10.693 0-1.862-.005-5.28-.012-5.284.016.006-8.423-3.95-8.647-4.023z"/>
        <g fill="crystal" stroke="crystal">
            <path d="M.95 8.009c.325-.35.871-.369 1.22-.043l2.522 2.351 5.262-5.643c.348-.373.933-.393 1.306-.045.374.348.394.932.046 1.306l-5.81 6.23-.025.027-.017.018c-.325.349-.872.368-1.22.042L.991 9.23c-.35-.326-.368-.872-.043-1.221z" transform="translate(9.93 8.04)"/>
        </g>
    </g>
</svg>
