<svg xmlns="http://www.w3.org/2000/svg" width="32" height="32" viewBox="0 0 32 32">
    <g fill="none" fill-rule="evenodd">
        <path fill="#FFF" fill-opacity="0" d="M0 0H32V32H0z"/>
        <path fill="#3D98D2" d="M16 0c8.837 0 16 7.163 16 16s-7.163 16-16 16S0 24.837 0 16 7.163 0 16 0zm.246 5.333c-.169 0-.516.02-.647.045-.13.025-.786.196-1.017.324-2.16 1.2-4.316 2.405-6.467 3.62-.826.466-1.278 1.195-1.415 2.125-.007.045-.022.09-.033.134v4.467c.024.394.042.788.075 1.181.173 2.096.781 4.03 2.153 5.676 1.053 1.262 2.38 2.149 3.875 2.807.605.267 1.564.564 2.876.893.29.073.593.066.879-.018l.393-.12c1.801-.553 3.131-1.108 3.99-1.662 2.255-1.457 3.62-3.511 4.144-6.127.152-.76.231-1.527.252-2.302.003-.12.02-.242.03-.363v-1.605c-.008-.488-.017-.976-.023-1.464-.005-.407.015-.815-.014-1.22-.068-.969-.506-1.75-1.346-2.243-2.188-1.284-4.395-2.537-6.595-3.8-.302-.175-.942-.348-1.11-.348zm3.837 7.144c.367-.41.803-.58 1.327-.413.869.277 1.142 1.38.515 2.096-.6.686-1.213 1.359-1.82 2.037l-4.158 4.637c-.574.64-1.182.666-1.794.073l-3.48-3.376c-.496-.482-.543-1.196-.114-1.681.438-.495 1.126-.5 1.634-.008L14.8 18.37l.634-.701c1.55-1.73 3.1-3.46 4.649-5.192z"/>
    </g>
</svg>
