<svg xmlns="http://www.w3.org/2000/svg" width="32" height="32" viewBox="0 0 32 32">
    <g fill="none" fill-rule="evenodd">
        <path fill="crystal" fill-opacity="0" d="M0 0H32V32H0z"/>
        <path fill="glacialBlue" d="M16 0c8.731 0 15.83 6.992 15.997 15.685L32 16c0 8.731-6.992 15.83-15.685 15.997L16 32C7.163 32 0 24.838 0 16 0 7.269 6.992.17 15.685.003L16 0zm2.196 8.727h-4.029l-.11.008c-.18.024-.349.108-.478.24L11.693 10.9l-.036.028c-.026.016-.057.024-.088.024H8.883l-.126.006c-.623.064-1.11.59-1.11 1.23v10.261l.007.103c.051.406.398.72.817.72H23.53l.103-.006c.406-.05.72-.397.72-.817V12.187l-.006-.126c-.063-.623-.59-1.11-1.23-1.11h-2.322l-.046-.005c-.03-.008-.056-.024-.078-.046l-1.886-1.925-.082-.074c-.144-.112-.322-.174-.506-.174zM16 12.857c2.297 0 4.16 1.802 4.16 4.024s-1.863 4.024-4.16 4.024-4.16-1.802-4.16-4.024 1.863-4.024 4.16-4.024zm.061 1.524c-1.427 0-2.584 1.12-2.584 2.5s1.157 2.5 2.584 2.5c1.428 0 2.584-1.12 2.584-2.5s-1.156-2.5-2.584-2.5z"/>
    </g>
</svg>
