<svg xmlns="http://www.w3.org/2000/svg" width="32" height="32" viewBox="0 0 32 32">
    <g fill="none" fill-rule="evenodd">
        <path fill="#FFF" fill-opacity="0" d="M0 0H32V32H0z"/>
        <path fill="#3D98D2" d="M16 0c8.731 0 15.83 6.992 15.997 15.685L32 16c0 8.731-6.992 15.83-15.685 15.997L16 32C7.163 32 0 24.838 0 16 0 7.269 6.992.17 15.685.003L16 0zm-4.274 8c-.96.09-2.045.41-2.668 1.036-2.206 2.214-.836 7.214 2.935 11.018C14.519 22.589 17.543 24 19.944 24c1.174 0 2.206-.357 2.935-1.09.64-.624 1.05-1.606 1.121-2.589 0-.232-.125-.428-.32-.535l-3.95-2s-.195-.107-.302-.107c-.195 0-.355.089-.462.232l-1.69 1.535c-.196.197-.48.233-.711.09-.783-.482-1.548-1.09-2.26-1.804-.711-.696-1.298-1.464-1.778-2.268-.143-.232-.107-.518.07-.714l1.69-1.679c.125-.125.214-.285.214-.464 0-.125-.035-.214-.089-.321l-2.17-3.965c-.107-.196-.285-.321-.516-.321z"/>
    </g>
</svg>
