<svg xmlns="http://www.w3.org/2000/svg" width="32" height="32" viewBox="0 0 32 32" >
    <g fill="none" fill-rule="evenodd">
        <path fill="granite" fill-rule="nonzero" d="M16 0c8.731 0 15.83 6.992 15.997 15.685L32 16c0 8.731-6.992 15.83-15.685 15.997L16 32C7.163 32 0 24.838 0 16 0 7.269 6.992.17 15.685.003L16 0zm.01 1l-.306.003C7.544 1.16 1 7.825 1 16c0 8.18 6.546 14.83 14.677 14.997l.313.003.306-.003c8.054-.155 14.534-6.65 14.7-14.67L31 16.01l-.003-.306c-.155-8.054-6.65-14.534-14.68-14.7L16.01 1zm8.072 13.463v7.217c0 .13-.047.24-.14.331-.095.092-.213.149-.354.17-2.436.324-4.907.486-7.413.486-2.496 0-4.973-.162-7.432-.486-.129-.021-.241-.078-.335-.17-.095-.091-.141-.202-.141-.331v-7.217l5.595 3.932c.624.432 1.395.647 2.313.647.917 0 1.688-.215 2.312-.647l5.595-3.932zm-7.907-4.223c2.506 0 4.977.162 7.413.485.141.022.259.079.353.17.094.092.141.203.141.332v.744c-.082.281-.288.567-.617.858l-6.02 4.174c-.33.238-.753.356-1.27.356-.518 0-.942-.118-1.271-.356l-6.02-4.174c-.33-.291-.535-.577-.617-.858v-.744c0-.13.046-.24.14-.331.095-.092.207-.149.336-.17 2.448-.324 4.925-.486 7.432-.486z"/>
    </g>
</svg>
