<svg xmlns="http://www.w3.org/2000/svg" width="32" height="32" viewBox="0 0 32 32">
    <g fill="none" fill-rule="evenodd">
        <path fill="crystal" fill-opacity="0" d="M0 0H32V32H0z"/>
        <path fill="glacialBlue" d="M16 0c8.731 0 15.83 6.992 15.997 15.685L32 16c0 8.731-6.992 15.83-15.685 15.997L16 32C7.163 32 0 24.838 0 16 0 7.269 6.992.17 15.685.003L16 0zm8.082 14.463l-5.595 3.932c-.624.432-1.395.647-2.312.647-.918 0-1.69-.215-2.313-.647l-5.595-3.932v7.217c0 .13.046.24.14.331.095.092.207.149.336.17 2.46.324 4.936.486 7.432.486 2.506 0 4.977-.162 7.413-.486.141-.021.259-.078.353-.17.094-.091.141-.202.141-.331v-7.217zm-7.907-4.223c-2.507 0-4.984.162-7.432.485-.129.022-.241.079-.335.17-.095.092-.141.203-.141.332v.744c.082.281.288.567.617.858l6.02 4.174c.33.238.753.356 1.27.356.518 0 .942-.118 1.271-.356l6.02-4.174c.33-.291.535-.577.617-.858v-.744c0-.13-.047-.24-.14-.331-.095-.092-.213-.149-.354-.17-2.436-.324-4.907-.486-7.413-.486z"/>
    </g>
</svg>
