<svg width="24" height="24" viewBox="0 0 24 24">
    <g fill="none" fill-rule="evenodd">
        <path fill="#000000" fill-rule="evenodd" d="M7.563 3l-.064.003c-1.281.119-2.475.55-3.198 1.276-2.62 2.632-1.12 8.215 3.047 12.419 2.68 2.69 5.985 4.303 8.75 4.303 1.42 0 2.658-.451 3.538-1.335.775-.756 1.277-1.929 1.364-3.128.002-.542-.264-.98-.69-1.213l-4.18-2.118-.096-.044c-.057-.024-.084-.034-.126-.049-.115-.039-.223-.063-.346-.063l-.138.007c-.316.033-.6.178-.811.409l-.032.035-1.693 1.54.063.041c-.774-.477-1.525-1.075-2.219-1.772l-.284-.29c-.463-.488-.877-1.018-1.245-1.586l-.187-.302L10.71 9.45c.264-.265.426-.6.426-.973 0-.24-.055-.421-.165-.643l-2.266-4.14C8.475 3.268 8.058 3 7.563 3zM7.51 4.394l2.228 4.07-1.759 1.747c-.417.459-.484 1.092-.176 1.595.544.91 1.196 1.747 1.953 2.488.764.767 1.6 1.434 2.467 1.968.479.295 1.072.246 1.498-.107l1.825-1.658.02-.023 4.046 2.05.004-.036c-.061.825-.427 1.679-.955 2.194-.61.613-1.493.934-2.564.934-2.363 0-5.331-1.449-7.768-3.894-3.7-3.733-4.987-8.519-3.048-10.465.42-.423 1.22-.733 2.119-.85l.11-.013z"/>
    </g>
</svg>
