<svg width="24" height="24" viewBox="0 0 24 24" >
    <g fill="none" fill-rule="evenodd">
        <path fill="#000000" fill-rule="nonzero" d="M18.736 2.557l.025.101 1.286 7.118c.05.272-.045.55-.249.735-1.08.98-3.06 1.545-5.977 1.772-2.388.186-4.517.213-6.388.08l1.683 8.848c.083.434-.202.853-.636.935-.398.076-.783-.157-.908-.531l-.028-.105-3.53-18.56c-.082-.434.203-.853.637-.935.398-.076.783.157.908.53l.027.106.138.724c.385.03.854.073.817.07 1.78.143 3.593.143 5.812-.096 2.615-.28 4.365-.706 5.196-1.226.45-.282 1.033-.054 1.187.434zM17.371 3.97l-.118.044c-1.055.378-2.492.667-4.33.881l-.399.045c-2.133.23-3.916.249-5.642.134l-.585-.044-.26-.023 1.086 5.727c1.883.163 4.075.148 6.574-.046 2.114-.165 3.625-.515 4.516-1.007l.172-.102-1.014-5.61z"/>
    </g>
</svg>
