<svg width="20" height="20" viewBox="0 0 20 20">
    <g fill="#000000" fill-rule="evenodd">
        <path fill-opacity="0" d="M0 0H20V20H0z"/>
        <path d="M8.087 2.015c.13 0 .266.027.39.07.321.114.507.387.516.732a.782.782 0 01-.513.786c-.175.07-.357.073-.54.072-.83 0-1.645-.01-2.492-.01-1.102 0-1.871.706-1.837 1.887.034 1.182.007 2.367.007 3.55v1.81c.006 1.616.038 3.823.038 4.07 0 .723.602 1.372 1.308 1.372h9.47c.182 0 .366-.004.546-.029.796-.11 1.351-.727 1.382-1.543.014-.388.006-.778.004-1.166 0-.172.02-.337.102-.49a.792.792 0 01.833-.424c.354.06.627.3.652.664.047.708.099 1.425-.061 2.122-.344 1.5-1.61 2.501-3.162 2.507-2.792.01-5.583.003-8.375.003-.366 0-.731.003-1.097-.001-1.856-.024-3.244-1.425-3.25-3.317-.011-3.45-.01-5.881 0-9.33.005-1.86 1.301-3.241 3.138-3.326.979-.045 1.96-.013 2.941-.009zm2.705 5.988c-1.013.044-1.621.69-1.628 1.723-.007 1.133-.002 2.265-.002 3.398 0 .118.005.237-.003.355-.034.495-.386.854-.823.843-.43-.01-.763-.34-.777-.827-.02-.71-.005-1.42-.005-2.13.007-.642-.018-1.285.012-1.926.08-1.712 1.423-3.034 3.11-3.08.287-.008 1.901-.01 3.219-.005l.027.077c-.047-.173-.144-.244-.221-.324-.474-.494-.949-.987-1.426-1.478-.173-.178-.294-.38-.267-.633a.72.72 0 01.453-.614c.264-.115.496-.053.71.114.07.055.131.121.193.185l2.729 2.825c.135.14.279.279.323.472.074.32.018.613-.223.862-.974 1.004-1.94 2.014-2.919 3.014-.332.34-.728.353-1.031.07-.319-.295-.33-.708.001-1.065.476-.512.97-1.008 1.454-1.512.092-.096.179-.196.311-.345-1.277-.005-2.923-.011-3.217.001z"/>
    </g>
</svg>
