<svg width="24" height="24" viewBox="0 0 24 24">
    <path fill="#000000" fill-rule="evenodd" d="M21.948 11.047c.07.625.07 1.264 0 1.916a.995.995 0 0 1-.291.604.978.978 0 0 1-.583.291l-1.707.209a1.1 1.1 0 0 0-.624.385c-.167.201-.25.434-.25.697 0 .236.063.438.188.604 0 .014.346.472 1.04 1.375.139.18.208.385.208.614a.925.925 0 0 1-.229.614c-.402.5-.853.951-1.352 1.354a.889.889 0 0 1-.625.229c-.25 0-.45-.07-.603-.209l-1.353-1.04a1.011 1.011 0 0 0-.624-.188c-.264 0-.496.087-.698.26-.2.174-.33.392-.385.656l-.208 1.666a.979.979 0 0 1-.291.583.994.994 0 0 1-.604.291c-.416.028-.735.042-.957.042-.222 0-.541-.014-.957-.042a.994.994 0 0 1-.604-.291.979.979 0 0 1-.291-.583 208.016 208.016 0 0 1-.208-1.666 1.04 1.04 0 0 0-.375-.656 1.075 1.075 0 0 0-.708-.26c-.235 0-.457.07-.666.208l-1.31 1.02c-.153.14-.354.209-.604.209a.992.992 0 0 1-.625-.23A8.91 8.91 0 0 1 4.3 18.357a.925.925 0 0 1-.23-.614c0-.23.07-.434.209-.614l.999-1.312a1.05 1.05 0 0 0 .229-.667c0-.277-.09-.52-.27-.728a1.01 1.01 0 0 0-.688-.354l-1.623-.209a.978.978 0 0 1-.583-.291.995.995 0 0 1-.291-.604 8.842 8.842 0 0 1 0-1.916.921.921 0 0 1 .27-.593.97.97 0 0 1 .604-.302l1.623-.208c.278-.042.507-.167.687-.375.18-.208.27-.451.27-.729a1.02 1.02 0 0 0-.228-.645l-1-1.312a.882.882 0 0 1-.218-.614.973.973 0 0 1 .24-.615c.402-.5.853-.95 1.352-1.353a.924.924 0 0 1 .614-.23.98.98 0 0 1 .614.21L8.191 5.3c.209.138.43.208.666.208.264 0 .5-.087.708-.26a1.04 1.04 0 0 0 .375-.657l.208-1.665a.979.979 0 0 1 .291-.583.994.994 0 0 1 .604-.292 8.828 8.828 0 0 1 1.914 0 .994.994 0 0 1 .604.292c.166.166.263.36.291.583l.208 1.665c.056.264.184.483.385.656.202.174.434.26.698.26.194 0 .402-.062.624-.187l1.353-1.04a.98.98 0 0 1 .614-.21c.229 0 .433.077.614.23.499.402.95.854 1.352 1.353.153.18.23.386.23.615 0 .229-.07.433-.209.614-.694.902-1.04 1.36-1.04 1.374a.945.945 0 0 0-.188.583c0 .264.083.496.25.698.166.201.375.336.624.406.763.097 1.332.166 1.707.208a.978.978 0 0 1 .583.292.995.995 0 0 1 .291.603zM12 15.4c.943 0 1.745-.33 2.404-.989.659-.66.988-1.46.988-2.405 0-.944-.33-1.745-.988-2.405-.66-.66-1.46-.989-2.404-.989-.943 0-1.745.33-2.404.99-.659.659-.988 1.46-.988 2.404s.33 1.746.988 2.405c.66.66 1.46.99 2.404.99z"/>
</svg>
