<svg width="26" height="23" viewBox="0 0 26 23" fill="none" xmlns="http://www.w3.org/2000/svg">
    <path d="M25.083 4.72395L25.083 3.97916L13.9111 3.97916L13.9111 4.72395L25.083 4.72395Z" fill="#5B6F80" stroke="#5B6F80" stroke-width="0.75"/>
    <path d="M16.8906 12.1719L16.8906 11.4271L1.25 11.4271L1.25 12.1719L16.8906 12.1719Z" fill="#5B6F80" stroke="#5B6F80" stroke-width="0.75"/>
    <path d="M25.083 19.6198L25.083 18.875L9.44238 18.875L9.44238 19.6198L25.083 19.6198Z" fill="#5B6F80" stroke="#5B6F80" stroke-width="0.75"/>
    <path d="M7.58008 4.35156C7.58008 2.48958 9.06966 1 10.9316 1C12.7936 1 14.2832 2.48958 14.2832 4.35156C14.2832 6.21354 12.7936 7.70312 10.9316 7.70312C9.06966 7.70312 7.58008 6.21354 7.58008 4.35156ZM13.5384 4.35156C13.5384 2.89922 12.384 1.74479 10.9316 1.74479C9.4793 1.74479 8.32487 2.89922 8.32487 4.35156C8.32487 5.80391 9.4793 6.95833 10.9316 6.95833C12.384 6.95833 13.5384 5.80391 13.5384 4.35156Z" fill="#5B6F80" stroke="#5B6F80" stroke-width="0.75"/>
    <path d="M16.5176 11.7995C16.5176 9.93749 18.0072 8.44791 19.8691 8.44791C21.7311 8.44791 23.2207 9.93749 23.2207 11.7995C23.2207 13.6614 21.7311 15.151 19.8691 15.151C18.0072 15.151 16.5176 13.6614 16.5176 11.7995ZM22.4759 11.7995C22.4759 10.3471 21.3215 9.1927 19.8691 9.1927C18.4168 9.1927 17.2624 10.3471 17.2624 11.7995C17.2624 13.2518 18.4168 14.4062 19.8691 14.4062C21.3215 14.4062 22.4759 13.2518 22.4759 11.7995Z" fill="#5B6F80" stroke="#5B6F80" stroke-width="0.75"/>
    <path d="M3.11133 19.2474C3.11133 17.3854 4.60091 15.8958 6.46289 15.8958C8.32487 15.8958 9.81445 17.3854 9.81445 19.2474C9.81445 21.1094 8.32487 22.599 6.46289 22.599C4.60091 22.599 3.11133 21.1094 3.11133 19.2474ZM9.06966 19.2474C9.06966 17.7951 7.91523 16.6406 6.46289 16.6406C5.01055 16.6406 3.85612 17.7951 3.85612 19.2474C3.85612 20.6997 5.01055 21.8542 6.46289 21.8542C7.91523 21.8542 9.06966 20.6997 9.06966 19.2474Z" fill="#5B6F80" stroke="#5B6F80" stroke-width="0.75"/>
    <path d="M7.95312 4.72395L7.95312 3.97916L1.25 3.97916L1.25 4.72395L7.95312 4.72395Z" fill="#5B6F80" stroke="#5B6F80" stroke-width="0.75"/>
    <path d="M25.083 12.1719L25.083 11.4271L22.8486 11.4271L22.8486 12.1719L25.083 12.1719Z" fill="#5B6F80" stroke="#5B6F80" stroke-width="0.75"/>
    <path d="M3.48437 19.6198L3.48438 18.875L1.25 18.875L1.25 19.6198L3.48437 19.6198Z" fill="#5B6F80" stroke="#5B6F80" stroke-width="0.75"/>
</svg>
