<svg width="17" height="16" viewBox="0 0 17 16">
    <path fill="#000000" d="M5.383 9.869c-.066-.104-.066-.206 0-.305.055-.1.15-.154.287-.163.005-.004.115-.011.33-.02.213-.01.512-.02.896-.03.383-.012.751-.018 1.104-.018.353 0 .721.006 1.104.017l.897.03c.214.01.324.017.329.021.126.01.222.063.287.163.066.1.066.2 0 .305-.267.424-.6.865-1.002 1.32-.4.457-.711.789-.93.997-.22.207-.367.34-.443.4-.07.054-.151.08-.242.08-.09 0-.171-.026-.242-.08-.076-.06-.223-.193-.443-.4-.219-.208-.53-.54-.93-.996-.401-.456-.735-.897-1.002-1.321zM10.617 6.131c.066.104.066.206 0 .305-.055.1-.15.154-.287.163-.005.004-.115.011-.33.02-.213.01-.512.02-.896.03-.383.012-.751.018-1.104.018-.353 0-.721-.006-1.104-.017l-.897-.03c-.214-.01-.324-.017-.329-.021-.126-.01-.222-.063-.287-.163-.066-.1-.066-.2 0-.305.267-.424.6-.865 1.002-1.32.4-.457.711-.789.93-.997.22-.207.367-.34.443-.4.07-.054.151-.08.242-.08.09 0 .171.026.242.08.076.06.223.193.443.4.219.208.53.54.93.996.401.456.735.897 1.002 1.321z" transform="translate(.5)"/>
</svg>
