<svg width="19" height="4" viewBox="0 0 19 4" fill="none" xmlns="http://www.w3.org/2000/svg">
    <path fill="#431AD8" fill-rule="evenodd" clip-rule="evenodd" d="M1.66667 3.33333C2.58714 3.33333 3.33333 2.58714 3.33333 1.66667C3.33333 0.746192 2.58714 0 1.66667 0C0.746192 0 0 0.746192 0 1.66667C0 2.58714 0.746192 3.33333 1.66667 3.33333ZM10.8333 1.66667C10.8333 2.58714 10.0871 3.33333 9.16667 3.33333C8.24619 3.33333 7.5 2.58714 7.5 1.66667C7.5 0.746192 8.24619 0 9.16667 0C10.0871 0 10.8333 0.746192 10.8333 1.66667ZM18.3333 1.66667C18.3333 2.58714 17.5871 3.33333 16.6667 3.33333C15.7462 3.33333 15 2.58714 15 1.66667C15 0.746192 15.7462 0 16.6667 0C17.5871 0 18.3333 0.746192 18.3333 1.66667Z" />
</svg>
