<svg width="24" height="24" viewBox="0 0 24 24">
    <path fill="#000000" fill-rule="evenodd" d="M10.325 10.328c-.463.462-.687 1.01-.687 1.676 0 .665.224 1.214.687 1.676.463.464 1.01.688 1.675.688s1.212-.224 1.675-.688a2.266 2.266 0 0 0 .687-1.676c0-.665-.226-1.214-.687-1.676A2.26 2.26 0 0 0 12 9.64a2.26 2.26 0 0 0-1.675.688zm-1.088 4.44c-.755-.754-1.138-1.685-1.138-2.764 0-1.08.383-2.009 1.138-2.764.755-.755 1.685-1.138 2.763-1.138 1.079 0 2.008.383 2.763 1.138.754.755 1.137 1.684 1.137 2.764 0 1.079-.382 2.01-1.137 2.765-.755.755-1.685 1.137-2.763 1.137-1.078 0-2.007-.382-2.763-1.137zm1.63 4.08c.005 0 .067.505.186 1.441l.05.091a.154.154 0 0 0 .104.049c.322.02.6.032.793.032.193 0 .47-.013.833-.035a.192.192 0 0 0 .063-.046l.05-.09.192-1.537c.098-.476.302-.823.617-1.095.628-.541 1.585-.548 2.183-.1l1.257.969.14.025a7.75 7.75 0 0 0 1.174-1.168l.008-.182c-.534-.697-.813-1.06-.96-1.28l-.005.004a1.674 1.674 0 0 1-.327-1.019 1.801 1.801 0 0 1 1.41-1.75l1.648-.205c.022-.003.046-.009.086-.049a.155.155 0 0 0 .05-.105 7.365 7.365 0 0 0 0-1.59.146.146 0 0 0-.048-.1c-.042-.042-.066-.048-.092-.051a95.692 95.692 0 0 1-1.576-.193l-.11-.022a1.887 1.887 0 0 1-.962-.625 1.755 1.755 0 0 1-.406-1.135c0-.369.112-.715.327-1l.005.004c.147-.22.426-.583.96-1.28l.033-.097a6.698 6.698 0 0 0-1.174-1.218c-.125-.042-.15-.034-.182-.008l-1.34 1.02c-.759.43-1.537.332-2.1-.153a1.834 1.834 0 0 1-.605-1.03l-.253-1.691a.153.153 0 0 0-.104-.049 7.364 7.364 0 0 0-1.591 0 .148.148 0 0 0-.097.049l-.05.09-.193 1.537c-.07.45-.283.822-.615 1.1a1.823 1.823 0 0 1-2.19.098L6.802 5.48l-.008.007-.17.004A7.495 7.495 0 0 0 5.49 6.625l-.05.105.966 1.29c.239.303.37.674.37 1.062 0 .44-.153.845-.438 1.177-.286.33-.667.538-1.102.603l-1.514.195a.144.144 0 0 0-.102.049 6.373 6.373 0 0 0-.039 1.698.152.152 0 0 0 .048.097c.042.042.066.048.092.051l1.5.192c.427.042.82.245 1.116.586.286.332.438.738.438 1.177 0 .401-.13.779-.376 1.09L5.45 17.3c.375.5.756.88 1.173 1.217.053.04.08.04.094.04l1.294-.97c.78-.527 1.616-.452 2.234.064.333.278.545.65.612 1.076l.01.121zm.199 3.112a1.72 1.72 0 0 1-1.052-.494 1.667 1.667 0 0 1-.487-.986c-.13-1.026-.175-1.379-.19-1.52a.196.196 0 0 0-.078-.128c-.11-.094-.164-.121-.347 0l-1.165.911c-.456.418-1.417.504-2.082-.023a9.03 9.03 0 0 1-1.373-1.37 1.612 1.612 0 0 1-.38-1.05c0-.38.12-.738.351-1.037l.92-1.207a.21.21 0 0 0 .054-.149.234.234 0 0 0-.063-.17.164.164 0 0 0-.127-.065l-1.521-.194a1.674 1.674 0 0 1-.985-.49 1.694 1.694 0 0 1-.488-1.01 8.96 8.96 0 0 1 0-1.94c.02-.35.18-.708.459-.999.277-.287.63-.462 1.021-.51l1.492-.191a.232.232 0 0 0 .15-.087.235.235 0 0 0 .062-.169c0-.038-.008-.07-.047-.12l-.93-1.221a1.557 1.557 0 0 1-.359-1.055 1.68 1.68 0 0 1 .404-1.042 9.106 9.106 0 0 1 1.352-1.35c.569-.483 1.478-.498 2.086-.03l1.214.944c.084.051.19.062.303-.033a.195.195 0 0 0 .078-.134l.19-1.513c.045-.373.214-.715.488-.988.272-.272.62-.442 1.009-.488a9.157 9.157 0 0 1 1.94-.001c.398.047.747.217 1.02.491.272.271.442.613.488.986l.192 1.538a.373.373 0 0 0 .094.118c.047.04.083.054.141.054.01 0 .06-.003.157-.052l1.198-.921a1.687 1.687 0 0 1 2.102.042c.485.39.945.849 1.35 1.351.245.29.381.659.381 1.05 0 .38-.12.737-.353 1.037-.385.503-.652.852-.8 1.048v.008l-.153.205c-.019.142-.005.183.034.23a.35.35 0 0 0 .15.11 112.4 112.4 0 0 0 1.495.183c.385.048.726.218.997.49a1.7 1.7 0 0 1 .489 1.01c.07.636.07 1.286 0 1.94a1.702 1.702 0 0 1-.49 1.021c-.27.272-.61.441-.984.488l-1.58.192c.01.002-.031.029-.076.082a.214.214 0 0 0-.054.155l.159.29c.144.191.415.547.814 1.067.231.299.352.657.352 1.036 0 .392-.136.76-.394 1.064-.39.486-.85.946-1.352 1.35-.51.476-1.564.504-2.132-.006l-1.202-.925c-.01-.007-.154-.04-.25.041a.3.3 0 0 0-.104.183l-.181 1.473a1.67 1.67 0 0 1-.49.988c-.271.272-.62.442-1.009.489-.447.03-.758.043-.974.043-.216 0-.528-.013-.934-.04z"/>
</svg>
