<svg width="24" height="24"  viewBox="0 0 24 24">
    <path fill="#000000" fill-rule="evenodd" d="M10.049 20.305c-.701-.406-1.469-.96-2.283-1.65-.82-.693-1.676-1.614-2.544-2.738a19.727 19.727 0 0 1-2.195-3.563c-.642-1.377-.985-2.67-1.023-3.847-.04-1.236.2-2.266.711-3.06a5.256 5.256 0 0 1 1.928-1.804 5.068 5.068 0 0 1 2.578-.622c1.074 0 2.064.311 2.925.926.632.437 1.192 1.207 1.644 1.798.074.098.145.192.21.284.055-.077.113-.157.177-.242.468-.631 1.029-1.422 1.674-1.868C14.723 3.31 15.737 3 16.863 3c.72 0 1.412.138 2.061.409a4.927 4.927 0 0 1 1.743 1.244c.492.542.864 1.19 1.103 1.926.241.74.292 1.63.155 2.642-.133.974-.456 2.02-.963 3.107a19.8 19.8 0 0 1-2.198 3.568c-.864 1.121-1.72 2.042-2.543 2.74-.815.688-1.582 1.246-2.277 1.655-.82.483-1.44.709-1.95.709-.508 0-1.126-.221-1.945-.695z"/>
</svg>
