<svg width="24" height="24" viewBox="0 0 24 24">
    <g fill="none" fill-rule="evenodd">
        <path fill="#000000" d="M18 3c1.657 0 3 1.343 3 3s-1.343 3-3 3c-.891 0-1.692-.389-2.241-1.006l-6.86 3.692c.066.248.101.507.101.776 0 .203-.02.402-.059.595l-.167-.078 6.865 3.169C16.19 15.449 17.042 15 18 15c1.657 0 3 1.343 3 3s-1.343 3-3 3-3-1.343-3-3c0-.204.02-.403.059-.595l.37.17-7.07-3.262c-.548.7-1.4 1.149-2.359 1.149-1.657 0-3-1.344-3-3 0-1.657 1.343-3 3-3 .892 0 1.693.389 2.242 1.006l-.178.096 7.037-3.79C15.035 6.529 15 6.269 15 6c0-1.657 1.343-3 3-3zm0 13.385c-.892 0-1.615.723-1.615 1.615s.723 1.615 1.615 1.615 1.615-.723 1.615-1.615-.723-1.615-1.615-1.615zM6 10.846c-.892 0-1.615.723-1.615 1.616 0 .892.723 1.615 1.615 1.615s1.615-.723 1.615-1.615c0-.893-.723-1.616-1.615-1.616zm12-6.461c-.892 0-1.615.723-1.615 1.615S17.108 7.615 18 7.615 19.615 6.892 19.615 6 18.892 4.385 18 4.385z"/>
    </g>
</svg>
