<svg width="24" height="24" viewBox="0 0 24 24">
    <path fill="#000000" fill-rule="evenodd" d="M5.546 5.139a3.47 3.47 0 0 0-1.28 1.206c-.322.504-.473 1.213-.445 2.11.03.954.323 2.03.867 3.196A17.876 17.876 0 0 0 6.69 14.9c.792 1.027 1.56 1.858 2.286 2.47.734.62 1.413 1.114 2.02 1.464.735.425.99.444 1 .444.003 0 .26-.02.988-.45.607-.358 1.288-.854 2.026-1.478.728-.615 1.497-1.446 2.287-2.47a17.989 17.989 0 0 0 2.003-3.25c.435-.935.712-1.82.821-2.629.105-.766.075-1.41-.089-1.915a3.573 3.573 0 0 0-.743-1.308 3.075 3.075 0 0 0-1.1-.791 3.357 3.357 0 0 0-1.326-.263c-.74 0-1.372.192-1.936.585-.488.337-.91.993-1.263 1.47-.527.709-.595.957-.68 1.1-.086.143-.435.84-1.009.808-.574-.031-.865-.554-.98-.706-.114-.153-.246-.66-.678-1.223-.34-.447-.765-1.088-1.255-1.427-.575-.41-1.226-.585-1.926-.586-.585 0-1.1.13-1.59.395zm4.503 15.166c-.701-.406-1.469-.96-2.283-1.65-.82-.693-1.676-1.614-2.544-2.738a19.727 19.727 0 0 1-2.195-3.563c-.642-1.377-.985-2.67-1.023-3.847-.04-1.236.2-2.266.711-3.06a5.256 5.256 0 0 1 1.928-1.804 5.068 5.068 0 0 1 2.578-.622c1.074 0 2.064.311 2.925.926.632.437 1.192 1.207 1.644 1.798.074.098.145.192.21.284.055-.077.113-.157.177-.242.468-.631 1.029-1.422 1.674-1.868C14.723 3.31 15.737 3 16.863 3c.72 0 1.412.138 2.061.409a4.927 4.927 0 0 1 1.743 1.244c.492.542.864 1.19 1.103 1.926.241.74.292 1.63.155 2.642-.133.974-.456 2.02-.963 3.107a19.8 19.8 0 0 1-2.198 3.568c-.864 1.121-1.72 2.042-2.543 2.74-.815.688-1.582 1.246-2.277 1.655-.82.483-1.44.709-1.95.709-.508 0-1.126-.221-1.945-.695z"/>
</svg>
