<svg  width="48" height="61" viewBox="0 0 48 61">
    <path fill='palouseGreen' fill-rule="evenodd" d="M44.34 53.68c2.021 0 3.66 1.639 3.66 3.66S46.361 61 44.34 61H3.66C1.639 61 0 59.361 0 57.34s1.639-3.66 3.66-3.66h40.68zM31.886 0c.854-.001 1.7.074 2.454.51 1.443.833 2.11 2.122 2.106 3.805-.011 3.795-.003 7.59-.003 11.385 0 1.31.034 2.62-.011 3.93-.026.73.266.917.934.908 2.134-.03 4.27-.045 6.402.001 2.66.058 4.49 2.2 4.202 4.839-.118 1.092-.688 1.927-1.429 2.68-2.292 2.336-4.574 4.68-6.86 7.02-3.883 3.978-7.772 7.949-11.646 11.935-1.46 1.504-3.188 2.069-5.222 1.656-1.178-.24-2.093-.922-2.924-1.777-4.096-4.208-8.206-8.402-12.31-12.6l-6.203-6.349C.306 26.848-.224 25.56.09 24.011c.419-2.062 2.056-3.431 4.192-3.473 2-.039 4.001-.007 6.002-.012 1.347-.003 1.354-.008 1.354-1.428.004-4.924.023-9.849-.009-14.773-.01-1.58.531-2.81 1.835-3.676C14.28.109 15.201 0 16.146 0h8.003c2.58 0 5.158.003 7.737-.001z"/>
</svg>
