 <svg max-width="100%" height="auto" viewBox="0 0 126 26" fill="none" xmlns="http://www.w3.org/2000/svg">
      <path
        d="M45.1367 6.33238H51.1647C54.3257 6.33238 57.0457 7.44986 57.0457 11.1003C57.0457 13.3352 55.8695 14.9742 53.6641 15.4212L57.6338 22.0516H53.5171L50.2826 15.7937H48.5183V22.0516H45.0632V6.33238H45.1367ZM48.5183 12.8138H50.5031C51.7528 12.8138 53.3701 12.7393 53.3701 11.0258C53.3701 9.46132 51.9733 9.23782 50.7236 9.23782H48.5183V12.8138ZM60.5743 6.33238H71.0865V9.53582H63.9558V12.4413H70.719V15.6447H63.9558V18.8481H71.4541V22.0516H60.5743V6.33238ZM75.3502 6.33238H80.4961C85.4949 6.33238 89.6851 8.49284 89.6851 14.2292C89.6851 19.2951 85.5684 22.0516 80.9372 22.0516H75.3502V6.33238ZM78.7318 18.8481H80.4961C83.6571 18.8481 86.083 17.6562 86.083 14.0802C86.083 11.0258 83.6571 9.53582 80.7901 9.53582H78.8053V18.8481H78.7318ZM92.9932 6.33238H96.4483V22.0516H92.9932V6.33238ZM100.638 6.33238H106.446C109.166 6.33238 112.106 6.92837 112.106 10.3553C112.106 12.1433 111.004 13.3352 109.46 13.8567V13.9312C111.518 14.2292 112.841 15.7192 112.841 17.8052C112.841 21.0831 109.754 22.2006 107.034 22.2006H100.712V6.33238H100.638ZM104.02 12.5903H106.519C107.549 12.5903 108.651 12.1433 108.651 10.8768C108.651 9.53582 107.402 9.23782 106.372 9.23782H104.02V12.5903ZM104.02 19.1461H107.108C108.21 19.1461 109.386 18.6991 109.386 17.2837C109.386 15.7937 107.769 15.5702 106.593 15.5702H104.02V19.1461ZM123.574 10.1318C123.06 9.38682 121.957 9.08882 121.075 9.08882C120.119 9.08882 118.796 9.53582 118.796 10.7278C118.796 13.5587 125.927 11.7708 125.927 17.2837C125.927 20.7851 123.133 22.4241 119.972 22.4241C117.987 22.4241 116.223 21.8281 114.753 20.4126L117.179 17.7307C117.914 18.6991 119.017 19.2206 120.193 19.2206C121.295 19.2206 122.545 18.6991 122.545 17.5817C122.545 14.6762 115.267 16.2407 115.267 11.0258C115.267 7.67335 118.134 5.88539 121.222 5.88539C122.986 5.88539 124.677 6.33238 126 7.52435L123.574 10.1318ZM18.5988 4.9169L27.4938 10.9513V13.1117V19.5931L20.4366 16.0172L18.5988 15.1232L16.761 16.0172L9.7038 19.5931V13.1117V10.9513L18.5988 4.9169ZM18.5988 0L0.22072 12.4413C-0.146841 12.6648 0.00018356 13.1117 0.367745 13.1117H5.66063V25.6275C5.66063 25.851 5.80765 26 6.02819 26C6.1017 26 6.17521 26 6.17521 25.9255L18.5988 19.6676L31.0224 25.9255C31.0959 25.9255 31.0959 26 31.1694 26C31.3899 26 31.5369 25.851 31.5369 25.6275V13.1117H36.7563C37.1239 13.1117 37.2709 12.6648 36.9768 12.4413L18.5988 0Z"
        fill="white"
      />
    </svg>