<svg width="24" height="24" viewBox="0 0 24 24">
    <g fill="none" fill-rule="evenodd">
        <path fill="crystal" fill-opacity="0" d="M0 0H24V24H0z"/>
        <path fill="obsidian" d="M8.376 7c.87.014 1.74.011 2.608.001.545-.006.99.184 1.358.565.378.39.77.77 1.142 1.165.175.186.37.27.63.262.42-.013.84-.012 1.26.002.942.03 1.612.665 1.616 1.575.012 2.498.015 4.996-.002 7.494-.007 1.068-.86 1.877-1.967 1.931-.15.007-.3.003-.45.003h-5.08c-1.754 0-3.508-.002-5.262.002-.303 0-.599-.029-.884-.127-.794-.275-1.331-.979-1.336-1.83-.012-2.44-.012-4.88 0-7.32.004-1.064.899-1.754 1.8-1.733.404.01.81-.02 1.213.006.392.025.686-.083.941-.38.306-.355.658-.672.981-1.013.387-.408.852-.612 1.432-.603zm.112 1.233c-.26-.003-.458.075-.633.26-.342.364-.71.705-1.045 1.074-.423.467-.933.698-1.583.664-.449-.024-.9-.014-1.349 0-.379.01-.539.175-.56.534-.006.086-.003.173-.003.26v6.713c0 .13-.005.26.01.39.041.326.275.555.612.596.148.017.299.011.449.011h5.08c1.768 0 3.537.003 5.305 0 .683-.001.913-.224.914-.887.003-2.354.002-4.707 0-7.06 0-.493-.067-.556-.564-.561-.39-.004-.78-.009-1.169 0-.53.013-.96-.177-1.317-.546-.388-.401-.787-.794-1.172-1.197-.164-.172-.348-.252-.592-.25-.794.008-1.589.01-2.383 0zM9.5 10.75c1.795 0 3.25 1.455 3.25 3.25s-1.455 3.25-3.25 3.25S6.25 15.795 6.25 14s1.455-3.25 3.25-3.25zm0 1.158c-1.156 0-2.092.936-2.092 2.092 0 1.156.936 2.092 2.092 2.092 1.156 0 2.092-.936 2.092-2.092 0-1.156-.936-2.092-2.092-2.092zM19.358 4c.307.006.555.202.578.518l.018.405.004.813c.007.382.017.42.348.428l.781.004c.077 0 .157.002.243.005.413.012.65.224.669.578.02.371-.225.64-.64.663-.358.02-.618 0-.978.004l-.164.003c-.252.012-.254.07-.26.434l-.002.782c-.002.13-.006.261-.015.39-.023.326-.302.56-.604.553-.288-.005-.53-.22-.587-.527l-.01-.353-.01-.736c-.002-.302-.24-.545-.534-.545l-.847-.007c-.121-.004-.197-.008-.228-.014-.334-.058-.535-.308-.529-.628.007-.344.23-.58.602-.597.259-.012.52-.008.78-.007l.39-.002c.332-.006.353-.027.363-.363l.014-1.06c.004-.12.008-.211.015-.247.058-.313.294-.5.603-.494z"/>
    </g>
</svg>
