<svg width="24" height="24" viewBox="0 0 24 24">
    <g fill="none" fill-rule="evenodd">
        <path fill="crystal" fill-opacity="0" d="M0 0H24V24H0z"/>
        <path fill="obsidian" d="M20.57 8.006c-.132.086-2.572 2.714-3.74 3.92-.26.27-.259.288.013.604 1.158 1.343 3.61 4.409 3.727 4.34V8.006zM3.543 17.063c1.293-1.493 2.808-3.007 4.148-4.555C6.419 11.174 4.887 9.46 3.543 8.05c-.139.713-.097 8.657 0 9.012zm16.17 1.452c-1.454-1.68-2.815-3.25-4.172-4.825-.153-.177-.272-.177-.43-.01-.417.443-.838.88-1.268 1.305-1.184 1.166-2.695 1.16-3.867-.011-.285-.285-.56-.585-.841-.875-.347-.358-.352-.362-.67.003-1.177 1.354-3.87 4.225-3.848 4.413h15.095zM3.842 5.868c.064.25 4.812 5.177 7.05 7.525.097.103.196.206.305.293.464.371.965.376 1.424.003.17-.138.322-.304.477-.463 2.176-2.232 6.888-7.077 7.157-7.358H3.842zM22 18.05c.012 1.126-.97 1.883-1.875 1.883-.29 0-16.025.067-16.173.067-1.165 0-1.93-1.039-1.947-2.393-.013-.997.005-11.602 0-11.934C1.992 4.876 2.836 4 3.619 4h16.234C21.157 4 22 5.065 22 6.13v11.92z"/>
    </g>
</svg>
