<svg xmlns="http://www.w3.org/2000/svg" width="187" height="121" viewBox="0 0 187 121">
    <g fill="none" fill-rule="evenodd" transform="translate(.43 1)">
        <ellipse cx="92.863" cy="115.465" fill="#EFF0F3" rx="92.863" ry="4.422"/>
        <g>
            <g transform="translate(31.975) translate(0 34.167)">
                <path fill="#F4BE19" d="M84.36 0c0 13.902 11.269 25.172 25.17 25.172 3.701 0 7.215-.799 10.38-2.233v54.444c0 2.061-1.671 3.732-3.733 3.732H14.313c-2.062 0-3.733-1.67-3.733-3.732V3.733C10.58 1.67 12.251 0 14.313 0h70.046z"/>
                <rect width="33.504" height="81.115" fill="#F3A70C" rx="3.732"/>
                <path fill="#FFDB6E" d="M8.817 0L26.451 0 26.451 37.031 23.496 34.904 20.236 37.031 17.634 34.904 14.235 37.031 11.046 35.426 8.817 37.031z"/>
                <rect width="44.084" height="28.214" x="44.084" y="42.321" fill="#FFF" stroke="#DADBE2" stroke-width="1.866" rx="1.866"/>
                <rect width="37.031" height="3.527" x="47.611" y="47.611" fill="#DADBE2" rx="1.763"/>
                <rect width="37.031" height="3.527" x="47.611" y="54.665" fill="#DADBE2" rx="1.763"/>
                <rect width="37.031" height="3.527" x="47.611" y="61.718" fill="#DADBE2" rx="1.763"/>
            </g>
            <g fill="#DADBE2">
                <path fill-rule="nonzero" d="M49.691 5.979C35.71-4.18 16.138-1.081 5.98 12.902c-10.159 13.983-7.06 33.554 6.923 43.712 13.983 10.16 33.554 7.06 43.712-6.923 10.16-13.982 7.06-33.553-6.923-43.712zm-4.798 6.605c10.335 7.508 12.626 21.974 5.117 32.309C42.5 55.228 28.036 57.519 17.7 50.01 7.367 42.5 5.076 28.036 12.585 17.7c7.508-10.334 21.974-12.625 32.309-5.116z" transform="translate(31.975) translate(76.362 .45)"/>
                <path d="M47.292 53.312c2.432-1.767 5.835-1.228 7.602 1.204l18.794 25.868c1.767 2.432 1.228 5.836-1.204 7.603-2.432 1.766-5.835 1.227-7.602-1.205L46.088 60.914c-1.767-2.431-1.228-5.835 1.204-7.602z" transform="translate(31.975) translate(76.362 .45)"/>
            </g>
            <path stroke="#8F9096" stroke-linecap="round" stroke-width="2.88" d="M138.784 31.446C138.784 14.538 125.078.83 108.17.83" transform="translate(31.975)"/>
            <path stroke="#979797" stroke-linecap="round" stroke-width="2.88" d="M129.94 53.896L151.354 82.992" transform="translate(31.975)"/>
            <path fill="#84CEFD" d="M97.313 21.205c5.818.533 11.319 2.812 16.504 6.84 2.283 1.772 4.802 5.785 7.557 12.04.32.728 1.17 1.058 1.898.737.335-.147.601-.417.745-.754 4.075-9.578 2.195-16.982-5.642-22.212-7.64-5.097-14.919-4.832-21.839.798-.617.502-.71 1.409-.208 2.026.244.3.6.49.985.525z" transform="translate(31.975)"/>
        </g>
    </g>
</svg>
