<svg width="24" height="24" viewBox="0 0 24 24">
    <g fill="none" fill-rule="evenodd">
        <path fill="crystal" fill-opacity="0" d="M0 0H24V24H0z"/>
        <path fill="obsidian" d="M16.405 2.524c1.708.547 2.478 2.29 1.396 3.566-.356.42-.476.839-.813 1.287.57.433 1.14.802 1.648 1.239.799.688 1.553 1.41 2.118 2.277 1.227 1.884 1.622 3.883.849 5.994-.642 1.752-1.984 2.983-3.73 3.855-1.46.73-3.041 1.084-4.696 1.21-2.063.157-4.064-.065-5.992-.76-1.77-.637-3.224-1.65-4.203-3.156-1.21-1.863-1.229-3.825-.453-5.821.47-1.207 1.275-2.22 2.245-3.13.553-.52 1.145-1 1.781-1.434.399-.272.548-.229.22-.687l-.713-.993c-.957-1.333-.285-2.856 1.342-3.447 2.221-.808 7.196-.58 9.001 0zm-8.324 1.57c-.688.179-.808.52-.395 1.076.573.77 1 1.566 1.523 2.364.082.125.219.236.19.424l-.43.234c-1.21.655-2.296 1.447-3.231 2.407-.658.676-1.186 1.422-1.518 2.28-.905 2.337-.153 4.53 2.05 5.973.509.333 1.057.6 1.64.804 2.101.737 4.261.822 6.454.456 1.237-.206 2.398-.605 3.417-1.292 1.315-.888 2.2-2.03 2.349-3.557.116-1.201-.196-2.323-.86-3.365-.598-.935-1.415-1.694-2.306-2.394-.76-.596-1.599-1.089-2.526-1.573.135-.206.233-.371.347-.528.543-.746.904-1.454 1.45-2.198.4-.547.278-.898-.406-1.077-2.676-.698-5.072-.732-7.748-.035zm4.045 5.397c.383-.015.739.195.774.599.046.514.31.649.729.707.185.025.368.128.535.227.354.21.472.492.37.815-.106.34-.34.491-.797.479-.275-.053-.605-.114-.934-.178-.303-.06-.6-.028-.89.073-.15.053-.31.122-.316.323-.005.192.114.305.278.358.235.075.472.147.713.2.363.08.722.173 1.07.31.623.246 1.072.66 1.137 1.38.066.734-.221 1.32-.81 1.742-.058.041-.117.087-.182.11-.46.162-.847.344-.867.979-.01.333-.382.517-.726.507-.373-.012-.697-.213-.707-.606-.015-.563-.34-.623-.734-.673-.318-.04-.625-.13-.914-.271-.391-.193-.556-.535-.447-.885.103-.333.45-.513.868-.434.572.109 1.132.29 1.722.286.287-.002.567-.031.82-.182.149-.09.333-.174.308-.4-.021-.199-.199-.258-.344-.3-.34-.1-.685-.175-1.031-.248-.296-.062-.583-.152-.858-.277-.612-.28-1.018-.746-1.044-1.46-.028-.73.27-1.315.887-1.698.12-.075.25-.141.385-.18.17-.047.222-.152.225-.318.002-.11.018-.22.042-.326.096-.42.348-.643.738-.659z"/>
    </g>
</svg>
