<svg width="165" height="160" viewBox="0 0 165 160">
    <g fill="none" fill-rule="evenodd" transform="translate(.253)">
        <ellipse cx="77.393" cy="122.337" fill="#EFF0F3" rx="58.517" ry="2.517"/>
        <path fill="#F4BE19" d="M95.766 60.926c0 10.286 8.339 18.625 18.625 18.625 2.738 0 5.338-.591 7.68-1.652v40.142c0 1.603-1.3 2.903-2.904 2.903H44.08c-1.604 0-2.903-1.3-2.903-2.903V63.829c0-1.603 1.3-2.903 2.903-2.903h51.686z"/>
        <rect width="24.79" height="60.018" x="33.348" y="60.926" fill="#F3A70C" rx="2.903"/>
        <path fill="#FFDB6E" d="M39.872 60.926L52.919 60.926 52.919 88.325 50.734 86.752 48.321 88.325 46.396 86.752 43.881 88.325 41.521 87.138 39.872 88.325z"/>
        <rect width="32.618" height="20.876" x="65.967" y="92.24" fill="#FFF" stroke="#DADBE2" stroke-width="1.452" rx="1.452"/>
        <rect width="27.399" height="2.609" x="68.576" y="96.154" fill="#DADBE2" rx="1.305"/>
        <rect width="27.399" height="2.609" x="68.576" y="101.373" fill="#DADBE2" rx="1.305"/>
        <rect width="27.399" height="2.609" x="68.576" y="106.592" fill="#DADBE2" rx="1.305"/>
        <path fill="#DADBE2" fill-rule="nonzero" d="M99.396 40.403C89.05 47.919 86.756 62.4 94.273 72.746c7.517 10.345 21.997 12.639 32.343 5.122 10.346-7.517 12.64-21.997 5.123-32.343-7.517-10.346-21.998-12.64-32.343-5.122zm3.55 4.886c7.647-5.555 18.35-3.86 23.906 3.787 5.556 7.647 3.86 18.35-3.786 23.905-7.647 5.556-18.35 3.861-23.906-3.786-5.556-7.647-3.86-18.35 3.786-23.906z"/>
        <path fill="#DADBE2" d="M124.84 75.425c1.8-1.307 4.318-.909 5.626.89l13.906 19.14c1.307 1.8.908 4.318-.891 5.626-1.8 1.307-4.318.908-5.625-.891L123.95 81.05c-1.307-1.8-.909-4.318.89-5.625z"/>
        <path fill="#8F9096" fill-rule="nonzero" d="M113.384 35.254c13.066 0 23.659 10.592 23.659 23.658 0 .556-.451 1.007-1.007 1.007-.556 0-1.007-.45-1.007-1.007 0-11.954-9.69-21.645-21.645-21.645-.556 0-1.006-.45-1.006-1.006s.45-1.007 1.006-1.007z"/>
        <path fill="#979797" fill-rule="nonzero" d="M128.895 74.713c.416-.306.99-.245 1.333.123l.075.09 15.844 21.529c.33.448.234 1.078-.214 1.408-.416.306-.989.245-1.332-.124l-.075-.09L128.68 76.12c-.33-.447-.233-1.078.214-1.407z"/>
        <path fill="#84CEFD" d="M105.215 51.323c4.354.37 8.47 2.062 12.348 5.073 1.6 1.242 3.358 3.974 5.272 8.195l.373.836c.223.51.817.74 1.326.518.233-.103.419-.29.52-.523 3.088-7.15 1.715-12.671-4.12-16.565-5.596-3.735-10.933-3.578-16.008.47l-.267.217c-.429.354-.49.988-.135 1.417.172.209.421.339.69.362z"/>
        <path fill="#E05666" fill-rule="nonzero" d="M144.358 33.241c25.824 35.544 17.944 85.293-17.6 111.117-35.543 25.824-85.292 17.944-111.116-17.6-25.824-35.543-17.944-85.292 17.6-111.116 35.543-25.824 85.292-17.944 111.116 17.6zm-4.71 1.2C114.998 2.139 68.933-4.734 35.883 19.278 3.164 43.05-4.709 88.308 17.555 121.643l.684 1.007 121.409-88.21zm2.62 3.652L20.903 126.271l.75.943c24.941 30.876 69.988 37.104 102.465 13.508 32.477-23.596 40.475-68.363 18.817-101.625l-.665-1.004z"/>
    </g>
</svg>
