<svg width="24" height="24" viewBox="0 0 24 24">
    <g fill="none" fill-rule="evenodd">
        <path fill="crystal" fill-opacity="0" d="M0 0H24V24H0z"/>
        <path fill="obsidian" d="M5.674 7.347c.523.317 1.02.473 1.475.715.265.14.494.118.76-.003 1.856-.846 3.719-1.678 5.577-2.52.104-.047.254-.058.285-.26-.426-.193-.87-.375-1.294-.595-.31-.161-.575-.162-.9-.011-1.673.774-3.358 1.521-5.038 2.278-.26.117-.518.237-.865.396m3.77 1.737c.744.337 1.464.65 2.171.99.284.138.521.13.806 0 1.823-.833 3.653-1.648 5.478-2.476.136-.062.316-.078.392-.287-.7-.317-1.406-.62-2.095-.957-.318-.155-.585-.157-.91-.007-1.804.83-3.619 1.639-5.429 2.457-.126.058-.274.084-.413.28m-1.02 1.266c0 .557.016 1.079-.004 1.599-.02.493-.39.797-.858.743-.401-.046-.645-.313-.657-.78-.018-.666-.015-1.332-.004-1.998.004-.25-.082-.396-.318-.49-.381-.153-.748-.344-1.127-.503-.274-.115-.53-.286-.825-.321-.099.136-.07.265-.07.386-.001 2.25.007 4.499-.009 6.748-.002.329.124.473.402.597 1.945.866 3.883 1.747 5.825 2.618.125.055.245.162.4.105.018-.031.05-.06.05-.09.005-2.393.006-4.786.016-7.178 0-.226-.12-.313-.294-.39-.654-.29-1.305-.588-1.96-.878-.158-.07-.306-.183-.567-.168m10.958-1.761c-.155.06-.288.106-.415.163-1.91.857-3.813 1.726-5.73 2.565-.361.158-.45.368-.447.735.015 2.159.006 4.318.01 6.477 0 .174-.047.358.057.517.143.06.25-.031.358-.08 1.959-.878 3.912-1.767 5.876-2.633.303-.134.371-.32.37-.622-.009-2.195-.004-4.39-.006-6.584 0-.16.03-.323-.073-.538M3.01 11.999c0-1.404.02-2.808-.01-4.212-.013-.647.231-1.019.827-1.279 2.51-1.095 5.004-2.223 7.5-3.351.476-.216.914-.206 1.389.01 2.429 1.1 4.86 2.196 7.3 3.268.7.307.991.773.984 1.546-.028 2.772-.024 5.544-.001 8.316.004.567-.194.896-.703 1.13-2.245 1.028-4.471 2.1-6.74 3.078-.196.085-.401.155-.59.255-.633.338-1.238.298-1.897.011-2.512-1.092-4.989-2.259-7.471-3.414-.436-.203-.595-.52-.592-.983.01-1.458.004-2.916.004-4.375"/>
    </g>
</svg>
