<svg width="24" height="24" viewBox="0 0 24 24">
    <g fill="none" fill-rule="evenodd">
        <path fill="#000000" fill-opacity="0" d="M0 0H24V24H0z"/>
        <path fill="#000000" d="M12.716 3.166c2.429 1.1 4.86 2.197 7.301 3.269.699.307.99.773.983 1.546-.028 2.772-.023 5.544-.001 8.316.005.567-.193.896-.703 1.13-2.245 1.028-4.471 2.1-6.74 3.078-.196.085-.401.155-.59.255-.633.338-1.238.298-1.897.011-2.512-1.092-4.989-2.259-7.471-3.414-.436-.203-.595-.52-.592-.983.01-1.458.004-2.916.004-4.375 0-1.404.02-2.808-.01-4.212-.013-.647.231-1.019.827-1.279 2.51-1.095 5.004-2.223 7.5-3.351.476-.216.914-.206 1.389.01zM4.631 8.6c-.099.136-.07.265-.07.386v4.499c-.001.75-.004 1.5-.009 2.249-.002.329.124.473.402.597 1.945.866 3.883 1.747 5.826 2.618.124.055.244.162.4.105.017-.031.049-.06.049-.09.005-2.393.006-4.786.016-7.178 0-.226-.119-.313-.294-.39-.654-.29-1.305-.588-1.96-.878-.158-.07-.306-.183-.567-.168 0 .557.016 1.079-.004 1.599-.02.493-.39.797-.858.743-.401-.046-.645-.313-.657-.78-.018-.666-.015-1.332-.004-1.998.004-.25-.082-.396-.318-.49-.381-.153-.748-.344-1.127-.503-.274-.115-.53-.286-.825-.321zm14.751-.011c-.155.06-.288.106-.415.163-1.91.857-3.813 1.726-5.73 2.565-.361.158-.45.368-.447.735.015 2.159.006 4.318.01 6.477 0 .174-.047.358.057.517.143.06.25-.031.358-.08 1.959-.878 3.912-1.767 5.876-2.633.304-.134.371-.32.37-.622-.009-2.195-.004-4.39-.006-6.584 0-.16.03-.323-.073-.538zm-.97 2.958c.394.282.2.69 0 1.028-.2.34-1.556 2.495-2.074 3.194-.215.29-.466.323-.742.096-.523-.43-1.058-.854-1.58-1.285-.225-.184-.418-.647-.148-.942.27-.295.653-.281.882-.093.389.32.654.495 1.052.823.083-.111 1.173-1.86 1.714-2.687.125-.19.501-.416.896-.134zm-3.126-5.2c-1.804.83-3.619 1.639-5.429 2.457-.126.058-.274.084-.413.28.744.337 1.465.65 2.171.99.284.138.522.13.806 0 1.823-.833 3.653-1.648 5.479-2.476.136-.062.316-.078.391-.287l-1.401-.63c-.233-.106-.464-.215-.694-.327-.318-.155-.584-.157-.91-.007zm-3.709-1.674C9.904 5.447 8.22 6.194 6.54 6.95c-.26.117-.518.237-.865.396.523.317 1.02.473 1.476.715.264.14.493.118.76-.003 1.855-.846 3.718-1.678 5.576-2.52.104-.047.254-.058.285-.26-.426-.193-.87-.375-1.294-.595-.31-.161-.575-.162-.9-.011z"/>
    </g>
</svg>
