<svg width="24" height="24" viewBox="0 0 24 24">
    <path fill="glacialBlue" fill-rule="evenodd" d="M14.488 4.539a7.625 7.625 0 0 1 2.083.353 3.51 3.51 0 0 1 1.326.774c1.25 1.156 2.372 2.447 3.488 3.741.428.496.595 1.114.604 1.773.013.918.016 2.838 0 3.756-.017 1.103-.49 1.221-1.764 1.221-.373.015-.342.248-.312.478.05.395.031.659-.063 1.053-.366 1.526-1.824 2.545-3.258 2.266-1.545-.301-2.584-1.728-2.425-3.328.038-.381.038-.394-.292-.396-1.05-.006-2.102-.006-3.153 0-.34.002-.34.015-.301.4.176 1.72-1.063 3.256-2.712 3.363-1.61.105-3.013-1.268-3.045-2.977l.001-.102v-.102c-.246-.03-1.216-.057-1.459-.124a1.604 1.604 0 0 1-1.188-1.482c-.03-.692-.018-2.867 0-3.56.012-.475.425-.989.936-.989H3v.003h9v-.003h.844c.003-2.09.003-3.551 0-4.383-.002-.515.162-.95.52-1.3.315-.31.694-.45 1.124-.435zM7.531 15.325c-.846.008-1.513.727-1.509 1.628.004.9.677 1.613 1.525 1.614.839.001 1.535-.721 1.545-1.605.011-.902-.697-1.644-1.561-1.637zm9.526 0c-.844-.003-1.539.713-1.55 1.597-.01.905.697 1.652 1.556 1.645.844-.007 1.52-.73 1.52-1.626 0-.892-.68-1.612-1.526-1.616zM10.053 4c.537-.002 1.001.166 1.353.612.276.35.373.757.37 1.208-.003.763-.004 1.973-.003 3.633l-7.882-.001c.001-1.63 0-2.849-.002-3.655-.002-.432.094-.824.353-1.162C4.586 4.183 5.046 4 5.585 4l.533.001h1.225c.904 0 1.807.002 2.71-.002z"/>
</svg>
