<svg xmlns:xlink="http://www.w3.org/1999/xlink" width="121" height="120" viewBox="0 0 121 120">
    <defs>
        <path id="prefix__a" d="M0 0L120 0 120 120 0 120z"/>
    </defs>
    <g fill="none" fill-rule="evenodd">
        <g opacity=".15" transform="translate(.5)">
            <mask id="prefix__b" fill="#fff">
                <use xlink:href="#prefix__a"/>
            </mask>
            <path fill="#8CE" d="M120 60c0 33.137-26.863 60-60 60S0 93.137 0 60 26.863 0 60 0s60 26.863 60 60" mask="url(#prefix__b)"/>
        </g>
        <g>
            <path fill="#F1A71E" d="M41.875 0L0.799 16.606 0.799 66.836 41.875 83.538 82.952 66.546 82.952 16.606 62.061 8.16z" transform="translate(.5) translate(18 18)"/>
            <path fill="#F3A70C" d="M0.799 66.838L41.875 83.538 41.875 33.315 0.799 16.615z" transform="translate(.5) translate(18 18)"/>
            <path fill="#FEFEFE" d="M36.497 77.033l-12.285-5.16c-.204-.085-.337-.284-.337-.504V47.164c0-.392.401-.657.764-.505l12.285 5.16c.204.085.336.284.336.504V76.53c0 .391-.4.657-.763.504" transform="translate(.5) translate(18 18)"/>
            <path fill="#606060" d="M25.18 49.143c-.04 0-.072.016-.09.028-.028.019-.074.06-.074.138v4.289c0 .066.04.126.1.152l9.852 4.17c.07.03.128.004.155-.014.027-.019.073-.06.073-.138v-4.289c0-.066-.039-.126-.1-.152l-9.851-4.17c-.023-.01-.045-.014-.065-.014m9.852 9.472c-.11 0-.222-.022-.328-.067l-9.851-4.17c-.313-.132-.516-.439-.516-.78v-4.289c0-.285.141-.549.377-.706.236-.157.533-.185.795-.075l9.85 4.17c.314.133.516.44.516.781v4.289c0 .284-.14.548-.377.706-.14.094-.302.141-.466.141" transform="translate(.5) translate(18 18)"/>
            <path fill="#F4BE19" d="M82.952 16.615L41.875 33.316 41.875 83.538 82.952 66.549zM41.957 0L.799 16.7 20.946 24.923 62.183 8.207z" transform="translate(.5) translate(18 18)"/>
            <path fill="#F3A70C" d="M83.414 16.832L62.435 8.308 21.106 25.086 42.164 33.692z" transform="translate(.5) translate(18 18)"/>
            <path fill="#F2BD18" d="M.812 66.923c-.262 0-.475-.212-.475-.474V17.68c0-.355.176-.686.472-.884.295-.198.668-.237.998-.103l40.234 16.331c.243.099.36.375.26.618-.098.243-.375.36-.618.26L1.449 17.573c-.048-.02-.086-.005-.11.011-.024.016-.052.046-.052.097V66.45c0 .262-.212.474-.475.474" transform="translate(.5) translate(18 18)"/>
            <path fill="#FFDB6E" d="M59.908 26.308L18.799 9.742 27.943 6 69.106 22.544zM59.875 26.399L61.025 76.154 69.568 72.601 69.043 22.615z" transform="translate(.5) translate(18 18)"/>
            <path fill="#6B6B6B" d="M34.645 61.383c-.024-.003-.049-.01-.073-.02l-9.604-4.055c-.14-.06-.206-.223-.149-.366.059-.143.22-.21.36-.151l9.604 4.055c.14.06.207.223.148.366-.048.119-.167.185-.286.17M34.645 64.613c-.024-.003-.049-.009-.073-.019l-9.604-4.055c-.14-.06-.206-.223-.149-.366.059-.143.22-.21.36-.152l9.604 4.056c.14.06.207.223.148.366-.048.118-.167.185-.286.17M34.645 67.383c-.024-.003-.049-.01-.073-.02l-9.604-4.055c-.14-.06-.206-.223-.149-.366.059-.143.22-.21.36-.151l9.604 4.055c.14.06.207.223.148.366-.048.119-.167.185-.286.17M34.645 70.613c-.024-.003-.049-.009-.073-.019l-9.604-4.055c-.14-.06-.206-.223-.149-.366.059-.143.22-.21.36-.152l9.604 4.056c.14.059.207.223.148.366-.048.118-.167.185-.286.17M34.645 73.383c-.024-.003-.049-.01-.073-.02l-9.604-4.055c-.14-.06-.206-.223-.149-.366.059-.143.22-.21.36-.151l9.604 4.055c.14.06.207.223.148.366-.048.119-.167.185-.286.17" transform="translate(.5) translate(18 18)"/>
        </g>
    </g>
</svg>
