<svg width="24" height="24" viewBox="0 0 24 24">
    <g fill="none" fill-rule="evenodd">
        <path fill="#000000" fill-opacity="0" d="M0 0H24V24H0z"/>
        <path fill="#000000" d="M17.057 15.325c-.844-.003-1.539.713-1.55 1.597-.01.905.697 1.652 1.556 1.645.844-.007 1.52-.73 1.52-1.626 0-.892-.68-1.612-1.526-1.616zm-7.965 1.637c.011-.902-.697-1.644-1.561-1.637-.846.008-1.513.727-1.509 1.628.004.9.677 1.613 1.525 1.614.839.001 1.535-.721 1.545-1.605zm.892-6.305c.42-.002.428-.115.43-.525.003-1.403.004-2.806 0-4.21-.002-.457-.035-.489-.49-.495-.574-.008-1.149-.003-1.723-.003-1.165 0-1.33-.004-2.495.004-.415.003-.452.048-.454.48-.005 1.42-.005 2.842 0 4.262.002.366.013.485.366.487.903.007.805 0 1.708 0 .886 0 1.772.005 2.658 0zm-1.728 1.349H5.695c-.64 0-1.28-.007-1.92.004-.356.006-.402.056-.41.422-.009.485.01 1.8 0 2.286-.004.25.267.624.647.616.38-.008.737.025.935 0 .18-.248.112-.248.691-.834.58-.585 2.738-.82 3.835.082.22.181.3.239.58.236 1.494-.012 2.988-.012 4.481 0 .277.002.49-.072.712-.258 1.1-.92 2.536-.91 3.628.022.193.165.31.133.587.136.185.002.576.002 1.173 0v-2.564c-.002-1.693.11-1.4-.993-2.653-.76-.863-1.552-1.694-2.35-2.518-.781-.804-1.755-.947-2.766-1.012-.194-.013-.313.08-.317.3-.002.12-.004.242-.004.363v3.484c0 1.528-.511 1.885-1.802 1.882-1.412-.004-2.734.005-4.146.005zM10.053 4c.537-.002 1.001.166 1.353.612.276.35.373.757.37 1.208-.004.936-.004 2.549-.001 4.837h1.069c.003-2.09.003-3.551 0-4.383-.002-.515.162-.95.52-1.3.315-.31.694-.45 1.124-.435.709.024 1.405.135 2.083.353.492.158.936.414 1.326.774 1.25 1.156 2.372 2.447 3.488 3.741.428.496.595 1.114.604 1.773.013.918.016 2.838 0 3.756-.017 1.103-.49 1.221-1.764 1.221-.373.015-.342.248-.312.478.05.395.031.659-.063 1.053-.366 1.526-1.824 2.545-3.258 2.266-1.545-.301-2.584-1.728-2.425-3.328.038-.381.038-.394-.292-.396-1.05-.006-2.102-.006-3.153 0-.34.002-.34.015-.301.4.176 1.72-1.063 3.256-2.712 3.363-1.61.105-3.013-1.268-3.045-2.977 0-.017.003-.187 0-.204-.245-.03-1.215-.057-1.458-.124-.664-.183-1.157-.76-1.188-1.482-.03-.692-.018-2.867 0-3.56.012-.475.425-.989.936-.989h.935c.004-2.246.004-3.866 0-4.86-.002-.432.094-.824.353-1.162C4.586 4.183 5.046 4 5.585 4c.92.002.839 0 1.758 0 .904 0 1.807.003 2.71-.001z"/>
    </g>
</svg>
