<svg xmlns="http://www.w3.org/2000/svg" width="48" height="48" viewBox="0 0 48 48">
    <g fill="none" fill-rule="evenodd">
        <path fill="#80D1FF" d="M17.72 0c-.77 0-4.233 2.865-8.677 4.969C4.814 6.97.513 8.054.187 8.555c-.324.5-.161 7.263 0 11.238.325 7.965 1.775 18.848 17.528 22.742 15.75-3.894 17.225-14.942 17.545-22.742.163-3.975.333-10.866-.026-11.238-.36-.373-4.435-1.51-8.952-3.586C21.766 2.892 18.406 0 17.72 0z" transform="translate(6 2.667)"/>
        <path fill="#3D98D2" d="M17.72 4.511c-.602 0-3.31 2.257-6.783 3.915-3.306 1.577-6.67 2.43-6.924 2.825-.254.395-.126 5.723 0 8.855.254 6.276 1.388 14.85 13.704 17.918 12.313-3.068 13.466-11.773 13.717-17.918.127-3.132.26-8.561-.02-8.855-.281-.293-3.468-1.19-7-2.825-3.53-1.636-6.157-3.915-6.694-3.915z" transform="translate(6 2.667)"/>
        <path fill="#FFF" d="M17.723 10.956c1.614 0 2.916.49 3.906 1.469.99.98 1.484 2.267 1.484 3.865v3.333h.653c.365 0 .684.146.958.438.274.291.41.625.41 1v7.208c0 .32-.108.601-.326.844-.217.243-.48.4-.79.469-2.049.472-4.147.708-6.295.708-2.19 0-4.31-.236-6.359-.708-.308-.07-.561-.226-.758-.469-.196-.243-.294-.524-.294-.844v-7.146c0-.389.126-.736.379-1.041.252-.306.561-.459.926-.459h.716V16.29c0-1.598.495-2.886 1.484-3.865.99-.98 2.292-1.469 3.906-1.469zm-.043 9.667c-.382.01-.61.48-.614.808l.005.416c-1.068.155-1.345.909-1.322 1.793.023.884.57 1.277.822 1.382.252.105.59.205 1.015.298.364.078.6.154.706.228.106.074.171.22.196.438-.012.39-.319.588-.92.595-.412 0-.84-.082-1.284-.246-.103-.038-.324-.064-.43-.03-.107.036-.285.122-.363.385-.08.263.048.58.302.743.253.163.834.3 1.331.33l.022.534c.012.234.101.702.595.704.493.003.599-.609.599-.702l.023-.558c1.153-.155 1.624-.727 1.616-1.845-.008-1.117-.974-1.484-1.178-1.55-.203-.067-.472-.135-.806-.205-.346-.086-.563-.162-.65-.228-.089-.066-.139-.193-.151-.38 0-.327.237-.49.71-.49.322-.008.625.031.91.117.262.086.681.017.746-.395.065-.411-.229-.72-.396-.77-.285-.101-.512-.157-.864-.188l-.005-.387c.027-.222-.233-.806-.615-.797zm.043-6.333c-1.347 0-2.021.666-2.021 2v3.333h4.042V16.29c0-1.334-.673-2-2.02-2z" transform="translate(6 2.667)"/>
    </g>
</svg>
