<svg xmlns="http://www.w3.org/2000/svg" width="48" height="48" viewBox="0 0 48 48">
    <g fill="none" fill-rule="evenodd">
        <path fill="#3D98D2" d="M19.33 0c-.84 0-4.617 3.125-9.465 5.42C5.252 7.604.559 8.786.205 9.332c-.355.547-.177 7.925 0 12.26.353 8.69 1.935 20.562 19.12 24.81 17.182-4.248 18.791-16.3 19.14-24.81.178-4.336.364-11.853-.028-12.26-.392-.406-4.838-1.647-9.765-3.912C23.745 3.155 20.079 0 19.33 0z" transform="translate(5.09 .727)"/>
        <path fill="#006399" d="M19.331 4.921c-.656 0-3.61 2.463-7.4 4.271-3.607 1.72-7.276 2.652-7.553 3.082-.277.43-.138 6.243 0 9.66.277 6.846 1.513 16.2 14.95 19.547 13.432-3.347 14.69-12.843 14.963-19.547.14-3.417.284-9.34-.022-9.66-.306-.32-3.783-1.297-7.635-3.082s-6.717-4.27-7.303-4.27z" transform="translate(5.09 .727)"/>
        <path fill="#FEFEFE" d="M19.334 11.073l-2.89 1.52c-.17.09-.38.024-.469-.145-.035-.068-.048-.145-.035-.22l.552-3.22-2.338-2.28c-.137-.133-.14-.352-.007-.49.054-.054.123-.09.199-.1l3.232-.47 1.445-2.93c.085-.17.293-.241.465-.156.068.033.123.089.157.157l1.446 2.929 3.232.47c.19.027.32.203.293.392-.011.076-.046.146-.101.199l-2.339 2.28.552 3.219c.033.188-.094.368-.283.4-.075.013-.152 0-.22-.035l-2.89-1.52z" transform="translate(5.09 .727)"/>
        <path fill="#FFF" d="M19.334 14.764c1.608 0 2.905.481 3.89 1.442.986.962 1.48 2.227 1.48 3.795v3.273h.65c.363 0 .68.143.953.43.273.286.41.613.41.981v7.078c0 .314-.109.59-.326.828-.216.239-.478.392-.786.46-2.041.464-4.132.696-6.27.696-2.182 0-4.293-.232-6.334-.695-.308-.069-.56-.222-.755-.46-.196-.24-.294-.515-.294-.83v-7.015c0-.382.126-.723.378-1.023.251-.3.559-.45.922-.45h.713V20c0-1.568.493-2.833 1.479-3.795.986-.961 2.282-1.442 3.89-1.442zm-.042 9.492c-.375.008-.598.46-.603.774l.005.399c-1.048.148-1.32.87-1.298 1.719.022.847.56 1.223.807 1.324.247.101.58.196.997.286.357.075.588.148.693.219.104.07.168.21.192.42-.012.373-.313.563-.903.57-.405 0-.825-.079-1.26-.236-.102-.037-.32-.062-.423-.028-.105.033-.28.116-.357.368-.077.253.048.556.297.713.249.156.819.286 1.308.316l.02.512c.013.224.1.672.584.675.485.002.589-.584.588-.674l.023-.534c1.133-.149 1.595-.697 1.587-1.769-.008-1.07-.956-1.422-1.156-1.486-.2-.064-.464-.129-.791-.196-.34-.083-.553-.156-.64-.219-.086-.063-.135-.185-.147-.364 0-.313.232-.47.697-.47.316-.007.614.03.894.113.256.082.668.015.732-.379.064-.394-.225-.69-.39-.738-.28-.098-.501-.15-.847-.18l-.005-.371c.026-.214-.229-.773-.604-.764zm.042-6.219c-1.342 0-2.013.655-2.013 1.964v3.273h4.027V20c0-1.31-.672-1.964-2.014-1.964z" transform="translate(5.09 .727)"/>
    </g>
</svg>
