<svg width="16" height="16" viewBox="0 0 16 16">
  <path fill="#000000" d="M5.956 8.496c.896.006 1.537.522 1.553 1.42.02 1.044.022 2.187 0 3.23-.018.863-.633 1.483-1.495 1.503-1.059.024-2.119.024-3.178 0-.879-.02-1.484-.662-1.497-1.538-.007-.51 0-1.019 0-1.529-.001-.51-.006-1.019 0-1.529.01-.916.638-1.55 1.551-1.557 1.022-.008 2.044-.008 3.066 0zm7.114-.007c.799-.019 1.61.574 1.594 1.556-.008.51-.001 1.019 0 1.528l-.005.995c0 .166.002.331.007.497.027.923-.672 1.598-1.598 1.592-.984-.005-1.968-.006-2.953 0-1.06.008-1.645-.808-1.618-1.613.032-.981.03-2.063 0-3.044-.028-.934.713-1.534 1.62-1.512.984.025 1.97.023 2.953 0zm-3.002 1.127c-.333.002-.42.095-.422.427-.005.957.006 2.11.01 3.067.002.347.078.428.412.43.972.005 2.105-.01 3.077-.015.346-.002.413-.072.417-.42.005-.472-.009-1.042-.009-1.514v-1.174c0-.13 0-.257-.002-.379-.003-.344-.077-.434-.406-.437-.972-.007-2.106.008-3.077.015zm-4.986-.014c-.685 0-1.432.007-2.117.012-.39.003-.476.08-.479.448-.005.956.005 2.11.012 3.066.002.327.082.41.39.41.984.007 2.13-.008 3.114-.014.326-.001.39-.07.394-.399.006-.484-.008-1.067-.008-1.551 0-.485.003-1.068-.002-1.552-.004-.343-.074-.412-.42-.422-.261-.008-.622.002-.884.002zm8.084-8.249c.925.018 1.513.74 1.498 1.533-.01.522-.001 1.044-.001 1.566 0 .497-.008.995.002 1.492.02 1.013-.818 1.586-1.58 1.569-1.01-.024-2.019-.001-3.028-.008-.92-.006-1.544-.629-1.55-1.549-.008-1.019-.01-2.137-.002-3.156.007-.886.597-1.421 1.484-1.445 1.058-.027 2.118-.022 3.177-.002zm-7.108.007c.85.028 1.435.554 1.45 1.404.02 1.044.023 2.187.002 3.231-.018.897-.66 1.502-1.561 1.51-.51.006-1.022.002-1.533.002-.51 0-1.022.005-1.532-.001-.896-.011-1.535-.637-1.543-1.526-.01-1.032-.01-2.064 0-3.096.007-.86.597-1.5 1.465-1.526 1.083-.032 2.169-.034 3.252.002zm5.556 1.111c-.473 0-1.009.009-1.482.012-.422.002-.485.06-.487.468-.003.932.008 2.06.011 2.993.002.375.086.465.46.467.946.005 2.055-.01 3.002-.015.36-.002.442-.087.444-.44.003-.957-.007-2.11-.011-3.067-.002-.348-.07-.416-.417-.42-.473-.006-1.046.003-1.52.002zm-7.183.001c-.498 0-1.058.005-1.556.012-.297.005-.384.081-.386.378-.009.98.003 2.16.01 3.14.002.31.096.405.405.407.984.007 2.13-.007 3.113-.016.295-.002.377-.091.378-.387.006-.98-.005-2.16-.01-3.14-.002-.328-.07-.392-.397-.397-.485-.006-1.07.003-1.557.003z"/>
</svg>
