<svg width="24" height="24" viewBox="0 0 24 24">
    <path fill="#000000" fill-rule="evenodd" d="M21.988 14.945c0 1.301-.034 2.603.01 3.903.038 1.074-.728 2.147-2.14 2.145-1.279-.001-2.557.013-3.834-.004-1.318-.017-2.122-.839-2.127-2.149-.006-1.3.007-2.602-.006-3.903-.009-.94-.57-1.635-1.458-1.86-1.08-.272-2.193.496-2.287 1.598-.035.414-.018.833-.02 1.25-.002.984.004 1.968-.002 2.953-.005.748-.284 1.362-.93 1.785-.363.239-.77.326-1.197.328-1.295.005-2.59.019-3.884-.003-1.285-.021-2.105-.856-2.109-2.126-.007-2.602-.003-5.204-.001-7.806 0-1.094.446-1.966 1.344-2.606 2.28-1.625 4.568-3.238 6.835-4.88 1.058-.765 2.6-.753 3.63-.008 2.268 1.64 4.555 3.255 6.835 4.88.897.639 1.352 1.496 1.343 2.6-.01 1.3-.002 2.602-.002 3.903"/>
</svg>
