<svg width="24" height="24" viewBox="0 0 24 24">
    <path fill="#000000" fill-rule="evenodd" d="M20.362 13.873c0-1.269-.006-2.537.003-3.805.004-.564-.212-.999-.68-1.316-.278-.189-.548-.389-.82-.584-1.953-1.392-3.907-2.783-5.858-4.178-.335-.24-.68-.427-1.113-.391-.352.029-.63.206-.906.403-2.156 1.54-4.305 3.09-6.478 4.606-.613.427-.878.938-.87 1.68.027 2.435.01 4.872.01 7.309 0 .1-.004.2.004.3.03.354.108.448.464.45 1.295.009 2.59.009 3.886 0 .36-.002.441-.096.463-.445.009-.133.003-.267.003-.4 0-1.202-.023-2.404.007-3.605.058-2.37 2.225-3.985 4.486-3.365 1.462.4 2.52 1.724 2.548 3.24.024 1.302.006 2.604.01 3.906.002.606.065.672.657.673 1.177.003 2.355.003 3.532 0 .598-.001.651-.057.652-.673.002-1.269 0-2.537 0-3.805m1.626.072c0 1.301-.034 2.603.01 3.903.038 1.074-.728 2.147-2.14 2.145-1.279-.001-2.557.013-3.834-.004-1.318-.017-2.122-.839-2.127-2.149-.006-1.3.007-2.602-.006-3.903-.009-.94-.57-1.635-1.458-1.86-1.08-.272-2.193.496-2.287 1.598-.035.414-.018.833-.02 1.25-.002.984.004 1.968-.002 2.953-.005.748-.284 1.362-.93 1.785-.363.239-.77.326-1.197.328-1.295.005-2.59.019-3.884-.003-1.285-.021-2.105-.856-2.109-2.126-.007-2.602-.003-5.204-.001-7.806 0-1.094.446-1.966 1.344-2.606 2.28-1.625 4.568-3.238 6.835-4.88 1.058-.765 2.6-.753 3.63-.008 2.268 1.64 4.555 3.255 6.835 4.88.897.639 1.352 1.496 1.343 2.6-.01 1.3-.002 2.602-.002 3.903"/>
</svg>
