<svg width="24" height="24" viewBox="0 0 24 24">
    <path fill="#000000" fill-rule="evenodd" d="M19.908 2.247c.936.433 1.536 1.121 1.63 2.15.116 1.29.209 2.582.309 3.873.05.646.094 1.293.14 1.939.09 1.234-.32 2.292-1.137 3.231-2.177 2.503-4.337 5.02-6.51 7.525-1.047 1.209-2.715 1.388-3.966.383a736.37 736.37 0 0 1-7.371-6.003c-.748-.616-1.154-1.401-.951-2.393.081-.399.289-.735.555-1.043 2.253-2.604 4.51-5.206 6.758-7.815.897-1.04 2.033-1.564 3.426-1.652 1.886-.117 3.768-.286 5.653-.43.507-.04 1 .02 1.464.235zm-4.41 6.183c-.31-.244-.764-.236-1.04.105-.265.326-.52.346-.855.17a.613.613 0 0 0-.157-.05c-.713-.148-1.367-.06-1.9.47-.528.523-.575 1.139-.357 1.803.146.448.374.86.589 1.28.14.273.275.548.352.848.069.272.004.501-.219.677-.234.186-.485.14-.729.016a1.623 1.623 0 0 1-.661-.639c-.177-.295-.327-.606-.52-.891a.728.728 0 0 0-.974-.248c-.318.17-.441.508-.287.883.109.266.226.54.4.768.27.355.433.644.048 1.052-.238.252-.11.637.163.866a.74.74 0 0 0 .923.036.902.902 0 0 0 .234-.229c.153-.235.334-.224.566-.115.303.144.632.2.875.193 1.365-.002 2.23-1.074 1.93-2.266-.125-.495-.372-.938-.611-1.385-.154-.287-.322-.57-.41-.884-.06-.218-.046-.431.157-.59.218-.17.451-.142.677-.027.308.156.5.42.656.713.102.191.189.396.323.563a.759.759 0 0 0 .951.19c.307-.169.42-.46.288-.84-.082-.238-.169-.492-.326-.682-.236-.285-.256-.483.01-.777.292-.321.211-.766-.097-1.01z"/>
</svg>
