<svg width="24" height="24" viewBox="0 0 24 24">
    <path fill="#000000" fill-rule="evenodd" d="M19.908 2.247c.936.433 1.536 1.121 1.63 2.15.116 1.29.209 2.582.309 3.873.05.646.094 1.293.14 1.939.09 1.234-.32 2.292-1.137 3.231-2.177 2.503-4.337 5.02-6.51 7.525-1.047 1.209-2.715 1.388-3.966.383a736.37 736.37 0 0 1-7.371-6.003c-.748-.616-1.154-1.401-.951-2.393.081-.399.289-.735.555-1.043 2.253-2.604 4.51-5.206 6.758-7.815.897-1.04 2.033-1.564 3.426-1.652 1.886-.117 3.768-.286 5.653-.43.507-.04 1 .02 1.464.235zm-1.5 1.504c-1.828.142-3.656.292-5.484.425-.918.066-1.653.415-2.247 1.118-1.458 1.724-2.949 3.422-4.427 5.13-.726.841-1.454 1.68-2.18 2.522-.34.395-.337.613.01.982.063.066.134.126.205.183 2.37 1.932 4.738 3.866 7.112 5.793.59.479 1.136.425 1.637-.153 2.171-2.506 4.336-5.016 6.505-7.523.462-.534.69-1.141.656-1.839-.04-.538-.076-1.077-.117-1.615-.105-1.362-.208-2.726-.318-4.088-.039-.478-.278-.747-.748-.896-.201-.064-.401-.055-.605-.04zm-2.91 4.68c.307.243.388.688.096 1.01-.266.293-.246.49-.01.776.157.19.244.444.326.681.132.38.02.672-.288.84a.759.759 0 0 1-.95-.189c-.135-.167-.222-.372-.324-.563-.155-.294-.348-.557-.656-.713-.226-.115-.46-.142-.677.028-.203.158-.217.371-.157.59.088.314.256.596.41.883.239.447.486.89.61 1.385.3 1.192-.564 2.264-1.929 2.266a2.03 2.03 0 0 1-.875-.193c-.232-.109-.413-.12-.566.115a.902.902 0 0 1-.234.229.74.74 0 0 1-.923-.036c-.274-.229-.401-.614-.163-.866.385-.408.222-.697-.049-1.052-.173-.227-.29-.502-.4-.768-.153-.375-.03-.713.288-.883a.728.728 0 0 1 .974.248c.193.285.343.596.52.891.16.27.374.494.661.64.244.122.495.169.73-.017.222-.176.287-.405.218-.677-.077-.3-.212-.575-.352-.849-.215-.418-.443-.831-.59-1.279-.217-.664-.17-1.28.358-1.804.533-.53 1.187-.617 1.9-.47.054.011.11.027.157.052.335.175.59.155.854-.17.277-.342.731-.35 1.04-.106z"/>
</svg>
