<svg width="24" height="24" viewBox="0 0 24 24">
    <path fill="#000000" fill-rule="evenodd" d="M12.037 3.003c2.355 0 4.71.001 7.064-.001.359 0 .714.027 1.058.138 1.052.337 1.76 1.277 1.829 2.42.009.152.011.303.011.455.001 3.128.002 6.256 0 9.383 0 .353-.001.704-.1 1.05-.337 1.162-1.315 1.94-2.499 1.953-.974.011-1.949.014-2.923-.004a1.047 1.047 0 0 0-.749.277c-.65.557-1.31 1.103-1.974 1.643-1.124.916-2.368.91-3.475-.016a94.03 94.03 0 0 1-1.948-1.675.85.85 0 0 0-.617-.226c-.99.01-1.982-.022-2.971.01-1.432.047-2.75-1.122-2.743-2.824.015-3.23.001-6.458.005-9.687.003-1.732 1.1-2.884 2.773-2.893 2.42-.012 4.84-.003 7.259-.003zM4.771 4.651c-.663-.006-1.19.4-1.189 1.211l-.001.253.001 9.182c0 .184.003.371.032.553.078.498.376.81.858.898.159.03.323.031.485.032 1.023.002 2.046.01 3.07-.003a1.57 1.57 0 0 1 1.11.419c.693.61 1.395 1.21 2.1 1.804.566.479.994.48 1.574.005.726-.594 1.454-1.187 2.165-1.8a1.652 1.652 0 0 1 1.158-.428c.975.014 1.95.006 2.923.002.178 0 .36-.006.532-.043.487-.106.787-.47.828-.986.01-.134.006-.269.006-.403V6.063c0-.134.004-.27-.007-.403-.05-.567-.432-.956-.98-.995-.162-.011-.325-.006-.488-.007h-6.966c-2.404 0-4.807.013-7.21-.007zM16.17 12c.16 0 .326.007.482.042.356.08.6.387.619.745.017.351-.208.672-.551.805-.174.067-.352.054-.529.055H8.114c-.21 0-.42.007-.619-.092-.312-.157-.474-.455-.441-.822a.769.769 0 0 1 .557-.684c.174-.053.352-.052.53-.052 2.676 0 5.352 0 8.028.003zm.008-3.802c.13 0 .26-.002.388.014.402.05.69.37.705.769a.822.822 0 0 1-.652.824c-.142.026-.291.017-.437.018H8.107c-.146 0-.295.009-.437-.02-.39-.08-.638-.427-.618-.842.019-.394.276-.69.662-.745.144-.02.291-.018.437-.018h8.026z"/>
</svg>
