<svg width="24" height="24" viewBox="0 0 24 24">
    <path fill="#000000" fill-rule="evenodd" d="M12.037 3.003c2.355 0 4.71.001 7.064-.001.359 0 .714.027 1.058.138 1.052.337 1.76 1.277 1.829 2.42.009.152.011.303.011.455.001 3.128.002 6.256 0 9.383 0 .353-.001.704-.1 1.05-.337 1.162-1.315 1.94-2.499 1.953-.974.011-1.949.014-2.923-.004a1.047 1.047 0 0 0-.749.277c-.65.557-1.31 1.103-1.974 1.643-1.124.916-2.368.91-3.475-.016a94.03 94.03 0 0 1-1.948-1.675.85.85 0 0 0-.617-.226c-.99.01-1.982-.022-2.971.01-1.432.047-2.75-1.122-2.743-2.824.015-3.23.001-6.458.006-9.687.002-1.732 1.099-2.884 2.772-2.893 2.42-.012 4.84-.003 7.259-.003zm.115 10.555h4.038c.177 0 .355.011.529-.052.343-.125.568-.428.55-.76a.764.764 0 0 0-.618-.704 2.337 2.337 0 0 0-.482-.04C13.493 12 10.817 12 8.142 12c-.179 0-.357-.001-.53.049-.32.091-.528.333-.558.646a.741.741 0 0 0 .441.776c.198.094.409.088.62.088h4.037zm-.008-3.823h4.037c.146 0 .295.008.437-.017.383-.067.667-.415.652-.779-.015-.377-.303-.678-.705-.725-.128-.015-.259-.013-.388-.013H8.15c-.146 0-.293-.003-.437.016-.386.052-.643.332-.662.703a.75.75 0 0 0 .618.796c.142.027.291.018.437.018 1.345.002 2.691.001 4.037.001z"/>
</svg>
