<svg xmlns="http://www.w3.org/2000/svg" xmlns:xlink="http://www.w3.org/1999/xlink" width="102" height="94" viewBox="0 0 102 94">
    <defs>
        <path id="prefix__a" d="M52.515.032C23.512.032 0 23.543 0 52.547c0 29.003 23.512 52.515 52.515 52.515 29.004 0 52.516-23.512 52.516-52.515"/>
        <path id="prefix__c" d="M52.515.032C23.512.032 0 23.543 0 52.547c0 29.003 23.512 52.515 52.515 52.515 29.004 0 52.516-23.512 52.516-52.515"/>
        <path id="prefix__e" d="M52.515.032C23.512.032 0 23.543 0 52.547c0 29.003 23.512 52.515 52.515 52.515 29.004 0 52.516-23.512 52.516-52.515"/>
        <path id="prefix__g" d="M52.515.032C23.512.032 0 23.543 0 52.547c0 29.003 23.512 52.515 52.515 52.515 29.004 0 52.516-23.512 52.516-52.515"/>
        <path id="prefix__i" d="M52.515.032C23.512.032 0 23.543 0 52.547c0 29.003 23.512 52.515 52.515 52.515 29.004 0 52.516-23.512 52.516-52.515"/>
        <path id="prefix__k" d="M52.515.032C23.512.032 0 23.543 0 52.547c0 29.003 23.512 52.515 52.515 52.515 29.004 0 52.516-23.512 52.516-52.515C105.03 23.543 81.519.032 52.515.032z"/>
        <path id="prefix__m" d="M52.515.032C23.512.032 0 23.543 0 52.547c0 29.003 23.512 52.515 52.515 52.515 29.004 0 52.516-23.512 52.516-52.515"/>
        <path id="prefix__o" d="M52.515.032C23.512.032 0 23.543 0 52.547c0 29.003 23.512 52.515 52.515 52.515 29.004 0 52.516-23.512 52.516-52.515C105.03 23.543 81.519.032 52.515.032z"/>
        <path id="prefix__q" d="M52.515.032C23.512.032 0 23.543 0 52.547c0 29.003 23.512 52.515 52.515 52.515 29.004 0 52.516-23.512 52.516-52.515C105.03 23.543 81.519.032 52.515.032z"/>
        <path id="prefix__s" d="M52.515.032C23.512.032 0 23.543 0 52.547c0 29.003 23.512 52.515 52.515 52.515 29.004 0 52.516-23.512 52.516-52.515C105.03 23.543 81.519.032 52.515.032z"/>
        <path id="prefix__u" d="M52.515.032C23.512.032 0 23.543 0 52.547c0 29.003 23.512 52.515 52.515 52.515 29.004 0 52.516-23.512 52.516-52.515"/>
        <path id="prefix__w" d="M52.515.032C23.512.032 0 23.543 0 52.547c0 29.003 23.512 52.515 52.515 52.515 29.004 0 52.516-23.512 52.516-52.515C105.03 23.543 81.519.032 52.515.032z"/>
        <path id="prefix__y" d="M52.515.032C23.512.032 0 23.543 0 52.547c0 29.003 23.512 52.515 52.515 52.515 29.004 0 52.516-23.512 52.516-52.515"/>
        <path id="prefix__A" d="M52.515.032C23.512.032 0 23.543 0 52.547c0 29.003 23.512 52.515 52.515 52.515 29.004 0 52.516-23.512 52.516-52.515"/>
        <path id="prefix__C" d="M52.515.032C23.512.032 0 23.543 0 52.547c0 29.003 23.512 52.515 52.515 52.515 29.004 0 52.516-23.512 52.516-52.515"/>
        <path id="prefix__E" d="M52.515.032C23.512.032 0 23.543 0 52.547c0 29.003 23.512 52.515 52.515 52.515 29.004 0 52.516-23.512 52.516-52.515"/>
        <path id="prefix__G" d="M52.515.032C23.512.032 0 23.543 0 52.547c0 29.003 23.512 52.515 52.515 52.515 29.004 0 52.516-23.512 52.516-52.515C105.03 23.543 81.519.032 52.515.032z"/>
        <path id="prefix__I" d="M52.515.032C23.512.032 0 23.543 0 52.547c0 29.003 23.512 52.515 52.515 52.515 29.004 0 52.516-23.512 52.516-52.515"/>
        <path id="prefix__K" d="M52.515.032C23.512.032 0 23.543 0 52.547c0 29.003 23.512 52.515 52.515 52.515 29.004 0 52.516-23.512 52.516-52.515"/>
        <path id="prefix__M" d="M52.515.032C23.512.032 0 23.543 0 52.547c0 29.003 23.512 52.515 52.515 52.515 29.004 0 52.516-23.512 52.516-52.515"/>
        <path id="prefix__O" d="M52.515.032C23.512.032 0 23.543 0 52.547c0 29.003 23.512 52.515 52.515 52.515 29.004 0 52.516-23.512 52.516-52.515"/>
        <path id="prefix__Q" d="M52.515.032C23.512.032 0 23.543 0 52.547c0 29.003 23.512 52.515 52.515 52.515 29.004 0 52.516-23.512 52.516-52.515"/>
        <path id="prefix__S" d="M52.515.032C23.512.032 0 23.543 0 52.547c0 29.003 23.512 52.515 52.515 52.515 29.004 0 52.516-23.512 52.516-52.515"/>
        <path id="prefix__U" d="M52.515.032C23.512.032 0 23.543 0 52.547c0 29.003 23.512 52.515 52.515 52.515 29.004 0 52.516-23.512 52.516-52.515"/>
        <path id="prefix__W" d="M52.515.032C23.512.032 0 23.543 0 52.547c0 29.003 23.512 52.515 52.515 52.515 29.004 0 52.516-23.512 52.516-52.515"/>
        <path id="prefix__Y" d="M52.515.032C23.512.032 0 23.543 0 52.547c0 29.003 23.512 52.515 52.515 52.515 29.004 0 52.516-23.512 52.516-52.515"/>
        <path id="prefix__aa" d="M52.515.032C23.512.032 0 23.543 0 52.547c0 29.003 23.512 52.515 52.515 52.515 29.004 0 52.516-23.512 52.516-52.515"/>
        <path id="prefix__ac" d="M52.515.032C23.512.032 0 23.543 0 52.547c0 29.003 23.512 52.515 52.515 52.515 29.004 0 52.516-23.512 52.516-52.515"/>
        <path id="prefix__ae" d="M52.515.032C23.512.032 0 23.543 0 52.547c0 29.003 23.512 52.515 52.515 52.515 29.004 0 52.516-23.512 52.516-52.515"/>
        <path id="prefix__ag" d="M52.515.032C23.512.032 0 23.543 0 52.547c0 29.003 23.512 52.515 52.515 52.515 29.004 0 52.516-23.512 52.516-52.515"/>
        <path id="prefix__ai" d="M52.515.032C23.512.032 0 23.543 0 52.547c0 29.003 23.512 52.515 52.515 52.515 29.004 0 52.516-23.512 52.516-52.515"/>
        <path id="prefix__ak" d="M52.515.032C23.512.032 0 23.543 0 52.547c0 29.003 23.512 52.515 52.515 52.515 29.004 0 52.516-23.512 52.516-52.515"/>
        <path id="prefix__am" d="M52.515.032C23.512.032 0 23.543 0 52.547c0 29.003 23.512 52.515 52.515 52.515 29.004 0 52.516-23.512 52.516-52.515"/>
        <path id="prefix__ao" d="M52.515.032C23.512.032 0 23.543 0 52.547c0 29.003 23.512 52.515 52.515 52.515 29.004 0 52.516-23.512 52.516-52.515"/>
        <path id="prefix__aq" d="M52.515.032C23.512.032 0 23.543 0 52.547c0 29.003 23.512 52.515 52.515 52.515 29.004 0 52.516-23.512 52.516-52.515"/>
        <path id="prefix__as" d="M52.515.032C23.512.032 0 23.543 0 52.547c0 29.003 23.512 52.515 52.515 52.515 29.004 0 52.516-23.512 52.516-52.515"/>
        <path id="prefix__au" d="M52.515.032C23.512.032 0 23.543 0 52.547c0 29.003 23.512 52.515 52.515 52.515 29.004 0 52.516-23.512 52.516-52.515"/>
        <path id="prefix__aw" d="M52.515.032C23.512.032 0 23.543 0 52.547c0 29.003 23.512 52.515 52.515 52.515 29.004 0 52.516-23.512 52.516-52.515"/>
        <path id="prefix__ay" d="M52.515.032C23.512.032 0 23.543 0 52.547c0 29.003 23.512 52.515 52.515 52.515 29.004 0 52.516-23.512 52.516-52.515"/>
        <path id="prefix__aA" d="M52.515.032C23.512.032 0 23.543 0 52.547c0 29.003 23.512 52.515 52.515 52.515 29.004 0 52.516-23.512 52.516-52.515"/>
        <path id="prefix__aC" d="M52.515.032C23.512.032 0 23.543 0 52.547c0 29.003 23.512 52.515 52.515 52.515 29.004 0 52.516-23.512 52.516-52.515"/>
        <path id="prefix__aE" d="M52.515.032C23.512.032 0 23.543 0 52.547c0 29.003 23.512 52.515 52.515 52.515 29.004 0 52.516-23.512 52.516-52.515"/>
        <path id="prefix__aG" d="M52.515.032C23.512.032 0 23.543 0 52.547c0 29.003 23.512 52.515 52.515 52.515 29.004 0 52.516-23.512 52.516-52.515"/>
        <path id="prefix__aI" d="M52.515.032C23.512.032 0 23.543 0 52.547c0 29.003 23.512 52.515 52.515 52.515 29.004 0 52.516-23.512 52.516-52.515"/>
        <path id="prefix__aK" d="M52.515.032C23.512.032 0 23.543 0 52.547c0 29.003 23.512 52.515 52.515 52.515 29.004 0 52.516-23.512 52.516-52.515"/>
        <path id="prefix__aM" d="M52.515.032C23.512.032 0 23.543 0 52.547c0 29.003 23.512 52.515 52.515 52.515 29.004 0 52.516-23.512 52.516-52.515"/>
        <path id="prefix__aO" d="M52.515.032C23.512.032 0 23.543 0 52.547c0 29.003 23.512 52.515 52.515 52.515 29.004 0 52.516-23.512 52.516-52.515"/>
        <path id="prefix__aQ" d="M52.515.032C23.512.032 0 23.543 0 52.547c0 29.003 23.512 52.515 52.515 52.515 29.004 0 52.516-23.512 52.516-52.515"/>
        <path id="prefix__aS" d="M52.515.032C23.512.032 0 23.543 0 52.547c0 29.003 23.512 52.515 52.515 52.515 29.004 0 52.516-23.512 52.516-52.515"/>
        <path id="prefix__aU" d="M52.515.032C23.512.032 0 23.543 0 52.547c0 29.003 23.512 52.515 52.515 52.515 29.004 0 52.516-23.512 52.516-52.515"/>
        <path id="prefix__aW" d="M52.515.032C23.512.032 0 23.543 0 52.547c0 29.003 23.512 52.515 52.515 52.515 29.004 0 52.516-23.512 52.516-52.515"/>
        <path id="prefix__aY" d="M52.515.032C23.512.032 0 23.543 0 52.547c0 29.003 23.512 52.515 52.515 52.515 29.004 0 52.516-23.512 52.516-52.515"/>
        <path id="prefix__ba" d="M52.515.032C23.512.032 0 23.543 0 52.547c0 29.003 23.512 52.515 52.515 52.515 29.004 0 52.516-23.512 52.516-52.515"/>
        <path id="prefix__bc" d="M0.148 0.174L24.687 0.174 24.687 25.074 0.148 25.074z"/>
        <path id="prefix__be" d="M0.148 0.174L24.687 0.174 24.687 25.074 0.148 25.074z"/>
    </defs>
    <g fill="none" fill-rule="evenodd" transform="translate(-9 -12)">
        <mask id="prefix__b" fill="#fff">
            <use xlink:href="#prefix__a"/>
        </mask>
        <path fill="#79374B" d="M49.712 119.807H22.167c-1.313 0-2.388-1.074-2.388-2.388V94.824c0-1.314 1.075-2.388 2.388-2.388h27.545c1.314 0 2.388 1.074 2.388 2.388v22.595c0 1.314-1.074 2.388-2.388 2.388" mask="url(#prefix__b)"/>
        <mask id="prefix__d" fill="#fff">
            <use xlink:href="#prefix__c"/>
        </mask>
        <path fill="#4A1711" d="M54.207 26.035C56.41 44.905 62.6 57.704 17.999 53.35c-7.432-.725-2.45-11.257 2.25-25.8 2.454-7.592 8.555-15.008 19.181-15.015 12.459-.008 13.861 5.663 14.777 13.5" mask="url(#prefix__d)"/>
        <mask id="prefix__f" fill="#fff">
            <use xlink:href="#prefix__e"/>
        </mask>
        <path fill="#BC6758" d="M91.318 55.176c-1.07-.585-5.9.565-7.792 4.47-.765 1.58-1.259 3.999-1.553 6.294-.014.108-.07.202-.157.265-2.161 1.562-5.756 5.762-10.028 8.961-1.853 1.388-3.278 2.723-4.36 3.972-.114.133-.325.094-.394-.07-.995-2.385-2.661-5.332-4.555-9.152-4.519-9.115-10.617-17.457-12.727-16.361-2.11 1.096-.158 9.374 4.361 18.489.985 1.987 2.076 4.019 2.944 5.827 1.484 3.095 4.741 7.914 6.404 9.096 1.058.752 2.243 1.1 3.332 1.07 2.731.146 6.594-3.066 10.482-8.202 1.99-2.628 3.443-5.676 4.811-8.073 1.025-1.794 4.184-5.304 6.704-8.508 2.669-3.392 3.599-7.493 2.528-8.078" mask="url(#prefix__f)"/>
        <mask id="prefix__h" fill="#fff">
            <use xlink:href="#prefix__g"/>
        </mask>
        <path fill="#004C4B" d="M87.965 63.366c-1.936-.427-3.842-.963-5.717-1.607-.54-.186-.861-.8-.717-1.352 1.117-4.267 2.31-8.513 3.58-12.737.165-.546.76-.903 1.316-.78 1.937.427 3.843.963 5.719 1.607.538.186.86.8.716 1.352-1.117 4.267-2.31 8.513-3.58 12.737-.165.546-.76.902-1.317.78" mask="url(#prefix__h)"/>
        <mask id="prefix__j" fill="#fff">
            <use xlink:href="#prefix__i"/>
        </mask>
        <path fill="#0A6D6E" d="M89.764 49.005l-1.62-.455c-.099-.028-.157-.133-.128-.233.028-.1.132-.16.231-.132l1.62.456c.099.027.157.132.128.232-.028.1-.132.16-.231.132" mask="url(#prefix__j)"/>
        <mask id="prefix__l" fill="#fff">
            <use xlink:href="#prefix__k"/>
        </mask>
        <path fill="#FEFEFE" d="M82.707 59.136L88.959 60.893 91.9 50.429 85.648 48.672z" mask="url(#prefix__l)"/>
        <mask id="prefix__n" fill="#fff">
            <use xlink:href="#prefix__m"/>
        </mask>
        <path fill="#0A6D6E" d="M85.972 60.55c.404.211.56.711.348 1.116-.212.404-.712.56-1.116.347-.405-.212-.56-.712-.348-1.116.212-.404.712-.56 1.116-.348" mask="url(#prefix__n)"/>
        <mask id="prefix__p" fill="#fff">
            <use xlink:href="#prefix__o"/>
        </mask>
        <path fill="#C7E8EC" d="M85.652 48.711L91.888 50.462 88.947 60.914 82.712 59.162z" mask="url(#prefix__p)"/>
        <mask id="prefix__r" fill="#fff">
            <use xlink:href="#prefix__q"/>
        </mask>
        <path fill="#FEFEFE" d="M85.622 48.691L84.799 51.611 91.509 51.782 91.862 50.449z" mask="url(#prefix__r)"/>
        <mask id="prefix__t" fill="#fff">
            <use xlink:href="#prefix__s"/>
        </mask>
        <path fill="#FEFEFE" d="M90.89 54.038L84.21 53.931 83.613 55.941 90.363 55.975z" mask="url(#prefix__t)"/>
        <mask id="prefix__v" fill="#fff">
            <use xlink:href="#prefix__u"/>
        </mask>
        <path fill="#BC6758" d="M81.4 62.01c.055-1.691.456-3.029.894-2.987.438.042.748 1.446.692 3.138-.056 1.692-.469 4.08-.907 4.038-.438-.042-.736-2.497-.68-4.189" mask="url(#prefix__v)"/>
        <mask id="prefix__x" fill="#fff">
            <use xlink:href="#prefix__w"/>
        </mask>
        <path fill="#8BCBEF" d="M29.58 48.075c-5.101.904-8.515 1.566-10.24 1.987-2.589.632-7.97 11.43-8.87 14.147-.9 2.719 8.87 9.82 9.765 8.45.896-1.37 1.744-7.164 2.215-5.478.321 1.15 0 8.349-.47 16.088-.254 4.167-2.65 10.188-2.65 10.655 0 .806.302 1.368.905 1.686 7.99 1.985 13.4 2.977 16.23 2.977 9.294 0 15.483-1.696 15.483-2.977v-6.727c-.142-5.84-.244-9.179-.305-10.019-.45-6.143.305-7.021 1.611-6.205 1.306.816 4.72-.816 6.738-3.096 1.344-1.52 2.187-3.295 2.527-5.325-4.902-7.853-8.753-12.18-11.552-12.978-2.799-.798-6.72-1.86-11.111-3.185H29.58z" mask="url(#prefix__x)"/>
        <mask id="prefix__z" fill="#fff">
            <use xlink:href="#prefix__y"/>
        </mask>
        <path fill="#59B2DA" d="M52.1 96.07c-.275 0-.497-.222-.497-.497 0-6.314-.092-11.88-.153-15.562-.033-1.976-.059-3.537-.059-4.477 0-2.644-.52-5.737-1.548-9.193-.078-.263.072-.54.335-.618.264-.078.541.071.62.335 1.054 3.548 1.588 6.736 1.588 9.476 0 .932.026 2.489.059 4.46.06 3.687.153 9.257.153 15.579 0 .275-.223.497-.498.497" mask="url(#prefix__z)"/>
        <mask id="prefix__B" fill="#fff">
            <use xlink:href="#prefix__A"/>
        </mask>
        <path fill="#8BCBEF" d="M19.32 72.628c.595-3.19 1.392-6.993 2.213-11.445l-9.106 2.342c-.393 1.282-.749 2.507-1.07 3.68.394 2.858 3.74 5.133 7.964 5.423" mask="url(#prefix__B)"/>
        <mask id="prefix__D" fill="#fff">
            <use xlink:href="#prefix__C"/>
        </mask>
        <path fill="#BC6758" d="M18.355 81.27c-.133-2.098.259-4.844.944-8.524-2.517-.856-6.244-4.106-7.839-5.916-2.04 7.434-2.765 13.07-1.968 16.156 1.27 4.913 8.928 17.844 11.322 21.373l3.764-2.502c-4.279-9.903-5.974-16.682-6.223-20.586" mask="url(#prefix__D)"/>
        <mask id="prefix__F" fill="#fff">
            <use xlink:href="#prefix__E"/>
        </mask>
        <path fill="#BC6758" d="M51.487 31.196c-.254-4.94 2.112-8.594-5.147-13.622-5.852-4.052-10.66-1.309-16.102 1.407-5.442 2.715-2.086 15.258-1.557 17.262.272 1.027.715 2.273 1.137 3.162.467.982 1.068 2.075 1.677 2.737.583.633 1.392 1.11 2.14 1.528 1.045.585 2.105 1.138 3.172 1.681l2.453.935.035.011c.356.088.707.174 1.051.256 2.321.552 4.346.908 5.514.113 1.343-.916 2.334-2.007 3.465-4.347.53-1.094 1.09-2.336 1.602-3.827.847-2.463.697-4.626.56-7.296" mask="url(#prefix__F)"/>
        <mask id="prefix__H" fill="#fff">
            <use xlink:href="#prefix__G"/>
        </mask>
        <path fill="#BC6758" d="M40.652 46.723l-.306-.17c-.344-.082-.695-.168-1.05-.256l1.356.426z" mask="url(#prefix__H)"/>
        <mask id="prefix__J" fill="#fff">
            <use xlink:href="#prefix__I"/>
        </mask>
        <path fill="#BC6758" d="M30.732 34.815c-.385 1.567-1.968 2.525-3.535 2.14-1.567-.385-2.525-1.968-2.14-3.535.386-1.567 1.968-2.525 3.535-2.14 1.567.386 2.526 1.968 2.14 3.535" mask="url(#prefix__J)"/>
        <g>
            <mask id="prefix__L" fill="#fff">
                <use xlink:href="#prefix__K"/>
            </mask>
            <path fill="#863525" d="M46.11 35.402c-.27-.757.35-1.854.675-2.01.325-.155.136.47.602 1.4.467.93-.119 1.501-.402 1.637-.283.135-.605-.27-.874-1.027" mask="url(#prefix__L)"/>
        </g>
        <g>
            <mask id="prefix__N" fill="#fff">
                <use xlink:href="#prefix__M"/>
            </mask>
            <path fill="#863525" d="M26.696 32.546c-.59.546-.55 1.804-.334 2.093.216.288.338-.353 1.182-.96.845-.608.591-1.386.403-1.637-.188-.251-.661-.041-1.251.504" mask="url(#prefix__N)"/>
        </g>
        <g>
            <mask id="prefix__P" fill="#fff">
                <use xlink:href="#prefix__O"/>
            </mask>
            <path fill="#FEFEFE" d="M46.924 41.155c-.305.328-1.548.304-3.197-.505-1.648-.81-2.71-2.525-2.186-2.244.525.281 1.834.94 3.173 1.269 1.34.33 1.994.333 2.574.346.579.013-.06.805-.364 1.134" mask="url(#prefix__P)"/>
        </g>
        <g>
            <mask id="prefix__R" fill="#fff">
                <use xlink:href="#prefix__Q"/>
            </mask>
            <path fill="#2D120F" d="M39.342 29.106c-.507-.053.581-1.147 2.018-.998 1.438.15 1.966.722 2.185 1.243.219.52-1.082-.398-2.068-.341-.987.057-1.627.148-2.135.096" mask="url(#prefix__R)"/>
        </g>
        <g>
            <mask id="prefix__T" fill="#fff">
                <use xlink:href="#prefix__S"/>
            </mask>
            <path fill="#2D120F" d="M42.539 30.152c-.166.672-.699 1.118-1.191.997-.493-.121-.758-.764-.593-1.435.165-.672.698-1.118 1.19-.997.493.12.759.763.594 1.435" mask="url(#prefix__T)"/>
        </g>
        <g>
            <mask id="prefix__V" fill="#fff">
                <use xlink:href="#prefix__U"/>
            </mask>
            <path fill="#2D120F" d="M52.259 31.937c.474.189.017-1.285-1.326-1.82-1.343-.534-2.076-.271-2.511.089-.436.36 1.142.149 1.99.656.848.508 1.373.886 1.847 1.075" mask="url(#prefix__V)"/>
        </g>
        <g>
            <mask id="prefix__X" fill="#fff">
                <use xlink:href="#prefix__W"/>
            </mask>
            <path fill="#2D120F" d="M51.09 31.738c-.166.672-.699 1.118-1.191.997-.493-.121-.758-.764-.593-1.435.165-.672.698-1.118 1.19-.997.493.12.758.764.593 1.435" mask="url(#prefix__X)"/>
        </g>
        <g>
            <mask id="prefix__Z" fill="#fff">
                <use xlink:href="#prefix__Y"/>
            </mask>
            <path fill="#2D120F" d="M40.468 25.982c-.502.019-2.08.32-2.222.325-.141.005.12-.563 1.983-1.322 1.863-.759 3.742.102 4.044.533.301.432.213.808-.254.826-.467.018-3.048-.382-3.55-.362" mask="url(#prefix__Z)"/>
        </g>
        <g>
            <mask id="prefix__ab" fill="#fff">
                <use xlink:href="#prefix__aa"/>
            </mask>
            <path fill="#2D120F" d="M51.89 28.26c.44.243 1.717 1.218 1.84 1.286.124.069.145-.556-1.18-2.07-1.325-1.512-3.39-1.585-3.854-1.335-.463.25-.553.627-.143.852.41.226 2.896 1.025 3.337 1.267" mask="url(#prefix__ab)"/>
        </g>
        <g>
            <mask id="prefix__ad" fill="#fff">
                <use xlink:href="#prefix__ac"/>
            </mask>
            <path fill="#BC6758" d="M32.497 108.907c-.168-.518-.387-1.033-.666-1.502-.27-.454-.603-.879-.952-1.273-.513-.579-1.114-1.066-1.724-1.538-.106-.105-.225-.198-.358-.276-.712-.546-1.445-1.07-2.215-1.534-.346-.208-.701-.401-1.07-.565-.487-.216-.979-.42-1.494-.556-.604-.158-1.229-.238-1.849-.298l-.476.064c-.233.055-.436.162-.609.32-.134.08-.241.188-.321.322-.158.173-.265.376-.32.61-.072.314-.072.637 0 .951.055.233.162.437.32.61.126.194.294.348.503.46l.853.619 2.05 1.485 2.493 1.804 2.145 1.554c.347.251.689.515 1.044.755l.015.011.428.18.476.065.476-.064c.233-.056.436-.163.609-.321.135-.08.242-.187.321-.321.111-.112.188-.244.23-.395.082-.14.122-.29.123-.452.053-.238.043-.477-.032-.715" mask="url(#prefix__ad)"/>
        </g>
        <g>
            <mask id="prefix__af" fill="#fff">
                <use xlink:href="#prefix__ae"/>
            </mask>
            <path fill="#4A1711" d="M46.539 14.843c1.306 2.978-2.414 7.464-8.309 10.017-5.895 2.554-11.733 2.21-13.039-.769-1.306-2.979 2.414-7.464 8.31-10.018 5.894-2.554 11.732-2.21 13.038.77" mask="url(#prefix__af)"/>
        </g>
        <g>
            <mask id="prefix__ah" fill="#fff">
                <use xlink:href="#prefix__ag"/>
            </mask>
            <path fill="#4A1711" d="M19.771 37.006c.061 1.693-.941 3.08-2.24 3.1-1.298.018-2.4-1.338-2.462-3.031-.061-1.693.942-3.08 2.24-3.1 1.298-.019 2.4 1.338 2.462 3.03" mask="url(#prefix__ah)"/>
        </g>
        <g>
            <mask id="prefix__aj" fill="#fff">
                <use xlink:href="#prefix__ai"/>
            </mask>
            <path fill="#4A1711" d="M24.746 34.65c.039 1.36-.988 2.488-2.293 2.521-1.306.033-2.395-1.042-2.434-2.401-.039-1.36.988-2.488 2.293-2.52 1.306-.034 2.395 1.041 2.434 2.4" mask="url(#prefix__aj)"/>
        </g>
        <g>
            <mask id="prefix__al" fill="#fff">
                <use xlink:href="#prefix__ak"/>
            </mask>
            <path fill="#4A1711" d="M55.236 23.912c.046 1.358-.833 2.477-1.964 2.498-1.131.022-2.085-1.063-2.13-2.421-.047-1.359.833-2.478 1.964-2.499 1.13-.021 2.084 1.063 2.13 2.422" mask="url(#prefix__al)"/>
        </g>
        <g>
            <mask id="prefix__an" fill="#fff">
                <use xlink:href="#prefix__am"/>
            </mask>
            <path fill="#4A1711" d="M56.674 27.543c.052 1.358-.693 2.468-1.664 2.478-.971.01-1.801-1.082-1.853-2.44-.053-1.358.693-2.468 1.664-2.478.971-.01 1.8 1.082 1.853 2.44" mask="url(#prefix__an)"/>
        </g>
        <g>
            <mask id="prefix__ap" fill="#fff">
                <use xlink:href="#prefix__ao"/>
            </mask>
            <path fill="#4A1711" d="M29.885 29.117c-.804 1.716-2.433 2.617-3.639 2.01-1.205-.605-1.531-2.488-.727-4.205.804-1.717 2.433-2.617 3.638-2.01 1.206.605 1.532 2.488.728 4.205" mask="url(#prefix__ap)"/>
        </g>
        <g>
            <mask id="prefix__ar" fill="#fff">
                <use xlink:href="#prefix__aq"/>
            </mask>
            <path fill="#4A1711" d="M32.099 27.084c-.65 1.419-1.752 2.264-2.46 1.889-.707-.375-.753-1.83-.103-3.248.65-1.419 1.752-2.264 2.46-1.889.707.375.753 1.83.103 3.248" mask="url(#prefix__ar)"/>
        </g>
        <g>
            <mask id="prefix__at" fill="#fff">
                <use xlink:href="#prefix__as"/>
            </mask>
            <path fill="#4A1711" d="M16.907 51.635c-.536 1.578-1.599 2.638-2.374 2.368-.776-.27-.97-1.767-.433-3.344.536-1.577 1.599-2.637 2.374-2.368.775.27.97 1.767.433 3.344" mask="url(#prefix__at)"/>
        </g>
        <g>
            <mask id="prefix__av" fill="#fff">
                <use xlink:href="#prefix__au"/>
            </mask>
            <path fill="#4A1711" d="M18.09 41.839c-.537 1.577-1.6 2.637-2.375 2.368-.776-.27-.97-1.767-.434-3.344.536-1.578 1.6-2.638 2.375-2.368.775.27.97 1.766.433 3.344" mask="url(#prefix__av)"/>
        </g>
        <g>
            <mask id="prefix__ax" fill="#fff">
                <use xlink:href="#prefix__aw"/>
            </mask>
            <path fill="#4A1711" d="M17.502 46.992c-.763 2.245-2.277 3.754-3.38 3.37-1.104-.383-1.38-2.514-.617-4.76.763-2.245 2.276-3.754 3.38-3.37 1.104.384 1.38 2.515.617 4.76" mask="url(#prefix__ax)"/>
        </g>
        <g>
            <mask id="prefix__az" fill="#fff">
                <use xlink:href="#prefix__ay"/>
            </mask>
            <path fill="#4A1711" d="M56.676 31.721c.038 1.36-1.173 2.87-1.971 2.89-.798.02-.88-1.459-.919-2.818-.038-1.359.578-2.477 1.376-2.496.797-.02 1.475 1.065 1.514 2.424" mask="url(#prefix__az)"/>
        </g>
        <g>
            <mask id="prefix__aB" fill="#fff">
                <use xlink:href="#prefix__aA"/>
            </mask>
            <path fill="#4A1711" d="M22.456 32.075c.071 2.05-1.207 3.735-2.856 3.763-1.649.028-3.043-1.611-3.115-3.661-.071-2.05 1.207-3.736 2.856-3.764 1.649-.028 3.043 1.611 3.115 3.662" mask="url(#prefix__aB)"/>
        </g>
        <g>
            <mask id="prefix__aD" fill="#fff">
                <use xlink:href="#prefix__aC"/>
            </mask>
            <path fill="#4A1711" d="M58.513 48.176c.409 2.73-.64 5.095-2.341 5.28-1.702.186-3.413-1.877-3.822-4.609-.409-2.731.64-5.095 2.342-5.281 1.701-.185 3.412 1.878 3.82 4.61" mask="url(#prefix__aD)"/>
        </g>
        <g>
            <mask id="prefix__aF" fill="#fff">
                <use xlink:href="#prefix__aE"/>
            </mask>
            <path fill="#4A1711" d="M57.63 42.471c.066 2.303-1.216 4.204-2.864 4.246-1.648.042-3.037-1.792-3.103-4.095-.066-2.303 1.217-4.204 2.865-4.246 1.647-.041 3.037 1.792 3.102 4.095" mask="url(#prefix__aF)"/>
        </g>
        <g>
            <mask id="prefix__aH" fill="#fff">
                <use xlink:href="#prefix__aG"/>
            </mask>
            <path fill="#4A1711" d="M58.2 37.162c.065 2.303-.734 4.191-1.785 4.218-1.051.027-1.957-1.82-2.023-4.122-.065-2.303.734-4.192 1.785-4.219 1.051-.026 1.957 1.82 2.023 4.123" mask="url(#prefix__aH)"/>
        </g>
        <g>
            <mask id="prefix__aJ" fill="#fff">
                <use xlink:href="#prefix__aI"/>
            </mask>
            <path fill="#4A1711" d="M54.759 48.373c.079 2.775-1.079 5.056-2.585 5.095-1.506.039-2.79-2.179-2.87-4.953-.078-2.775 1.08-5.055 2.585-5.094 1.506-.04 2.791 2.178 2.87 4.952" mask="url(#prefix__aJ)"/>
        </g>
        <g>
            <mask id="prefix__aL" fill="#fff">
                <use xlink:href="#prefix__aK"/>
            </mask>
            <path fill="#4A1711" d="M23.14 28.178c-.74 2.183-2.145 3.676-3.14 3.336-.995-.34-1.203-2.386-.465-4.568.739-2.183 2.144-3.676 3.14-3.336.994.34 1.202 2.385.464 4.568" mask="url(#prefix__aL)"/>
        </g>
        <g>
            <mask id="prefix__aN" fill="#fff">
                <use xlink:href="#prefix__aM"/>
            </mask>
            <path fill="#4A1711" d="M50.612 17.654c.971 2.088 2.869 4.805 1.31 6.047-1.525 1.217-4.097-1.98-5.068-4.068-.97-2.089-.987-4.148-.038-4.6.95-.453 2.826.532 3.796 2.62" mask="url(#prefix__aN)"/>
        </g>
        <g>
            <mask id="prefix__aP" fill="#fff">
                <use xlink:href="#prefix__aO"/>
            </mask>
            <path fill="#BC6758" d="M31.759 43.447c0 1.263-.693 2.804-2.08 4.624.544 1.654 1.852 3.213 3.927 4.677 3.111 2.196 4.615 1.046 6.056 0 1.442-1.046 1.558-2.693 1.067-3.207-1.391-1.458-1.525-4.27-.4-4.798-3.864-.38-6.972-1.49-8.834-2.601.304.426.264.884.264 1.305" mask="url(#prefix__aP)"/>
        </g>
        <g>
            <mask id="prefix__aR" fill="#fff">
                <use xlink:href="#prefix__aQ"/>
            </mask>
            <path fill="#863525" d="M39.613 46.817c.037.345.009.312.095.761-1.971-1.034-3.23-1.786-3.493-2.257-.491-.581-.299-.58 1.143-.096.961.323 1.776.73 2.86 1.297-.64-.062-.627.082-.605.295" mask="url(#prefix__aR)"/>
        </g>
        <g>
            <mask id="prefix__aT" fill="#fff">
                <use xlink:href="#prefix__aS"/>
            </mask>
            <path fill="#4F2522" d="M29.84 27.12c-.269 0-.49-.215-.497-.485-.008-.275.21-.503.484-.51 2.99-.081 5.903-.692 8.2-1.719 4.683-2.094 6.073-3.6 7.871-7.061.127-.244.427-.339.671-.212.244.126.339.427.212.67-1.886 3.633-3.431 5.313-8.348 7.512-2.414 1.08-5.46 1.72-8.58 1.804h-.013" mask="url(#prefix__aT)"/>
        </g>
        <g>
            <mask id="prefix__aV" fill="#fff">
                <use xlink:href="#prefix__aU"/>
            </mask>
            <path fill="#4F2522" d="M16.957 34.444c-.07 0-.143-.015-.21-.046-1.024-.478-1.166-2.21-.332-4.03.535-1.168 1.363-2.076 2.16-2.369.395-.145.778-.14 1.106.013.25.116.357.412.24.661-.116.25-.412.357-.66.24-.106-.049-.244-.016-.342.02-.45.165-1.119.801-1.6 1.85-.632 1.379-.51 2.546-.152 2.713.25.116.357.412.24.661-.084.181-.263.287-.45.287" mask="url(#prefix__aV)"/>
        </g>
        <g>
            <mask id="prefix__aX" fill="#fff">
                <use xlink:href="#prefix__aW"/>
            </mask>
            <path fill="#4F2522" d="M55.482 46.723c-.142 0-.281-.023-.415-.07-.26-.09-.396-.373-.306-.633.09-.26.373-.397.633-.306.11.038.244-.009.337-.055.431-.21 1.032-.911 1.403-2.004.488-1.435.248-2.584-.125-2.713-.26-.09-.397-.374-.307-.634.09-.26.374-.397.633-.306 1.067.37 1.385 2.079.741 3.974-.414 1.217-1.145 2.205-1.908 2.577-.23.113-.462.17-.686.17" mask="url(#prefix__aX)"/>
        </g>
        <g>
            <mask id="prefix__aZ" fill="#fff">
                <use xlink:href="#prefix__aY"/>
            </mask>
            <path fill="#4F2522" d="M27.374 30.463c-.228 0-.434-.158-.485-.39-.06-.269.11-.535.378-.594.143-.031.282-.058.423-.085.6-.115 1.221-.233 2.482-.838.83-.4 1.337-.979 1.47-1.376.04-.12.046-.224.016-.285-.126-.244-.03-.544.215-.67.244-.125.544-.029.67.216.157.306.172.671.043 1.056-.248.738-1.008 1.487-1.984 1.956-1.377.661-2.093.798-2.725.918-.132.026-.262.05-.395.08-.036.008-.072.012-.108.012" mask="url(#prefix__aZ)"/>
        </g>
        <g>
            <mask id="prefix__bb" fill="#fff">
                <use xlink:href="#prefix__ba"/>
            </mask>
            <path fill="#4F2522" d="M54.622 26.307c-.197 0-.383-.117-.461-.31-.104-.255.019-.545.273-.648.092-.038.167-.125.223-.26.155-.377.101-.983-.138-1.545-.365-.858-1.047-1.362-1.39-1.222-.255.104-.545-.02-.648-.273-.104-.255.019-.545.273-.649.925-.376 2.102.395 2.68 1.754.35.82.402 1.685.143 2.314-.159.385-.424.663-.768.802-.061.025-.125.037-.187.037" mask="url(#prefix__bb)"/>
        </g>
        <g transform="translate(85.938 16.699)">
            <mask id="prefix__bd" fill="#fff">
                <use xlink:href="#prefix__bc"/>
            </mask>
            <path fill="#020303" d="M12.417.174c6.777 0 12.27 5.574 12.27 12.45 0 6.876-5.493 12.45-12.27 12.45-6.776 0-12.27-5.574-12.27-12.45 0-6.876 5.494-12.45 12.27-12.45" mask="url(#prefix__bd)"/>
            <mask id="prefix__bf" fill="#fff">
                <use xlink:href="#prefix__be"/>
            </mask>
            <path fill="#07A87E" d="M12.417.174c6.777 0 12.27 5.574 12.27 12.45 0 6.876-5.493 12.45-12.27 12.45-6.776 0-12.27-5.574-12.27-12.45 0-6.876 5.494-12.45 12.27-12.45" mask="url(#prefix__bf)"/>
            <path fill="#FEFEFE" d="M8.147 19.595l1.507-8.63c.081-.467.483-.807.952-.807h3.52c.48 0 .888.355.957.835l1.257 8.63c.086.59-.367 1.12-.957 1.12H9.1c-.602 0-1.056-.549-.952-1.148"/>
            <path fill="#FEFEFE" d="M6.948 11.548h10.919c.491 0 .758-.587.437-.969l-5.592-6.658c-.233-.278-.658-.272-.885.01l-5.326 6.66c-.306.382-.039.957.447.957"/>
        </g>
    </g>
</svg>
