<svg width="24" height="24" viewBox="0 0 24 24">
    <g fill="none" fill-rule="evenodd">
        <path fill="crystal" fill-opacity="0" d="M0 0H24V24H0z"/>
        <path fill="#000000" d="M20.825 4.92c.553 1.519-.245 3.204-1.783 3.764-.332.12-.67.179-1.004.181l-.853 3.15c.583.33 1.055.859 1.301 1.535.553 1.519-.245 3.204-1.782 3.764-1.538.56-3.232-.219-3.785-1.738-.241-.66-.226-1.353-.006-1.97l-2.705-1.944c-.262.222-.567.402-.909.526-.34.124-.687.182-1.028.182l-.851 3.137c.593.329 1.074.863 1.323 1.547.553 1.52-.245 3.205-1.782 3.765-1.538.56-3.233-.219-3.786-1.738-.553-1.52.245-3.205 1.783-3.765.34-.123.687-.182 1.028-.181l.851-3.137c-.593-.33-1.074-.863-1.323-1.548-.553-1.519.245-3.204 1.782-3.764 1.538-.56 3.232.219 3.785 1.738.25.686.224 1.407-.02 2.042l2.674 1.92c.275-.243.6-.44.966-.574.348-.127.704-.185 1.053-.182l.848-3.125c-.603-.328-1.093-.866-1.345-1.56-.553-1.519.245-3.204 1.782-3.764 1.538-.56 3.233.219 3.786 1.738zM5.459 16.691c-.77.28-1.168 1.122-.892 1.882.277.76 1.124 1.149 1.893.869.769-.28 1.168-1.122.891-1.882-.276-.76-1.124-1.149-1.892-.87zm9.743-3.505c-.77.28-1.168 1.123-.892 1.882.277.76 1.124 1.15 1.893.87.769-.28 1.168-1.123.891-1.883-.276-.76-1.124-1.149-1.892-.869zM7.797 8.062c-.769.28-1.168 1.122-.891 1.882.276.76 1.124 1.149 1.892.869.77-.28 1.168-1.123.892-1.882-.277-.76-1.124-1.15-1.893-.87zm9.743-3.505c-.769.28-1.168 1.122-.891 1.882.276.76 1.124 1.149 1.892.87.77-.28 1.168-1.123.892-1.883-.277-.76-1.124-1.149-1.893-.869z"/>
    </g>
</svg>
