<svg width="12" height="12" viewBox="0 0 12 12">
    <g fill="none" fill-rule="evenodd">
        <path fill="crystal" fill-opacity="0" d="M0 0H12V12H0z"/>
        <path fill="#000000" d="M4.521 10.5c-.16 0-.319-.014-.46-.094-.27-.154-.395-.391-.395-.702.003-.7.001-1.4 0-2.1 0-.241-.005-.483.003-.724.005-.135-.05-.17-.175-.168-.4.006-.8.009-1.2 0-.5-.01-.842-.406-.788-.892.022-.202.129-.356.267-.495.43-.43.858-.863 1.287-1.294.728-.734 1.457-1.466 2.183-2.201.274-.278.598-.382.98-.306.22.044.392.17.548.328.768.776 1.538 1.55 2.308 2.324l1.163 1.17c.2.202.3.44.241.726-.078.38-.385.633-.786.64-.375.007-.75.002-1.125.002-.253.001-.254.002-.254.264 0 .908-.004 1.816.002 2.724.001.292-.1.519-.345.678-.152.1-.325.12-.502.12H4.522z"/>
    </g>
</svg>
