<svg width="24" height="24" viewBox="0 0 24 24">
    <g fill="none" fill-rule="evenodd">
        <path fill="crystal" fill-opacity="0" d="M0 0H24V24H0z"/>
        <path fill="#000000" d="M9.043 21c-.32 0-.638-.027-.92-.188-.542-.307-.792-.783-.79-1.404.004-1.4.001-2.8 0-4.199 0-.483-.012-.967.005-1.45.01-.269-.1-.338-.35-.334-.8.01-1.601.016-2.401-.001-.997-.021-1.683-.812-1.576-1.785.045-.403.258-.71.536-.988.86-.862 1.716-1.726 2.573-2.59C7.576 6.594 9.034 5.13 10.487 3.66c.547-.555 1.195-.763 1.958-.61.442.088.785.34 1.097.655 1.535 1.552 3.077 3.099 4.616 4.647l2.326 2.342c.401.404.6.88.482 1.45-.157.761-.77 1.266-1.572 1.282-.75.014-1.5.002-2.25.004-.506.001-.508.003-.508.527-.002 1.816-.009 3.632.003 5.449.004.583-.199 1.037-.688 1.356-.306.2-.651.239-1.006.239H9.043z"/>
    </g>
</svg>
