<svg width="49" height="48" viewBox="0 0 24 24">
    <path fill="#000000" fill-rule="evenodd" d="M15.84 4.008c1.447.006 2.414.727 2.86 2.101.204.63.393 1.265.594 1.896.127.398.131.395.544.407.456.014.914-.039 1.368.035.383.063.627.291.747.654.117.353.006.652-.233.913a.815.815 0 0 1-.452.252c-.133.026-.265.062-.455.108.432.673.398 1.391.396 2.105-.003.732-.005 1.464-.001 2.197.003.61-.147 1.175-.525 1.664-.139.18-.543.37-.54.585.004.523-.01 1.046.003 1.57.023.924-.662 1.56-1.505 1.501-.42-.029-.103.003-.524-.008-.765-.02-1.287-.496-1.372-1.246-.02-.173-.01-.348-.012-.523-.01-.853.085-.733-.771-.738-1.01-.006-2.29-.003-3.377-.002h-.525c-1.3 0-2.97-.002-4.271.001-.469.002-.47.007-.478.456-.004.261.009.524-.006.784a1.305 1.305 0 0 1-1.29 1.264c-.508.019-.278.019-.787 0-.743-.028-1.27-.565-1.292-1.315a37.113 37.113 0 0 1-.002-1.673c.004-.252-.415-.466-.575-.678-.368-.49-.522-1.056-.52-1.667.003-.802.012-1.604-.004-2.406-.012-.637.053-1.253.386-1.844C2.552 10.374 2 10.118 2 9.356c0-.761.839-.945 1.723-.945l.369.001c.545-.003.547-.002.715-.537.189-.598.37-1.199.563-1.796.428-1.33 1.411-2.064 2.828-2.07 2.547-.012 5.095-.011 7.643-.001zm-8.673 7.42l-.856.006c-.584.007-.927.278-.96.776a8.408 8.408 0 0 0-.003 1.039c.03.514.378.79.986.805.278.006.555.001.833.001.277 0 .555.006.832-.001.609-.015.956-.291.986-.806a8.4 8.4 0 0 0-.002-1.038c-.033-.498-.377-.77-.96-.776-.571-.007-1.142-.007-1.712 0zm10.467 0l-.467.004c-.312 0-.623-.009-.934.002-.537.017-.869.294-.888.753-.016.358-.014.718-.002 1.077.016.456.34.76.867.777.637.021 1.276.021 1.913 0 .528-.017.851-.321.867-.777.013-.359.014-.719-.001-1.077-.02-.459-.351-.736-.889-.753-.31-.01-.622-.002-.933-.002zm-1.758-5.977c-2.548.018-5.096.003-7.645.009-.879.001-1.246.346-1.517 1.168-.24.728-.438 1.245-.666 1.977-.033.108-.104.226.005.355l12.137-.08c-.273-.881-.502-1.468-.746-2.283-.227-.763-.73-1.153-1.568-1.146z"/>
</svg>
