<svg width="209" height="150" viewBox="0 0 209 150">
    <g fill="none" fill-rule="evenodd">
        <path fill="#3D98D2" fill-opacity=".1" fill-rule="nonzero" stroke="#84CEFD" stroke-linejoin="round" stroke-width="4.5" d="M202.192 42.317c-.901-1.155-2.023-2.143-2.85-3.35-.5-.737-.626-1.742-.909-2.631-.892-2.838-1.933-3.25-4.362-1.712-.448-.236-.897-.477-1.822-.969-.46 2.627-1.147 4.936-1.21 7.266-.07 3.233-1.686 5.81-4.782 6.628-2.217.587-4.414 1.325-6.67 1.656-2.056.297-3.187 1.557-4.2 3.074-.643.953-1.143 2.004-1.731 3.043.285.571.63 1.259.903 1.79-1.51 2.093-3.454 2.51-5.714 2.349-.813-.06-1.731.258-2.471.649-.387.2-.82 1.2-.665 1.393 1.214 1.564.092 2.449-.912 3.23-1.998 1.562-4.154 2.924-6.115 4.524-2.508 2.051-3.845 2.236-6.787.367.736-1.258 1.487-2.53 2.223-3.814.142-.251.333-.578.283-.819-.358-1.681-.637-3.404-1.218-5.015-.445-1.215-1.382-1.316-2.262-.225-.44.541-.882 1.078-1.33 1.617-.204-.12-.408-.24-.62-.36.369-.78.701-1.577 1.12-2.331 1.167-2.122.422-4.622-1.53-5.709-.266.01-.528.035-.805.035-3.334 0-5.846-1.263-7.571-3.16-1.573-.24-3.127-.586-4.61-1.142-1.662-.623-3.177-1.412-4.55-2.335-1.083.734-2.17 1.465-3.244 2.214-1.663 1.16-2.257 1.029-3.264-.747l-3.2 1.417c-.12-.195-.239-.403-.361-.603 1.06-.814 2.145-1.652 3.21-2.47-3.058-.183-6.072-1.663-8.199-4.934-.133-.206-.285-.393-.427-.588-.768.116-1.474-.022-2.049-.38-.976-.002-1.957-.166-2.911-.54-.871-.34-1.751-.672-2.637-.99-28.045-.167-55.55-3.986-82.65-11.516v5.709c-.516-.715-.818-1.523-1.389-1.86-1.69-.984-3.486-1.783-5.604-2.83.066 1.41.146 2.705.176 3.996.141 5.88-1.852 11.233-4.32 16.396-1.473 3.078-3.61 5.868-3.093 9.57.287 2.052-.642 3.633-1.809 5.24-.502.687-.408 1.898-.378 2.867.026 1.005.75 2.214.387 2.968-1.45 3.028 1.5 5.236 1.218 7.983 0 .005.161.005.166.03.206.844.433 1.682.577 2.541.126.763-.14 1.875.285 2.26 1.039.955 1.852 1.625.397 2.867-.184.161-.075.857.09 1.211.713 1.512 1.605 2.938 2.212 4.485.371.936.713 2.16.42 3.037-.55 1.624.136 2.025 1.432 2.491 1.058.374 2.351.85 2.91 1.7.881 1.342 2.355 1.857 3.385 3.045 1.369 1.576 2.817 2.83 2.764 5.08-.03 1.165.326 1.694 1.69 1.844 3.262.352 6.55.234 9.4 2.79 2.358 2.118 5.62 3.187 8.27 5.03 4.574 3.173 9.912 2.618 14.954 3.72.195-.876.335-1.51.48-2.148 1.676.22 3.247.299 4.747.656.843.201 1.69.743 2.338 1.342 1.354 1.258 2.678 2.58 3.822 4.031.791 1.003 1.25 2.275 1.864 3.42.532.994.87 2.192 1.642 2.914 1.212 1.132 2.722 1.942 4.297 3.007.573-.65 1.311-1.145 1.558-1.826.44-1.22 1.154-2.143 2.397-2.102 1.195.043 2.684.206 3.486.928 1.313 1.174 2.212 2.826 3.219 4.317 1.192 1.77 2.338 3.578 3.475 5.382.224.344.43.735.498 1.123.468 2.64 1.309 4.964 4.233 5.827 1.28.378 2.509.924 3.79 1.293.615.172 1.293.118 1.765.155-.403-2.002-1.109-3.64-.97-5.215.337-3.834 2.571-6.347 6.223-7.659 1.14-.415 2.422-.964 3.165-1.85.984-1.183 1.735-2.173 3.456-2.542 2.386-.511 4.624-1.175 7.093-.34.786.265 1.833-.242 2.762-.403-.002-.202-.011-.4-.013-.604 2.231 1.29 4.154 3.415 7.316 2.558.841-1.77 2.155-3.299 3.942-4.317-.035-.314-.223-.661-.667-1.074 1.847-.423 4.025-1.645 5.104-1.007 1.877 1.117 3.06.013 4.433-.318 2.107-.511 3.827.251 5.544 1.145.45.234.667.936 1.206 1.742 1.09-.52 2.604-.85 3.523-1.774 1.69-1.704 2.695-.445 3.838.478.807.66 1.403 1.822 2.292 2.082 1.774.515 2.044 1.946 1.645 3.02-.82 2.197.436 3.653 1.365 5.176.869 1.417 2.13 2.575 3.18 3.88.59.74.963 2.017 1.67 2.224 1.51.427 2.027 1.501 2.69 2.635.163.277.736.524 1.055.466 1.652-.307 2.46-.99 2.622-3.041.21-2.676.431-5.071-1.264-7.39-.935-1.277-1.506-2.823-2.18-4.275-.33-.713-.306-1.72-.813-2.206-1.77-1.681-2.56-3.896-3.716-5.945-2.182-3.876.296-9.718 2.727-11.984 1.54-1.43 3.339-2.668 3.854-5.058.19-.868 1.605-1.46 2.433-2.206.558-.503 1.073-1.048 1.596-1.585 1.114-1.15 2.195-2.333 3.339-3.456.48-.479 1.064-.844 1.572-1.233-.549-.726-.89-1.183-1.287-1.703 1.644-.55 2.845-1.28 2.525-3.067-.16-.123-.313-.258-.463-.391-.45-.155-.903-.31-1.506-.515.27-.131.474-.226.663-.316-1.727-1.942-2.622-4.538-2.693-7.163-.148-.921-.309-1.914-.491-3.054.246.217.467.406.667.582.12-.685.311-1.353.55-2.002-.003-.054-.018-.103-.018-.155 0-3.82 2.098-7.201 5.167-9.106-.056-.18-.093-.361-.174-.546 2.04-1.452 3.83-2.723 5.632-4.003-.425-.556-.667-.879-.91-1.194.172-.15.251-.237.346-.307 1.175-.851 2.315-1.757 3.531-2.537 2.648-1.686-.274-2.425-.577-3.606-.075-.3-.285-.578-.307-.879-.13-2.386-.032-4.66 2.077-6.376 1.088-.89 1.846-2.185 2.914-3.1 1.453-1.235 3.064-2.283 4.825-3.574-.452-.8-.808-1.63-1.345-2.313z" transform="translate(.5 .876)"/>
        <g transform="translate(.5 .876) translate(181.073 6.807)">
            <path fill="#00A87E" d="M12.934 0c7.143 0 12.934 5.797 12.934 12.949 0 4.223-4.06 12.89-12.18 26.002-.262.423-.816.553-1.239.291-.115-.07-.213-.167-.285-.281C4.054 26.23 0 17.56 0 12.949 0 5.797 5.79 0 12.934 0z"/>
            <circle cx="12.934" cy="12.934" r="7.488" fill="#FFF"/>
        </g>
        <path stroke="#00A87E" stroke-dasharray="2.7 15.3" stroke-linecap="round" stroke-width="5.4" d="M26.597 64.161c9.506-25.4 32.115-41.732 67.83-48.998 35.713-7.265 62.896-4.408 81.547 8.571" transform="translate(.5 .876)"/>
        <g transform="translate(.5 .876) rotate(-7 652.42 38.325)">
            <rect width="60.775" height="45.091" x="5.881" fill="#F4BE19" rx="2.592"/>
            <rect width="18.625" height="45.091" fill="#F3A70C" rx="2.592"/>
            <path fill="#FFDB6E" d="M4.901 0L14.704 0 14.704 20.585 13.061 19.403 11.249 20.585 9.802 19.403 7.913 20.585 6.14 19.693 4.901 20.585z"/>
            <rect width="24.506" height="15.684" x="24.506" y="23.526" fill="#FFF" stroke="#DADBE2" stroke-width="1.296" rx="1.296"/>
            <rect width="20.585" height="1.96" x="26.467" y="26.467" fill="#DADBE2" rx=".98"/>
            <rect width="20.585" height="1.96" x="26.467" y="30.388" fill="#DADBE2" rx=".98"/>
            <rect width="20.585" height="1.96" x="26.467" y="34.309" fill="#DADBE2" rx=".98"/>
        </g>
    </g>
</svg>
