<svg xmlns="http://www.w3.org/2000/svg" xmlns:xlink="http://www.w3.org/1999/xlink" width="323" height="268" viewBox="0 0 323 268">
    <defs>
        <path id="prefix__a" d="M0 0L268 0 268 268 0 268z"/>
        <path id="prefix__c" d="M0 0.034L24.821 0.034 24.821 16 0 16z"/>
        <path id="prefix__e" d="M0.01 0.165L20.959 0.165 20.959 9.8 0.01 9.8z"/>
        <path id="prefix__g" d="M0 225L323 225 323 1 0 1z"/>
    </defs>
    <g fill="none" fill-rule="evenodd">
        <g opacity=".15" transform="translate(19)">
            <mask id="prefix__b" fill="#fff">
                <use xlink:href="#prefix__a"/>
            </mask>
            <path fill="#8CE" d="M268 134c0 74.006-59.994 134-134 134S0 208.006 0 134 59.994 0 134 0s134 59.994 134 134" mask="url(#prefix__b)"/>
        </g>
        <g transform="translate(0 43)">
            <path fill="#4C4F5F" d="M48 216v7.32c0 .375.33.68.737.68h24.526c.407 0 .737-.305.737-.68v-.003c-.008-2.81-1.271-4.713-3.79-5.708-2.716-1.073-6.19-1.609-10.422-1.609H48z"/>
            <g transform="translate(0 209)">
                <mask id="prefix__d" fill="#fff">
                    <use xlink:href="#prefix__c"/>
                </mask>
                <path fill="#4C4F5F" d="M2.561.034L.031 8.181c-.116.375.099.772.48.886l22.926 6.902c.38.114.782-.096.9-.47.987-3.138.466-5.619-1.564-7.44-2.172-1.947-5.236-3.517-9.192-4.708L2.561.034z" mask="url(#prefix__d)"/>
            </g>
            <path fill="#8E9096" d="M67.35 110.525c.866 22.504.866 40.771 0 54.8-1.297 21.044-3.419 50.474-3.419 51.544 0 1.07-2.49 1.11-7.327 1.11-2.011 0-8.532.287-8.532-1.23 0-5.608.236-15.417 0-23.387-.186-6.276-.186-12.963 0-20.062l.972-27.784c.392-9.147.057-12.697-1.006-10.65-.334.644-2.245 4.974-3.517 12.892-1.354 8.417-2.207 15.055-4.345 22.697-2.137 7.643-22.774 42.39-23.372 43.95-.596 1.56-15.222-3.394-14.795-4.894.428-1.502 6.675-16.744 11.432-26.686 4.757-9.942 6.45-13.972 7.962-21.157 1.511-7.184 1.643-10.859 3.343-23.193.345-2.495.792-13.898 2.33-19.573 1.026-3.784 2.712-7.418 5.057-10.902l35.218 2.525z"/>
            <path fill="#7F3020" d="M117.623 55.85c-1.226-.89-7.38-.278-10.364 4.178-.322.48-.63 1.04-.923 1.652-.03.418-.082.864-.16 1.326-.35 2.055-1.256 4.901-1.79 4.778-.065-.014-.122-.074-.17-.168-.042.054-.094.1-.156.132-2.928 1.552-8.063 6.087-13.869 9.29-2.518 1.39-4.5 2.786-6.041 4.132-.164.144-.419.061-.476-.15-.833-3.073-2.402-6.94-4.107-11.911C75.498 57.248 69.351 46.07 66.564 47.06c-2.787.992-1.75 11.41 2.32 23.272.887 2.586 1.897 5.244 2.668 7.592 1.32 4.02 4.543 10.432 6.4 12.148 1.18 1.09 2.587 1.71 3.936 1.851 3.35.625 8.652-2.661 14.304-8.29 2.893-2.88 5.194-6.361 7.28-9.061 1.563-2.022 6.046-5.787 9.69-9.282 3.858-3.702 5.686-8.552 4.46-9.441"/>
            <path fill="#7F3020" d="M105.16 66.996c.504.12 1.36-2.675 1.689-4.693.074-.454.123-.893.151-1.303-.758 1.646-1.408 3.688-1.922 5.669-.016.06-.043.114-.078.162.046.092.1.15.16.165M29.576 108.244c-1.39-11.443-2.081-19.213-2.071-23.308.01-4.096 1.272-11.075 3.789-20.936l-9.696 1.829c-3.666 9.593-5.14 16.28-4.421 20.059 1.079 5.669 3.784 21.856 5.13 23.632.686.906.099 8.646 1.153 11.533 1.055 2.887 2.977 6.907 4.045 6.946 1.546.056 5.895-2.954 6.884-5.647.266-.725.143-.805.39-1.437.308-.788 1.221.27 1.221-1.43 0-1.038-.907-2.775-2.72-5.21l-3.704-6.03z"/>
            <path fill="#7F3020" d="M105 67c.035-.045.061-.097.077-.154.507-1.885 1.149-3.828 1.897-5.395.095-1.344-.075-2.356-.46-2.445-.498-.114-1.165 1.35-1.49 3.27"/>
            <path fill="#07A87E" d="M54.718 41c5.121 1.832 9.314 3.301 12.578 4.405 3.272 1.108 8.975 10.74 14.704 21.632-1.413 2.217-2.39 3.158-3.643 4.295-2.909 2.64-7.332 5.017-8.855 3.887-3.689-13.483-1.664-.798-1.14 7.7.073 1.162.098 6.005.079 14.529-.239 12.183-.357 18.866-.357 20.047 0 1.772-10.052 4.731-20.58 2.96-2.677-.452-5.798-1.304-12.585-4.068-1.507-.613-2.184-1.864-3.463-3.972-1.278-2.109-1.824-2.595-2.496-4.28-.228-.574 4.235-12.69 4.53-18.453.549-10.705.549-20.604.549-22.254 0-2.69-1.538 5.684-2.583 7.578-1.044 1.893-12.437-7.928-11.388-11.688 1.05-3.76 7.325-18.695 10.344-19.57 2.012-.582 5.993-1.498 11.942-2.748h12.364z"/>
            <path fill="#008B60" d="M59.512 122c-.258 0-.481-.193-.509-.453-.03-.279.173-.529.455-.56 3.812-.407 6.435-1.093 7.793-2.038.062-.046.607-.59.645-5.225.052-5.5.078-10.341.078-14.39V83.508c0-.28.23-.507.513-.507.283 0 .513.227.513.507v15.828c0 4.051-.026 8.895-.079 14.398-.037 4.693-.567 5.69-1.08 6.047-1.524 1.059-4.23 1.784-8.273 2.217l-.056.003"/>
            <path fill="#4C4F5F" d="M26.523 129c-.289 0-.523-.235-.523-.523 0-.29.234-.524.523-.524.2 0 .888-.145 2.971-1.485 1.545-.995 3.404-3.417 5.526-7.2.142-.253.46-.342.712-.201.253.141.342.46.201.712-2.238 3.99-4.159 6.465-5.873 7.569-2.3 1.48-3.12 1.652-3.537 1.652M22.507 205c-.08 0-.163-.02-.239-.06-.247-.133-.34-.442-.208-.69l16.986-31.98c.131-.25.438-.342.686-.21.247.133.34.442.208.69l-16.986 31.98c-.09.173-.266.27-.447.27"/>
            <path fill="#008B60" d="M33.652 100h-.029c-.36-.012-.638-.256-.622-.544l.638-11.937.057-7c.003-.287.294-.519.652-.519h.005c.36.002.65.237.647.525l-.059 7.02-.638 11.956c-.015.28-.305.499-.651.499"/>
            <path fill="#004C4B" d="M111.582 64.925c-2.329-.819-4.602-1.761-6.82-2.827-.635-.307-.932-1.09-.662-1.722 2.094-4.9 4.28-9.76 6.557-14.582.295-.623 1.091-.953 1.761-.718 2.329.818 4.602 1.76 6.82 2.826.636.307.932 1.09.662 1.722-2.094 4.899-4.28 9.76-6.557 14.582-.295.623-1.091.952-1.761.719"/>
            <path fill="#0A6D6E" d="M116.727 47.971l-1.61-1.277c-.098-.078-.144-.291-.1-.475.042-.183.158-.268.257-.19l1.609 1.276c.098.079.144.293.1.475-.042.183-.158.269-.256.191"/>
            <path fill="#FEFEFE" d="M107 58.719L114.547 62 120 49.281 112.453 46z"/>
            <path fill="#0A6D6E" d="M110.578 62.184c.451.32.557.944.238 1.395-.32.45-.944.556-1.394.236-.451-.319-.557-.943-.238-1.394.32-.45.944-.556 1.394-.237"/>
            <path fill="#C7E8EC" d="M112.459 46L120 49.276 114.541 62 107 58.724z"/>
            <path fill="#FEFEFE" d="M111.516 47L110 50.62 118.337 52 119 50.344zM117 54.4L109.036 53 108 55.69 116.06 57z"/>
            <path fill="#7F3020" d="M39.606 9.105c-5.44 4.625-3.928 14.316-.686 19.792 3.243 5.477 3.983 5.375 3.983 7.601 0 1.484-.368 3.33-1.104 5.536.636 1.943 2.172 3.774 4.606 5.495 3.652 2.58 5.416 1.23 7.107 0 1.692-1.23 1.828-3.165 1.252-3.769-.568-.596.013-1.854 0-3.442-.016-1.896.095-2.22 1.325-1.948 2.441.54 5.565.19 6.838-1.23 1.275-1.422 1.429-1.973 2.062-4.96.297-1.396.631-2.507.799-4.353.275-3.047.29-4.652 0-7.925-.545-6.132-.02-10.808-9.7-14.509-7.803-2.983-11.042-.913-16.482 3.712"/>
            <path fill="#2D120F" d="M40.46 22.514L34 20l2.003 6.251c.782 5.615.977 9.313.587 11.093-.585 2.67-2.59 4.153-2.59 5.025 0 .872 2.441.81 4 0 1.04-.54 2.373-3.433 4-8.68l-1.54-11.175z"/>
            <path fill="#2F120F" d="M60.957 33c-.402 0-.827-.027-1.276-.08-1.74-.208-3.278-.975-4.573-2.28-.162-.163-.14-.408.05-.547.19-.14.473-.12.635.043 1.147 1.156 2.497 1.834 4.012 2.015 1.511.18 2.684.028 3.487-.453.204-.123.485-.08.627.096.142.176.092.418-.112.54-.738.443-1.694.666-2.85.666"/>
            <path fill="#2D120F" d="M53.199 22.99c-.581.151.141-1.365 1.786-1.795 1.645-.43 2.474-.076 2.94.35.467.426-1.36.041-2.421.493-1.06.452-1.724.8-2.305.951"/>
            <path fill="#2D120F" d="M57 22c0 .552-.448 1-1 1s-1-.448-1-1 .448-1 1-1 1 .448 1 1M66.864 20.998c.466.077-.315-1.734-1.634-1.953-1.32-.22-1.898.406-2.19 1.051-.29.646 1.045-.224 1.922.144.877.367 1.436.68 1.902.758M64 22c0 .552.448 1 1 1s1-.448 1-1-.448-1-1-1-1 .448-1 1"/>
            <path fill="#4A1711" d="M61.42 25.589c-.56-2.088-.56-2.13 0-2.512.562-.38.492.706 1.852 2.025 1.36 1.32.489 2.479 0 2.81-.488.332-1.29-.236-1.851-2.323"/>
            <path fill="#7F3020" d="M35 27c0 2.21 1.791 4 4 4s4-1.79 4-4c0-2.209-1.791-4-4-4s-4 1.791-4 4"/>
            <path fill="#4A1711" d="M55.091 38.812c-.335.473-.496 1.202-.483 2.188-3.144-1.934-4.937-3.205-5.377-3.815-.66-.914.18-1.582 1.455-.914.85.445 2.621 1.055 5.314 1.828-.271.002-.575.24-.909.713"/>
            <path fill="#BC6657" d="M37.256 26.128c-.53.892-.124 2.506.21 2.81.334.305.292-.563 1.101-1.616.809-1.054.29-1.98 0-2.244-.291-.264-.78.157-1.311 1.05"/>
            <path fill="#2D120F" d="M54.67 18.728c-1.485.213-4.088 2.208-4.515 2.269-.284.04-.178-.327.317-1.102.904-1.728 1.6-2.685 2.09-2.874.59-.227 1.342-.532 2.369-.762 1.404-.315 2.911-.362 3.206-.034.51.567 1.022 2.26.816 2.459-.205.198-2.797-.168-4.282.044M66 19l-.029-1.831c-.951-.361-2.053-.061-2.287.142-.407.352-.812 1.407-.646 1.532C63.203 18.967 66 19 66 19"/>
            <path fill="#2D120F" d="M60.99 6.087c-1.928-2.784-9.907-4.165-15.951-2.083-6.044 2.083-7.882 6.392-9.487 11.37-.67 2.083-.73 4.244-.18 6.482.219.887.762 1.884 1.63 2.991 1.329-.255 2.316.04 2.964.885.97 1.267 0-2.174 1.812-5.717.731-1.431 3.506-8.4 5.073-9.62 2.314-1.798 9.63 1.53 12.23 1.53 1.734 0 3.374-.51 4.919-1.53-.72-1.016-1.724-2.453-3.01-4.308"/>
            <g transform="translate(42)">
                <mask id="prefix__f" fill="#fff">
                    <use xlink:href="#prefix__e"/>
                </mask>
                <path fill="#2D120F" d="M2.828 5.003C-.06 2.491-.728 1.078.82.764 3.145.294 9.716-.925 15.183 2.5c3.644 2.283 5.569 4.716 5.776 7.301L2.828 5.003z" mask="url(#prefix__f)"/>
            </g>
            <path fill="#2D120F" d="M41.142 10.396c-4.616 1.126-7.032 2.13-7.25 3.015-.326 1.325-2.683 0-3.68 0-.998 0 1.63-3.408 5.808-7.658C38.806 2.918 42.466 1.69 47 2.066l-5.858 8.33z"/>
            <path fill="#2D120F" d="M40 14.992c-2.14-.302-4.02.473-5.645 2.323-2.437 2.775-3.745 5.679-4.194 9.152-.167 1.291.152 3.082-.25 3.77-.68 1.161-2.225.704-2.968.507-1.182-.315-1.418-2.547.258-9.722 1.118-4.784 4.567-8.124 10.347-10.022L40 14.992z"/>
            <path fill="#2D120F" d="M30.664 16.514L37 14l-1.965 6.251c-.766 5.615-.959 9.313-.576 11.093.575 2.67 2.541 4.153 2.541 5.025 0 .872-2.394.81-3.923 0-1.53-.81-3.266-3.268-3.924-8.68-.438-3.609.065-7.334 1.511-11.175M38.473 8.534c-7.774 1.94-11.22 1.954-10.338.045.428-.929.133-1.638.79-2.033 1.374-.825 4.088-.733 6.481-1.582 2.36-.836 4.224-1.128 5.594-.877l-2.527 4.447z"/>
            <path fill="#4A1711" d="M59.272 34c-1.24 0-1.999-.667-2.272-2 1.227.73 2.263 1.094 3.11 1.094s1.476.03 1.89.09c-.577.544-1.486.816-2.728.816"/>
            <path fill="#7F3020" d="M30.545 13c-.081 0-.164-.017-.242-.054-.27-.129-.38-.442-.246-.7 1.25-2.411 3.603-4.294 6.993-5.597 3.34-1.284 6.52-1.823 9.447-1.6.301.023.525.274.501.562-.023.288-.286.502-.587.48-2.76-.21-5.772.304-8.954 1.527-3.134 1.205-5.295 2.918-6.423 5.092-.095.183-.288.29-.489.29M30.567 30c-.297 0-.543-.23-.553-.521-.155-4.508 1.017-8.242 3.484-11.097 2.451-2.836 5.076-4.64 7.802-5.363.296-.079.6.091.68.38.08.286-.093.583-.389.661-2.504.663-4.942 2.351-7.244 5.016-2.286 2.645-3.37 6.133-3.226 10.367.01.297-.229.547-.535.557h-.019"/>
            <path fill="#F1A598" d="M296.716 120.01c-.356-1.421-2.607-3.248-3.855-4.83l-9.806-20.192L272.907 72 266 80.662l1.153 2.406 2.554 5.331 5.063 10.564 12.801 19.687c.263 1.935.55 3.36.863 4.275.232.68.438 1.783.878 2.407 1.015 1.438 1.1-.44 1.211-1.975.066-.907-.225-1.589 0-1.97.579-.977.865 1.855 2.28 3.522 1.415 1.667 4.768 2.906 5.13 1.439.363-1.468-.855-4.894-1.217-6.337M228.629 69.687c-4.416 5.573-8.087 9.82-11.02 12.752-.113.113-.289.122-.414.024-1.2-.94-2.619-1.895-4.299-2.848-5.407-3.066-10.189-7.407-12.916-8.892-.108-.06-.188-.16-.22-.285-.693-2.634-1.635-5.381-2.758-7.105-2.778-4.265-8.51-4.85-9.65-3.999-1.141.85.561 5.493 4.154 9.037 3.392 3.346 7.567 6.949 9.022 8.884 1.944 2.585 4.086 5.916 6.78 8.673 5.008 5.126 9.735 8.283 12.868 8.061.284-.02.551-.13.784-.296 3.246-2.322 7.26-7.33 12.04-15.027l-4.371-8.98z"/>
            <path fill="#004C4B" d="M189.418 64.924c2.329-.818 4.602-1.76 6.82-2.826.636-.307.932-1.09.662-1.722-2.094-4.9-4.28-9.76-6.557-14.582-.295-.623-1.092-.953-1.76-.718-2.33.818-4.602 1.76-6.82 2.826-.637.306-.933 1.09-.663 1.722 2.094 4.899 4.28 9.76 6.558 14.582.294.623 1.09.953 1.76.718"/>
            <path fill="#0A6D6E" d="M185.274 47.971l1.609-1.276c.099-.078.144-.292.1-.475-.042-.184-.158-.27-.256-.191l-1.61 1.277c-.098.078-.144.291-.1.474.042.183.158.27.257.191"/>
            <path fill="#FEFEFE" d="M196 58.72L188.454 62 183 49.281 190.547 46z"/>
            <path fill="#0A6D6E" d="M192.421 61.184c-.45.32-.556.944-.237 1.394.32.451.944.557 1.395.238.45-.32.556-.944.236-1.394-.319-.45-.943-.557-1.394-.238"/>
            <path fill="#C7E8EC" d="M190.541 46L183 49.275 188.46 62 196 58.725z"/>
            <path fill="#FEFEFE" d="M190.484 47L192 50.62 183.663 52 183 50.344zM185 54.4L192.963 53 194 55.69 185.941 57z"/>
            <path fill="#F1A598" d="M197.782 61.613c-.294-2.118-.895-3.733-1.343-3.606-.448.126-.574 1.946-.28 4.064.292 2.118 1.053 5.052 1.501 4.925.449-.126.415-3.265.122-5.383"/>
            <path fill="#7F3020" d="M105.218 61.613c.294-2.118.895-3.733 1.343-3.606.448.126.574 1.946.28 4.064-.293 2.118-1.053 5.052-1.501 4.925-.449-.126-.415-3.265-.122-5.383"/>
            <path fill="#2D120F" d="M262 3c5.523 0 10 4.477 10 10s-4.477 10-10 10-10-4.477-10-10 4.477-10 10-10"/>
            <mask id="prefix__h" fill="#fff">
                <use xlink:href="#prefix__g"/>
            </mask>
            <path fill="#F1A598" d="M237 210L248 210 248 204 237 204z" mask="url(#prefix__h)"/>
            <path fill="#F2BD18" d="M248 210v7.32c0 .375-.314.68-.702.68h-21.595c-.388 0-.703-.305-.703-.68v-.002c.008-2.812 1.125-4.714 3.352-5.709 2.403-1.073 5.476-1.609 9.22-1.609H248zM315.732 174l7.762 4.947c.504.321.657 1 .342 1.514l-12.267 20.022c-.315.515-.98.671-1.483.35l-.015-.01c-2.915-1.927-4.264-4.264-4.049-7.013.238-3.029 1.448-6.324 3.63-9.886l6.08-9.924z" mask="url(#prefix__h)"/>
            <path fill="#3D97D3" d="M234.01 107c-.673 22.22-1.01 39.268-1.01 51.14 0 11.753.796 28.483 2.388 50.19.028.378.341.67.718.67l14.294-.005c.39 0 .71-.312.72-.704.302-12.438.539-21.542.709-27.313.173-5.879.173-12.351 0-19.416v-21.825c-.516-10.054-.279-14.122.711-12.204.312.604.66 1.205 1.05 1.837 1.471 2.384 3.552 5.222 6.604 10.367 3.861 6.51 3.813 6.419 10.635 15.503 4.548 6.056 9.713 10.858 15.497 14.406l21.942 13.976c.486.31 1.128.182 1.46-.29l6.042-8.613c.366-.521.288-1.235-.183-1.664-4.063-3.707-7.954-7.092-11.67-10.153-5.95-4.902-12.946-9.234-15.646-12.103-2.7-2.869-9.342-17.864-12.274-23.266-.952-1.753-4.284-8.235-6.277-11.988-1.328-2.502-3.216-5.35-5.665-8.545H234.01z" mask="url(#prefix__h)"/>
            <path fill="#8BCAEF" d="M275.493 163c-.151 0-.3-.066-.4-.194-2.699-3.422-6.528-8.64-11.381-15.51-4.864-6.884-9.458-14.475-13.655-22.56-.129-.247-.031-.552.218-.68.25-.128.556-.03.685.218 4.175 8.043 8.745 15.594 13.582 22.44 4.844 6.857 8.663 12.061 11.35 15.469.173.22.134.537-.086.71-.094.072-.204.107-.313.107" mask="url(#prefix__h)"/>
            <path fill="#2D120F" d="M247.876 16.176c-7.154-3.613-11.393-4.144-12.716-1.592-1.983 3.828-10.854 14.648-5.427 19.763 1.621 1.527 1.95 4.625 2.209 6.72l.006.051c.213 1.86 2.462 2.557 3.597 1.097L254 18.475l-6.124-2.299z" mask="url(#prefix__h)"/>
            <path fill="#FBD5CC" d="M244.149 52c-4.55 1.6-8.277 2.882-11.177 3.846-2.902.965-6.892 6.189-11.972 15.673.352 2.451 1.225 4.595 2.62 6.43 2.09 2.753 5.628 4.725 6.982 3.74 1.353-.987 2.136.074 1.67 7.493-.065 1.015-.17 5.048-.317 12.1v8.123c0 1.547 6.414 3.595 16.045 3.595 2.933 0 8.54-1.199 16.82-3.595.625-.384.937-1.063.937-2.036 0-.565-2.482-7.836-2.744-12.868-.488-9.345-.821-18.038-.488-19.428.488-2.035 1.366 4.962 2.295 6.616.928 1.653 11.052-6.922 10.12-10.205-.933-3.282-6.51-16.321-9.192-17.084-1.788-.508-5.326-1.308-10.613-2.4H244.15z" mask="url(#prefix__h)"/>
            <path fill="#F1A598" d="M244.439 16.887c-9.069 3.408-7.502 7.86-9.069 12.985-.847 2.77-1.576 5.004-1.317 7.81.156 1.7.428 3.15.706 4.436.593 2.75 1.365 4.154 2.559 5.463 1.193 1.308 3.998 1.308 7.121 1.308 1.692 0 1.692 3.54 0 5.286-.54.556-.412 2.338 1.173 3.47 1.584 1.132 3.238 2.377 6.658 0 2.28-1.584 3.719-3.27 4.316-5.06-1.524-1.97-2.286-3.637-2.286-5.004 0-2.05 4.34-4.147 4.34-6.389 0-2.243 7.716-14.41 2.62-18.668-5.098-4.258-9.51-8.384-16.821-5.637" mask="url(#prefix__h)"/>
            <path fill="#F1A598" d="M259 36c1.657 0 3 1.343 3 3s-1.343 3-3 3-3-1.343-3-3 1.343-3 3-3" mask="url(#prefix__h)"/>
            <path fill="#BC6657" d="M238.433 35.941c-.29-.198-.809-.892 0-1.682.809-.79.767-1.44 1.101-1.213.334.228.74 1.439.21 2.108-.53.67-1.02.986-1.31.787" mask="url(#prefix__h)"/>
            <path fill="#2D120F" d="M262.689 38.414c2.062 1.125 8.966 11.384 2.818-8.901-.05-.169-.087-.344-.107-.52-.973-8.599-1.108-15.609-8.403-15.609-7.37 0-12.997-2.57-12.997 5.586s11.774 15.67 18.689 19.444" mask="url(#prefix__h)"/>
            <path fill="#BC6657" d="M259.433 36.059c-.29.199-.809.892 0 1.682.809.79.767 1.44 1.101 1.213.334-.228.74-1.439.21-2.108-.53-.67-1.02-.986-1.31-.787" mask="url(#prefix__h)"/>
            <path fill="#FEFEFE" d="M237.27 40.007c.624.107 1.325.238 2.847.238 1.523 0 3.094-.112 3.73-.238.637-.126-.801 1.494-2.78 1.83-1.98.335-3.317.101-3.558-.234-.24-.335-.864-1.704-.24-1.596" mask="url(#prefix__h)"/>
            <path fill="#2D120F" d="M245.463 30.194c-1.087-.387-2.795.387-2.407-.216.388-.604 1.136-1.176 2.785-.912 1.649.264 2.566 2.023 1.983 1.93-.582-.093-1.273-.415-2.361-.802" mask="url(#prefix__h)"/>
            <path fill="#2D120F" d="M245 30c.552 0 1 .671 1 1.5s-.448 1.5-1 1.5-1-.671-1-1.5.448-1.5 1-1.5M236.537 30.194c1.087-.387 2.795.387 2.407-.216-.388-.604-1.136-1.176-2.785-.912-1.649.264-2.566 2.023-1.983 1.93.582-.093 1.273-.415 2.361-.802" mask="url(#prefix__h)"/>
            <path fill="#2D120F" d="M236 29c.552 0 1 .671 1 1.5s-.448 1.5-1 1.5-1-.671-1-1.5.448-1.5 1-1.5M243.399 26.423c-.524-.151-.52-.606-.058-1.012.462-.408 2.832-.862 4.732.525 1.9 1.387 2.037 2.107 1.879 2.062-.159-.046-1.864-.83-2.429-.994-.564-.162-3.6-.43-4.124-.581M239.596 25.496c.524-.146.527-.614.074-1.04-.453-.428-2.803-.939-4.717.454-1.915 1.393-2.064 2.132-1.906 2.088.159-.044 1.869-.82 2.433-.978.564-.157 3.591-.378 4.116-.524" mask="url(#prefix__h)"/>
            <path fill="#BC6657" d="M244 48.887c1.3-.022 2.464-.203 3.492-.544 1.541-.512 1.736-.474 1.314.272-.281.497-1.476 1.292-3.584 2.385 0-.489-.07-.92-.212-1.297-.14-.376-.477-.648-1.01-.816" mask="url(#prefix__h)"/>
            <path fill="#7F3020" d="M264.506 38c-.051 0-.104-.008-.156-.025-3.996-1.308-7.506-2.987-10.432-4.992-3.401-2.33-8.587-7.584-8.916-11.46-.023-.265.179-.5.45-.521.267-.024.51.176.534.442.266 3.127 4.609 8.08 8.498 10.746 2.848 1.951 6.273 3.59 10.179 4.868.259.084.398.358.311.612-.069.202-.261.33-.468.33M265.533 30c-.252 0-.46-.217-.466-.492-.048-2.167-.43-4.506-1.138-6.951-.708-2.45-1.67-4.733-2.858-6.787-.137-.235-.07-.546.148-.694.219-.147.507-.075.643.16 1.23 2.127 2.226 4.49 2.957 7.02.733 2.536 1.13 4.967 1.18 7.228.007.278-.197.509-.454.516h-.012z" mask="url(#prefix__h)"/>
            <path fill="#8BCAEF" d="M266.33 122c-2.591 0-5.01-1.348-7.19-4.005-.2-.242-.184-.618.034-.84.217-.221.555-.204.754.039 1.97 2.4 4.123 3.618 6.402 3.618 2.323 0 4.285-.606 5.832-1.8.242-.187.575-.12.743.15.168.27.107.64-.135.827-1.728 1.334-3.895 2.011-6.44 2.011" mask="url(#prefix__h)"/>
            <path fill="#F1A598" d="M232.604 101c-.334 0-.604-.246-.604-.549V81.224c0-2.844.611-6.152 1.816-9.832.096-.29.431-.455.752-.37.32.087.502.392.407.683-1.172 3.579-1.767 6.781-1.767 9.52v19.226c0 .303-.27.549-.604.549" mask="url(#prefix__h)"/>
            <path fill="#F9B389" d="M265 86h-3V54.273c0-.703.634-1.273 1.416-1.273h.168c.782 0 1.416.57 1.416 1.273V86z" mask="url(#prefix__h)"/>
            <path fill="#F9B389" d="M261.013 86.425c.34 2.56 1.487 21.061 1.487 24.505 0 3.444 9.422 2.664 9.498-2.896.043-3.155-.638-9.728-2.043-19.714l-2.38-5.32c-4.579.744-6.766 1.886-6.562 3.425" mask="url(#prefix__h)"/>
            <path fill="#F79B64" d="M262.132 86.22c.66-2.857 4.868 22.997 4.868 23.867 0 .64-2.497 1.93-3.498-.539-.359-.886 0-3.052 0-4.79 0-6.581-2.03-15.68-1.37-18.538" mask="url(#prefix__h)"/>
            <path fill="#FBD5CC" d="M275 72c-.913-3.266-6.374-16.241-9-17" mask="url(#prefix__h)"/>
            <path fill="#07A87E" d="M165.997 23.807c-.17 8.559-7.245 15.36-15.804 15.19-8.558-.17-15.36-7.245-15.19-15.804.17-8.559 7.245-15.36 15.804-15.19 8.559.17 15.36 7.245 15.19 15.804" mask="url(#prefix__h)"/>
            <path fill="#FEFEFE" d="M160 18.445c-.028 1.01-.385 1.814-1.044 2.475-1.36 1.363-2.722 2.722-4.083 4.084-.656.656-1.438 1.003-2.347.996-.922-.007-1.71-.372-2.354-1.06-.242-.258-.223-.677.02-.944.222-.244.616-.25.899-.025.208.166.41.35.642.47.718.368 1.585.211 2.166-.367 1.369-1.362 2.736-2.725 4.103-4.09.739-.738.894-1.72.417-2.593-.592-1.083-2.05-1.373-2.944-.546-.797.737-1.55 1.525-2.322 2.292-.138.136-.28.256-.486.263-.28.009-.516-.121-.63-.376-.12-.268-.1-.53.098-.746.272-.294.56-.574.843-.857.512-.512 1.011-1.037 1.54-1.528 1.328-1.23 3.257-1.188 4.517.116.66.682.97 1.47.965 2.436" mask="url(#prefix__h)"/>
            <path fill="#FEFEFE" d="M151.427 20c.914.023 1.691.38 2.343 1.036.285.287.306.716.059 1.007-.247.29-.664.322-.968.038-.333-.311-.695-.55-1.14-.635-.717-.136-1.326.094-1.84.602-1.298 1.282-2.595 2.564-3.877 3.862-.558.563-.777 1.26-.575 2.058.212.84.751 1.365 1.558 1.557.715.17 1.35-.055 1.88-.577.642-.63 1.275-1.27 1.915-1.902.356-.351.852-.282 1.085.142.13.237.126.593-.063.78-.83.818-1.621 1.69-2.524 2.412-1.196.958-3.01.763-4.138-.288-1.455-1.355-1.572-3.74-.048-5.243 1.29-1.272 2.569-2.555 3.853-3.832.693-.688 1.517-1.034 2.48-1.016" mask="url(#prefix__h)"/>
            <path fill="#07A87E" d="M134 37L135.34 32 136.68 27 140.34 30.66 144 34.32 139 35.66zM168 37L163 35.66 158 34.32 161.66 30.66 165.32 27 166.66 32z" mask="url(#prefix__h)"/>
        </g>
    </g>
</svg>
