<svg xmlns="http://www.w3.org/2000/svg" xmlns:xlink="http://www.w3.org/1999/xlink" width="20" height="36" viewBox="0 0 32 56">
    <defs>
        <path id="prefix__a" d="M0 0.675L31.981 0.675 31.981 32.657 0 32.657z"/>
    </defs>
    <g fill="none" fill-rule="evenodd">
        <path fill="#E16C81" d="M2.9 53.587V19.82c0-.735.567-1.33 1.27-1.33h11.024c.701 0 1.27.596 1.27 1.33v25.522c0 .43-.199.833-.533 1.083L4.906 54.67c-.84.628-2.007-.002-2.007-1.084" transform="translate(0 -1)"/>
        <path fill="#E5758B" d="M30.028 54.313V18.49H16.464v28.041l11.115 9.153c1.025.796 2.45 0 2.45-1.37" transform="translate(0 -1)"/>
        <path fill="#D85262" d="M5.144 21.83v30.933l9.073-7.161V21.83H5.144zm-.192 34.495c-.447 0-.893-.106-1.31-.324-1.042-.543-1.688-1.653-1.688-2.897V18.49H17.41v28.778l-10.687 8.43c-.524.416-1.146.627-1.771.627z" transform="translate(0 -1)"/>
        <g transform="translate(0 -1) translate(0 .325)">
            <mask id="prefix__b" fill="#fff">
                <use xlink:href="#prefix__a"/>
            </mask>
            <path fill="#F2BD18" d="M31.981 16.666c0 8.83-7.159 15.99-15.99 15.99-8.832 0-15.99-7.16-15.99-15.99C0 7.835 7.158.675 15.99.675c8.831 0 15.99 7.16 15.99 15.99" mask="url(#prefix__b)"/>
        </g>
        <path fill="#FEFEFE" d="M21.118 13.59c-.012.036-.042.066-.079.078-.977.32-1.869.48-2.679.48-.875 0-3.146.128-6.816.39-.052.003-.096-.036-.1-.087-.003-.036.016-.07.047-.088 2.136-1.22 3.802-1.833 4.997-1.833 1.186 0 2.702.301 4.55.902.065.021.101.092.08.157m5.993 2.966l-.254-.435v-1.669c0-.027-.002-.055-.005-.083-.046-.374-.386-.64-.76-.595-.539.065-1.144 0-1.815-.202-1.513-.45-6.357-1.802-8.278-1.802-1.922 0-4.714 1.85-6.044 2.254-1.329.403-3.237.59-5.492.994-1.298.232-2.388.816-3.269 1.753-.258.273-.35.662-.244 1.022.294.997.535 1.61.724 1.84.221.27.877.27 1.965 0 13.162-.27 20.233-.404 21.215-.404.983 0 1.651-.18 2.003-.544l.364-1.21c.091-.309.052-.64-.11-.919" transform="translate(0 -1)"/>
        <path fill="#FEFEFE" d="M6.807 15.81c-1.408 0-2.55 1.161-2.55 2.595C4.258 19.838 5.4 21 6.808 21c1.407 0 2.548-1.16 2.548-2.594S8.214 15.81 6.807 15.81" transform="translate(0 -1)"/>
        <path fill="#F2BD18" d="M6.807 16.99c-.772 0-1.4.634-1.4 1.415 0 .78.628 1.414 1.4 1.414.772 0 1.398-.633 1.398-1.414 0-.781-.626-1.414-1.398-1.414" transform="translate(0 -1)"/>
        <path fill="#FEFEFE" d="M30.655 15.401c0 3.707-3.005 6.713-6.713 6.713-3.707 0-6.712-3.006-6.712-6.713 0-3.708 3.005-6.713 6.712-6.713 3.708 0 6.713 3.005 6.713 6.713" transform="translate(0 -1)"/>
        <path fill="#F2BD18" d="M29.629 15.401c0 3.14-2.546 5.686-5.687 5.686-3.14 0-5.685-2.546-5.685-5.686 0-3.141 2.546-5.687 5.685-5.687 3.14 0 5.687 2.546 5.687 5.687" transform="translate(0 -1)"/>
        <path fill="#FEFEFE" d="M22.882 19.587c-.33 0-.637-.157-.832-.428l-1.443-2.01c-.198-.274-.138-.659.133-.858.27-.198.65-.139.847.136l1.28 1.78 3.4-5.803c.172-.29.544-.386.832-.213.288.172.383.548.212.84l-3.543 6.046c-.178.303-.49.492-.837.51h-.05" transform="translate(0 -1)"/>
    </g>
</svg>
