<svg width="24" height="24" viewBox="0 0 24 24">
    <g fill-rule="evenodd">
        <path fill="#FFF" fill-opacity="0" d="M0 0H24V24H0z"/>
        <path fill="#000000" d="M16.047 3c.375.006.651.3.72.766.057.388.057.393.404.398.418.006.836.006 1.253.001 1.76-.018 2.588 1.48 2.576 2.791-.035 3.785-.01 7.571-.015 11.356-.002 1.295-.686 2.28-1.777 2.608-.284.086-.573.078-.861.078L15.165 21H5.62c-.338 0-.676.002-.998-.133-.9-.376-1.45-1.066-1.584-2.114-.033-.258-.035-.521-.036-.782L3 7.19c0-.35.004-.7.075-1.041.203-.974.98-1.751 1.896-1.923.544-.103 1.09-.045 1.636-.06.369-.01.369-.008.441-.408.084-.463.369-.755.737-.758.387-.002.709.31.737.802.018.311.131.368.382.367 2.009-.007 4.017-.007 6.026 0 .253.001.365-.063.382-.372.025-.49.346-.803.735-.797zm3.138 6.269c-.08.008-.161 0-.241 0H5.064c-.113 0-.226.005-.338.003-.16-.002-.236.08-.235.253.001.122-.002.244-.002.366v8.162c0 .14-.006.28.007.418.044.475.313.81.745.902.171.037.351.034.527.034 2.072.002 4.145.002 6.217.002 2.137 0 4.274.004 6.41-.003.766-.002 1.098-.353 1.1-1.176.008-2.842.004-5.685.004-8.528 0-.035-.003-.07 0-.104.02-.25-.09-.352-.314-.33zM8.556 15.8c.039.008.076.036.11.06.29.205.413.824.281 1.409-.078.344-.33.539-.72.552-.083.003-.166 0-.248 0v-.006c-.124 0-.249.014-.37-.003-.298-.04-.5-.25-.573-.577-.01-.044-.023-.09-.022-.136.005-.423-.114-.905.266-1.196.391-.3.842-.193 1.276-.103zm7.88-.055c.34.069.533.32.556.705.011.185.009.372.003.558-.015.527-.253.791-.726.812-.097.005-.195.001-.292.001v-.002c-.098 0-.196.005-.293-.001-.068-.005-.139-.016-.204-.04-.385-.146-.521-.516-.47-1.26.031-.444.226-.716.594-.778.275-.046.557-.05.832.005zm-4.053-.013c.055.006.109.027.16.05.376.16.522.612.43 1.331-.055.438-.296.682-.7.707-.096.006-.193 0-.29 0-.097 0-.195.006-.291 0-.427-.028-.664-.288-.685-.76-.01-.202-.01-.405.001-.606.022-.406.226-.663.587-.722.26-.042.526-.03.788 0zm-.108-4.26c.424.02.682.271.702.741.018.422.114.912-.285 1.185-.401.274-.863.207-1.295.073-.24-.074-.375-.311-.388-.601-.01-.216-.013-.432-.003-.648.02-.471.257-.727.686-.75.097-.005.194 0 .292 0 .097 0 .194-.005.291 0zM17 12.593c-.004.724-.327 1.022-.877.993-.124-.006-.248.005-.372-.005-.096-.007-.194-.022-.284-.056-.381-.143-.527-.586-.445-1.324.05-.447.285-.697.684-.72.096-.006.193-.001.277-.001.788-.074 1.022.286 1.017 1.114zM6.657 5.785c-.417.019-.836-.006-1.253.01-.523.02-.865.386-.91.948-.01.122-.005.244-.005.366 0 .567 0 .569.525.569h13.685c.883 0 .883 0 .79-.95-.056-.573-.383-.917-.918-.933-.482-.016-.964.005-1.446-.009-.23-.006-.333.062-.38.332-.077.435-.34.638-.708.637-.362 0-.65-.217-.711-.637-.042-.28-.147-.331-.37-.33-2.024.005-4.048.004-6.072 0-.218-.001-.33.037-.378.32-.075.452-.37.663-.755.645-.348-.015-.582-.197-.67-.625-.06-.287-.18-.353-.424-.343z"/>
    </g>
</svg>
