<svg width="24" height="24" viewBox="0 0 24 24">
    <g fill="none" fill-rule="evenodd">
        <path fill="#FFF" fill-opacity="0" d="M0 0H24V24H0z"/>
        <path fill="#000000" d="M14.557 3c1.457-.006 2.268.943 2.467 1.799.046.197.054.394.055.592v.198c.002 2.764 0 5.527.003 8.29 0 .86.921 1.535 1.78 1.325.37-.091.601-.31.703-.655.071-.24.097-.486.096-.736-.005-1.34-.012-2.68-.01-4.021 0-.23-.031-.407-.284-.52-.444-.197-.647-.596-.592-1.02.086-.656-.194-1.103-.673-1.5-.238-.2-.263-.463-.153-.728.153-.37.658-.505.992-.243.627.492 1.233 1.009 1.842 1.52.165.139.217.33.217.538-.002 2.135 0 4.27-.001 6.404 0 .3-.066.592-.163.876-.238.7-.729 1.149-1.477 1.321-.76.177-1.501.16-2.22-.307-.093.247-.042.446-.059.64-.018.218.081.379.247.518.207.175.402.363.61.536.24.198.339.444.336.745-.005.53.014 1.06.008 1.589-.009.615-.24.835-.882.836l-4.292.002H8.816l-4.706-.001c-.155 0-.312.01-.465-.012-.377-.054-.62-.3-.631-.671-.018-.629-.005-1.258-.014-1.887-.003-.236.107-.411.277-.563.203-.18.402-.364.614-.532.202-.161.282-.35.278-.605-.012-.827-.004-1.655-.004-2.482 0-2.93-.004-5.858.001-8.787.003-1.155.673-2.034 1.766-2.356.267-.079.542-.098.817-.098 2.603-.003 5.205.005 7.808-.005zM7.045 4.293c-1.085-.017-1.522.423-1.513 1.45.03 3.69.001 7.38.022 11.069.004.576-.11 1.037-.63 1.366-.142.09-.256.22-.383.333-.077.068-.14.145-.17.243-.21.677.037.996.776.996h10.96c.138 0 .276 0 .414-.007.224-.012.346-.13.363-.344.034-.419.054-.832-.393-1.098-.115-.068-.196-.188-.31-.26-.37-.238-.466-.566-.463-.982.017-1.902.008-3.805.008-5.708V5.742c0-.149.006-.298-.008-.446-.055-.604-.447-.962-1.073-.99-.12-.004-.241-.002-.362-.002-2.413 0-4.826.025-7.238-.011zm1.328 8.186c.383.015.506.098.539.393.018.163.003.33.003.495h.005v.05c0 .81-.278 1.016-1.113.828-.211-.047-.331-.177-.337-.38-.01-.331-.003-.662-.003-.992 0-.016.003-.033.007-.05.07-.306.236-.37.9-.344zm2.579.005c.267.007.41.164.418.412.012.314.004.628.002.942 0 .048-.005.102-.027.145-.23.453-.663.231-1.011.262-.27.024-.402-.154-.413-.405-.007-.165-.001-.33-.001-.496-.037-.901.075-.886 1.032-.86zm2.873.904c0 .843-.07.907-.944.866-.396-.018-.518-.128-.537-.51-.011-.247-.01-.496 0-.743.017-.385.14-.5.527-.522.875-.047.955.028.954.91zm-1.423-7.683c.711.337 1.205.874 1.54 1.548.454.91.632 1.884.657 2.884.01.412-.216.646-.638.703-.136.019-.275.011-.413.011h-2.894c-1.017 0-2.033.005-3.05 0-.747-.005-.984-.274-.916-.984.071-.743.183-1.476.456-2.18.812-2.084 3.17-2.973 5.258-1.982zM8.667 7.657c-.279.466-.449.961-.558 1.48-.086.413-.042.47.389.473.705.007 1.41.002 2.116.002.722 0 1.444.005 2.167-.002.395-.004.429-.037.379-.397-.076-.544-.254-1.057-.54-1.537-.826-1.385-3.17-1.331-3.953-.02z"/>
    </g>
</svg>
