<svg width="24" height="24" viewBox="0 0 24 24">
    <g fill="none" fill-rule="evenodd">
        <path fill="#FFF" fill-opacity="0" d="M0 0H24V24H0z"/>
        <path fill="#000000" d="M21.75 9.819c1.303 5.69-2.64 11.349-8.428 12.094-5.358.691-10.184-2.817-11.192-8.135-.037-.194-.12-.842-.13-1.522-.009-.74.06-1.513.077-1.651.554-4.24 3.937-7.749 8.163-8.458 5.348-.898 10.305 2.406 11.51 7.672zM12.01 3.625c-4.708.002-8.504 3.774-8.5 8.445.006 4.635 3.812 8.42 8.476 8.43 4.703.01 8.506-3.759 8.511-8.433.005-4.693-3.766-8.444-8.487-8.442zm2.726 6.686c.423.178.549.637.336 1.12-.378.859-.919 2.2-1.332 3.042-.146.299-.156.537-.018.856.567 1.313-.368 2.734-1.755 2.716-.984-.012-1.801-.778-1.873-1.755-.079-1.062.503-1.866 1.533-2.013.414-.059.621-.231.776-.6.301-.715.79-1.9 1.118-2.604.046-.099.087-.2.138-.295.242-.445.673-.636 1.077-.467zm-2.756 5.131c-.312.042-.528.236-.547.608-.02.37.288.665.658.64.37-.027.565-.258.597-.612.032-.359-.296-.657-.708-.636zm6.078-3.987c.421.086.656.407.626.816-.027.369-.302.66-.693.71-.141.019-.721.018-.863 0-.413-.05-.7-.362-.71-.753-.01-.38.225-.685.62-.77.337-.073.683-.071 1.02-.003zm-11.173-.008c.426.07.676.387.663.789-.014.397-.295.698-.714.747-.142.017-.76.016-.916-.011-.37-.066-.645-.403-.646-.762-.001-.342.238-.653.595-.744.335-.085.68-.074 1.018-.019zm1.075-4.353c.388.268.837.921.892 1.057.026.063.025.14.03.17-.002.594-.61.961-1.075.664-.367-.235-.63-.59-.836-.97-.15-.273-.041-.64.185-.835.216-.185.567-.25.804-.086zm9.231.09c.22.192.335.527.205.781-.204.402-.497.744-.855 1.023-.104.081-.233.088-.36.09-.512-.003-.876-.506-.659-.98.187-.408.488-.756.866-1.01.233-.157.59-.09.803.095zm-5.019-1.885c.413-.01.714.241.778.665.025.16.02.323.029.498-.01.149-.007.313-.035.47-.07.387-.376.637-.755.634-.371-.003-.709-.267-.75-.644-.036-.32-.035-.648-.003-.969.038-.382.361-.645.736-.654z"/>
    </g>
</svg>
