<svg width="16" height="16" viewBox="0 0 16 16">
    <g fill="#000000" fill-rule="evenodd">
        <path fill-opacity="0" d="M0 0H16V16H0z"/>
        <path d="M8.957 10.585l1.267-1.152c.08-.107.2-.174.347-.174.08 0 .227.08.227.08l2.962 1.5c.147.08.24.228.24.402-.053.737-.36 1.473-.84 1.942-.547.55-1.321.817-2.202.817-1.8 0-4.069-1.058-5.963-2.96-2.829-2.852-3.856-6.602-2.202-8.263.467-.469 1.281-.71 2.002-.777.173 0 .306.094.387.241l1.627 2.973c.04.08.067.148.067.241 0 .134-.067.255-.16.349L5.448 7.062c-.133.148-.16.362-.053.536.36.603.8 1.179 1.334 1.701.534.536 1.107.991 1.694 1.353.174.107.387.08.534-.067z"/>
    </g>
</svg>
