<svg width="24" height="24" viewBox="0 0 24 24">
    <g fill="none" fill-rule="evenodd">
        <path fill="#FFF" fill-opacity="0" d="M0 0H24V24H0z"/>
        <path fill="#000000" d="M12 2c5.523 0 10 4.477 10 10s-4.477 10-10 10S2 17.523 2 12 6.477 2 12 2zm5.124 6.529c-.334-.372-.877-.372-1.211 0l-4.357 5.595c-.017.021-.036.042-.056.06-.202.185-.515.172-.7-.03l-2.588-2.822c-.334-.372-.877-.372-1.211 0-.335.372-.335.975 0 1.347l3.468 3.778c.167.186.493.333.772.333.28 0 .592-.147.759-.333l5.124-6.58c.335-.373.335-.976 0-1.348z"/>
    </g>
</svg>
