<svg xmlns="http://www.w3.org/2000/svg" xmlns:xlink="http://www.w3.org/1999/xlink" width="20" height="36" viewBox="0 0 20 36">
    <defs>
        <path id="prefix__a" d="M0 0.434L19.988 0.434 19.988 20.994 0 20.994z"/>
    </defs>
    <g fill="none" fill-rule="evenodd">
        <path fill="#E16C81" d="M1.812 34.448V12.741c0-.472.355-.855.794-.855h6.89c.438 0 .793.383.793.855v16.407c0 .277-.123.536-.332.696l-6.89 5.3c-.526.405-1.255 0-1.255-.696" transform="translate(0 -.643)"/>
        <path fill="#E5758B" d="M18.768 34.916v-23.03H10.29v18.027l6.947 5.884c.64.512 1.53 0 1.53-.881" transform="translate(0 -.643)"/>
        <path fill="#D85262" d="M3.215 14.034v19.885l5.671-4.604V14.034h-5.67zm-.12 22.175c-.28 0-.559-.068-.82-.209-.65-.349-1.054-1.062-1.054-1.862V11.886h9.66v18.5l-6.678 5.42c-.328.267-.717.403-1.108.403z" transform="translate(0 -.643)"/>
        <g transform="translate(0 -.643) translate(0 .21)">
            <mask id="prefix__b" fill="#fff">
                <use xlink:href="#prefix__a"/>
            </mask>
            <path fill="#F2BD18" d="M19.988 10.714c0 5.677-4.474 10.28-9.993 10.28C4.475 20.994 0 16.39 0 10.714S4.475.434 9.995.434c5.519 0 9.993 4.603 9.993 10.28" mask="url(#prefix__b)"/>
        </g>
        <path fill="#FEFEFE" d="M14.276 9.082c-.009.026-.029.047-.054.055-.657.221-1.258.332-1.804.332-.589 0-2.119.09-4.59.27-.035.003-.065-.024-.068-.06-.002-.024.011-.048.032-.06 1.439-.846 2.56-1.27 3.366-1.27.798 0 1.82.208 3.064.625.044.014.068.063.054.108m4.036 2.055l-.171-.3V9.68c0-.02-.001-.039-.003-.057-.031-.26-.26-.445-.513-.414-.363.047-.77 0-1.222-.139-1.019-.312-4.28-1.248-5.575-1.248-1.294 0-3.175 1.28-4.07 1.56-.896.28-2.18.41-3.698.69-.875.16-1.609.565-2.202 1.214-.173.19-.236.459-.164.708.197.69.36 1.115.487 1.275.149.186.59.186 1.324 0 8.864-.187 13.626-.28 14.287-.28.661 0 1.111-.126 1.349-.377l.244-.839c.063-.213.036-.444-.073-.636" transform="translate(0 -.643)"/>
        <path fill="#FEFEFE" d="M14.37 10.62c-.948 0-1.716.806-1.716 1.798 0 .993.768 1.798 1.716 1.798s1.716-.805 1.716-1.798c0-.992-.768-1.797-1.716-1.797" transform="translate(0 -.643)"/>
        <path fill="#F2BD18" d="M14.37 11.439c-.52 0-.942.438-.942.979 0 .541.422.98.942.98s.942-.439.942-.98c0-.54-.422-.98-.942-.98" transform="translate(0 -.643)"/>
        <path fill="#FEFEFE" d="M4.637 10.62c-.948 0-1.716.806-1.716 1.798 0 .993.768 1.798 1.716 1.798s1.717-.805 1.717-1.798c0-.992-.769-1.797-1.717-1.797" transform="translate(0 -.643)"/>
        <path fill="#F2BD18" d="M4.637 11.439c-.52 0-.942.438-.942.979 0 .541.422.98.942.98s.942-.439.942-.98c0-.54-.422-.98-.942-.98" transform="translate(0 -.643)"/>
    </g>
</svg>
