<svg width="24" height="24" viewBox="0 0 24 24">
    <g fill="none" fill-rule="evenodd">
        <path fill="#FFF" fill-opacity="0" d="M0 0H24V24H0z"/>
        <path fill="#000000" d="M12 2c5.523 0 10 4.477 10 10s-4.477 10-10 10S2 17.523 2 12 6.477 2 12 2zm1.978 14.096h-3.956c.138.805.317 1.544.532 2.188.478 1.434 1.064 2.178 1.446 2.178.382 0 .968-.744 1.446-2.178.215-.644.394-1.383.532-2.188zm-5.523 0h-3.86c1.075 1.94 2.891 3.414 5.067 4.038-.54-1.025-.951-2.416-1.207-4.038zm10.95 0h-3.86c-.256 1.622-.667 3.013-1.208 4.038 2.177-.624 3.993-2.097 5.069-4.038zM8.182 10.718H3.635c-.064.418-.097.846-.097 1.282 0 .892.138 1.751.394 2.558h4.334c-.074-.816-.112-1.674-.112-2.558l.002-.33c.003-.321.012-.639.025-.952zm6.096-.001H9.723c-.02.42-.03.85-.03 1.283 0 .882.042 1.742.123 2.559h4.368c.081-.817.124-1.677.124-2.559 0-.434-.01-.862-.03-1.283zm6.088 0h-4.546c.018.42.027.849.027 1.283 0 .884-.038 1.742-.112 2.558h4.334c.256-.807.394-1.666.394-2.558 0-.436-.033-.864-.097-1.282zM9.663 3.868l-.107.03c-2.58.777-4.642 2.754-5.536 5.282h4.271c.22-2.166.693-4.028 1.372-5.312zM12 3.538c-.382 0-.968.744-1.446 2.178-.324.971-.567 2.157-.71 3.463h4.313c-.144-1.306-.387-2.492-.711-3.463-.478-1.434-1.064-2.178-1.446-2.178zm2.338.328l.087.172c.632 1.276 1.074 3.07 1.284 5.141h4.271c-.906-2.563-3.012-4.559-5.642-5.313z"/>
    </g>
</svg>
