<svg width="375" height="552" viewBox="0 0 375 552" fill="none" xmlns="http://www.w3.org/2000/svg">
<rect width="375" height="481" fill="url(#paint0_linear)"/>
<rect opacity="0.85" y="28" width="375" height="453" fill="url(#paint1_linear)"/>
<g style="mix-blend-mode:multiply" opacity="0.3" clip-path="url(#clip0)">
<path d="M15.4448 448.329H-18.075V491.941H15.4448V448.329Z" fill="#839EB2"/>
<path d="M19.8997 430.52H6.82233V491.941H19.8997V430.52Z" fill="#839EB2"/>
<path d="M57.2997 394.117H28.163V491.977H57.2997V394.117Z" fill="#839EB2"/>
<path d="M88.0891 357H70.6646V491.941H88.0891V357Z" fill="#839EB2"/>
<path d="M113.094 385.195H91.8615V491.941H113.094V385.195Z" fill="#839EB2"/>
<path d="M46.4498 454.217H15.4449V491.941H46.4498V454.217Z" fill="#839EB2"/>
<path d="M76.844 424.988H59.7427V491.941H76.844V424.988Z" fill="#839EB2"/>
<path d="M66.0299 470.813H53.5633V491.941H66.0299V470.813Z" fill="#839EB2"/>
<path d="M95.562 449.721H70.6646V491.977H95.562V449.721Z" fill="#839EB2"/>
<path d="M165.548 435.409H110.4V491.977H165.548V435.409Z" fill="#839EB2"/>
<path d="M175.643 467.994H165.547V491.941H175.643V467.994Z" fill="#839EB2"/>
<path d="M206.576 429.806H170.577V491.941H206.576V429.806Z" fill="#839EB2"/>
<path d="M220.444 385.516H200.504V491.941H220.444V385.516Z" fill="#839EB2"/>
<path d="M238.874 453.004H211.965V491.941H238.874V453.004Z" fill="#839EB2"/>
<path d="M247.605 423.703H232.12V491.941H247.605V423.703Z" fill="#839EB2"/>
<path d="M295.352 444.367H244.228V491.941H295.352V444.367Z" fill="#839EB2"/>
<path d="M140.686 413.496H120.495V491.977H140.686V413.496Z" fill="#839EB2"/>
<path d="M161.344 454.432H151.788V491.941H161.344V454.432Z" fill="#839EB2"/>
<path d="M17.0615 357H1.07399V491.941H17.0615V357Z" fill="#839EB2"/>
<path d="M40.0188 388.906H20.5106V491.941H40.0188V388.906Z" fill="#839EB2"/>
<path d="M6.71458 427.308H-8.9855V491.941H6.71458V427.308Z" fill="#839EB2"/>
<path d="M23.9236 451.184H1.07399V491.977H23.9236V451.184Z" fill="#839EB2"/>
<path d="M88.1968 437.336H37.5398V491.941H88.1968V437.336Z" fill="#839EB2"/>
<path d="M232.767 437.336H182.11V491.941H232.767V437.336Z" fill="#839EB2"/>
<path d="M97.4659 468.814H88.1969V491.941H97.4659V468.814Z" fill="#839EB2"/>
<path d="M125.884 431.947H92.8315V491.941H125.884V431.947Z" fill="#839EB2"/>
<path d="M130.806 425.345H120.316V491.941H130.806V425.345Z" fill="#839EB2"/>
<path d="M155.56 454.36H130.842V491.941H155.56V454.36Z" fill="#839EB2"/>
<path d="M163.572 426.094H149.345V491.977H163.572V426.094Z" fill="#839EB2"/>
<path d="M194.469 406.965H160.482V491.941H194.469V406.965Z" fill="#839EB2"/>
<path d="M56.6889 379.484H46.1983V491.941H56.6889V379.484Z" fill="#839EB2"/>
<path d="M84.3168 455.752H75.5506V491.941H84.3168V455.752Z" fill="#839EB2"/>
<path d="M0.140049 395.723H-33.5235V491.941H0.140049V395.723Z" fill="#5B6F80"/>
<path d="M40.4142 373.881H20.2952V491.941H40.4142V373.881Z" fill="#5B6F80"/>
<path d="M64.6289 424.024H40.0909V491.941H64.6289V424.024Z" fill="#5B6F80"/>
<path d="M22.7381 442.619H2.97826V491.941H22.7381V442.619Z" fill="#5B6F80"/>
<path d="M10.2715 476.381H-4.13512V491.941H10.2715V476.381Z" fill="#5B6F80"/>
<path d="M44.3662 460.82H15.6246V491.941H44.3662V460.82Z" fill="#5B6F80"/>
<path d="M125.238 450.256H61.5392V491.941H125.238V450.256Z" fill="#5B6F80"/>
<path d="M318.812 466.352H243.366V491.941H318.812V466.352Z" fill="#5B6F80"/>
<path d="M136.878 474.275H125.238V491.941H136.878V474.275Z" fill="#5B6F80"/>
<path d="M172.625 446.152H131.058V491.941H172.625V446.152Z" fill="#5B6F80"/>
<path d="M178.877 423.025H165.655V491.941H178.877V423.025Z" fill="#5B6F80"/>
<path d="M209.917 463.247H178.841V491.941H209.917V463.247Z" fill="#5B6F80"/>
<path d="M220.049 441.655H202.157V491.941H220.049V441.655Z" fill="#5B6F80"/>
<path d="M266.574 492.405L217.534 492.119V450.256L266.574 450.542V492.405Z" fill="#5B6F80"/>
<path d="M85.6103 419.349H72.3893V491.941H85.6103V419.349Z" fill="#5B6F80"/>
<path d="M120.352 464.318H109.322V491.941H120.352V464.318Z" fill="#5B6F80"/>
<path opacity="0.7" d="M773 489.728C721.05 490.763 690.045 484.411 602.922 482.626C589.845 482.341 515.332 474.061 466.831 475.024C418.329 475.988 333.973 478.843 291.651 480.342C249.365 481.841 189.87 474.81 159.799 473.811C129.692 472.812 -8.59033 482.198 -23.5 483.054C-38.3737 483.911 -86.444 479.2 -117.736 481.02C-149.029 482.84 -203.35 484.553 -203.35 484.553L-289 492.405H474.268L773 489.728Z" fill="#485968"/>
</g>
<path opacity="0.1" d="M340.615 527.683C328.289 527.683 318.296 526 318.296 523.925C318.296 521.849 328.289 520.167 340.615 520.167C352.942 520.167 362.934 521.849 362.934 523.925C362.934 526 352.942 527.683 340.615 527.683Z" fill="#110F3F"/>
<path opacity="0.1" d="M332.825 525.721C325.905 525.721 320.295 524.898 320.295 523.884C320.295 522.869 325.905 522.046 332.825 522.046C339.745 522.046 345.355 522.869 345.355 523.884C345.355 524.898 339.745 525.721 332.825 525.721Z" fill="#110F3F"/>
<path opacity="0.1" d="M156.581 515.955C156.581 515.955 319.492 542.405 373.713 550.396C434.57 559.357 474.571 516.904 474.571 516.904C474.571 516.904 258.573 505.858 257.501 505.858C256.409 505.858 156.581 515.955 156.581 515.955Z" fill="#110F3F"/>
<path opacity="0.1" d="M345.067 528.282C331.705 528.282 320.872 526.451 320.872 524.193C320.872 521.935 331.705 520.105 345.067 520.105C358.429 520.105 369.261 521.935 369.261 524.193C369.261 526.451 358.429 528.282 345.067 528.282Z" fill="#110F3F"/>
<path opacity="0.1" d="M336.617 526.155C329.117 526.155 323.036 525.258 323.036 524.152C323.036 523.046 329.117 522.149 336.617 522.149C344.118 522.149 350.198 523.046 350.198 524.152C350.198 525.258 344.118 526.155 336.617 526.155Z" fill="#110F3F"/>
<path d="M159.194 505.067C146.56 510.622 127.765 498.894 130.218 483.449C132.691 468.004 143.778 469.243 139.471 454.417C135.164 439.592 146.87 417.044 155.505 438.972C164.14 460.901 161.79 466.579 172.156 466.146C186.624 465.547 171.827 499.513 159.194 505.067Z" fill="#49CEAB"/>
<path d="M146.169 437.527C147.962 444.093 149.879 450.597 151.61 457.184C153.341 463.771 154.928 470.399 156.247 477.089C158.885 490.469 160.471 504.117 160.203 517.869L157.133 517.745C157.895 504.303 156.844 490.737 154.722 477.357C153.65 470.667 152.331 463.998 150.847 457.37C149.384 450.742 147.715 444.155 146.169 437.527Z" fill="white"/>
<path d="M157.483 500.938C156.329 499.1 155.134 497.304 153.815 495.61C152.496 493.917 150.991 492.369 149.302 491.027C147.632 489.664 145.798 488.507 143.902 487.454C142.006 486.381 140.048 485.41 138.091 484.46C140.11 485.286 142.109 486.154 144.088 487.103C146.045 488.053 147.983 489.127 149.776 490.407C151.569 491.687 153.238 493.195 154.701 494.867C156.164 496.519 157.483 498.295 158.761 500.091L157.483 500.938Z" fill="white"/>
<path d="M173.063 470.399C171.332 471.679 169.704 473.083 168.22 474.632C166.736 476.18 165.417 477.874 164.263 479.649C161.935 483.221 160.142 487.145 158.369 491.047L156.988 490.366C159.008 486.546 161.048 482.705 163.624 479.195C164.923 477.44 166.365 475.809 167.952 474.343C169.539 472.877 171.25 471.576 173.063 470.399Z" fill="white"/>
<path d="M157.483 449.42C156.473 451.093 155.567 452.807 154.701 454.562C153.835 456.317 153.032 458.072 152.228 459.848L151.527 459.517C152.434 457.783 153.382 456.069 154.351 454.376C155.34 452.683 156.35 451.01 157.483 449.42Z" fill="white"/>
<path d="M154.598 475.974C153.011 473.744 151.3 471.576 149.137 469.924C148.065 469.098 146.87 468.417 145.592 467.901C144.314 467.384 142.975 467.054 141.614 466.848C142.995 466.951 144.355 467.199 145.695 467.653C147.014 468.086 148.292 468.706 149.466 469.49C151.816 471.06 153.712 473.187 155.463 475.334L154.598 475.974Z" fill="white"/>
<path d="M217.165 490.428C213.373 497.386 198.68 507.256 192.002 496.581C183.676 483.283 188.52 471.473 194.681 466.001C201.565 459.889 204.986 477.275 212.796 465.34C226.584 444.341 228.17 470.254 217.165 490.428Z" fill="#4192D4"/>
<path d="M206.284 471.39C205.336 474.384 204.347 477.399 203.523 480.413C202.698 483.449 202.08 486.525 201.73 489.622C201.359 492.72 201.235 495.838 201.338 498.935C201.441 502.053 201.75 505.15 202.162 508.226L199.524 508.516C199.318 505.336 199.236 502.135 199.339 498.935C199.463 495.734 199.813 492.555 200.411 489.437C201.008 486.298 201.853 483.242 202.884 480.248C203.935 477.234 205.13 474.322 206.284 471.39Z" fill="white"/>
<path d="M208.551 483.49C208.427 487.743 207.85 491.997 206.779 496.147C205.707 500.298 204.141 504.345 202.162 508.165L200.596 507.277C202.781 503.705 204.574 499.885 205.913 495.879C207.273 491.873 208.139 487.702 208.551 483.49Z" fill="white"/>
<path d="M201.462 486.154C202.327 485.162 203.213 484.171 204.203 483.283C205.192 482.396 206.263 481.59 207.418 480.95C209.726 479.649 212.219 478.803 214.692 477.977C212.281 478.968 209.829 479.938 207.644 481.343C206.552 482.045 205.563 482.87 204.656 483.779C203.749 484.688 202.945 485.699 202.142 486.732L201.462 486.154Z" fill="white"/>
<path d="M207.211 491.398C208.159 490.283 209.252 489.209 210.571 488.487C211.869 487.764 213.27 487.289 214.651 486.835C213.291 487.392 211.91 487.929 210.694 488.714C209.458 489.478 208.489 490.572 207.603 491.729L207.211 491.398Z" fill="white"/>
<path d="M188.643 483.283C189.962 483.965 191.116 484.935 192.229 485.906C193.342 486.897 194.393 487.95 195.423 489.024C196.454 490.097 197.423 491.233 198.371 492.389C199.319 493.546 200.225 494.743 201.05 496.044L199.937 496.663C199.277 495.404 198.453 494.165 197.629 492.967C196.784 491.77 195.897 490.593 194.949 489.437C194.022 488.301 193.054 487.186 192.023 486.112C190.993 485.08 189.921 484.047 188.643 483.283Z" fill="white"/>
<path d="M202.657 490.572C203.11 490.841 203.502 491.212 203.852 491.605C204.223 491.997 204.574 492.389 204.903 492.802C205.563 493.628 206.202 494.475 206.738 495.425L206.325 495.61C205.893 494.681 205.316 493.773 204.718 492.926C204.409 492.493 204.1 492.08 203.77 491.667C203.44 491.274 203.09 490.882 202.657 490.572Z" fill="white"/>
<path d="M195.897 472.051C197.381 473.125 198.762 474.363 200.019 475.685C201.276 477.027 202.451 478.452 203.461 480.021L202.925 480.351C202.039 478.782 200.967 477.295 199.792 475.912C198.618 474.508 197.319 473.207 195.897 472.051Z" fill="white"/>
<path d="M198.783 484.605C195.671 497.097 169.312 524.311 165.871 497.097C161.028 458.919 179.74 463.42 173.496 427.657C170.508 410.519 187.695 405.089 193.94 433.212C200.163 461.355 201.894 472.113 198.783 484.605Z" fill="#4164D4"/>
<path d="M188.54 429.846C187.18 437.135 185.717 444.382 184.418 451.671C183.12 458.96 181.966 466.269 181.059 473.599C179.246 488.26 178.421 503.064 179.204 517.745L176.216 517.869C175.928 502.941 177.267 488.074 179.575 473.393C180.73 466.063 182.131 458.774 183.677 451.527C185.222 444.279 186.933 437.073 188.54 429.846Z" fill="white"/>
<path d="M178.133 487.413C179.184 485.596 180.276 483.779 181.492 482.045C182.708 480.31 184.068 478.658 185.634 477.233C187.201 475.788 188.911 474.57 190.704 473.476C192.497 472.381 194.331 471.39 196.186 470.42C194.393 471.493 192.621 472.588 190.91 473.785C189.2 474.983 187.592 476.284 186.17 477.77C183.285 480.723 181.327 484.398 179.452 488.115L178.133 487.413Z" fill="white"/>
<path d="M174.547 461.582C177.061 465.485 179.019 469.759 180.956 473.971L179.575 474.508C178.092 470.131 176.649 465.732 174.547 461.582Z" fill="white"/>
<path d="M169.807 482.87C171.373 485.761 173.104 488.549 174.609 491.501C176.134 494.433 177.473 497.448 178.792 500.463L177.411 501C176.319 497.902 175.206 494.826 173.929 491.811C172.671 488.797 171.146 485.864 169.807 482.87Z" fill="white"/>
<path d="M178.133 434.223C179.699 435.978 181.059 437.899 182.296 439.922C183.532 441.946 184.624 444.031 185.552 446.22L184.851 446.488C184.047 444.3 183.079 442.152 181.966 440.108C180.853 438.043 179.596 436.061 178.133 434.223Z" fill="white"/>
<path d="M181.533 462.449C182.976 460.281 184.624 458.196 186.665 456.565C188.684 454.913 191.096 453.757 193.61 453.22C191.137 453.922 188.849 455.223 186.994 456.957C185.14 458.691 183.676 460.798 182.419 463.007L181.533 462.449Z" fill="white"/>
<path d="M186.216 420.932L297.873 396.216L235.677 351.058L186.216 420.932Z" fill="#5B6F80"/>
<path d="M186.216 436.067V439.99L141.805 434.869L154.479 432.206L186.216 436.067Z" fill="#30404B"/>
<path d="M403.266 499.808L297.873 496.194V514.551H403.266V499.808Z" fill="#30404B"/>
<path d="M186.216 500.035L297.873 496.194V396.216L186.216 420.932V500.035Z" fill="#EFF0F8"/>
<path d="M297.873 396.216V496.194L409.531 500.035V420.994L297.873 396.216Z" fill="#CBD2DE"/>
<path d="M194.253 499.746L297.873 496.194V514.551H194.253V499.746Z" fill="#485968"/>
<path d="M254.637 497.681L235.677 498.321V439.412L254.637 441.704V497.681Z" fill="#CBD2DE"/>
<path d="M289.486 430.863L254.637 436.397V497.681L289.486 496.483V430.863Z" fill="#5B6F80"/>
<path d="M289.486 430.863L235.677 439.412L254.637 441.704L289.486 436.542V430.863Z" fill="#30404B"/>
<path d="M262.282 449.653V496.07L278.254 495.472V447.547L262.282 449.653Z" fill="#161F26"/>
<path d="M228.691 506.209L279.078 505.383V496.132L228.629 497.929L228.691 506.209Z" fill="#EFF0F8"/>
<path d="M279.078 496.132V505.383L269.804 505.218V514.551H289.486V505.548V496.483L279.078 496.132Z" fill="#CBD2DE"/>
<path d="M220.591 506.209L269.805 505.218V514.551H220.591V506.209Z" fill="#EFF0F8"/>
<path d="M155.489 514.551H469.893V517.173H155.489V514.551Z" fill="#30404B"/>
<path d="M186.216 436.067L154.479 432.206L214.079 345.132L235.677 351.058L186.216 420.932V436.067Z" fill="#30404B"/>
<path d="M442.834 429.108L427.357 431.07L292.227 403.195L309.043 399.643L442.834 429.108Z" fill="#30404B"/>
<path d="M254.637 390.599L217.871 399.87V385.582L254.637 375.134V390.599Z" fill="url(#paint2_linear)"/>
<path d="M254.637 377.632L222.59 386.573L217.871 385.582L254.637 375.134V377.632Z" fill="#30404B"/>
<path d="M222.59 398.694L217.871 399.87V385.582L222.59 386.573V398.694Z" fill="#CBD2DE"/>
<path d="M214.079 345.132L292.227 403.195L309.043 399.643L214.079 332.743L141.805 434.869L154.479 432.206L214.079 345.132Z" fill="#485968"/>
<path d="M442.834 429.108L353.702 373.812L214.079 332.743L309.043 399.643L442.834 429.108Z" fill="#5B6F80"/>
<path d="M354.856 388.659L341.11 385.045V332.743L354.856 337.823V388.659Z" fill="#CBD2DE"/>
<path d="M326.766 376.063L341.11 385.045V332.743L326.766 337.265V376.063Z" fill="#EFF0F8"/>
<path d="M278.233 474.225C278.44 474.121 278.563 473.915 278.543 473.688C278.522 473.378 278.254 473.13 277.945 473.151L273.761 473.357C273.452 473.378 273.205 473.646 273.226 473.956C273.246 474.266 273.514 474.493 273.823 474.493L278.007 474.287C278.089 474.287 278.151 474.266 278.233 474.225Z" fill="#231F20"/>
<path d="M277.801 473.357C277.986 473.254 278.11 473.068 278.11 472.841C278.089 472.531 277.842 472.304 277.533 472.325C273.081 472.552 273.061 472.552 272.958 472.924C272.855 473.213 273.02 473.523 273.308 473.626C273.39 473.646 273.452 473.667 273.535 473.647C273.782 473.626 277.595 473.44 277.595 473.44C277.656 473.419 277.739 473.399 277.801 473.357Z" fill="#CBD2DE"/>
<path d="M197.448 472.573L221.354 470.26V441.704L197.448 445.503V472.573Z" fill="url(#paint3_linear)"/>
<path d="M221.354 442.819L201.425 445.937L197.448 445.503L221.354 441.704V442.819Z" fill="#30404B"/>
<path d="M201.364 472.201L197.448 472.573V445.503L201.364 445.937V472.201Z" fill="#CBD2DE"/>
<path d="M210.72 444.14H211.791V471.127H210.72V444.14Z" fill="#30404B"/>
<path d="M209.957 444.14H211.008V471.127H209.957V444.14Z" fill="#CBD2DE"/>
<path d="M365.943 514.551H320.419V496.958L365.943 495.513V514.551Z" fill="#485968"/>
<path d="M437.064 514.551H365.943V495.513L437.064 498.424V514.551Z" fill="#30404B"/>
<path d="M408.273 361.444L365.943 392.644L442.834 412.734L408.273 361.444Z" fill="#5B6F80"/>
<path d="M320.419 496.958L365.943 495.513V400.366L320.419 408.997V496.958Z" fill="#EFF0F8"/>
<path d="M442.834 412.734L365.943 392.644V495.513L442.834 498.651V412.734Z" fill="#CBD2DE"/>
<path d="M375.939 392.995L308.095 406.457L320.419 408.997L387.974 396.216L375.939 392.995Z" fill="#30404B"/>
<path d="M324.87 403.133L375.938 392.995L423.812 354.692L320.419 379.718L324.87 403.133Z" fill="#657B8C"/>
<path d="M333.938 434.869L349.869 432.639V464.272L333.938 465.635V434.869Z" fill="url(#paint4_linear)"/>
<path d="M349.869 433.63L337.174 435.385L333.938 434.869L349.869 432.639V433.63Z" fill="#30404B"/>
<path d="M333.938 465.635L337.174 465.346V435.385L333.938 434.869V465.635Z" fill="#CBD2DE"/>
<path opacity="0.1" d="M235.677 439.412L254.637 441.704L289.486 436.542V470.26L254.637 472.986L235.677 439.412Z" fill="#110F3F"/>
<path opacity="0.1" d="M246.063 368.898L195.799 440.031L186.216 441.704V420.932L230.978 357.707L246.063 368.898Z" fill="#110F3F"/>
<path opacity="0.1" d="M320.419 424.545L305.808 421.696L297.873 404.351L320.419 408.997V424.545Z" fill="#110F3F"/>
<path opacity="0.1" d="M320.419 424.545L365.943 416.988V400.366L320.419 408.997V424.545Z" fill="#110F3F"/>
<path opacity="0.1" d="M442.834 412.734V498.651L365.943 495.513L442.834 412.734Z" fill="#110F3F"/>
<path opacity="0.1" d="M365.943 417.091L416.166 373.255L415.507 372.285L387.974 396.319L365.943 400.49V417.091Z" fill="#110F3F"/>
<path d="M324.232 518.887C329.301 518.247 333.423 512.568 334.783 505.734C336.143 498.899 335.834 492.436 331.795 495.616C327.756 498.817 326.293 493.758 327.529 489.876C330.888 479.345 327.467 460.638 322.789 466.275C318.111 471.912 322.624 470.714 317.266 463.921C311.908 457.128 300.223 454.857 304.88 465.573C309.538 476.289 317.06 485.209 312.114 482.401C307.168 479.593 299.316 480.047 304.138 486.324C308.961 492.601 316.483 501.026 312.567 500.758C308.652 500.489 294.844 495.1 305.643 506.229C316.462 517.359 324.232 518.887 324.232 518.887Z" fill="#49CEAB"/>
<path d="M309.971 463.426C310.609 464.437 311.207 465.49 311.805 466.544C312.402 467.597 312.979 468.65 313.536 469.723C314.092 470.797 314.649 471.871 315.164 472.944C315.432 473.481 315.679 474.039 315.947 474.576C316.194 475.133 316.462 475.67 316.71 476.228C318.709 480.626 320.46 485.168 321.82 489.855C322.501 492.189 323.057 494.584 323.469 497L323.613 497.908C323.655 498.218 323.716 498.507 323.737 498.817L323.984 500.634L324.19 502.451C324.252 503.05 324.314 503.669 324.376 504.268C324.603 506.704 324.788 509.141 324.891 511.577C324.932 512.795 324.974 514.014 324.974 515.253C324.974 515.562 324.974 515.872 324.974 516.182C324.974 516.491 324.974 516.801 324.974 517.111C324.974 517.73 324.953 518.329 324.932 518.969L323.593 518.866C323.634 518.288 323.655 517.668 323.675 517.07C323.696 516.76 323.696 516.471 323.696 516.161C323.696 515.851 323.716 515.562 323.716 515.253C323.737 514.034 323.737 512.837 323.716 511.619C323.675 509.203 323.552 506.787 323.387 504.35C323.345 503.752 323.304 503.132 323.242 502.533L323.078 500.716L322.871 498.899C322.851 498.59 322.81 498.3 322.768 497.991L322.645 497.103C322.294 494.708 321.8 492.354 321.182 490.021C319.945 485.354 318.317 480.791 316.421 476.351C316.194 475.794 315.947 475.236 315.7 474.7C315.452 474.142 315.205 473.605 314.958 473.048C314.463 471.953 313.927 470.859 313.392 469.785C312.856 468.712 312.299 467.638 311.743 466.564C311.145 465.532 310.568 464.479 309.971 463.426Z" fill="white"/>
<path d="M320.481 487.295C320.563 486.035 320.728 484.776 320.955 483.537C321.182 482.298 321.45 481.08 321.779 479.882C322.088 478.685 322.459 477.487 322.851 476.31C323.242 475.133 323.696 473.977 324.19 472.821C323.737 473.977 323.346 475.154 323.016 476.351C322.665 477.549 322.356 478.747 322.088 479.965C321.82 481.183 321.594 482.401 321.429 483.62C321.264 484.838 321.14 486.077 321.12 487.316L320.481 487.295Z" fill="white"/>
<path d="M324.026 510.71C324.067 510.648 324.087 510.607 324.129 510.545C324.149 510.503 324.19 510.442 324.232 510.4C324.293 510.297 324.355 510.214 324.417 510.132C324.541 509.946 324.685 509.781 324.809 509.595C325.077 509.244 325.365 508.914 325.654 508.604C325.798 508.439 325.942 508.294 326.107 508.129L326.334 507.902C326.416 507.819 326.478 507.757 326.56 507.675L327.034 507.241L327.529 506.828C328.188 506.312 328.889 505.816 329.61 505.403C329.961 505.176 330.352 505.011 330.723 504.805C330.909 504.701 331.094 504.639 331.28 504.536L331.857 504.288L331.321 504.598C331.136 504.701 330.95 504.805 330.785 504.908C330.435 505.135 330.084 505.362 329.755 505.61C329.075 506.085 328.456 506.642 327.859 507.22L327.426 507.654L327.014 508.108C326.952 508.191 326.87 508.273 326.808 508.335L326.602 508.583C326.457 508.748 326.354 508.914 326.21 509.079C325.963 509.409 325.736 509.74 325.509 510.091C325.406 510.256 325.283 510.442 325.2 510.627C325.159 510.71 325.097 510.813 325.056 510.896C325.035 510.937 325.015 510.978 324.994 511.02C324.974 511.061 324.953 511.102 324.932 511.144L324.026 510.71Z" fill="white"/>
<path d="M323.716 506.353C323.119 505.589 322.501 504.846 321.862 504.123C321.223 503.401 320.563 502.678 319.904 501.976C319.224 501.274 318.544 500.613 317.822 499.952C317.101 499.312 316.359 498.693 315.576 498.135C316.4 498.631 317.204 499.168 317.987 499.746C318.77 500.324 319.512 500.943 320.254 501.583C320.996 502.224 321.717 502.884 322.418 503.545C323.119 504.226 323.82 504.908 324.5 505.631L323.716 506.353Z" fill="white"/>
<path d="M322.398 496.401C322.027 495.947 321.635 495.472 321.223 495.017C320.811 494.563 320.399 494.13 319.986 493.696C319.141 492.829 318.276 492.003 317.348 491.218C316.442 490.433 315.473 489.69 314.484 489.029C313.989 488.699 313.474 488.389 312.938 488.1C312.423 487.811 311.867 487.543 311.331 487.316C311.887 487.522 312.444 487.749 312.979 488.018C313.515 488.286 314.051 488.554 314.566 488.864C315.617 489.463 316.607 490.165 317.575 490.888C318.544 491.631 319.471 492.416 320.378 493.242C320.831 493.655 321.264 494.088 321.697 494.522C322.13 494.955 322.562 495.389 322.975 495.864L322.398 496.401Z" fill="white"/>
<path d="M325.819 523.925C321.511 522.81 318.255 517.503 317.431 511.474C316.607 505.445 317.225 499.932 320.522 503.111C323.82 506.291 325.448 502.1 324.5 498.651C322.047 489.814 326.086 473.543 329.817 478.891C333.547 484.239 333.073 480.109 334.68 477.466C338.452 471.231 349.786 471.52 345.232 480.213C340.677 488.905 333.753 495.761 338.142 493.882C342.532 492.003 349.25 493.242 344.799 498.115C340.327 502.988 333.423 509.409 336.803 509.595C340.183 509.801 352.321 506.663 342.45 515.046C332.599 523.471 325.819 523.925 325.819 523.925Z" fill="#4164D4"/>
<path d="M340.986 477.838C339.812 479.511 338.74 481.224 337.689 482.979C336.638 484.735 335.649 486.51 334.721 488.327C332.846 491.961 331.197 495.719 329.899 499.601C329.26 501.542 328.704 503.524 328.292 505.527C328.085 506.518 327.921 507.551 327.735 508.563L327.488 510.091L327.261 511.618C326.993 513.663 326.766 515.707 326.602 517.751C326.519 518.783 326.457 519.795 326.416 520.828C326.396 521.344 326.375 521.86 326.354 522.376C326.334 522.892 326.334 523.409 326.334 523.904H325.303C325.303 523.367 325.324 522.851 325.365 522.335C325.386 521.819 325.427 521.302 325.448 520.766C325.509 519.733 325.612 518.701 325.715 517.668C325.922 515.604 326.189 513.539 326.519 511.495L326.766 509.967L327.034 508.439C327.22 507.427 327.426 506.415 327.653 505.383C328.106 503.359 328.724 501.377 329.404 499.415C330.806 495.534 332.537 491.796 334.495 488.183C335.463 486.386 336.514 484.611 337.586 482.876C338.678 481.183 339.791 479.49 340.986 477.838Z" fill="white"/>
<path d="M325.674 517.317C325.489 516.946 325.303 516.553 325.097 516.182C324.994 515.996 324.891 515.81 324.788 515.624L324.458 515.067C324.026 514.323 323.552 513.601 323.057 512.899C322.562 512.197 322.047 511.515 321.491 510.875L321.058 510.4C320.914 510.235 320.769 510.091 320.625 509.925L320.398 509.698C320.316 509.616 320.254 509.554 320.172 509.471L319.698 509.037L320.192 509.43C320.275 509.492 320.357 509.554 320.44 509.636L320.687 509.843C320.852 509.987 321.017 510.132 321.161 510.276L321.614 510.731C322.233 511.329 322.81 511.97 323.366 512.651C323.922 513.312 324.458 514.014 324.953 514.716L325.324 515.253C325.448 515.438 325.571 515.624 325.695 515.81C325.942 516.182 326.169 516.553 326.396 516.946L325.674 517.317Z" fill="white"/>
<path d="M326.416 512.568C327.014 512.155 327.612 511.784 328.23 511.433C328.848 511.082 329.466 510.751 330.105 510.442C330.744 510.132 331.383 509.863 332.042 509.595C332.702 509.347 333.382 509.161 334.062 508.996C333.403 509.203 332.743 509.471 332.125 509.76C331.507 510.07 330.888 510.4 330.291 510.751C329.693 511.123 329.116 511.495 328.539 511.908C327.962 512.321 327.405 512.733 326.87 513.167L326.416 512.568Z" fill="white"/>
<path d="M327.879 504.515C328.271 504.144 328.642 503.793 329.033 503.442C329.425 503.091 329.837 502.76 330.249 502.43C331.074 501.79 331.919 501.17 332.784 500.613C333.65 500.055 334.557 499.539 335.505 499.106C335.979 498.879 336.453 498.693 336.927 498.528C337.401 498.362 337.895 498.218 338.39 498.094C337.895 498.238 337.421 498.404 336.947 498.61C336.473 498.817 336.02 499.023 335.566 499.271C334.66 499.746 333.794 500.303 332.949 500.902C332.104 501.501 331.3 502.141 330.538 502.822C330.146 503.173 329.775 503.524 329.404 503.875C329.033 504.226 328.663 504.598 328.333 504.97L327.879 504.515Z" fill="white"/>
<path d="M328.663 482.835C328.745 483.971 328.889 485.106 329.054 486.242C329.219 487.377 329.425 488.492 329.631 489.607C329.837 490.722 330.084 491.837 330.311 492.952C330.558 494.067 330.806 495.182 331.094 496.277L330.682 496.38C330.435 495.265 330.229 494.15 330.002 493.014C329.796 491.899 329.59 490.764 329.404 489.649C329.219 488.513 329.054 487.398 328.93 486.262C328.827 485.127 328.724 483.991 328.663 482.835Z" fill="white"/>
<path d="M144.974 128.934H156.456C162.477 128.934 167.658 131.04 167.658 137.92C167.658 142.132 165.418 145.221 161.217 146.063L168.778 158.559H160.937L154.776 146.765H151.415V158.559H144.834V128.934H144.974ZM151.415 141.149H155.196C157.576 141.149 160.657 141.009 160.657 137.779C160.657 134.831 157.996 134.41 155.616 134.41H151.415V141.149ZM174.379 128.934H194.402V134.971H180.82V140.447H193.702V146.484H180.82V152.521H195.102V158.559H174.379V128.934ZM202.524 128.934H212.325C221.847 128.934 229.828 133.006 229.828 143.817C229.828 153.364 221.987 158.559 213.165 158.559H202.524V128.934ZM208.965 152.521H212.325C218.346 152.521 222.967 150.275 222.967 143.536C222.967 137.779 218.346 134.971 212.885 134.971H209.105V152.521H208.965ZM236.129 128.934H242.71V158.559H236.129V128.934ZM250.692 128.934H261.754C266.934 128.934 272.535 130.057 272.535 136.516C272.535 139.885 270.435 142.132 267.495 143.115V143.255C271.415 143.817 273.936 146.625 273.936 150.556C273.936 156.734 268.055 158.84 262.874 158.84H250.832V128.934H250.692ZM257.133 140.728H261.894C263.854 140.728 265.954 139.885 265.954 137.499C265.954 134.971 263.574 134.41 261.614 134.41H257.133V140.728ZM257.133 153.083H263.014C265.114 153.083 267.355 152.241 267.355 149.573C267.355 146.765 264.274 146.344 262.034 146.344H257.133V153.083ZM294.379 136.095C293.399 134.691 291.299 134.129 289.618 134.129C287.798 134.129 285.278 134.971 285.278 137.218C285.278 142.553 298.86 139.183 298.86 149.573C298.86 156.172 293.539 159.261 287.518 159.261C283.737 159.261 280.377 158.138 277.576 155.47L282.197 150.415C283.597 152.241 285.698 153.223 287.938 153.223C290.038 153.223 292.419 152.241 292.419 150.135C292.419 144.659 278.556 147.607 278.556 137.779C278.556 131.461 284.017 128.092 289.898 128.092C293.259 128.092 296.479 128.934 299 131.181L294.379 136.095ZM94.4257 126.266L111.369 137.639V141.711V153.925L97.9263 147.186L94.4257 145.501L90.9251 147.186L77.4829 153.925V141.711V137.639L94.4257 126.266ZM94.4257 117L59.4199 140.447C58.7197 140.868 58.9998 141.711 59.6999 141.711H69.7816V165.298C69.7816 165.719 70.0616 166 70.4817 166C70.6217 166 70.7617 166 70.7617 165.86L94.4257 154.066L118.09 165.86C118.23 165.86 118.23 166 118.37 166C118.79 166 119.07 165.719 119.07 165.298V141.711H129.011C129.712 141.711 129.992 140.868 129.432 140.447L94.4257 117Z" fill="white"/>
<path d="M67.0392 232V218.84H61.9392V217.76H73.3792V218.84H68.2792V232H67.0392ZM75.2733 232V217.28H76.4933V224L76.2533 224.28C76.5066 223.44 76.9666 222.807 77.6333 222.38C78.2999 221.953 79.0666 221.74 79.9333 221.74C82.3466 221.74 83.5533 223.033 83.5533 225.62V232H82.3333V225.7C82.3333 224.7 82.1333 223.967 81.7333 223.5C81.3333 223.033 80.6933 222.8 79.8133 222.8C78.8133 222.8 78.0066 223.107 77.3933 223.72C76.7933 224.333 76.4933 225.16 76.4933 226.2V232H75.2733ZM94.8563 230.76C94.4296 231.187 93.8763 231.527 93.1963 231.78C92.5163 232.02 91.8163 232.14 91.0963 232.14C90.0829 232.14 89.2096 231.933 88.4763 231.52C87.7429 231.107 87.1763 230.513 86.7763 229.74C86.3763 228.967 86.1763 228.04 86.1763 226.96C86.1763 225.92 86.3696 225.007 86.7563 224.22C87.1563 223.433 87.7096 222.827 88.4163 222.4C89.1229 221.96 89.9363 221.74 90.8563 221.74C91.7229 221.74 92.4696 221.933 93.0963 222.32C93.7229 222.693 94.2029 223.24 94.5363 223.96C94.8696 224.68 95.0363 225.553 95.0363 226.58V226.84H87.2563L87.2363 225.92H94.3763L93.9163 226.7C93.9563 225.42 93.7096 224.44 93.1763 223.76C92.6563 223.08 91.8829 222.74 90.8563 222.74C89.8029 222.74 88.9696 223.113 88.3563 223.86C87.7563 224.593 87.4563 225.607 87.4563 226.9C87.4563 228.26 87.7629 229.293 88.3763 230C89.0029 230.707 89.9029 231.06 91.0763 231.06C91.6896 231.06 92.2629 230.96 92.7963 230.76C93.3429 230.56 93.8763 230.247 94.3963 229.82L94.8563 230.76ZM102.754 232V224.76C102.754 224.307 102.74 223.847 102.714 223.38C102.7 222.9 102.66 222.433 102.594 221.98H103.754L103.934 224.08L103.734 224.28C103.96 223.453 104.374 222.827 104.974 222.4C105.574 221.96 106.28 221.74 107.094 221.74C108.08 221.74 108.84 221.98 109.374 222.46C109.92 222.94 110.267 223.673 110.414 224.66L109.934 224.48C110.107 223.64 110.52 222.973 111.174 222.48C111.827 221.987 112.62 221.74 113.554 221.74C114.647 221.74 115.474 222.06 116.034 222.7C116.594 223.34 116.874 224.313 116.874 225.62V232H115.654V225.7C115.654 224.7 115.474 223.967 115.114 223.5C114.754 223.033 114.18 222.8 113.394 222.8C112.487 222.8 111.767 223.107 111.234 223.72C110.7 224.333 110.434 225.167 110.434 226.22V232H109.214V225.7C109.214 224.7 109.027 223.967 108.654 223.5C108.294 223.033 107.72 222.8 106.934 222.8C106.014 222.8 105.287 223.107 104.754 223.72C104.234 224.333 103.974 225.167 103.974 226.22V232H102.754ZM124.097 232.14C123.177 232.14 122.37 231.927 121.677 231.5C120.997 231.073 120.463 230.473 120.077 229.7C119.69 228.913 119.497 227.987 119.497 226.92C119.497 225.88 119.69 224.973 120.077 224.2C120.463 223.413 120.997 222.807 121.677 222.38C122.37 221.953 123.177 221.74 124.097 221.74C125.03 221.74 125.837 221.953 126.517 222.38C127.21 222.807 127.743 223.413 128.117 224.2C128.503 224.973 128.697 225.88 128.697 226.92C128.697 227.987 128.503 228.913 128.117 229.7C127.743 230.473 127.21 231.073 126.517 231.5C125.837 231.927 125.03 232.14 124.097 232.14ZM124.097 231.06C125.163 231.06 125.983 230.707 126.557 230C127.143 229.293 127.437 228.273 127.437 226.94C127.437 225.633 127.143 224.62 126.557 223.9C125.97 223.18 125.157 222.82 124.117 222.82C123.063 222.82 122.237 223.18 121.637 223.9C121.05 224.62 120.757 225.633 120.757 226.94C120.757 228.273 121.043 229.293 121.617 230C122.203 230.707 123.03 231.06 124.097 231.06ZM134.627 232.14C133 232.14 131.714 231.693 130.767 230.8L131.227 229.86C131.76 230.287 132.294 230.6 132.827 230.8C133.36 230.987 133.98 231.08 134.687 231.08C135.527 231.08 136.16 230.94 136.587 230.66C137.014 230.367 137.227 229.947 137.227 229.4C137.227 228.96 137.08 228.607 136.787 228.34C136.507 228.073 136.04 227.86 135.387 227.7L133.687 227.3C132.887 227.127 132.254 226.8 131.787 226.32C131.334 225.84 131.107 225.28 131.107 224.64C131.107 224.053 131.26 223.547 131.567 223.12C131.874 222.68 132.3 222.34 132.847 222.1C133.407 221.86 134.06 221.74 134.807 221.74C135.5 221.74 136.154 221.853 136.767 222.08C137.38 222.307 137.887 222.633 138.287 223.06L137.827 224C137.36 223.6 136.88 223.3 136.387 223.1C135.907 222.9 135.38 222.8 134.807 222.8C134.034 222.8 133.434 222.953 133.007 223.26C132.58 223.567 132.367 223.987 132.367 224.52C132.367 224.987 132.5 225.36 132.767 225.64C133.034 225.907 133.46 226.113 134.047 226.26L135.747 226.68C136.667 226.88 137.347 227.207 137.787 227.66C138.227 228.1 138.447 228.66 138.447 229.34C138.447 230.18 138.1 230.86 137.407 231.38C136.727 231.887 135.8 232.14 134.627 232.14ZM139.652 222.96V221.98H145.812V222.96H139.652ZM145.752 230.86V231.96C145.552 232.013 145.346 232.053 145.132 232.08C144.932 232.107 144.706 232.12 144.452 232.12C143.612 232.12 142.932 231.88 142.412 231.4C141.892 230.92 141.632 230.173 141.632 229.16V219.32L142.852 218.86V228.92C142.852 229.48 142.926 229.913 143.072 230.22C143.232 230.527 143.446 230.74 143.712 230.86C143.992 230.98 144.306 231.04 144.652 231.04C144.866 231.04 145.052 231.027 145.212 231C145.372 230.973 145.552 230.927 145.752 230.86ZM152.988 232V221.98H154.208V232H152.988ZM152.808 217.84H154.428V219.4H152.808V217.84ZM157.539 232V224.76C157.539 224.307 157.526 223.847 157.499 223.38C157.486 222.9 157.446 222.433 157.379 221.98H158.539L158.719 224.08L158.519 224.28C158.772 223.44 159.232 222.807 159.899 222.38C160.566 221.953 161.332 221.74 162.199 221.74C164.612 221.74 165.819 223.033 165.819 225.62V232H164.599V225.7C164.599 224.7 164.399 223.967 163.999 223.5C163.599 223.033 162.959 222.8 162.079 222.8C161.079 222.8 160.272 223.107 159.659 223.72C159.059 224.333 158.759 225.16 158.759 226.2V232H157.539ZM167.582 222.96V221.98H173.742V222.96H167.582ZM173.682 230.86V231.96C173.482 232.013 173.275 232.053 173.062 232.08C172.862 232.107 172.635 232.12 172.382 232.12C171.542 232.12 170.862 231.88 170.342 231.4C169.822 230.92 169.562 230.173 169.562 229.16V219.32L170.782 218.86V228.92C170.782 229.48 170.855 229.913 171.002 230.22C171.162 230.527 171.375 230.74 171.642 230.86C171.922 230.98 172.235 231.04 172.582 231.04C172.795 231.04 172.982 231.027 173.142 231C173.302 230.973 173.482 230.927 173.682 230.86ZM183.86 230.76C183.433 231.187 182.88 231.527 182.2 231.78C181.52 232.02 180.82 232.14 180.1 232.14C179.087 232.14 178.213 231.933 177.48 231.52C176.747 231.107 176.18 230.513 175.78 229.74C175.38 228.967 175.18 228.04 175.18 226.96C175.18 225.92 175.373 225.007 175.76 224.22C176.16 223.433 176.713 222.827 177.42 222.4C178.127 221.96 178.94 221.74 179.86 221.74C180.727 221.74 181.473 221.933 182.1 222.32C182.727 222.693 183.207 223.24 183.54 223.96C183.873 224.68 184.04 225.553 184.04 226.58V226.84H176.26L176.24 225.92H183.38L182.92 226.7C182.96 225.42 182.713 224.44 182.18 223.76C181.66 223.08 180.887 222.74 179.86 222.74C178.807 222.74 177.973 223.113 177.36 223.86C176.76 224.593 176.46 225.607 176.46 226.9C176.46 228.26 176.767 229.293 177.38 230C178.007 230.707 178.907 231.06 180.08 231.06C180.693 231.06 181.267 230.96 181.8 230.76C182.347 230.56 182.88 230.247 183.4 229.82L183.86 230.76ZM186.66 232V217.28H187.88V232H186.66ZM191.211 232V217.28H192.431V232H191.211ZM195.762 232V221.98H196.982V232H195.762ZM195.582 217.84H197.202V219.4H195.582V217.84ZM204.632 236.46C203.139 236.46 201.839 236.1 200.732 235.38L200.972 234.32C201.599 234.693 202.186 234.96 202.732 235.12C203.279 235.293 203.919 235.38 204.652 235.38C205.652 235.38 206.406 235.107 206.912 234.56C207.432 234.013 207.692 233.213 207.692 232.16V229.32L207.912 228.94C207.752 229.527 207.499 230.027 207.152 230.44C206.819 230.84 206.399 231.153 205.892 231.38C205.399 231.593 204.826 231.7 204.172 231.7C203.279 231.7 202.492 231.493 201.812 231.08C201.146 230.653 200.619 230.067 200.232 229.32C199.859 228.573 199.672 227.707 199.672 226.72C199.672 225.72 199.859 224.847 200.232 224.1C200.619 223.353 201.146 222.773 201.812 222.36C202.492 221.947 203.279 221.74 204.172 221.74C205.146 221.74 205.952 221.98 206.592 222.46C207.246 222.927 207.686 223.593 207.912 224.46L207.672 224.14V221.98H208.892V232.04C208.892 233.507 208.532 234.607 207.812 235.34C207.092 236.087 206.032 236.46 204.632 236.46ZM204.332 230.6C205.372 230.6 206.186 230.253 206.772 229.56C207.372 228.867 207.672 227.92 207.672 226.72C207.672 225.507 207.372 224.553 206.772 223.86C206.186 223.167 205.372 222.82 204.332 222.82C203.279 222.82 202.446 223.167 201.832 223.86C201.232 224.54 200.932 225.493 200.932 226.72C200.932 227.947 201.232 228.9 201.832 229.58C202.446 230.26 203.279 230.6 204.332 230.6ZM220.247 230.76C219.82 231.187 219.267 231.527 218.587 231.78C217.907 232.02 217.207 232.14 216.487 232.14C215.474 232.14 214.6 231.933 213.867 231.52C213.134 231.107 212.567 230.513 212.167 229.74C211.767 228.967 211.567 228.04 211.567 226.96C211.567 225.92 211.76 225.007 212.147 224.22C212.547 223.433 213.1 222.827 213.807 222.4C214.514 221.96 215.327 221.74 216.247 221.74C217.114 221.74 217.86 221.933 218.487 222.32C219.114 222.693 219.594 223.24 219.927 223.96C220.26 224.68 220.427 225.553 220.427 226.58V226.84H212.647L212.627 225.92H219.767L219.307 226.7C219.347 225.42 219.1 224.44 218.567 223.76C218.047 223.08 217.274 222.74 216.247 222.74C215.194 222.74 214.36 223.113 213.747 223.86C213.147 224.593 212.847 225.607 212.847 226.9C212.847 228.26 213.154 229.293 213.767 230C214.394 230.707 215.294 231.06 216.467 231.06C217.08 231.06 217.654 230.96 218.187 230.76C218.734 230.56 219.267 230.247 219.787 229.82L220.247 230.76ZM223.047 232V224.76C223.047 224.307 223.033 223.847 223.007 223.38C222.993 222.9 222.953 222.433 222.887 221.98H224.047L224.227 224.08L224.027 224.28C224.28 223.44 224.74 222.807 225.407 222.38C226.073 221.953 226.84 221.74 227.707 221.74C230.12 221.74 231.327 223.033 231.327 225.62V232H230.107V225.7C230.107 224.7 229.907 223.967 229.507 223.5C229.107 223.033 228.467 222.8 227.587 222.8C226.587 222.8 225.78 223.107 225.167 223.72C224.567 224.333 224.267 225.16 224.267 226.2V232H223.047ZM233.09 222.96V221.98H239.25V222.96H233.09ZM239.19 230.86V231.96C238.99 232.013 238.783 232.053 238.57 232.08C238.37 232.107 238.143 232.12 237.89 232.12C237.05 232.12 236.37 231.88 235.85 231.4C235.33 230.92 235.07 230.173 235.07 229.16V219.32L236.29 218.86V228.92C236.29 229.48 236.363 229.913 236.51 230.22C236.67 230.527 236.883 230.74 237.15 230.86C237.43 230.98 237.743 231.04 238.09 231.04C238.303 231.04 238.49 231.027 238.65 231C238.81 230.973 238.99 230.927 239.19 230.86ZM244.926 222.96V221.98H251.086V222.96H244.926ZM251.026 230.86V231.96C250.826 232.013 250.619 232.053 250.406 232.08C250.206 232.107 249.979 232.12 249.726 232.12C248.886 232.12 248.206 231.88 247.686 231.4C247.166 230.92 246.906 230.173 246.906 229.16V219.32L248.126 218.86V228.92C248.126 229.48 248.199 229.913 248.346 230.22C248.506 230.527 248.719 230.74 248.986 230.86C249.266 230.98 249.579 231.04 249.926 231.04C250.139 231.04 250.326 231.027 250.486 231C250.646 230.973 250.826 230.927 251.026 230.86ZM257.124 232.14C256.204 232.14 255.397 231.927 254.704 231.5C254.024 231.073 253.491 230.473 253.104 229.7C252.717 228.913 252.524 227.987 252.524 226.92C252.524 225.88 252.717 224.973 253.104 224.2C253.491 223.413 254.024 222.807 254.704 222.38C255.397 221.953 256.204 221.74 257.124 221.74C258.057 221.74 258.864 221.953 259.544 222.38C260.237 222.807 260.771 223.413 261.144 224.2C261.531 224.973 261.724 225.88 261.724 226.92C261.724 227.987 261.531 228.913 261.144 229.7C260.771 230.473 260.237 231.073 259.544 231.5C258.864 231.927 258.057 232.14 257.124 232.14ZM257.124 231.06C258.191 231.06 259.011 230.707 259.584 230C260.171 229.293 260.464 228.273 260.464 226.94C260.464 225.633 260.171 224.62 259.584 223.9C258.997 223.18 258.184 222.82 257.144 222.82C256.091 222.82 255.264 223.18 254.664 223.9C254.077 224.62 253.784 225.633 253.784 226.94C253.784 228.273 254.071 229.293 254.644 230C255.231 230.707 256.057 231.06 257.124 231.06ZM268.354 232.14C267.434 232.14 266.628 231.927 265.934 231.5C265.254 231.073 264.721 230.473 264.334 229.7C263.948 228.913 263.754 227.987 263.754 226.92C263.754 225.88 263.948 224.973 264.334 224.2C264.721 223.413 265.254 222.807 265.934 222.38C266.628 221.953 267.434 221.74 268.354 221.74C269.288 221.74 270.094 221.953 270.774 222.38C271.468 222.807 272.001 223.413 272.374 224.2C272.761 224.973 272.954 225.88 272.954 226.92C272.954 227.987 272.761 228.913 272.374 229.7C272.001 230.473 271.468 231.073 270.774 231.5C270.094 231.927 269.288 232.14 268.354 232.14ZM268.354 231.06C269.421 231.06 270.241 230.707 270.814 230C271.401 229.293 271.694 228.273 271.694 226.94C271.694 225.633 271.401 224.62 270.814 223.9C270.228 223.18 269.414 222.82 268.374 222.82C267.321 222.82 266.494 223.18 265.894 223.9C265.308 224.62 265.014 225.633 265.014 226.94C265.014 228.273 265.301 229.293 265.874 230C266.461 230.707 267.288 231.06 268.354 231.06ZM275.625 232V217.28H276.845V232H275.625ZM283.773 222.96V221.98H289.533V222.96H283.773ZM289.773 218.46C289.4 218.353 289.047 218.3 288.713 218.3C288.38 218.3 288.08 218.36 287.813 218.48C287.56 218.587 287.353 218.793 287.193 219.1C287.047 219.407 286.973 219.84 286.973 220.4V232H285.753V220.18C285.753 219.153 286 218.4 286.493 217.92C287 217.44 287.673 217.2 288.513 217.2C288.727 217.2 288.933 217.213 289.133 217.24C289.347 217.267 289.56 217.307 289.773 217.36V218.46ZM295.62 232.14C294.7 232.14 293.893 231.927 293.2 231.5C292.52 231.073 291.987 230.473 291.6 229.7C291.213 228.913 291.02 227.987 291.02 226.92C291.02 225.88 291.213 224.973 291.6 224.2C291.987 223.413 292.52 222.807 293.2 222.38C293.893 221.953 294.7 221.74 295.62 221.74C296.553 221.74 297.36 221.953 298.04 222.38C298.733 222.807 299.267 223.413 299.64 224.2C300.027 224.973 300.22 225.88 300.22 226.92C300.22 227.987 300.027 228.913 299.64 229.7C299.267 230.473 298.733 231.073 298.04 231.5C297.36 231.927 296.553 232.14 295.62 232.14ZM295.62 231.06C296.687 231.06 297.507 230.707 298.08 230C298.667 229.293 298.96 228.273 298.96 226.94C298.96 225.633 298.667 224.62 298.08 223.9C297.493 223.18 296.68 222.82 295.64 222.82C294.587 222.82 293.76 223.18 293.16 223.9C292.573 224.62 292.28 225.633 292.28 226.94C292.28 228.273 292.567 229.293 293.14 230C293.727 230.707 294.553 231.06 295.62 231.06ZM302.89 232V224.76C302.89 224.307 302.877 223.847 302.85 223.38C302.837 222.9 302.797 222.433 302.73 221.98H303.89L304.09 224.38L303.89 224.34C304.09 223.487 304.497 222.84 305.11 222.4C305.737 221.96 306.437 221.74 307.21 221.74C307.384 221.74 307.537 221.747 307.67 221.76C307.817 221.773 307.957 221.793 308.09 221.82L308.05 222.94C307.797 222.873 307.484 222.84 307.11 222.84C306.377 222.84 305.79 223.007 305.35 223.34C304.91 223.673 304.59 224.093 304.39 224.6C304.204 225.093 304.11 225.6 304.11 226.12V232H302.89ZM48.994 259V251.76C48.994 251.307 48.9807 250.847 48.954 250.38C48.9407 249.9 48.9007 249.433 48.834 248.98H49.994L50.194 251.38L49.994 251.34C50.194 250.487 50.6007 249.84 51.214 249.4C51.8407 248.96 52.5407 248.74 53.314 248.74C53.4873 248.74 53.6407 248.747 53.774 248.76C53.9207 248.773 54.0607 248.793 54.194 248.82L54.154 249.94C53.9007 249.873 53.5873 249.84 53.214 249.84C52.4807 249.84 51.894 250.007 51.454 250.34C51.014 250.673 50.694 251.093 50.494 251.6C50.3073 252.093 50.214 252.6 50.214 253.12V259H48.994ZM63.8113 257.76C63.3847 258.187 62.8313 258.527 62.1513 258.78C61.4713 259.02 60.7713 259.14 60.0513 259.14C59.038 259.14 58.1647 258.933 57.4313 258.52C56.698 258.107 56.1313 257.513 55.7313 256.74C55.3313 255.967 55.1313 255.04 55.1313 253.96C55.1313 252.92 55.3247 252.007 55.7113 251.22C56.1113 250.433 56.6647 249.827 57.3713 249.4C58.078 248.96 58.8913 248.74 59.8113 248.74C60.678 248.74 61.4247 248.933 62.0513 249.32C62.678 249.693 63.158 250.24 63.4913 250.96C63.8247 251.68 63.9913 252.553 63.9913 253.58V253.84H56.2113L56.1913 252.92H63.3313L62.8713 253.7C62.9113 252.42 62.6647 251.44 62.1313 250.76C61.6113 250.08 60.838 249.74 59.8113 249.74C58.758 249.74 57.9247 250.113 57.3113 250.86C56.7113 251.593 56.4113 252.607 56.4113 253.9C56.4113 255.26 56.718 256.293 57.3313 257C57.958 257.707 58.858 258.06 60.0313 258.06C60.6447 258.06 61.218 257.96 61.7513 257.76C62.298 257.56 62.8313 257.247 63.3513 256.82L63.8113 257.76ZM70.4312 259.14C69.5378 259.14 68.7512 258.927 68.0712 258.5C67.4045 258.073 66.8845 257.48 66.5112 256.72C66.1512 255.947 65.9712 255.033 65.9712 253.98C65.9712 252.927 66.1578 252.007 66.5312 251.22C66.9045 250.433 67.4245 249.827 68.0912 249.4C68.7712 248.96 69.5512 248.74 70.4312 248.74C71.3778 248.74 72.1712 248.973 72.8112 249.44C73.4645 249.907 73.9045 250.58 74.1312 251.46L73.8912 251.62V248.98H75.1112V259H73.8912V256.26L74.1312 256.4C73.9045 257.28 73.4645 257.96 72.8112 258.44C72.1712 258.907 71.3778 259.14 70.4312 259.14ZM70.5912 258.06C71.6578 258.06 72.4712 257.7 73.0312 256.98C73.6045 256.26 73.8912 255.247 73.8912 253.94C73.8912 252.607 73.6045 251.587 73.0312 250.88C72.4578 250.173 71.6445 249.82 70.5912 249.82C69.5378 249.82 68.7112 250.187 68.1112 250.92C67.5245 251.64 67.2312 252.66 67.2312 253.98C67.2312 255.287 67.5245 256.293 68.1112 257C68.7112 257.707 69.5378 258.06 70.5912 258.06ZM78.4276 259V244.28H79.6476V259H78.4276ZM96.116 257.76C95.6893 258.187 95.136 258.527 94.456 258.78C93.776 259.02 93.076 259.14 92.356 259.14C91.3427 259.14 90.4693 258.933 89.736 258.52C89.0027 258.107 88.436 257.513 88.036 256.74C87.636 255.967 87.436 255.04 87.436 253.96C87.436 252.92 87.6293 252.007 88.016 251.22C88.416 250.433 88.9693 249.827 89.676 249.4C90.3827 248.96 91.196 248.74 92.116 248.74C92.9827 248.74 93.7293 248.933 94.356 249.32C94.9827 249.693 95.4627 250.24 95.796 250.96C96.1293 251.68 96.296 252.553 96.296 253.58V253.84H88.516L88.496 252.92H95.636L95.176 253.7C95.216 252.42 94.9693 251.44 94.436 250.76C93.916 250.08 93.1427 249.74 92.116 249.74C91.0627 249.74 90.2293 250.113 89.616 250.86C89.016 251.593 88.716 252.607 88.716 253.9C88.716 255.26 89.0227 256.293 89.636 257C90.2627 257.707 91.1627 258.06 92.336 258.06C92.9493 258.06 93.5227 257.96 94.056 257.76C94.6027 257.56 95.136 257.247 95.656 256.82L96.116 257.76ZM102.176 259.14C100.549 259.14 99.2625 258.693 98.3159 257.8L98.7759 256.86C99.3092 257.287 99.8425 257.6 100.376 257.8C100.909 257.987 101.529 258.08 102.236 258.08C103.076 258.08 103.709 257.94 104.136 257.66C104.563 257.367 104.776 256.947 104.776 256.4C104.776 255.96 104.629 255.607 104.336 255.34C104.056 255.073 103.589 254.86 102.936 254.7L101.236 254.3C100.436 254.127 99.8025 253.8 99.3359 253.32C98.8825 252.84 98.6559 252.28 98.6559 251.64C98.6559 251.053 98.8092 250.547 99.1159 250.12C99.4225 249.68 99.8492 249.34 100.396 249.1C100.956 248.86 101.609 248.74 102.356 248.74C103.049 248.74 103.703 248.853 104.316 249.08C104.929 249.307 105.436 249.633 105.836 250.06L105.376 251C104.909 250.6 104.429 250.3 103.936 250.1C103.456 249.9 102.929 249.8 102.356 249.8C101.583 249.8 100.983 249.953 100.556 250.26C100.129 250.567 99.9159 250.987 99.9159 251.52C99.9159 251.987 100.049 252.36 100.316 252.64C100.583 252.907 101.009 253.113 101.596 253.26L103.296 253.68C104.216 253.88 104.896 254.207 105.336 254.66C105.776 255.1 105.996 255.66 105.996 256.34C105.996 257.18 105.649 257.86 104.956 258.38C104.276 258.887 103.349 259.14 102.176 259.14ZM107.201 249.96V248.98H113.361V249.96H107.201ZM113.301 257.86V258.96C113.101 259.013 112.894 259.053 112.681 259.08C112.481 259.107 112.254 259.12 112.001 259.12C111.161 259.12 110.481 258.88 109.961 258.4C109.441 257.92 109.181 257.173 109.181 256.16V246.32L110.401 245.86V255.92C110.401 256.48 110.474 256.913 110.621 257.22C110.781 257.527 110.994 257.74 111.261 257.86C111.541 257.98 111.854 258.04 112.201 258.04C112.414 258.04 112.601 258.027 112.761 258C112.921 257.973 113.101 257.927 113.301 257.86ZM119.259 259.14C118.366 259.14 117.579 258.927 116.899 258.5C116.233 258.073 115.713 257.48 115.339 256.72C114.979 255.947 114.799 255.033 114.799 253.98C114.799 252.927 114.986 252.007 115.359 251.22C115.733 250.433 116.253 249.827 116.919 249.4C117.599 248.96 118.379 248.74 119.259 248.74C120.206 248.74 120.999 248.973 121.639 249.44C122.293 249.907 122.733 250.58 122.959 251.46L122.719 251.62V248.98H123.939V259H122.719V256.26L122.959 256.4C122.733 257.28 122.293 257.96 121.639 258.44C120.999 258.907 120.206 259.14 119.259 259.14ZM119.419 258.06C120.486 258.06 121.299 257.7 121.859 256.98C122.433 256.26 122.719 255.247 122.719 253.94C122.719 252.607 122.433 251.587 121.859 250.88C121.286 250.173 120.473 249.82 119.419 249.82C118.366 249.82 117.539 250.187 116.939 250.92C116.353 251.64 116.059 252.66 116.059 253.98C116.059 255.287 116.353 256.293 116.939 257C117.539 257.707 118.366 258.06 119.419 258.06ZM125.756 249.96V248.98H131.916V249.96H125.756ZM131.856 257.86V258.96C131.656 259.013 131.449 259.053 131.236 259.08C131.036 259.107 130.809 259.12 130.556 259.12C129.716 259.12 129.036 258.88 128.516 258.4C127.996 257.92 127.736 257.173 127.736 256.16V246.32L128.956 245.86V255.92C128.956 256.48 129.029 256.913 129.176 257.22C129.336 257.527 129.549 257.74 129.816 257.86C130.096 257.98 130.409 258.04 130.756 258.04C130.969 258.04 131.156 258.027 131.316 258C131.476 257.973 131.656 257.927 131.856 257.86ZM142.034 257.76C141.607 258.187 141.054 258.527 140.374 258.78C139.694 259.02 138.994 259.14 138.274 259.14C137.261 259.14 136.387 258.933 135.654 258.52C134.921 258.107 134.354 257.513 133.954 256.74C133.554 255.967 133.354 255.04 133.354 253.96C133.354 252.92 133.547 252.007 133.934 251.22C134.334 250.433 134.887 249.827 135.594 249.4C136.301 248.96 137.114 248.74 138.034 248.74C138.901 248.74 139.647 248.933 140.274 249.32C140.901 249.693 141.381 250.24 141.714 250.96C142.047 251.68 142.214 252.553 142.214 253.58V253.84H134.434L134.414 252.92H141.554L141.094 253.7C141.134 252.42 140.887 251.44 140.354 250.76C139.834 250.08 139.061 249.74 138.034 249.74C136.981 249.74 136.147 250.113 135.534 250.86C134.934 251.593 134.634 252.607 134.634 253.9C134.634 255.26 134.941 256.293 135.554 257C136.181 257.707 137.081 258.06 138.254 258.06C138.867 258.06 139.441 257.96 139.974 257.76C140.521 257.56 141.054 257.247 141.574 256.82L142.034 257.76ZM153.751 259.14C152.858 259.14 152.071 258.927 151.391 258.5C150.725 258.073 150.205 257.48 149.831 256.72C149.471 255.947 149.291 255.033 149.291 253.98C149.291 252.927 149.478 252.007 149.851 251.22C150.225 250.433 150.745 249.827 151.411 249.4C152.091 248.96 152.871 248.74 153.751 248.74C154.698 248.74 155.491 248.973 156.131 249.44C156.785 249.907 157.225 250.58 157.451 251.46L157.211 251.62V248.98H158.431V259H157.211V256.26L157.451 256.4C157.225 257.28 156.785 257.96 156.131 258.44C155.491 258.907 154.698 259.14 153.751 259.14ZM153.911 258.06C154.978 258.06 155.791 257.7 156.351 256.98C156.925 256.26 157.211 255.247 157.211 253.94C157.211 252.607 156.925 251.587 156.351 250.88C155.778 250.173 154.965 249.82 153.911 249.82C152.858 249.82 152.031 250.187 151.431 250.92C150.845 251.64 150.551 252.66 150.551 253.98C150.551 255.287 150.845 256.293 151.431 257C152.031 257.707 152.858 258.06 153.911 258.06ZM166.068 263.46C164.575 263.46 163.275 263.1 162.168 262.38L162.408 261.32C163.035 261.693 163.621 261.96 164.168 262.12C164.715 262.293 165.355 262.38 166.088 262.38C167.088 262.38 167.841 262.107 168.348 261.56C168.868 261.013 169.128 260.213 169.128 259.16V256.32L169.348 255.94C169.188 256.527 168.935 257.027 168.588 257.44C168.255 257.84 167.835 258.153 167.328 258.38C166.835 258.593 166.261 258.7 165.608 258.7C164.715 258.7 163.928 258.493 163.248 258.08C162.581 257.653 162.055 257.067 161.668 256.32C161.295 255.573 161.108 254.707 161.108 253.72C161.108 252.72 161.295 251.847 161.668 251.1C162.055 250.353 162.581 249.773 163.248 249.36C163.928 248.947 164.715 248.74 165.608 248.74C166.581 248.74 167.388 248.98 168.028 249.46C168.681 249.927 169.121 250.593 169.348 251.46L169.108 251.14V248.98H170.328V259.04C170.328 260.507 169.968 261.607 169.248 262.34C168.528 263.087 167.468 263.46 166.068 263.46ZM165.768 257.6C166.808 257.6 167.621 257.253 168.208 256.56C168.808 255.867 169.108 254.92 169.108 253.72C169.108 252.507 168.808 251.553 168.208 250.86C167.621 250.167 166.808 249.82 165.768 249.82C164.715 249.82 163.881 250.167 163.268 250.86C162.668 251.54 162.368 252.493 162.368 253.72C162.368 254.947 162.668 255.9 163.268 256.58C163.881 257.26 164.715 257.6 165.768 257.6ZM181.682 257.76C181.256 258.187 180.702 258.527 180.022 258.78C179.342 259.02 178.642 259.14 177.922 259.14C176.909 259.14 176.036 258.933 175.302 258.52C174.569 258.107 174.002 257.513 173.602 256.74C173.202 255.967 173.002 255.04 173.002 253.96C173.002 252.92 173.196 252.007 173.582 251.22C173.982 250.433 174.536 249.827 175.242 249.4C175.949 248.96 176.762 248.74 177.682 248.74C178.549 248.74 179.296 248.933 179.922 249.32C180.549 249.693 181.029 250.24 181.362 250.96C181.696 251.68 181.862 252.553 181.862 253.58V253.84H174.082L174.062 252.92H181.202L180.742 253.7C180.782 252.42 180.536 251.44 180.002 250.76C179.482 250.08 178.709 249.74 177.682 249.74C176.629 249.74 175.796 250.113 175.182 250.86C174.582 251.593 174.282 252.607 174.282 253.9C174.282 255.26 174.589 256.293 175.202 257C175.829 257.707 176.729 258.06 177.902 258.06C178.516 258.06 179.089 257.96 179.622 257.76C180.169 257.56 180.702 257.247 181.222 256.82L181.682 257.76ZM184.482 259V251.76C184.482 251.307 184.469 250.847 184.442 250.38C184.429 249.9 184.389 249.433 184.322 248.98H185.482L185.662 251.08L185.462 251.28C185.716 250.44 186.176 249.807 186.842 249.38C187.509 248.953 188.276 248.74 189.142 248.74C191.556 248.74 192.762 250.033 192.762 252.62V259H191.542V252.7C191.542 251.7 191.342 250.967 190.942 250.5C190.542 250.033 189.902 249.8 189.022 249.8C188.022 249.8 187.216 250.107 186.602 250.72C186.002 251.333 185.702 252.16 185.702 253.2V259H184.482ZM194.525 249.96V248.98H200.685V249.96H194.525ZM200.625 257.86V258.96C200.425 259.013 200.219 259.053 200.005 259.08C199.805 259.107 199.579 259.12 199.325 259.12C198.485 259.12 197.805 258.88 197.285 258.4C196.765 257.92 196.505 257.173 196.505 256.16V246.32L197.725 245.86V255.92C197.725 256.48 197.799 256.913 197.945 257.22C198.105 257.527 198.319 257.74 198.585 257.86C198.865 257.98 199.179 258.04 199.525 258.04C199.739 258.04 199.925 258.027 200.085 258C200.245 257.973 200.425 257.927 200.625 257.86ZM206.024 259.14C204.397 259.14 203.11 258.693 202.164 257.8L202.624 256.86C203.157 257.287 203.69 257.6 204.224 257.8C204.757 257.987 205.377 258.08 206.084 258.08C206.924 258.08 207.557 257.94 207.984 257.66C208.41 257.367 208.624 256.947 208.624 256.4C208.624 255.96 208.477 255.607 208.184 255.34C207.904 255.073 207.437 254.86 206.784 254.7L205.084 254.3C204.284 254.127 203.65 253.8 203.184 253.32C202.73 252.84 202.504 252.28 202.504 251.64C202.504 251.053 202.657 250.547 202.964 250.12C203.27 249.68 203.697 249.34 204.244 249.1C204.804 248.86 205.457 248.74 206.204 248.74C206.897 248.74 207.55 248.853 208.164 249.08C208.777 249.307 209.284 249.633 209.684 250.06L209.224 251C208.757 250.6 208.277 250.3 207.784 250.1C207.304 249.9 206.777 249.8 206.204 249.8C205.43 249.8 204.83 249.953 204.404 250.26C203.977 250.567 203.764 250.987 203.764 251.52C203.764 251.987 203.897 252.36 204.164 252.64C204.43 252.907 204.857 253.113 205.444 253.26L207.144 253.68C208.064 253.88 208.744 254.207 209.184 254.66C209.624 255.1 209.844 255.66 209.844 256.34C209.844 257.18 209.497 257.86 208.804 258.38C208.124 258.887 207.197 259.14 206.024 259.14ZM217.744 259V248.98H218.964V259H217.744ZM217.564 244.84H219.184V246.4H217.564V244.84ZM222.295 259V251.76C222.295 251.307 222.281 250.847 222.255 250.38C222.241 249.9 222.201 249.433 222.135 248.98H223.295L223.475 251.08L223.275 251.28C223.528 250.44 223.988 249.807 224.655 249.38C225.321 248.953 226.088 248.74 226.955 248.74C229.368 248.74 230.575 250.033 230.575 252.62V259H229.355V252.7C229.355 251.7 229.155 250.967 228.755 250.5C228.355 250.033 227.715 249.8 226.835 249.8C225.835 249.8 225.028 250.107 224.415 250.72C223.815 251.333 223.515 252.16 223.515 253.2V259H222.295ZM237.435 249.96V248.98H243.595V249.96H237.435ZM243.535 257.86V258.96C243.335 259.013 243.129 259.053 242.915 259.08C242.715 259.107 242.489 259.12 242.235 259.12C241.395 259.12 240.715 258.88 240.195 258.4C239.675 257.92 239.415 257.173 239.415 256.16V246.32L240.635 245.86V255.92C240.635 256.48 240.709 256.913 240.855 257.22C241.015 257.527 241.229 257.74 241.495 257.86C241.775 257.98 242.089 258.04 242.435 258.04C242.649 258.04 242.835 258.027 242.995 258C243.155 257.973 243.335 257.927 243.535 257.86ZM245.674 259V244.28H246.894V251L246.654 251.28C246.907 250.44 247.367 249.807 248.034 249.38C248.7 248.953 249.467 248.74 250.334 248.74C252.747 248.74 253.954 250.033 253.954 252.62V259H252.734V252.7C252.734 251.7 252.534 250.967 252.134 250.5C251.734 250.033 251.094 249.8 250.214 249.8C249.214 249.8 248.407 250.107 247.794 250.72C247.194 251.333 246.894 252.16 246.894 253.2V259H245.674ZM265.257 257.76C264.83 258.187 264.277 258.527 263.597 258.78C262.917 259.02 262.217 259.14 261.497 259.14C260.483 259.14 259.61 258.933 258.877 258.52C258.143 258.107 257.577 257.513 257.177 256.74C256.777 255.967 256.577 255.04 256.577 253.96C256.577 252.92 256.77 252.007 257.157 251.22C257.557 250.433 258.11 249.827 258.817 249.4C259.523 248.96 260.337 248.74 261.257 248.74C262.123 248.74 262.87 248.933 263.497 249.32C264.123 249.693 264.603 250.24 264.937 250.96C265.27 251.68 265.437 252.553 265.437 253.58V253.84H257.657L257.637 252.92H264.777L264.317 253.7C264.357 252.42 264.11 251.44 263.577 250.76C263.057 250.08 262.283 249.74 261.257 249.74C260.203 249.74 259.37 250.113 258.757 250.86C258.157 251.593 257.857 252.607 257.857 253.9C257.857 255.26 258.163 256.293 258.777 257C259.403 257.707 260.303 258.06 261.477 258.06C262.09 258.06 262.663 257.96 263.197 257.76C263.743 257.56 264.277 257.247 264.797 256.82L265.257 257.76ZM275.794 259L272.194 248.98H273.494L276.694 258.3H276.174L279.554 248.98H280.774L284.054 258.3H283.534L286.834 248.98H288.074L284.434 259H283.174L279.754 249.52H280.494L277.074 259H275.794ZM294.282 259.14C293.362 259.14 292.555 258.927 291.862 258.5C291.182 258.073 290.649 257.473 290.262 256.7C289.875 255.913 289.682 254.987 289.682 253.92C289.682 252.88 289.875 251.973 290.262 251.2C290.649 250.413 291.182 249.807 291.862 249.38C292.555 248.953 293.362 248.74 294.282 248.74C295.215 248.74 296.022 248.953 296.702 249.38C297.395 249.807 297.929 250.413 298.302 251.2C298.689 251.973 298.882 252.88 298.882 253.92C298.882 254.987 298.689 255.913 298.302 256.7C297.929 257.473 297.395 258.073 296.702 258.5C296.022 258.927 295.215 259.14 294.282 259.14ZM294.282 258.06C295.349 258.06 296.169 257.707 296.742 257C297.329 256.293 297.622 255.273 297.622 253.94C297.622 252.633 297.329 251.62 296.742 250.9C296.155 250.18 295.342 249.82 294.302 249.82C293.249 249.82 292.422 250.18 291.822 250.9C291.235 251.62 290.942 252.633 290.942 253.94C290.942 255.273 291.229 256.293 291.802 257C292.389 257.707 293.215 258.06 294.282 258.06ZM301.553 259V251.76C301.553 251.307 301.539 250.847 301.513 250.38C301.499 249.9 301.459 249.433 301.393 248.98H302.553L302.753 251.38L302.553 251.34C302.753 250.487 303.159 249.84 303.773 249.4C304.399 248.96 305.099 248.74 305.873 248.74C306.046 248.74 306.199 248.747 306.333 248.76C306.479 248.773 306.619 248.793 306.753 248.82L306.713 249.94C306.459 249.873 306.146 249.84 305.773 249.84C305.039 249.84 304.453 250.007 304.013 250.34C303.573 250.673 303.253 251.093 303.053 251.6C302.866 252.093 302.773 252.6 302.773 253.12V259H301.553ZM308.525 259V244.28H309.745V259H308.525ZM321.576 259H320.356V256.24L320.596 256.4C320.369 257.28 319.929 257.96 319.276 258.44C318.636 258.907 317.843 259.14 316.896 259.14C316.016 259.14 315.236 258.927 314.556 258.5C313.889 258.06 313.369 257.447 312.996 256.66C312.623 255.873 312.436 254.953 312.436 253.9C312.436 252.847 312.616 251.933 312.976 251.16C313.349 250.387 313.869 249.793 314.536 249.38C315.216 248.953 316.003 248.74 316.896 248.74C317.843 248.74 318.636 248.98 319.276 249.46C319.929 249.927 320.369 250.593 320.596 251.46L320.356 251.62V244.28H321.576V259ZM317.056 258.06C318.109 258.06 318.923 257.7 319.496 256.98C320.069 256.26 320.356 255.247 320.356 253.94C320.356 252.62 320.069 251.607 319.496 250.9C318.936 250.18 318.123 249.82 317.056 249.82C316.003 249.82 315.176 250.173 314.576 250.88C313.989 251.587 313.696 252.593 313.696 253.9C313.696 255.207 313.989 256.227 314.576 256.96C315.176 257.693 316.003 258.06 317.056 258.06ZM324.612 257.26H326.312V259H324.612V257.26Z" fill="white"/>
<defs>
<linearGradient id="paint0_linear" x1="42.7083" y1="45.7224" x2="353.554" y2="89.2611" gradientUnits="userSpaceOnUse">
<stop stop-color="#431AD8"/>
<stop offset="1" stop-color="#3216B7"/>
</linearGradient>
<linearGradient id="paint1_linear" x1="255.682" y1="104.285" x2="324.359" y2="372.792" gradientUnits="userSpaceOnUse">
<stop stop-color="#431AD8" stop-opacity="0"/>
<stop offset="1" stop-color="#49CEAB"/>
</linearGradient>
<linearGradient id="paint2_linear" x1="226.096" y1="377.33" x2="247.029" y2="398.223" gradientUnits="userSpaceOnUse">
<stop stop-color="#0D3051"/>
<stop offset="0.1065" stop-color="#264A6B"/>
<stop offset="0.3115" stop-color="#507698"/>
<stop offset="0.509" stop-color="#7198BB"/>
<stop offset="0.6946" stop-color="#89B1D4"/>
<stop offset="0.8632" stop-color="#97C0E3"/>
<stop offset="1" stop-color="#9CC5E8"/>
</linearGradient>
<linearGradient id="paint3_linear" x1="220.784" y1="470.732" x2="198.694" y2="444.457" gradientUnits="userSpaceOnUse">
<stop stop-color="#0D3051"/>
<stop offset="0.1065" stop-color="#264A6B"/>
<stop offset="0.3115" stop-color="#507698"/>
<stop offset="0.509" stop-color="#7198BB"/>
<stop offset="0.6946" stop-color="#89B1D4"/>
<stop offset="0.8632" stop-color="#97C0E3"/>
<stop offset="1" stop-color="#9CC5E8"/>
</linearGradient>
<linearGradient id="paint4_linear" x1="332.977" y1="465.071" x2="351.267" y2="433.454" gradientUnits="userSpaceOnUse">
<stop stop-color="#0D3051"/>
<stop offset="0.1065" stop-color="#264A6B"/>
<stop offset="0.3115" stop-color="#507698"/>
<stop offset="0.509" stop-color="#7198BB"/>
<stop offset="0.6946" stop-color="#89B1D4"/>
<stop offset="0.8632" stop-color="#97C0E3"/>
<stop offset="1" stop-color="#9CC5E8"/>
</linearGradient>
<clipPath id="clip0">
<rect width="375" height="460" fill="white" transform="translate(0 21)"/>
</clipPath>
</defs>
</svg>
