<svg width="300" height="73" viewBox="0 0 300 73">
    <path fill="palouseGreen" fill-rule="evenodd" d="M279.7 14.458c3.165 0 6.006.57 8.524 1.712 2.52 1.142 4.644 2.723 6.372 4.741 1.728 2.02 3.06 4.42 3.998 7.2.937 2.78 1.406 6.27 1.406 9.55 0 3.336-.513 6.87-1.537 9.68-1.027 2.81-2.461 5.224-4.307 7.243a19.779 19.779 0 01-6.59 4.742c-2.549 1.141-5.346 1.712-8.393 1.712-2.812 0-5.242-.424-7.293-1.273-2.05-.85-3.573-1.888-4.57-3.117V73h-13.356V15.512h12.918v4.478c.937-1.405 2.518-2.678 4.744-3.82 2.227-1.142 4.922-1.712 8.085-1.712zM214.18 0v37.375c0 3.805.967 6.644 2.9 8.517 1.933 1.873 4.57 2.81 7.909 2.81 3.338 0 5.974-.937 7.908-2.81 1.934-1.873 2.9-4.712 2.9-8.517V0h13.884v38.516c0 3.923-.645 7.362-1.933 10.318-1.289 2.956-3.047 5.443-5.273 7.463-2.226 2.02-4.847 3.541-7.865 4.565-3.017 1.025-6.223 1.538-9.621 1.538-3.457 0-6.679-.513-9.666-1.538-2.989-1.024-5.595-2.546-7.821-4.565-2.227-2.02-3.984-4.507-5.273-7.463-1.289-2.956-1.934-6.395-1.934-10.318V0h13.885zM113.278.016c1.172 0 2.373.073 3.603.22 1.147.136 2.644.336 3.362.6l.142.058-.693 10.975c-.351-.117-.849-.219-1.493-.307-.644-.088-1.465-.132-2.461-.132-.586 0-1.215.073-1.888.22a4.8 4.8 0 00-1.846.834c-.557.41-1.025.966-1.406 1.669-.343.632-.532 1.43-.566 2.394l-.006.328v3.774h9.49l-2.496 11.24h-6.994v29.567H96.67V31.889H81.29v29.567H67.935V31.889H61.92c-.086 4.398-.91 8.394-2.471 11.99-1.653 3.807-3.893 7.067-6.722 9.782-2.83 2.715-6.106 4.8-9.832 6.255-3.725 1.456-7.688 2.183-11.889 2.183-4.202 0-8.179-.727-11.932-2.183-3.754-1.455-7.045-3.54-9.873-6.255-2.83-2.715-5.07-5.975-6.723-9.781C.826 40.074 0 35.82 0 31.119c0-4.702.826-8.97 2.48-12.805 1.651-3.834 3.893-7.109 6.722-9.823 2.828-2.715 6.12-4.8 9.873-6.256C22.828.78 26.805.053 31.007.053c4.201 0 8.164.727 11.89 2.182 3.725 1.456 7.001 3.541 9.83 6.256 2.83 2.714 5.07 5.989 6.723 9.823.328.761.623 1.54.886 2.335h7.599v-3.774c0-2.518.366-4.8 1.098-6.85.732-2.048 1.816-3.82 3.252-5.31 1.435-1.494 3.193-2.65 5.272-3.47 2.08-.819 4.438-1.23 7.074-1.23 1.113 0 2.285.089 3.515.264 1.148.164 2.645.379 3.363.645l.141.057-.693 10.888c-.35-.117-.849-.219-1.493-.307-.645-.088-1.465-.132-2.46-.132-.586 0-1.216.073-1.89.22a4.805 4.805 0 00-1.845.834c-.557.41-1.025.966-1.406 1.669-.343.632-.532 1.43-.566 2.394l-.006.328v3.774H96.67v-3.774c0-2.518.366-4.8 1.099-6.85.731-2.048 1.815-3.82 3.25-5.31 1.436-1.494 3.179-2.65 5.229-3.47 2.05-.819 4.393-1.23 7.03-1.23zm28.99 15.351c6.795 0 12.14 1.96 16.036 5.883 3.896 3.922 5.844 9.424 5.844 16.507 0 .937-.029 1.83-.088 2.677-.058.85-.117 1.333-.176 1.45H133.48c.058 1.23.366 2.356.922 3.38a9.178 9.178 0 002.198 2.678 9.892 9.892 0 003.119 1.757c1.171.41 2.402.614 3.69.614 2.46 0 4.38-.527 5.757-1.58 1.376-1.054 2.386-2.43 3.03-4.128l11.162 3.162a19.287 19.287 0 01-2.461 5.356 17.324 17.324 0 01-4.218 4.434c-1.7 1.258-3.677 2.253-5.932 2.985-2.256.731-4.76 1.098-7.513 1.098-2.988 0-5.859-.527-8.611-1.581a21.922 21.922 0 01-7.295-4.566c-2.108-1.99-3.778-4.419-5.008-7.288-1.23-2.868-1.845-6.146-1.845-9.833 0-3.512.6-6.688 1.8-9.527 1.202-2.839 2.813-5.253 4.834-7.244a21.516 21.516 0 016.986-4.61 21.31 21.31 0 018.172-1.624zm50.536.285c1.018 0 2.52.25 3.516.543l-.225 12.305c-.762-.176-2.522-.33-3.993-.214-1.472.115-2.637.43-3.866.84a8.222 8.222 0 00-3.251 2.019c-.938.937-1.685 2.166-2.241 3.688-.557 1.521-.835 3.365-.835 5.531v20.898h-13.357V15.779h12.918v5.208c.966-2.383 3.819-3.861 4.872-4.33 1.055-.467 2.147-.695 3.181-.83 1.056-.14 2.305-.175 3.281-.175zm84.74 11.065c-1.289 0-2.534.22-3.734.659a8.597 8.597 0 00-3.164 2.02c-.908.907-1.626 2.033-2.153 3.38-.528 1.346-.792 3.157-.792 4.972 0 1.815.264 3.395.792 4.74.527 1.347 1.245 2.474 2.153 3.382a9.091 9.091 0 003.164 2.062c1.2.47 2.445.704 3.734.704 1.288 0 2.533-.22 3.735-.659a9.029 9.029 0 003.207-2.02c.937-.906 1.67-2.048 2.196-3.424.528-1.375.791-2.97.791-4.785s-.263-3.626-.79-4.972c-.527-1.347-1.26-2.473-2.197-3.38a9.029 9.029 0 00-3.207-2.02 10.805 10.805 0 00-3.735-.659zM31.05 13.648c-1.997 0-3.98.35-5.95 1.051a16.28 16.28 0 00-5.341 3.155c-1.592 1.402-2.874 3.208-3.845 5.419-.972 2.21-1.457 4.799-1.457 7.764 0 3.02.485 5.608 1.457 7.765.971 2.155 2.253 3.949 3.845 5.377a15.394 15.394 0 005.342 3.155 18.28 18.28 0 005.95 1.01c1.996 0 3.978-.336 5.948-1.01a14.98 14.98 0 005.302-3.155c1.565-1.428 2.833-3.222 3.805-5.377.971-2.157 1.457-4.746 1.457-7.765 0-2.965-.486-5.554-1.457-7.764-.972-2.211-2.24-4.017-3.805-5.42A15.825 15.825 0 0037 14.7c-1.97-.7-3.952-1.051-5.949-1.051zM142.727 25.62c-1.407 0-2.637.234-3.69.703-1.056.468-1.95 1.053-2.682 1.756a7.296 7.296 0 00-1.669 2.37c-.38.878-.6 1.727-.659 2.547h17.486a9.301 9.301 0 00-.57-2.547 6.505 6.505 0 00-1.538-2.37c-.703-.703-1.597-1.288-2.68-1.756-1.084-.469-2.417-.703-3.998-.703z"/>
</svg>
