<svg width="287" height="139" viewBox="0 0 287 139" fill="none" xmlns="http://www.w3.org/2000/svg">
    <path fill-rule="evenodd" clip-rule="evenodd" d="M37.3596 29.0952H21.3879C24.0206 19.9972 35.1657 20.0847 37.3596 29.0952Z" fill="white"/>
    <path fill-rule="evenodd" clip-rule="evenodd" d="M208.309 29.6201C210.591 16.2356 229.108 14.5735 229.195 31.6321C233.232 26.4708 245.255 26.0334 245.255 36.2686H195.146C194.707 27.4331 201.728 24.1963 208.309 29.6201Z" fill="white"/>
    <path fill-rule="evenodd" clip-rule="evenodd" d="M190.144 36.2686H177.331C176.454 27.6955 188.74 28.3079 190.144 36.2686Z" fill="white"/>
    <path fill-rule="evenodd" clip-rule="evenodd" d="M90.1013 10.3744C86.7666 -3.70989 69.8296 -1.52289 69.2153 12.3865C65.1785 7.22513 56.0518 7.05017 54.3844 17.0229H103.353C103.791 8.18741 96.7708 4.95064 90.1013 10.3744Z" fill="white"/>
    <path d="M262.596 137.567C262.596 138.004 262.245 138.442 261.718 138.442C261.279 138.442 260.841 138.092 260.841 137.567V132.843H244.43V137.567C244.43 138.004 244.079 138.442 243.553 138.442C243.114 138.442 242.675 138.092 242.675 137.567V132.843H240.306V131.093H242.675V129.694H240.306V127.944H242.675V126.544H240.306V124.795H243.553H261.631H264.878V126.544H262.508V127.944H264.878V129.694H262.508V131.093H264.878V132.843H262.508V137.567H262.596ZM244.43 126.632V128.032H260.841V126.632H244.43ZM244.43 129.781V131.181H260.841V129.781H244.43Z" fill="#432D61"/>
    <path fill-rule="evenodd" clip-rule="evenodd" d="M61.2825 86.6535C71.3745 86.6535 79.4481 94.7892 79.4481 104.762C79.4481 114.822 71.2868 122.87 61.2825 122.87C51.1905 122.87 43.1169 114.735 43.1169 104.762C43.0292 94.7892 51.1905 86.6535 61.2825 86.6535Z" fill="#C2E9C3"/>
    <path fill-rule="evenodd" clip-rule="evenodd" d="M59.2641 88.5781C66.9867 88.5781 73.2174 94.7892 73.2174 102.487C73.2174 110.186 66.9867 116.397 59.2641 116.397C51.5415 116.397 45.3108 110.186 45.3108 102.487C45.3108 94.7892 51.6293 88.5781 59.2641 88.5781Z" fill="#F5FFF9"/>
    <path d="M64.5295 107.211C64.8805 106.861 65.407 106.861 65.7581 107.211C66.1091 107.561 66.1091 108.086 65.7581 108.436L62.1601 112.023V122.083C66.6356 121.908 70.5847 119.983 73.5684 117.009C76.7276 113.86 78.6583 109.573 78.6583 104.762C78.6583 99.9505 76.7276 95.664 73.5684 92.5147C70.4092 89.3654 66.1091 87.4408 61.2825 87.4408C56.4559 87.4408 52.1558 89.3654 48.9966 92.5147C45.8374 95.664 43.9067 99.9505 43.9067 104.762C43.9067 109.573 45.8374 113.86 48.9966 117.009C51.9803 119.983 55.9294 121.821 60.4049 122.083V117.709L53.8232 111.148C53.4722 110.798 53.4722 110.273 53.8232 109.923C54.1742 109.573 54.7008 109.573 55.0518 109.923L60.4049 115.26V104.762C60.4049 104.325 60.756 103.887 61.2825 103.887C61.7213 103.887 62.1601 104.237 62.1601 104.762V109.573L64.5295 107.211ZM62.0723 123.833V137.654C62.0723 138.092 61.7213 138.529 61.1947 138.529C60.756 138.529 60.3172 138.179 60.3172 137.654V123.833C55.4028 123.57 50.9272 121.558 47.6802 118.321C44.2577 114.91 42.0638 110.098 42.0638 104.849C42.0638 99.6006 44.17 94.8766 47.6802 91.3774C51.1027 87.9657 55.9294 85.7787 61.1947 85.7787C66.4601 85.7787 71.199 87.8782 74.7092 91.3774C78.1317 94.7892 80.3256 99.6006 80.3256 104.849C80.3256 110.098 78.2195 114.822 74.7092 118.321C71.4622 121.558 66.9867 123.57 62.0723 123.833Z" fill="#432D61"/>
    <path fill-rule="evenodd" clip-rule="evenodd" d="M222.403 66.7955V100.563H216.085V124.62H217.401V137.654H90.5932V124.62H91.9095V87.3534L84.4502 92.9521C84.0992 93.2145 83.6604 93.1271 83.4849 92.7771L81.8175 90.5026C81.5542 90.1527 81.642 89.7153 81.993 89.5404L128.679 54.4608L145.002 66.708H157.113V62.6839H158.253V54.8107H157.113V51.6614H158.253V48.4247H165.362V51.6614H166.503V54.8982H165.362V62.7714H166.503V66.7955H222.403Z" fill="white"/>
    <path d="M157.99 75.9809C157.99 76.4183 157.639 76.8557 157.113 76.8557C156.674 76.8557 156.235 76.5058 156.235 75.9809V71.6069C156.235 71.1695 156.586 70.7321 157.113 70.7321C157.551 70.7321 157.99 71.082 157.99 71.6069V75.9809Z" fill="#E1E1E1"/>
    <path d="M149.829 69.8573C149.829 70.2947 149.478 70.7321 148.951 70.7321C148.512 70.7321 148.074 70.3822 148.074 69.8573V66.7955C148.074 66.3581 148.425 65.9207 148.951 65.9207C149.39 65.9207 149.829 66.2706 149.829 66.7955V69.8573Z" fill="#E1E1E1"/>
    <path d="M215.12 93.0396C215.12 93.477 214.769 93.9144 214.242 93.9144C213.803 93.9144 213.365 93.5644 213.365 93.0396V66.7955C213.365 66.3581 213.716 65.9207 214.242 65.9207C214.681 65.9207 215.12 66.2706 215.12 66.7955V93.0396Z" fill="#E1E1E1"/>
    <path d="M206.958 93.0396C206.958 93.477 206.607 93.9144 206.081 93.9144C205.642 93.9144 205.203 93.5644 205.203 93.0396V66.7955C205.203 66.3581 205.554 65.9207 206.081 65.9207C206.519 65.9207 206.958 66.2706 206.958 66.7955V93.0396Z" fill="#E1E1E1"/>
    <path d="M198.797 93.0396C198.797 93.477 198.446 93.9144 197.919 93.9144C197.481 93.9144 197.042 93.5644 197.042 93.0396V66.7955C197.042 66.3581 197.393 65.9207 197.919 65.9207C198.358 65.9207 198.797 66.2706 198.797 66.7955V93.0396Z" fill="#E1E1E1"/>
    <path d="M190.635 93.0396C190.635 93.477 190.284 93.9144 189.758 93.9144C189.319 93.9144 188.88 93.5644 188.88 93.0396V66.7955C188.88 66.3581 189.231 65.9207 189.758 65.9207C190.197 65.9207 190.635 66.2706 190.635 66.7955V93.0396Z" fill="#E1E1E1"/>
    <path d="M182.474 93.0396C182.474 93.477 182.123 93.9144 181.597 93.9144C181.158 93.9144 180.719 93.5644 180.719 93.0396V66.7955C180.719 66.3581 181.07 65.9207 181.597 65.9207C182.035 65.9207 182.474 66.2706 182.474 66.7955V93.0396Z" fill="#E1E1E1"/>
    <path d="M174.313 88.2282C174.313 88.6656 173.962 89.103 173.435 89.103C172.997 89.103 172.558 88.753 172.558 88.2282V66.7955C172.558 66.3581 172.909 65.9207 173.435 65.9207C173.874 65.9207 174.313 66.2706 174.313 66.7955V88.2282Z" fill="#E1E1E1"/>
    <path d="M166.151 82.1045C166.151 82.5419 165.8 82.9793 165.274 82.9793C164.835 82.9793 164.396 82.6294 164.396 82.1045V71.6069C164.396 71.1695 164.747 70.7321 165.274 70.7321C165.713 70.7321 166.151 71.082 166.151 71.6069V82.1045Z" fill="#E1E1E1"/>
    <path fill-rule="evenodd" clip-rule="evenodd" d="M129.82 71.3445C133.33 71.3445 136.139 74.1438 136.139 77.643C136.139 81.1422 133.33 83.9416 129.82 83.9416C126.31 83.9416 123.502 81.1422 123.502 77.643C123.502 74.1438 126.31 71.3445 129.82 71.3445ZM216.085 100.563V104.849H181.86L184.844 111.673L182.299 114.997H178.525V137.479H166.59V124.445H165.274V90.6776L153.163 81.5796L136.577 94.0018V114.56L126.222 89.9777L128.592 93.127L136.577 87.0909L150.97 76.3308L165.362 87.0909L172.821 92.6896L175.366 89.3654L178.35 96.1888H222.403V100.388H216.085V100.563ZM119.728 134.418H111.04V131.093H119.728V134.418ZM145.616 137.567H140V124.532L145.616 137.567ZM141.316 124.62H145.967V107.736C147.547 106.599 149.127 105.812 150.794 105.287V119.808H153.427V104.762C155.708 104.499 157.99 104.762 160.535 105.637V93.477C153.251 89.1904 146.933 89.4529 141.316 93.477V124.62ZM124.818 119.808H106.038V97.2386H124.818V119.808ZM91.9094 87.3533L128.592 59.7971L147.635 74.1438L145.265 75.8934L130.786 65.0459L126.661 68.1077C124.994 68.5451 123.59 69.6823 122.712 71.082L91.8217 94.2643V87.3533H91.9094Z" fill="#E1E1E1"/>
    <path d="M118.938 131.181V133.63H111.128V131.181H118.938ZM145.792 123.745V97.2386H155.972V123.745H145.792ZM153.427 120.683C153.866 120.683 154.304 120.333 154.304 119.808V100.563C154.304 100.125 153.953 99.688 153.427 99.688H148.337C147.898 99.688 147.459 100.038 147.459 100.563V119.808C147.459 120.246 147.81 120.683 148.337 120.683H153.427ZM150.794 118.934H149.214V105.899C149.741 105.637 150.268 105.462 150.794 105.287V118.934ZM157.727 123.745V96.3638C157.727 95.9264 157.376 95.489 156.849 95.489H144.914C144.476 95.489 144.037 95.8389 144.037 96.3638V123.745H142.106V94.3518C143.247 93.3895 144.563 92.6021 146.055 92.0773C147.547 91.4649 149.214 91.2025 150.882 91.2025C152.549 91.2025 154.217 91.5524 155.708 92.0773C157.113 92.6021 158.429 93.3895 159.657 94.3518V123.745H157.727ZM108.671 126.982C108.232 126.982 107.793 127.332 107.793 127.857V134.418C107.793 134.855 108.144 135.292 108.671 135.292H119.728C120.167 135.292 120.606 134.943 120.606 134.418V127.857C120.606 127.419 120.255 126.982 119.728 126.982H108.671ZM160.974 126.982H140.878V125.495H141.316H144.914H156.849H160.447H160.886V126.982H160.974ZM160.974 130.219H140.878V128.731H160.974V130.219ZM160.974 133.543H140.878V131.968H160.974V133.543ZM107.793 118.934H106.038V97.2386H107.793V118.934ZM120.606 97.2386H123.941V118.934H120.606V97.2386ZM118.938 118.934H109.548V97.2386H118.938V118.934ZM103.581 93.0396C103.142 93.0396 102.703 93.3895 102.703 93.9144V119.808C102.703 120.246 103.055 120.683 103.581 120.683H108.671H119.728H124.818C125.257 120.683 125.696 120.333 125.696 119.808V93.9144C125.696 93.477 125.345 93.0396 124.818 93.0396H119.728H108.671H103.581ZM128.504 67.5828C126.573 67.5828 124.73 68.3701 123.414 69.6823C122.098 70.9945 121.308 72.7441 121.308 74.7562C121.308 76.6808 122.098 78.5178 123.414 79.83C124.73 81.1422 126.486 81.9296 128.504 81.9296C130.435 81.9296 132.277 81.1422 133.594 79.83C134.91 78.5178 135.7 76.7682 135.7 74.7562C135.7 72.8316 134.91 70.9945 133.594 69.6823C132.277 68.3701 130.522 67.5828 128.504 67.5828ZM135.7 89.1029V123.745H135.261H92.787V87.7907L128.592 60.8468L145.967 73.9689L126.047 88.928C125.696 89.1904 125.52 89.5404 125.432 89.9778C125.345 90.4152 125.432 90.7651 125.696 91.115L127.363 93.3895C127.626 93.7394 127.977 93.9144 128.416 94.0018C128.855 94.0893 129.206 94.0018 129.557 93.7394L135.7 89.1029ZM165.537 86.4785L151.408 75.8934C151.057 75.631 150.619 75.631 150.355 75.8934L136.051 86.6535C136.051 86.6535 135.963 86.6535 135.963 86.741L128.679 92.1648L127.188 90.1527L147.898 74.5812L150.882 72.3942L174.576 90.1527L173.084 92.1648L165.976 86.8285C165.888 86.6535 165.713 86.566 165.537 86.4785ZM161.062 93.302C159.657 92.0773 158.078 91.115 156.323 90.4152C154.568 89.7153 152.725 89.3654 150.882 89.3654C149.039 89.3654 147.196 89.7153 145.441 90.4152C143.686 91.115 142.106 92.0773 140.702 93.302C140.527 93.477 140.351 93.7394 140.351 94.0018V123.833H139.912H137.367V87.8782L150.882 77.7305L164.396 87.8782V96.4513V100.65V123.833H161.851H161.413V94.0018C161.413 93.6519 161.237 93.3895 161.062 93.302ZM207.222 116.572H174.137V108.174H207.222V116.572ZM207.222 126.632H174.137V124.62V118.234H207.222V124.62V126.632ZM221.526 97.2386V99.688H215.997H166.064V97.2386H221.526ZM215.207 101.438V123.745H208.977V117.359V107.211C208.977 106.774 208.626 106.337 208.099 106.337H173.26C172.821 106.337 172.382 106.686 172.382 107.211V117.359V123.745H166.59H166.151V101.438H215.207ZM157.902 54.0234V52.5362H158.166H165.274H165.537V54.0234H165.274H158.166H157.902ZM164.396 50.7866H158.955V49.2995H164.396V50.7866ZM165.537 63.6462V66.7955V70.7321H157.902V66.7955V63.6462H158.166H165.274H165.537ZM164.396 61.8966H158.955V55.6855H164.396V61.8966ZM144.388 67.5828L149.478 71.3445L147.459 72.9191L129.118 59.1847C128.767 58.9223 128.328 58.9223 128.065 59.1847L91.3829 86.6535C91.3829 86.6535 91.2951 86.6535 91.2951 86.741L84.0113 92.1648L82.5195 90.1527L128.504 55.598L144.388 67.5828C144.388 67.4953 144.388 67.4953 144.388 67.5828ZM147.459 67.6703H156.147V71.6069C156.147 72.0443 156.498 72.4817 157.025 72.4817H166.415C166.854 72.4817 167.292 72.1318 167.292 71.6069V67.6703H221.526V95.489H166.064V89.0155L172.119 93.5644C172.47 93.8269 172.909 93.9144 173.26 93.8269C173.699 93.7394 174.05 93.5644 174.313 93.2145L175.98 90.94C176.243 90.5901 176.331 90.1527 176.243 89.8028C176.156 89.3654 175.98 89.0155 175.629 88.753L151.321 70.4697L147.459 67.6703ZM123.59 76.8557C123.941 73.7939 126.573 71.3445 129.82 71.3445C131.224 71.3445 132.453 71.7819 133.506 72.5692C133.769 73.1815 133.945 73.8814 133.945 74.6687C133.945 76.1559 133.331 77.4681 132.365 78.5178C131.4 79.4801 129.996 80.0925 128.504 80.0925C127.012 80.0925 125.696 79.4801 124.643 78.5178C124.204 77.993 123.853 77.4681 123.59 76.8557ZM91.4707 137.567V125.407H91.9094H134.384V137.567C134.384 138.004 134.735 138.442 135.261 138.442C135.7 138.442 136.139 138.092 136.139 137.567V125.407H136.578H139.122V127.769V131.006V134.33V137.479C139.122 137.917 139.473 138.354 140 138.354C140.439 138.354 140.878 138.004 140.878 137.479V135.205H160.974V137.479C160.974 137.917 161.325 138.354 161.851 138.354C162.29 138.354 162.729 138.004 162.729 137.479V134.33V131.006V127.769V125.407H165.274H165.713V137.567C165.713 138.004 166.064 138.442 166.59 138.442C167.029 138.442 167.468 138.092 167.468 137.567V125.407H172.382V127.419V137.567C172.382 138.004 172.733 138.442 173.26 138.442C173.699 138.442 174.137 138.092 174.137 137.567V128.294H207.222V137.567C207.222 138.004 207.573 138.442 208.099 138.442C208.538 138.442 208.977 138.092 208.977 137.567V127.419V125.407H216.085H216.524V137.567C216.524 138.004 216.875 138.442 217.401 138.442C217.84 138.442 218.279 138.092 218.279 137.567V124.532C218.279 124.095 217.928 123.658 217.401 123.658H216.962V101.35H222.491C222.93 101.35 223.369 101 223.369 100.475V96.2763V66.708C223.369 66.2706 223.018 65.8332 222.491 65.8332H167.292V62.6839C167.292 62.2465 166.941 61.8091 166.415 61.8091H166.151V55.598H166.415C166.854 55.598 167.292 55.2481 167.292 54.7232V51.6614C167.292 51.224 166.941 50.7866 166.415 50.7866H166.151V48.4247C166.151 47.9873 165.8 47.5499 165.274 47.5499H158.166C157.727 47.5499 157.288 47.8998 157.288 48.4247V50.7866H157.025C156.586 50.7866 156.147 51.1366 156.147 51.6614V54.8982C156.147 55.3356 156.498 55.773 157.025 55.773H157.288V61.9841H157.025C156.586 61.9841 156.147 62.334 156.147 62.8589V66.0082H145.178L129.118 53.9359C128.855 53.6735 128.416 53.6735 128.065 53.9359L81.3786 89.0155C81.0276 89.2779 80.8521 89.6278 80.7644 90.0652C80.6766 90.5026 80.7643 90.8525 81.0276 91.2025L82.695 93.477C82.9583 93.8269 83.3093 94.0018 83.7481 94.0893C84.1869 94.1768 84.5379 94.0893 84.8889 93.8269L90.9441 89.2779V123.92H90.5053C90.0665 123.92 89.6278 124.27 89.6278 124.795V137.829C89.6278 138.267 89.9788 138.704 90.5053 138.704C91.0319 138.442 91.4707 138.092 91.4707 137.567ZM151.584 70.8196C151.496 70.7321 151.496 70.7321 151.408 70.6446L151.584 70.8196ZM129.294 54.0234C129.206 53.9359 129.206 53.9359 129.118 53.8484L129.294 54.0234Z" fill="#432D61"/>
    <path d="M149.214 105.899C149.741 105.637 150.268 105.462 150.794 105.287V118.934H149.214V105.899Z" fill="#E1E1E1"/>
    <path d="M56.1396 37.1434C55.7008 37.1434 55.262 36.7935 55.262 36.2686C55.262 35.8312 55.613 35.3938 56.1396 35.3938H81.94C82.3788 35.3938 82.8175 35.7437 82.8175 36.2686C82.8175 36.706 82.4665 37.1434 81.94 37.1434H56.1396ZM251.047 37.1434C250.608 37.1434 250.169 36.7935 250.169 36.2686C250.169 35.8312 250.52 35.3938 251.047 35.3938H270.967C271.406 35.3938 271.845 35.7437 271.845 36.2686C271.845 36.706 271.494 37.1434 270.967 37.1434H251.047ZM207.695 28.1329C208.836 23.7589 211.732 20.7846 214.979 19.2974C216.646 18.5976 218.314 18.2477 220.069 18.3352C221.824 18.4226 223.491 18.9475 224.895 19.9973C227.528 21.7469 229.459 24.8962 229.897 29.6201C231.126 28.5703 232.706 27.8705 234.373 27.5206C236.128 27.0832 238.059 27.0832 239.814 27.5206C241.569 27.958 243.236 28.9203 244.377 30.4949C245.43 31.8946 246.045 33.8192 246.045 36.2686C246.045 36.706 245.694 37.1434 245.167 37.1434H195.058C194.619 37.1434 194.181 36.7935 194.181 36.2686C194.005 33.0318 194.883 30.4074 196.287 28.7453C196.901 27.958 197.691 27.3456 198.568 26.9082C199.446 26.4708 200.411 26.2084 201.377 26.2084C203.395 26.0334 205.589 26.6458 207.695 28.1329ZM215.681 20.8721C212.522 22.2718 209.889 25.3336 209.099 29.7951C209.099 29.97 209.011 30.0575 208.924 30.2325C208.66 30.5824 208.046 30.6699 207.695 30.32C205.589 28.5703 203.395 27.783 201.552 27.8705C200.762 27.8705 200.06 28.1329 199.446 28.3954C198.832 28.7453 198.217 29.1827 197.691 29.7951C196.638 31.1073 196.023 32.9444 195.936 35.3938H244.289C244.202 33.7317 243.675 32.507 242.973 31.5447C242.096 30.3199 240.779 29.6201 239.375 29.2702C237.971 28.9203 236.304 28.9203 234.812 29.2702C232.793 29.7076 230.95 30.7574 229.81 32.2445C229.634 32.4195 229.371 32.5944 229.108 32.5944C228.669 32.5944 228.23 32.2445 228.23 31.7196C228.23 26.5583 226.387 23.2341 223.93 21.4844C222.701 20.6971 221.385 20.2597 219.981 20.1722C218.577 19.9973 217.085 20.2597 215.681 20.8721ZM190.144 37.1434H177.331C176.893 37.1434 176.454 36.7935 176.454 36.2686C176.19 33.2943 177.331 31.2822 179.086 30.145C179.964 29.6201 180.929 29.2702 181.982 29.1827C183.035 29.0952 184.089 29.1827 185.142 29.5326C187.862 30.3199 190.407 32.5944 191.021 36.0936C191.109 36.531 190.758 36.9684 190.319 37.0559C190.231 37.1434 190.231 37.1434 190.144 37.1434ZM178.209 35.3938H189.091C188.389 33.2068 186.633 31.8071 184.703 31.1948C183.913 30.9323 183.035 30.8448 182.246 30.9323C181.456 31.0198 180.754 31.1948 180.139 31.6322C178.911 32.332 178.209 33.5567 178.209 35.3938ZM110.022 17.8978C109.583 17.8978 109.144 17.5478 109.144 17.023C109.144 16.5856 109.496 16.1482 110.022 16.1482H118.447C119.236 13.8737 120.641 12.299 122.308 11.2493C123.624 10.4619 125.116 10.112 126.608 10.112C128.1 10.112 129.592 10.5494 130.82 11.4242C132.312 12.3865 133.629 14.0486 134.243 16.1482H161.974C162.413 16.1482 162.851 16.4981 162.851 17.023C162.851 17.4604 162.5 17.8978 161.974 17.8978H126.871C126.433 17.8978 125.994 17.5478 125.994 17.023C125.994 16.5856 126.345 16.1482 126.871 16.1482H132.575C132.049 14.661 131.084 13.6112 130.031 12.8239C129.065 12.2116 127.924 11.8616 126.696 11.7742C125.555 11.7742 124.326 12.0366 123.273 12.649C121.869 13.5238 120.641 15.0109 120.026 17.1104C119.939 17.4604 119.588 17.8103 119.149 17.8103H110.022V17.8978ZM168.292 17.8978C167.854 17.8978 167.415 17.5478 167.415 17.023C167.415 16.5856 167.766 16.1482 168.292 16.1482H174.611C175.05 16.1482 175.488 16.4981 175.488 17.023C175.488 17.4604 175.137 17.8978 174.611 17.8978H168.292ZM89.3115 10.5494C88.3462 6.2629 86.0645 3.6385 83.3441 2.41377C81.94 1.80141 80.4481 1.53897 78.9562 1.71393C77.4644 1.88889 75.9725 2.41377 74.7439 3.28857C72.2868 5.03818 70.3561 8.09998 70.1806 12.3865C70.1806 12.8239 69.7418 13.2613 69.303 13.1738C69.0398 13.1738 68.7765 12.9989 68.601 12.8239C67.2846 11.1618 65.4417 10.112 63.5111 9.76211C62.6335 9.58715 61.756 9.67463 60.8784 9.84959C60.0008 10.0245 59.211 10.4619 58.509 10.9868C57.1926 12.0366 56.1396 13.6987 55.613 16.0607H102.65C102.65 13.6112 101.948 11.7742 100.895 10.4619C100.369 9.84959 99.8423 9.41219 99.1402 9.06227C98.4382 8.71234 97.7361 8.53738 96.9463 8.53738C95.0157 8.4499 92.9095 9.23723 90.7156 10.9868C90.3646 11.2493 89.8381 11.2493 89.487 10.8993C89.3993 10.8119 89.3115 10.7244 89.3115 10.5494ZM84.0461 0.92661C86.8543 2.23881 89.3115 4.86322 90.6279 8.97479C92.8218 7.48762 95.0157 6.87526 96.9463 6.96274C97.9994 7.05022 98.9647 7.22518 99.8423 7.66258C100.72 8.09998 101.51 8.71235 102.124 9.49967C103.528 11.2493 104.406 13.7862 104.23 17.023C104.23 17.4604 103.879 17.8978 103.353 17.8978H54.3844C54.2967 17.8978 54.2967 17.8978 54.2089 17.8978C53.7701 17.8103 53.4191 17.3729 53.5069 16.9355C54.0334 13.5238 55.5253 11.1618 57.2804 9.76211C58.2457 9.06227 59.2988 8.53738 60.3519 8.27494C61.4049 8.0125 62.5458 8.0125 63.6866 8.18746C65.4417 8.4499 67.1091 9.23723 68.5132 10.4619C69.1275 6.52534 71.0582 3.6385 73.6031 1.88889C75.095 0.83913 76.8501 0.226769 78.693 0.0518085C80.5359 -0.123152 82.3787 0.139289 84.0461 0.92661ZM9.27759 29.97C8.83881 29.97 8.40002 29.6201 8.40002 29.0952C8.40002 28.6578 8.75105 28.2204 9.27759 28.2204H20.6859C21.5635 25.6835 23.1431 23.8464 24.986 22.7092C26.3901 21.8344 27.9697 21.397 29.6371 21.4844C31.2167 21.4844 32.7963 22.0093 34.2004 22.8841C35.8678 24.0214 37.2719 25.771 38.0617 28.2204H40.6944C41.1332 28.2204 41.572 28.5703 41.572 29.0952C41.572 29.5326 41.221 29.97 40.6944 29.97H31.6555C31.2167 29.97 30.7779 29.6201 30.7779 29.0952C30.7779 28.6578 31.129 28.2204 31.6555 28.2204H36.2188C35.6045 26.4708 34.4637 25.1586 33.2351 24.2838C32.0943 23.584 30.8657 23.1466 29.6371 23.1466C28.4085 23.1466 27.0922 23.4965 25.9513 24.1963C24.284 25.1586 22.9676 26.9082 22.2656 29.2702C22.1778 29.6201 21.8268 29.97 21.388 29.97H9.27759ZM46.4863 29.97C46.0476 29.97 45.6088 29.6201 45.6088 29.0952C45.6088 28.6578 45.9598 28.2204 46.4863 28.2204H65.4417C65.8805 28.2204 66.3193 28.5703 66.3193 29.0952C66.3193 29.5326 65.9683 29.97 65.4417 29.97H46.4863ZM87.6441 37.1434C87.2054 37.1434 86.7666 36.7935 86.7666 36.2686C86.7666 35.8312 87.1176 35.3938 87.6441 35.3938H94.1381C94.5769 35.3938 95.0157 35.7437 95.0157 36.2686C95.0157 36.706 94.6647 37.1434 94.1381 37.1434H87.6441Z" fill="#E8E8E8"/>
    <path d="M30.2515 138.527C30.0244 138.527 29.7974 138.149 29.7974 137.582C29.7974 137.109 29.979 136.636 30.2515 136.636H271.032C271.259 136.636 271.487 137.014 271.487 137.582C271.487 138.054 271.305 138.527 271.032 138.527H30.2515Z" fill="#432D61"/>
    <g filter="url(#filter0_d)">
        <circle cx="225.5" cy="62.5" r="23.5" fill="#431AD8"/>
    </g>
    <path d="M225.522 55.9713L232.47 60.8453V62.5903V67.8252L226.958 64.937L225.522 64.2149L224.086 64.937L218.574 67.8252V62.5903V60.8453L225.522 55.9713ZM225.522 52L211.166 62.0487C210.879 62.2292 210.994 62.5903 211.281 62.5903H215.416V72.6991C215.416 72.8797 215.53 73 215.703 73C215.76 73 215.818 73 215.818 72.9398L225.522 67.8854L235.227 72.9398C235.284 72.9398 235.284 73 235.341 73C235.514 73 235.629 72.8797 235.629 72.6991V62.5903H239.706C239.993 62.5903 240.108 62.2292 239.878 62.0487L225.522 52Z" fill="white"/>
    <defs>
        <filter id="filter0_d" x="180" y="17" width="107" height="107" filterUnits="userSpaceOnUse" color-interpolation-filters="sRGB">
            <feFlood flood-opacity="0" result="BackgroundImageFix"/>
            <feColorMatrix in="SourceAlpha" type="matrix" values="0 0 0 0 0 0 0 0 0 0 0 0 0 0 0 0 0 0 127 0"/>
            <feOffset dx="8" dy="8"/>
            <feGaussianBlur stdDeviation="15"/>
            <feColorMatrix type="matrix" values="0 0 0 0 0 0 0 0 0 0 0 0 0 0 0 0 0 0 0.15 0"/>
            <feBlend mode="normal" in2="BackgroundImageFix" result="effect1_dropShadow"/>
            <feBlend mode="normal" in="SourceGraphic" in2="effect1_dropShadow" result="shape"/>
        </filter>
    </defs>
</svg>
