<svg width="375" height="204" viewBox="0 0 375 204" fill="none" xmlns="http://www.w3.org/2000/svg">
    <path fill-rule="evenodd" clip-rule="evenodd" d="M46.6173 30.3393H30.0514C32.782 20.8833 44.3418 20.9742 46.6173 30.3393Z" fill="white"/>
    <path fill-rule="evenodd" clip-rule="evenodd" d="M223.927 30.8847C226.293 16.9735 245.499 15.2459 245.59 32.976C249.777 27.6115 262.247 27.1569 262.247 37.7949H210.273C209.818 28.6117 217.1 25.2475 223.927 30.8847Z" fill="white"/>
    <path fill-rule="evenodd" clip-rule="evenodd" d="M205.086 37.7959H191.797C190.887 28.8854 203.63 29.5219 205.086 37.7959Z" fill="white"/>
    <path fill-rule="evenodd" clip-rule="evenodd" d="M101.321 10.8845C97.862 -3.75415 80.2948 -1.48107 79.6577 12.9757C75.4707 7.61125 66.0044 7.4294 64.275 17.7946H115.065C115.52 8.6114 108.238 5.24724 101.321 10.8845Z" fill="white"/>
    <path d="M314.949 184.82C314.949 185.274 314.585 185.729 314.039 185.729C313.584 185.729 313.129 185.365 313.129 184.82V179.91H296.108V184.82C296.108 185.274 295.744 185.729 295.197 185.729C294.742 185.729 294.287 185.365 294.287 184.82V179.91H291.83V178.091H294.287V176.637H291.83V174.818H294.287V173.363H291.83V171.545H295.197H313.948H317.316V173.363H314.858V174.818H317.316V176.637H314.858V178.091H317.316V179.91H314.858V184.82H314.949ZM296.108 173.454V174.909H313.129V173.454H296.108ZM296.108 176.728V178.182H313.129V176.728H296.108Z" fill="#432D61"/>
    <path fill-rule="evenodd" clip-rule="evenodd" d="M310.762 131.902C321.23 131.902 329.604 140.358 329.604 150.723C329.604 161.179 321.139 169.544 310.762 169.544C300.295 169.544 291.921 161.089 291.921 150.723C291.83 140.358 300.295 131.902 310.762 131.902Z" fill="#E6E1F9"/>
    <path fill-rule="evenodd" clip-rule="evenodd" d="M308.759 133.903C316.769 133.903 323.232 140.358 323.232 148.36C323.232 156.361 316.769 162.816 308.759 162.816C300.749 162.816 294.287 156.361 294.287 148.36C294.287 140.358 300.749 133.903 308.759 133.903Z" fill="#CDCDF7"/>
    <path d="M310.762 130.993C316.223 130.993 321.138 133.175 324.779 136.812C328.329 140.358 330.605 145.359 330.605 150.814C330.605 156.27 328.42 161.18 324.779 164.817C321.411 168.181 316.769 170.363 311.672 170.545V184.911C311.672 185.365 311.308 185.82 310.762 185.82C310.307 185.82 309.852 185.456 309.852 184.911V170.545C304.755 170.272 300.112 168.181 296.745 164.817C293.195 161.27 290.919 156.27 290.919 150.814C290.919 145.359 293.104 140.449 296.745 136.812C300.385 133.266 305.301 130.993 310.762 130.993ZM314.13 153.269C314.494 152.906 315.04 152.906 315.404 153.269C315.768 153.633 315.768 154.178 315.404 154.542L311.672 158.27V168.726C316.314 168.544 320.41 166.544 323.505 163.453C326.782 160.179 328.784 155.724 328.784 150.723C328.784 145.723 326.782 141.267 323.505 137.994C320.228 134.721 315.768 132.721 310.762 132.721C305.756 132.721 301.296 134.721 298.019 137.994C294.742 141.267 292.74 145.723 292.74 150.723C292.74 155.724 294.742 160.179 298.019 163.453C301.114 166.544 305.21 168.453 309.852 168.726V164.18L303.025 157.361C302.661 156.997 302.661 156.452 303.025 156.088C303.389 155.724 303.935 155.724 304.299 156.088L309.852 161.634V150.723C309.852 150.269 310.216 149.814 310.762 149.814C311.217 149.814 311.672 150.178 311.672 150.723V155.724L314.13 153.269Z" fill="#432D61"/>
    <path fill-rule="evenodd" clip-rule="evenodd" d="M106.144 131.902C116.612 131.902 124.986 140.358 124.986 150.723C124.986 161.179 116.521 169.544 106.144 169.544C95.677 169.544 87.303 161.089 87.303 150.723C87.212 140.358 95.677 131.902 106.144 131.902Z" fill="#E6E1F9"/>
    <path fill-rule="evenodd" clip-rule="evenodd" d="M104.052 133.903C112.062 133.903 118.524 140.358 118.524 148.36C118.524 156.361 112.062 162.816 104.052 162.816C96.0418 162.816 89.5792 156.361 89.5792 148.36C89.5792 140.358 96.1328 133.903 104.052 133.903Z" fill="#CDCDF7"/>
    <path d="M109.512 153.269C109.876 152.906 110.423 152.906 110.787 153.269C111.151 153.633 111.151 154.178 110.787 154.542L107.055 158.27V168.726C111.697 168.544 115.793 166.544 118.888 163.453C122.164 160.179 124.167 155.724 124.167 150.723C124.167 145.723 122.164 141.267 118.888 137.994C115.611 134.721 111.151 132.721 106.145 132.721C101.138 132.721 96.6783 134.721 93.4015 137.994C90.1247 141.267 88.1223 145.723 88.1223 150.723C88.1223 155.724 90.1247 160.179 93.4015 163.453C96.4963 166.544 100.592 168.453 105.234 168.726V164.18L98.4077 157.361C98.0436 156.997 98.0436 156.452 98.4077 156.088C98.7718 155.724 99.3179 155.724 99.682 156.088L105.234 161.634V150.723C105.234 150.269 105.598 149.814 106.145 149.814C106.6 149.814 107.055 150.178 107.055 150.723V155.724L109.512 153.269ZM106.964 170.545V184.911C106.964 185.365 106.6 185.82 106.054 185.82C105.598 185.82 105.143 185.456 105.143 184.911V170.545C100.046 170.272 95.404 168.181 92.0362 164.817C88.4863 161.27 86.2108 156.27 86.2108 150.814C86.2108 145.359 88.3953 140.449 92.0362 136.812C95.586 133.266 100.592 130.993 106.054 130.993C111.515 130.993 116.43 133.175 120.071 136.812C123.621 140.358 125.896 145.359 125.896 150.814C125.896 156.27 123.712 161.18 120.071 164.817C116.703 168.181 112.061 170.272 106.964 170.545Z" fill="#432D61"/>
    <path fill-rule="evenodd" clip-rule="evenodd" d="M149.289 64.5262H142.827C137.365 61.0711 130.448 53.7972 130.448 45.796C130.448 35.4308 138.822 27.0658 149.198 27.0658C159.575 27.0658 167.949 35.4308 167.949 45.796C167.949 53.8882 161.122 61.162 155.57 64.5262H149.289Z" fill="#E6E1F9"/>
    <path fill-rule="evenodd" clip-rule="evenodd" d="M149.289 64.5262H144.101C139.641 61.0711 134.088 53.7972 134.088 45.796C134.088 35.4308 140.915 27.0658 149.289 27.0658C157.663 27.0658 164.49 35.4308 164.49 45.796C164.49 53.8882 158.937 61.162 154.477 64.5262H149.289Z" fill="white"/>
    <path fill-rule="evenodd" clip-rule="evenodd" d="M149.289 64.5262H145.648C142.463 61.0711 138.549 53.7972 138.549 45.796C138.549 35.4308 143.373 27.0658 149.289 27.0658C155.206 27.0658 160.03 35.4308 160.03 45.796C160.03 53.8882 156.116 61.162 152.93 64.5262H149.289Z" fill="#E6E1F9"/>
    <path fill-rule="evenodd" clip-rule="evenodd" d="M153.84 75.0742V80.8024C153.84 81.4389 153.294 81.8935 152.748 81.8935H145.921C145.284 81.8935 144.829 81.3479 144.829 80.8024V75.0742H153.84Z" fill="white"/>
    <path fill-rule="evenodd" clip-rule="evenodd" d="M144.738 72.3469H153.749C154.113 72.3469 154.386 72.6197 154.386 72.9834V74.62C154.386 74.9837 154.113 75.2565 153.749 75.2565H144.738C144.374 75.2565 144.101 74.9837 144.101 74.62V72.9834C144.192 72.5288 144.465 72.3469 144.738 72.3469Z" fill="white"/>
    <path fill-rule="evenodd" clip-rule="evenodd" d="M142.827 64.527H155.661V66.7091C155.661 67.0728 155.388 67.3456 155.024 67.3456H143.373C143.009 67.3456 142.736 67.0728 142.736 66.7091V64.527H142.827Z" fill="white"/>
    <path fill-rule="evenodd" clip-rule="evenodd" d="M149.29 64.5262H147.834C146.559 61.0711 145.012 53.7972 145.012 45.796C145.012 35.4308 146.923 27.0658 149.381 27.0658C151.748 27.0658 153.75 35.4308 153.75 45.796C153.75 53.8882 152.203 61.162 150.928 64.5262H149.29Z" fill="white"/>
    <path fill-rule="evenodd" clip-rule="evenodd" d="M153.84 75.0742V80.8024C153.84 81.4389 153.294 81.8935 152.747 81.8935H150.29C150.927 81.8935 151.382 81.3479 151.382 80.8024V75.0742H153.84Z" fill="#E6E1F9"/>
    <path fill-rule="evenodd" clip-rule="evenodd" d="M151.382 72.3469H153.84C154.204 72.3469 154.477 72.6197 154.477 72.9834V74.62C154.477 74.9837 154.204 75.2565 153.84 75.2565H151.382C151.746 75.2565 152.019 74.9837 152.019 74.62V72.9834C151.928 72.5288 151.746 72.3469 151.382 72.3469Z" fill="#E6E1F9"/>
    <path fill-rule="evenodd" clip-rule="evenodd" d="M153.294 64.527H155.751V66.7091C155.751 67.0728 155.478 67.3456 155.114 67.3456H152.656C153.021 67.3456 153.294 67.0728 153.294 66.7091V64.527Z" fill="#E6E1F9"/>
    <path d="M149.289 65.4369H143.737V66.437H146.831H151.655H154.75V65.4369H149.289ZM145.466 71.4378H146.012V68.2555H144.647L145.466 71.4378ZM147.742 71.4378H150.836V68.2555H147.742V71.4378ZM152.566 71.4378H153.112L153.931 68.2555H152.566V71.4378ZM154.841 71.8015C154.841 71.8924 154.932 71.8924 154.841 71.8015C155.114 72.1652 155.296 72.5289 155.296 72.8926V74.5292C155.296 74.9838 155.114 75.3475 154.841 75.6203C154.75 75.7112 154.75 75.7112 154.659 75.8021V80.9847C154.659 81.5303 154.477 82.0758 154.113 82.4395C154.113 82.4395 154.113 82.4395 154.022 82.5304C153.658 82.8941 153.203 83.076 152.657 83.076H145.83C145.284 83.076 144.738 82.8941 144.374 82.5304C144.01 82.1667 143.828 81.6212 143.828 81.0757V75.893C143.737 75.893 143.737 75.8021 143.646 75.8021C143.373 75.5293 143.19 75.1656 143.19 74.711V73.0744C143.19 72.7107 143.373 72.2561 143.646 71.9833L142.644 68.1646C142.553 68.0736 142.462 67.9827 142.371 67.8918C142.098 67.619 141.916 67.2553 141.916 66.8007V65.0732C138.821 63.0729 135.454 59.9815 132.996 56.2536C130.903 53.1622 129.537 49.5253 129.537 45.7975C129.537 40.3421 131.722 35.4322 135.272 31.8862C138.821 28.3402 143.737 26.1581 149.198 26.1581C154.659 26.1581 159.574 28.3402 163.124 31.8862C166.674 35.4322 168.859 40.3421 168.859 45.7975C168.859 49.5253 167.493 53.1622 165.4 56.2536C162.942 59.9815 159.574 63.0729 156.48 65.0732V66.8007C156.48 67.1644 156.298 67.619 156.025 67.8918C155.933 67.9827 155.842 68.0736 155.751 68.1646L154.841 71.8015ZM152.93 75.984H145.739V80.8938C145.739 80.9847 145.739 80.9847 145.83 81.0757C145.83 81.0757 145.921 81.1666 146.012 81.1666H152.839C152.93 81.1666 152.93 81.1666 152.93 81.1666C152.93 81.1666 153.021 81.0757 153.021 80.9847V75.984H152.93ZM153.476 73.1653H151.655H146.831H145.011V74.1655H153.385V73.1653H153.476ZM143.099 63.6184H149.289H155.478C158.391 61.7999 161.668 58.7995 164.034 55.2535C165.946 52.4349 167.22 49.1616 167.22 45.7975C167.22 40.8876 165.218 36.4324 161.941 33.1591C158.664 29.8859 154.204 27.8856 149.289 27.8856C144.374 27.8856 139.914 29.8859 136.637 33.1591C133.36 36.4324 131.358 40.8876 131.358 45.7975C131.358 49.1616 132.632 52.4349 134.543 55.2535C136.91 58.8904 140.187 61.7999 143.099 63.6184Z" fill="#432D61"/>
    <path fill-rule="evenodd" clip-rule="evenodd" d="M391.498 43.2508V37.7954H398.142V66.709V72.1644H399.781V76.7106H398.142V141.721H399.781V146.267H398.142V184.818H320.501V146.267H318.953V141.721H320.501V76.7106H318.953V72.1644H320.501V66.709V37.7954H327.145V43.2508H391.498Z" fill="white"/>
    <path d="M384.398 72.1652C384.398 72.6198 384.034 73.0744 383.488 73.0744C383.033 73.0744 382.578 72.7107 382.578 72.1652V43.2516C382.578 42.797 382.942 42.3424 383.488 42.3424C383.943 42.3424 384.398 42.7061 384.398 43.2516V72.1652ZM336.157 72.1652C336.157 72.6198 335.793 73.0744 335.247 73.0744C334.791 73.0744 334.336 72.7107 334.336 72.1652V43.2516C334.336 42.797 334.7 42.3424 335.247 42.3424C335.702 42.3424 336.157 42.7061 336.157 43.2516V72.1652ZM344.167 66.0733C344.167 66.5279 343.803 66.9825 343.256 66.9825C342.801 66.9825 342.346 66.6189 342.346 66.0733V43.2516C342.346 42.797 342.71 42.3424 343.256 42.3424C343.712 42.3424 344.167 42.7061 344.167 43.2516V66.0733ZM352.177 62.4364C352.177 62.891 351.812 63.3456 351.266 63.3456C350.811 63.3456 350.356 62.9819 350.356 62.4364V43.2516C350.356 42.797 350.72 42.3424 351.266 42.3424C351.721 42.3424 352.177 42.7061 352.177 43.2516V62.4364ZM360.277 58.7995C360.277 59.2541 359.913 59.7087 359.367 59.7087C358.912 59.7087 358.457 59.345 358.457 58.7995V43.2516C358.457 42.797 358.821 42.3424 359.367 42.3424C359.822 42.3424 360.277 42.7061 360.277 43.2516V58.7995ZM368.287 62.4364C368.287 62.891 367.923 63.3456 367.377 63.3456C366.922 63.3456 366.467 62.9819 366.467 62.4364V43.2516C366.467 42.797 366.831 42.3424 367.377 42.3424C367.832 42.3424 368.287 42.7061 368.287 43.2516V62.4364ZM376.388 66.0733C376.388 66.5279 376.024 66.9825 375.478 66.9825C375.023 66.9825 374.568 66.6189 374.568 66.0733V43.2516C374.568 42.797 374.932 42.3424 375.478 42.3424C375.933 42.3424 376.388 42.7061 376.388 43.2516V66.0733Z" fill="#E6E1F9"/>
    <path fill-rule="evenodd" clip-rule="evenodd" d="M320.501 79.8035H398.142V82.6221H320.501V79.8035Z" fill="#E6E1F9"/>
    <path fill-rule="evenodd" clip-rule="evenodd" d="M320.501 146.267H398.142V149.086H320.501V146.267Z" fill="#E6E1F9"/>
    <path fill-rule="evenodd" clip-rule="evenodd" d="M357 87.6235H364.373V103.353H357V87.6235Z" fill="#E6E1F9"/>
    <path fill-rule="evenodd" clip-rule="evenodd" d="M334.427 87.6235H341.8V103.353H334.427V87.6235Z" fill="#E6E1F9"/>
    <path fill-rule="evenodd" clip-rule="evenodd" d="M357 122.263H364.373V137.992H357V122.263Z" fill="#E6E1F9"/>
    <path fill-rule="evenodd" clip-rule="evenodd" d="M334.427 122.263H341.8V137.992H334.427V122.263Z" fill="#E6E1F9"/>
    <path fill-rule="evenodd" clip-rule="evenodd" d="M334.427 156.814H364.373V181.545H334.427V156.814Z" fill="#E6E1F9"/>
    <path fill-rule="evenodd" clip-rule="evenodd" d="M335.883 158.542C335.883 159.633 334.973 160.542 333.881 160.542C332.789 160.542 331.878 159.633 331.878 158.542V153.268H335.974V158.542H335.883Z" fill="white"/>
    <path fill-rule="evenodd" clip-rule="evenodd" d="M339.889 158.542C339.889 159.633 338.979 160.542 337.887 160.542C336.795 160.542 335.884 159.633 335.884 158.542V153.268H339.98V158.542H339.889Z" fill="#E6E1F9"/>
    <path fill-rule="evenodd" clip-rule="evenodd" d="M343.985 158.542C343.985 159.633 343.075 160.542 341.982 160.542C340.89 160.542 339.98 159.633 339.98 158.542V153.268H344.076V158.542H343.985Z" fill="white"/>
    <path fill-rule="evenodd" clip-rule="evenodd" d="M348.081 158.542C348.081 159.633 347.171 160.542 346.078 160.542C344.986 160.542 344.076 159.633 344.076 158.542V153.268H348.172V158.542H348.081Z" fill="#E6E1F9"/>
    <path fill-rule="evenodd" clip-rule="evenodd" d="M352.177 158.542C352.177 159.633 351.267 160.542 350.175 160.542C349.082 160.542 348.172 159.633 348.172 158.542V153.268H352.268V158.542H352.177Z" fill="white"/>
    <path fill-rule="evenodd" clip-rule="evenodd" d="M356.181 158.542C356.181 159.633 355.271 160.542 354.179 160.542C353.086 160.542 352.176 159.633 352.176 158.542V153.268H356.272V158.542H356.181Z" fill="#E6E1F9"/>
    <path fill-rule="evenodd" clip-rule="evenodd" d="M360.277 158.542C360.277 159.633 359.367 160.542 358.274 160.542C357.182 160.542 356.272 159.633 356.272 158.542V153.268H360.368V158.542H360.277Z" fill="white"/>
    <path fill-rule="evenodd" clip-rule="evenodd" d="M364.374 158.542C364.374 159.633 363.464 160.542 362.371 160.542C361.279 160.542 360.369 159.633 360.369 158.542V153.268H364.465V158.542H364.374Z" fill="#E6E1F9"/>
    <path d="M338.978 153.269C338.978 152.814 339.342 152.36 339.888 152.36C340.343 152.36 340.798 152.723 340.798 153.269V158.542C340.798 158.815 340.889 159.088 341.163 159.361C341.345 159.542 341.618 159.724 341.982 159.724C342.255 159.724 342.528 159.633 342.801 159.361C342.983 159.179 343.165 158.906 343.165 158.542V153.269C343.165 152.814 343.529 152.36 344.075 152.36C344.53 152.36 344.985 152.723 344.985 153.269V158.542C344.985 158.815 345.076 159.179 345.35 159.361C345.532 159.542 345.805 159.724 346.169 159.724C346.442 159.724 346.715 159.633 346.988 159.361C347.17 159.179 347.352 158.906 347.352 158.542V153.269C347.352 152.814 347.716 152.36 348.262 152.36C348.717 152.36 349.172 152.723 349.172 153.269V158.542C349.172 158.815 349.263 159.179 349.536 159.361C349.719 159.542 349.992 159.724 350.356 159.724C350.629 159.724 350.902 159.633 351.175 159.361C351.357 159.179 351.539 158.906 351.539 158.542V153.269C351.539 152.814 351.903 152.36 352.449 152.36C352.904 152.36 353.359 152.723 353.359 153.269V158.542C353.359 158.815 353.45 159.088 353.632 159.27C353.815 159.452 354.088 159.633 354.452 159.633C354.725 159.633 354.998 159.543 355.271 159.27C355.453 159.088 355.635 158.815 355.635 158.451V153.178C355.635 152.723 355.999 152.269 356.545 152.269C357 152.269 357.455 152.632 357.455 153.178V158.451C357.455 158.724 357.546 158.997 357.728 159.179C357.91 159.361 358.184 159.542 358.548 159.542C358.821 159.542 359.094 159.452 359.367 159.179C359.549 158.997 359.731 158.724 359.731 158.451V153.178C359.731 152.723 360.095 152.269 360.641 152.269C361.096 152.269 361.551 152.632 361.551 153.178V158.451C361.551 158.724 361.642 158.997 361.824 159.179C362.006 159.361 362.28 159.542 362.644 159.542C362.917 159.542 363.19 159.452 363.463 159.179C363.645 158.997 363.827 158.724 363.827 158.36C363.827 157.906 364.191 157.451 364.737 157.451C365.192 157.451 365.647 157.815 365.647 158.36C365.647 159.179 365.283 159.906 364.828 160.452C364.282 160.997 363.554 161.27 362.826 161.27C362.006 161.27 361.278 160.997 360.823 160.452C360.277 160.906 359.64 161.27 358.821 161.27C358.002 161.27 357.273 160.997 356.818 160.452C356.272 160.906 355.635 161.27 354.816 161.27C353.997 161.27 353.268 160.997 352.813 160.452C352.267 160.906 351.63 161.27 350.811 161.27C349.992 161.27 349.263 160.997 348.808 160.452C348.262 160.906 347.625 161.27 346.806 161.27C345.987 161.27 345.258 160.997 344.803 160.452C344.257 160.906 343.62 161.27 342.801 161.27C341.982 161.27 341.254 160.997 340.798 160.452C340.252 160.906 339.615 161.27 338.796 161.27C337.977 161.27 337.249 160.997 336.793 160.452C336.247 160.906 335.61 161.27 334.791 161.27C333.972 161.27 333.244 160.906 332.697 160.452C332.151 159.906 331.878 159.179 331.878 158.36C331.878 157.906 332.242 157.451 332.789 157.451C333.244 157.451 333.699 157.815 333.699 158.36C333.699 158.633 333.79 158.997 334.063 159.179C334.245 159.361 334.518 159.542 334.882 159.542C335.155 159.542 335.428 159.452 335.701 159.179C335.883 158.997 336.065 158.724 336.065 158.451V153.178C336.065 152.723 336.429 152.269 336.976 152.269C337.431 152.269 337.886 152.632 337.886 153.178V158.451C337.886 158.724 337.977 158.997 338.159 159.179C338.341 159.361 338.614 159.542 338.978 159.542C339.251 159.542 339.524 159.452 339.797 159.179C339.979 158.997 340.161 158.724 340.161 158.451V153.269H338.978Z" fill="#432D61"/>
    <path d="M365.284 184.818C365.284 185.273 364.92 185.728 364.374 185.728C363.918 185.728 363.463 185.364 363.463 184.818V182.454H357.365H338.796H332.698V184.818C332.698 185.273 332.334 185.728 331.788 185.728C331.333 185.728 330.878 185.364 330.878 184.818V181.545V174.271V153.268C330.878 152.813 331.242 152.359 331.788 152.359H364.374C364.829 152.359 365.284 152.722 365.284 153.268V181.545V184.818ZM386.037 182.454H377.845V184.818C377.845 185.273 377.481 185.728 376.935 185.728C376.479 185.728 376.024 185.364 376.024 184.818V181.545V174.18V153.177C376.024 152.722 376.388 152.268 376.935 152.268H386.947C387.402 152.268 387.857 152.632 387.857 153.177V174.18V181.545V184.818C387.857 185.273 387.493 185.728 386.947 185.728C386.492 185.728 386.037 185.364 386.037 184.818V182.454ZM379.574 180.636H386.037V175.09H379.574V180.636ZM379.574 173.362H386.037V156.814H379.574V173.362ZM326.236 67.6184H321.411V71.2553H326.236V67.6184ZM321.411 65.7999H326.236V43.251V38.7048H321.411V65.7999ZM319.591 71.2553V66.7092V37.7956C319.591 37.341 319.955 36.8864 320.501 36.8864H327.146C327.601 36.8864 328.056 37.25 328.056 37.7956V42.3417H390.679V37.7956C390.679 37.341 391.043 36.8864 391.589 36.8864H398.234C398.689 36.8864 399.144 37.25 399.144 37.7956V66.7092V71.2553H399.872C400.327 71.2553 400.782 71.619 400.782 72.1645V76.7107C400.782 77.1653 400.418 77.6199 399.872 77.6199H399.144V79.7112V140.721H399.872C400.327 140.721 400.782 141.084 400.782 141.63V146.176C400.782 146.631 400.418 147.085 399.872 147.085H399.144V184.727C399.144 185.182 398.78 185.637 398.234 185.637C397.778 185.637 397.323 185.273 397.323 184.727V147.085H321.502V184.727C321.502 185.182 321.138 185.637 320.592 185.637C320.137 185.637 319.682 185.273 319.682 184.727V147.085H318.954C318.499 147.085 318.044 146.722 318.044 146.176V141.63C318.044 141.175 318.408 140.721 318.954 140.721H319.682V79.8021V77.6199H318.954C318.499 77.6199 318.044 77.2562 318.044 76.7107V72.1645C318.044 71.7099 318.408 71.2553 318.954 71.2553H319.591ZM328.056 44.1602V66.8001V71.3462H340.89V66.8001C340.89 66.4364 341.163 66.0727 341.436 65.9818L359.003 58.0714C359.276 57.9805 359.549 57.9805 359.731 58.0714L377.299 65.9818C377.663 66.1636 377.845 66.4364 377.845 66.8001V71.3462H390.679V66.8001V44.1602H328.056ZM392.408 65.7999H397.232V38.7048H392.408V43.251V65.7999ZM397.323 67.6184H392.499V71.2553H397.323V67.6184ZM376.024 71.2553V67.2547L359.367 59.7081L342.71 67.2547V71.2553H376.024ZM379.574 95.259H386.037V87.6215H379.574V95.259ZM386.037 97.0775H379.574V102.442H386.037V97.0775ZM386.947 104.26H376.935C376.479 104.26 376.024 103.897 376.024 103.351V96.1683V84.0755C376.024 83.6209 376.388 83.1662 376.935 83.1662H386.947C387.402 83.1662 387.857 83.5299 387.857 84.0755V96.1683V103.351C387.857 103.897 387.402 104.26 386.947 104.26ZM357.001 95.259H363.463V87.6215H357.001V95.259ZM363.463 97.0775H357.001V102.442H363.463V97.0775ZM364.374 104.26H354.361C353.906 104.26 353.451 103.897 353.451 103.351V96.1683V84.0755C353.451 83.6209 353.815 83.1662 354.361 83.1662H364.374C364.829 83.1662 365.284 83.5299 365.284 84.0755V96.1683V103.351C365.284 103.897 364.829 104.26 364.374 104.26ZM334.427 95.259H340.89V87.6215H334.427V95.259ZM340.89 97.0775H334.427V102.442H340.89V97.0775ZM341.8 104.26H331.788C331.333 104.26 330.878 103.897 330.878 103.351V96.1683V84.0755C330.878 83.6209 331.242 83.1662 331.788 83.1662H341.8C342.255 83.1662 342.71 83.5299 342.71 84.0755V96.1683V103.351C342.71 103.897 342.255 104.26 341.8 104.26ZM380.12 115.353H376.206L376.57 117.808H376.935H386.947H387.311L387.675 115.353H383.761C383.306 115.353 382.851 114.989 382.851 114.444V113.898H381.03V114.444C381.03 114.989 380.575 115.353 380.12 115.353ZM376.024 119.536H375.751C375.296 119.536 374.932 119.172 374.841 118.808L374.295 114.626C374.295 114.535 374.295 114.535 374.295 114.444C374.295 113.989 374.659 113.535 375.205 113.535H379.21V112.989C379.21 112.534 379.574 112.08 380.12 112.08H383.761C384.216 112.08 384.671 112.444 384.671 112.989V113.535H388.676C389.131 113.535 389.587 113.898 389.587 114.444C389.587 114.535 389.587 114.535 389.587 114.626L388.949 118.808C388.858 119.263 388.494 119.536 388.039 119.536H387.766V130.81V137.993C387.766 138.448 387.402 138.902 386.856 138.902H376.844C376.388 138.902 375.933 138.538 375.933 137.993V130.81V119.536H376.024ZM379.574 129.901H386.037V122.263H379.574V129.901ZM386.037 131.719H379.574V137.084H386.037V131.719ZM357.001 129.901H363.463V122.263H357.001V129.901ZM363.463 131.719H357.001V137.084H363.463V131.719ZM364.374 138.811H354.361C353.906 138.811 353.451 138.448 353.451 137.902V130.719V119.445H353.178C352.723 119.445 352.359 119.081 352.268 118.717L351.631 114.535C351.631 114.444 351.631 114.444 351.631 114.353C351.631 113.898 351.995 113.444 352.541 113.444H356.546V112.898C356.546 112.444 356.91 111.989 357.456 111.989H361.37C361.825 111.989 362.28 112.353 362.28 112.898V113.444H366.103C366.558 113.444 367.013 113.807 367.013 114.353C367.013 114.444 367.013 114.444 367.013 114.535L366.376 118.717C366.285 119.172 365.921 119.445 365.466 119.445H365.193V130.719V137.902C365.284 138.448 364.829 138.811 364.374 138.811ZM354.361 117.717H364.374H364.738L365.102 115.262H361.37C360.915 115.262 360.46 114.898 360.46 114.353V113.807H358.366V114.353C358.366 114.808 358.002 115.262 357.456 115.262H353.542L353.906 117.717H354.361ZM334.427 137.084H340.89V131.719H334.427V137.084ZM340.89 129.901V122.263H334.427V129.901H340.89ZM335.793 114.444C335.793 114.898 335.429 115.353 334.883 115.353H330.969L331.333 117.808H331.697H341.709H342.073L342.437 115.353H338.523C338.068 115.353 337.613 114.989 337.613 114.444V113.898H335.793V114.444ZM330.878 119.536H330.605C330.149 119.536 329.785 119.172 329.694 118.808L329.057 114.626C329.057 114.535 329.057 114.535 329.057 114.444C329.057 113.989 329.421 113.535 329.967 113.535H333.972V112.989C333.972 112.534 334.336 112.08 334.883 112.08H338.523C338.979 112.08 339.434 112.444 339.434 112.989V113.535H343.439C343.894 113.535 344.349 113.898 344.349 114.444C344.349 114.535 344.349 114.535 344.349 114.626L343.712 118.808C343.621 119.263 343.257 119.536 342.801 119.536H342.528V130.81V137.993C342.528 138.448 342.164 138.902 341.618 138.902H331.606C331.151 138.902 330.696 138.538 330.696 137.993V130.81V119.536H330.878ZM397.323 80.7113H321.502V140.812H397.323V80.7113ZM321.411 78.8929H397.232V77.6199H321.411V78.8929ZM319.864 75.8924H320.592H398.234H398.962V73.0738H398.234H391.589H377.026H341.891H327.328H320.683H319.955V75.8924H319.864ZM319.864 145.358H320.592H398.234H398.962V142.539H398.234H320.592H319.864V145.358ZM356.364 180.636V175.09H339.707V180.636H356.364ZM356.364 173.362V160.36C356.364 159.905 356.728 159.451 357.274 159.451C357.729 159.451 358.184 159.814 358.184 160.36V173.362H363.463V154.177H332.698V160.633H334.427V173.362H337.977V160.36C337.977 159.905 338.341 159.451 338.888 159.451C339.343 159.451 339.798 159.814 339.798 160.36V173.362H356.364ZM358.184 175.18V180.727H363.463V175.18H358.184ZM337.886 180.636V175.09H334.336V180.636H337.886Z" fill="#432D61"/>
    <path fill-rule="evenodd" clip-rule="evenodd" d="M34.5104 61.4354H83.389V184H-8.90689V153.541H-16.2796V183.818H-19.3744V153.541H-22.4691V136.265H-8.90689V53.9797H34.5104V61.4354Z" fill="white"/>
    <path d="M19.0378 127.809C19.4929 127.809 19.948 128.173 19.948 128.718C19.948 129.173 19.584 129.627 19.0378 129.627H6.7499C6.29479 129.627 5.83969 129.264 5.83969 128.718C5.83969 128.264 6.20377 127.809 6.7499 127.809H19.0378ZM-4.53678 75.5282C-4.08168 75.5282 -3.62657 75.8919 -3.62657 76.4374C-3.62657 76.892 -3.99065 77.3466 -4.53678 77.3466H-8.90582C-9.36093 77.3466 -9.81604 76.9829 -9.81604 76.4374C-9.81604 75.9828 -9.45195 75.5282 -8.90582 75.5282H-4.53678ZM-4.53678 82.9839C-4.08168 82.9839 -3.62657 83.3476 -3.62657 83.8931C-3.62657 84.3477 -3.99065 84.8023 -4.53678 84.8023H-8.90582C-9.36093 84.8023 -9.81604 84.4386 -9.81604 83.8931C-9.81604 83.4385 -9.45195 82.9839 -8.90582 82.9839H-4.53678ZM-4.53678 90.4396C-4.08168 90.4396 -3.62657 90.8033 -3.62657 91.3488C-3.62657 91.8034 -3.99065 92.258 -4.53678 92.258H-8.90582C-9.36093 92.258 -9.81604 91.8943 -9.81604 91.3488C-9.81604 90.8942 -9.45195 90.4396 -8.90582 90.4396H-4.53678ZM-4.53678 97.9862C-4.08168 97.9862 -3.62657 98.3499 -3.62657 98.8954C-3.62657 99.35 -3.99065 99.8046 -4.53678 99.8046H-8.90582C-9.36093 99.8046 -9.81604 99.441 -9.81604 98.8954C-9.81604 98.4408 -9.45195 97.9862 -8.90582 97.9862H-4.53678ZM-4.53678 105.442C-4.08168 105.442 -3.62657 105.806 -3.62657 106.351C-3.62657 106.806 -3.99065 107.26 -4.53678 107.26H-8.90582C-9.36093 107.26 -9.81604 106.897 -9.81604 106.351C-9.81604 105.897 -9.45195 105.442 -8.90582 105.442H-4.53678ZM-4.53678 112.898C-4.08168 112.898 -3.62657 113.261 -3.62657 113.807C-3.62657 114.261 -3.99065 114.716 -4.53678 114.716H-8.90582C-9.36093 114.716 -9.81604 114.352 -9.81604 113.807C-9.81604 113.352 -9.45195 112.898 -8.90582 112.898H-4.53678ZM-4.53678 120.353C-4.08168 120.353 -3.62657 120.717 -3.62657 121.263C-3.62657 121.717 -3.99065 122.172 -4.53678 122.172H-8.90582C-9.36093 122.172 -9.81604 121.808 -9.81604 121.263C-9.81604 120.808 -9.45195 120.353 -8.90582 120.353H-4.53678ZM-4.53678 127.809C-4.08168 127.809 -3.62657 128.173 -3.62657 128.718C-3.62657 129.173 -3.99065 129.627 -4.53678 129.627H-8.90582C-9.36093 129.627 -9.81604 129.264 -9.81604 128.718C-9.81604 128.264 -9.45195 127.809 -8.90582 127.809H-4.53678ZM19.0378 60.5258C19.4929 60.5258 19.948 60.8895 19.948 61.4351C19.948 61.8897 19.584 62.3443 19.0378 62.3443H-8.90582C-9.36093 62.3443 -9.81604 61.9806 -9.81604 61.4351C-9.81604 60.9805 -9.45195 60.5258 -8.90582 60.5258H19.0378ZM19.0378 68.0725C19.4929 68.0725 19.948 68.4362 19.948 68.9817C19.948 69.4363 19.584 69.8909 19.0378 69.8909H-8.90582C-9.36093 69.8909 -9.81604 69.5272 -9.81604 68.9817C-9.81604 68.5271 -9.45195 68.0725 -8.90582 68.0725H19.0378ZM19.0378 75.5282C19.4929 75.5282 19.948 75.8919 19.948 76.4374C19.948 76.892 19.584 77.3466 19.0378 77.3466H6.7499C6.29479 77.3466 5.83969 76.9829 5.83969 76.4374C5.83969 75.9828 6.20377 75.5282 6.7499 75.5282H19.0378ZM19.0378 82.9839C19.4929 82.9839 19.948 83.3476 19.948 83.8931C19.948 84.3477 19.584 84.8023 19.0378 84.8023H6.7499C6.29479 84.8023 5.83969 84.4386 5.83969 83.8931C5.83969 83.4385 6.20377 82.9839 6.7499 82.9839H19.0378ZM19.0378 90.4396C19.4929 90.4396 19.948 90.8033 19.948 91.3488C19.948 91.8034 19.584 92.258 19.0378 92.258H6.7499C6.29479 92.258 5.83969 91.8943 5.83969 91.3488C5.83969 90.8942 6.20377 90.4396 6.7499 90.4396H19.0378ZM19.0378 97.9862C19.4929 97.9862 19.948 98.3499 19.948 98.8954C19.948 99.35 19.584 99.8046 19.0378 99.8046H6.7499C6.29479 99.8046 5.83969 99.441 5.83969 98.8954C5.83969 98.4408 6.20377 97.9862 6.7499 97.9862H19.0378ZM19.0378 105.442C19.4929 105.442 19.948 105.806 19.948 106.351C19.948 106.806 19.584 107.26 19.0378 107.26H6.7499C6.29479 107.26 5.83969 106.897 5.83969 106.351C5.83969 105.897 6.20377 105.442 6.7499 105.442H19.0378ZM19.0378 112.898C19.4929 112.898 19.948 113.261 19.948 113.807C19.948 114.261 19.584 114.716 19.0378 114.716H6.7499C6.29479 114.716 5.83969 114.352 5.83969 113.807C5.83969 113.352 6.20377 112.898 6.7499 112.898H19.0378ZM19.0378 120.353C19.4929 120.353 19.948 120.717 19.948 121.263C19.948 121.717 19.584 122.172 19.0378 122.172H6.7499C6.29479 122.172 5.83969 121.808 5.83969 121.263C5.83969 120.808 6.20377 120.353 6.7499 120.353H19.0378Z" fill="#E6E1F9"/>
    <path fill-rule="evenodd" clip-rule="evenodd" d="M71.4656 153.541V158.815H6.74923V184H-1.98885V158.815H-8.90649V153.541H71.4656Z" fill="#E6E1F9"/>
    <path fill-rule="evenodd" clip-rule="evenodd" d="M-1.9895 79.8035H6.74858V136.267H-1.9895V79.8035Z" fill="#E6E1F9"/>
    <path fill-rule="evenodd" clip-rule="evenodd" d="M36.9684 79.8035H71.4656V150.269H36.9684V79.8035Z" fill="#E6E1F9"/>
    <path fill-rule="evenodd" clip-rule="evenodd" d="M36.9684 135.901L71.4656 116.08V125.536L36.9684 145.448V135.901Z" fill="#CDCDF7"/>
    <path fill-rule="evenodd" clip-rule="evenodd" d="M36.9684 148.086L71.4656 128.264V133.629L42.7027 150.268H36.9684V148.086Z" fill="#CDCDF7"/>
    <path d="M20.0386 162.088C19.5835 162.088 19.1284 161.724 19.1284 161.179C19.1284 160.724 19.4924 160.27 20.0386 160.27H22.4962C22.9513 160.27 23.4064 160.633 23.4064 161.179C23.4064 161.27 23.4064 161.361 23.4064 161.452L21.677 168.362C21.5859 168.816 21.0398 169.089 20.5847 168.998C20.1296 168.907 19.8565 168.362 19.9476 167.907L21.4039 162.088H20.0386ZM10.8454 162.088C10.3903 162.088 9.93518 161.724 9.93518 161.179C9.93518 160.724 10.2993 160.27 10.8454 160.27H12.5748C13.0299 160.27 13.485 160.633 13.485 161.179V168.18C13.485 168.634 13.1209 169.089 12.5748 169.089C12.1197 169.089 11.6646 168.725 11.6646 168.18V162.088H10.8454ZM15.9426 160.27H17.2169C17.581 160.27 17.9451 160.451 18.2181 160.724C18.4912 160.997 18.6733 161.361 18.6733 161.724V167.543C18.6733 167.907 18.4912 168.362 18.2181 168.544C17.9451 168.816 17.581 168.998 17.2169 168.998H15.9426C15.5785 168.998 15.1234 168.816 14.9414 168.544L14.8503 168.453C14.6683 168.18 14.4863 167.816 14.4863 167.453V161.633C14.4863 161.27 14.6683 160.906 14.9414 160.633C15.2144 160.451 15.5785 160.27 15.9426 160.27ZM16.9438 162.088H16.3067V167.271H16.9438V162.088Z" fill="#432D61"/>
    <path fill-rule="evenodd" clip-rule="evenodd" d="M6.74884 153.541V184H-1.98924V158.815H-4.53784V153.541H6.74884Z" fill="#E6E1F9"/>
    <path d="M-3.62726 184C-3.62726 184.455 -3.99134 184.909 -4.53747 184.909C-4.99258 184.909 -5.44769 184.545 -5.44769 184V180.727V161.178V154.45H-7.99629V184C-7.99629 184.455 -8.36038 184.909 -8.90651 184.909C-9.36162 184.909 -9.81673 184.545 -9.81673 184V154.45H-15.369V184C-15.369 184.455 -15.7331 184.909 -16.2793 184.909C-16.7344 184.909 -17.1895 184.545 -17.1895 184V154.45H-18.4638V184C-18.4638 184.455 -18.8279 184.909 -19.374 184.909C-19.8291 184.909 -20.2842 184.545 -20.2842 184V154.45H-22.5598C-23.0149 154.45 -23.47 154.086 -23.47 153.541V136.265C-23.47 135.811 -23.1059 135.356 -22.5598 135.356H-9.81673V53.9798C-9.81673 53.5252 -9.45264 53.0706 -8.90651 53.0706H34.5108C34.9659 53.0706 35.421 53.4343 35.421 53.9798V60.5263H83.3894C83.8445 60.5263 84.2996 60.89 84.2996 61.4355V183.909C84.2996 184.364 83.9355 184.818 83.3894 184.818C82.9343 184.818 82.4792 184.455 82.4792 183.909V62.3448H34.5108H23.4062V136.174C23.4062 136.629 23.0421 137.084 22.4959 137.084H6.7492H-4.53747H-8.90651H-21.6495V152.631H-19.374H-16.2793H-8.90651H-4.53747H6.7492H34.4198H71.3746C71.8297 152.631 72.2848 152.995 72.2848 153.541V161.178V176.362V184C72.2848 184.455 71.9207 184.909 71.3746 184.909C70.9194 184.909 70.4643 184.545 70.4643 184V177.272H35.421V184C35.421 184.455 35.0569 184.909 34.5108 184.909C34.0557 184.909 33.6006 184.545 33.6006 184V176.362V168.725V161.087V154.359H7.65942V161.087V180.636V183.909C7.65942 184.364 7.29533 184.818 6.7492 184.818C6.2941 184.818 5.83899 184.455 5.83899 183.909V181.545H-2.07989V184.818H-3.71828V184H-3.62726ZM71.4656 151.177H64.0018H41.9746H34.5108C34.0557 151.177 33.6006 150.813 33.6006 150.267V113.807V106.352V76.4378C33.6006 75.9832 33.9647 75.5286 34.5108 75.5286H41.9746H64.0018H71.4656C71.9207 75.5286 72.3758 75.8923 72.3758 76.4378V113.807V136.174V150.177C72.3758 150.722 71.9207 151.177 71.4656 151.177ZM36.9684 149.358H40.9733V114.716H36.9684V149.358ZM42.8848 149.358H63.0916V136.265V114.716H42.8848V149.358ZM64.912 149.358H70.5554V137.175H64.912V149.358ZM70.5554 135.356V114.716H64.912V135.356H70.5554ZM70.5554 112.898V79.802H64.912V106.261V112.807H70.5554V112.898ZM63.0916 79.802H42.8848V105.351H63.0916V79.802ZM41.0644 79.802H37.0594V105.351H41.0644V79.802ZM36.9684 107.261V112.989H40.9733V107.261H36.9684ZM63.0916 107.261H42.8848V112.989H63.0916V107.261ZM-5.44769 135.356V106.352V76.4378C-5.44769 75.9832 -5.0836 75.5286 -4.53747 75.5286H6.7492C7.20431 75.5286 7.65942 75.8923 7.65942 76.4378V106.352V135.356H21.4947V61.4355C21.4947 60.9809 21.8588 60.5263 22.4049 60.5263H33.5096V54.7981H-7.99629V135.265H-5.44769V135.356ZM5.93002 135.356V107.261H-1.98887V135.356H5.93002ZM5.93002 105.442V79.802H-1.98887V105.351H5.93002V105.442ZM70.5554 175.453V169.634H35.421V175.453H70.5554ZM70.5554 167.816V161.997H35.421V167.816H70.5554ZM70.5554 160.269V154.45H35.421V160.269H70.5554ZM-1.98887 158.814V160.269H5.93002V158.814H-1.98887ZM5.93002 179.817V162.087H-1.98887V179.817H5.93002Z" fill="#432D61"/>
    <path fill-rule="evenodd" clip-rule="evenodd" d="M273.261 111.261V146.358H266.708V171.362H268.073V184.909H136.547V171.362H137.912V132.628L130.175 138.448C129.811 138.72 129.356 138.629 129.174 138.266L127.445 135.902C127.171 135.538 127.262 135.083 127.627 134.902L176.05 98.4413L192.98 111.171H205.541V106.988H206.724V98.805H205.541V95.5318H206.724V92.1676H214.097V95.5318H215.28V98.8959H214.097V107.079H215.28V111.261H273.261Z" fill="white"/>
    <path d="M206.451 120.81C206.451 121.265 206.087 121.719 205.541 121.719C205.085 121.719 204.63 121.356 204.63 120.81V116.264C204.63 115.809 204.994 115.355 205.541 115.355C205.996 115.355 206.451 115.718 206.451 116.264V120.81Z" fill="#E6E1F9"/>
    <path d="M197.986 114.444C197.986 114.899 197.622 115.353 197.075 115.353C196.62 115.353 196.165 114.989 196.165 114.444V111.262C196.165 110.807 196.529 110.352 197.075 110.352C197.531 110.352 197.986 110.716 197.986 111.262V114.444Z" fill="#E6E1F9"/>
    <path d="M265.706 138.539C265.706 138.993 265.342 139.448 264.795 139.448C264.34 139.448 263.885 139.084 263.885 138.539V111.262C263.885 110.807 264.249 110.352 264.795 110.352C265.251 110.352 265.706 110.716 265.706 111.262V138.539Z" fill="#E6E1F9"/>
    <path d="M257.241 138.539C257.241 138.993 256.877 139.448 256.331 139.448C255.876 139.448 255.421 139.084 255.421 138.539V111.262C255.421 110.807 255.785 110.352 256.331 110.352C256.786 110.352 257.241 110.716 257.241 111.262V138.539Z" fill="#E6E1F9"/>
    <path d="M248.776 138.539C248.776 138.993 248.412 139.448 247.866 139.448C247.411 139.448 246.956 139.084 246.956 138.539V111.262C246.956 110.807 247.32 110.352 247.866 110.352C248.321 110.352 248.776 110.716 248.776 111.262V138.539Z" fill="#E6E1F9"/>
    <path d="M240.31 138.539C240.31 138.993 239.946 139.448 239.4 139.448C238.945 139.448 238.49 139.084 238.49 138.539V111.262C238.49 110.807 238.854 110.352 239.4 110.352C239.855 110.352 240.31 110.716 240.31 111.262V138.539Z" fill="#E6E1F9"/>
    <path d="M231.845 138.539C231.845 138.993 231.481 139.448 230.935 139.448C230.479 139.448 230.024 139.084 230.024 138.539V111.262C230.024 110.807 230.388 110.352 230.935 110.352C231.39 110.352 231.845 110.716 231.845 111.262V138.539Z" fill="#E6E1F9"/>
    <path d="M223.38 133.538C223.38 133.992 223.016 134.447 222.47 134.447C222.015 134.447 221.56 134.083 221.56 133.538V111.262C221.56 110.807 221.924 110.352 222.47 110.352C222.925 110.352 223.38 110.716 223.38 111.262V133.538Z" fill="#E6E1F9"/>
    <path d="M214.916 127.175C214.916 127.629 214.552 128.084 214.006 128.084C213.551 128.084 213.095 127.72 213.095 127.175V116.264C213.095 115.809 213.46 115.355 214.006 115.355C214.461 115.355 214.916 115.718 214.916 116.264V127.175Z" fill="#E6E1F9"/>
    <path fill-rule="evenodd" clip-rule="evenodd" d="M177.232 115.991C180.873 115.991 183.786 118.9 183.786 122.537C183.786 126.174 180.873 129.083 177.232 129.083C173.592 129.083 170.679 126.174 170.679 122.537C170.679 118.9 173.592 115.991 177.232 115.991ZM266.707 146.359V150.814H231.208L234.303 157.906L231.663 161.361H227.749V184.728H215.371V171.181H214.005V136.085L201.444 126.629L184.241 139.54V160.907L173.501 135.357L175.958 138.63L184.241 132.357L199.169 121.173L214.096 132.357L221.833 138.176L224.473 134.721L227.567 141.813H273.26V146.177H266.707V146.359ZM166.765 181.546H157.754V178.091H166.765V181.546ZM193.616 184.819H187.791V171.272L193.616 184.819ZM189.156 171.363H193.98V153.815C195.619 152.633 197.257 151.814 198.987 151.269V166.362H201.717V150.723C204.084 150.45 206.45 150.723 209.09 151.632V138.994C201.535 134.539 194.982 134.812 189.156 138.994V171.363ZM172.044 166.362H152.566V142.904H172.044V166.362ZM137.911 132.629L175.958 103.989L195.71 118.9L193.252 120.719L178.234 109.444L173.956 112.626C172.226 113.081 170.77 114.263 169.86 115.718L137.82 139.812V132.629H137.911Z" fill="#E6E1F9"/>
    <path d="M165.946 178.182V180.728H157.845V178.182H165.946ZM193.799 170.454V142.904H204.357V170.454H193.799ZM201.718 167.272C202.173 167.272 202.628 166.908 202.628 166.362V146.359C202.628 145.905 202.264 145.45 201.718 145.45H196.439C195.983 145.45 195.528 145.814 195.528 146.359V166.362C195.528 166.817 195.892 167.272 196.439 167.272H201.718ZM198.987 165.453H197.349V151.906C197.895 151.633 198.441 151.451 198.987 151.269V165.453ZM206.178 170.454V141.995C206.178 141.54 205.814 141.086 205.268 141.086H192.889C192.434 141.086 191.979 141.449 191.979 141.995V170.454H189.976V139.904C191.159 138.904 192.525 138.085 194.072 137.54C195.619 136.903 197.349 136.631 199.078 136.631C200.808 136.631 202.537 136.994 204.084 137.54C205.541 138.085 206.906 138.904 208.18 139.904V170.454H206.178ZM155.297 173.818C154.842 173.818 154.387 174.182 154.387 174.727V181.547C154.387 182.001 154.751 182.456 155.297 182.456H166.765C167.221 182.456 167.676 182.092 167.676 181.547V174.727C167.676 174.273 167.312 173.818 166.765 173.818H155.297ZM209.546 173.818H188.702V172.272H189.157H192.889H205.268H209H209.455V173.818H209.546ZM209.546 177.182H188.702V175.637H209.546V177.182ZM209.546 180.637H188.702V179.001H209.546V180.637ZM154.387 165.453H152.566V142.904H154.387V165.453ZM167.676 142.904H171.135V165.453H167.676V142.904ZM165.946 165.453H156.207V142.904H165.946V165.453ZM150.018 138.54C149.562 138.54 149.107 138.904 149.107 139.449V166.362C149.107 166.817 149.471 167.272 150.018 167.272H155.297H166.765H172.045C172.5 167.272 172.955 166.908 172.955 166.362V139.449C172.955 138.995 172.591 138.54 172.045 138.54H166.765H155.297H150.018ZM175.868 112.081C173.865 112.081 171.954 112.9 170.588 114.263C169.223 115.627 168.404 117.446 168.404 119.537C168.404 121.537 169.223 123.447 170.588 124.811C171.954 126.174 173.774 126.993 175.868 126.993C177.87 126.993 179.782 126.174 181.147 124.811C182.512 123.447 183.331 121.628 183.331 119.537C183.331 117.537 182.512 115.627 181.147 114.263C179.782 112.9 177.961 112.081 175.868 112.081ZM183.331 134.448V170.454H182.876H138.822V133.085L175.959 105.08L193.981 118.719L173.319 134.267C172.955 134.539 172.773 134.903 172.682 135.358C172.591 135.812 172.682 136.176 172.955 136.54L174.684 138.904C174.957 139.267 175.322 139.449 175.777 139.54C176.232 139.631 176.596 139.54 176.96 139.267L183.331 134.448ZM214.279 131.721L199.624 120.719C199.26 120.446 198.805 120.446 198.532 120.719L183.696 131.903C183.696 131.903 183.604 131.903 183.604 131.993L176.05 137.631L174.502 135.539L195.983 119.355L199.078 117.082L223.654 135.539L222.107 137.631L214.734 132.084C214.643 131.903 214.461 131.812 214.279 131.721ZM209.637 138.813C208.18 137.54 206.542 136.54 204.722 135.812C202.901 135.085 200.99 134.721 199.078 134.721C197.167 134.721 195.255 135.085 193.435 135.812C191.614 136.54 189.976 137.54 188.52 138.813C188.338 138.995 188.156 139.267 188.156 139.54V170.545H187.7H185.061V133.175L199.078 122.628L213.096 133.175V142.086V146.45V170.545H210.456H210.001V139.54C210.001 139.176 209.819 138.904 209.637 138.813ZM257.514 162.998H223.199V154.27H257.514V162.998ZM257.514 173.454H223.199V171.363V164.726H257.514V171.363V173.454ZM272.351 142.904V145.45H266.616H214.825V142.904H272.351ZM265.797 147.269V170.454H259.335V163.817V153.269C259.335 152.815 258.97 152.36 258.424 152.36H222.289C221.834 152.36 221.378 152.724 221.378 153.269V163.817V170.454H215.371H214.916V147.269H265.797ZM206.36 97.9882V96.4425H206.633H214.006H214.279V97.9882H214.006H206.633H206.36ZM213.096 94.624H207.452V93.0784H213.096V94.624ZM214.279 107.99V111.263V115.355H206.36V111.263V107.99H206.633H214.006H214.279ZM213.096 106.171H207.452V99.7157H213.096V106.171ZM192.343 112.081L197.622 115.991L195.528 117.628L176.505 103.353C176.141 103.08 175.686 103.08 175.413 103.353L137.365 131.903C137.365 131.903 137.274 131.903 137.274 131.993L129.72 137.631L128.172 135.539L175.868 99.6248L192.343 112.081C192.343 111.99 192.343 111.99 192.343 112.081ZM195.528 112.172H204.539V116.264C204.539 116.718 204.904 117.173 205.45 117.173H215.189C215.644 117.173 216.099 116.809 216.099 116.264V112.172H272.351V141.086H214.825V134.357L221.105 139.085C221.47 139.358 221.925 139.449 222.289 139.358C222.744 139.267 223.108 139.085 223.381 138.722L225.11 136.358C225.383 135.994 225.474 135.539 225.383 135.176C225.292 134.721 225.11 134.357 224.746 134.085L199.533 115.082L195.528 112.172ZM170.77 121.719C171.135 118.537 173.865 115.991 177.233 115.991C178.689 115.991 179.964 116.446 181.056 117.264C181.329 117.9 181.511 118.628 181.511 119.446C181.511 120.992 180.874 122.356 179.873 123.447C178.871 124.447 177.415 125.083 175.868 125.083C174.32 125.083 172.955 124.447 171.863 123.447C171.408 122.901 171.044 122.356 170.77 121.719ZM137.457 184.82V172.182H137.912H181.966V184.82C181.966 185.274 182.33 185.729 182.876 185.729C183.331 185.729 183.787 185.365 183.787 184.82V172.182H184.242H186.881V174.636V178.001V181.456V184.729C186.881 185.184 187.245 185.638 187.792 185.638C188.247 185.638 188.702 185.274 188.702 184.729V182.365H209.546V184.729C209.546 185.184 209.91 185.638 210.456 185.638C210.911 185.638 211.366 185.274 211.366 184.729V181.456V178.001V174.636V172.182H214.006H214.461V184.82C214.461 185.274 214.825 185.729 215.371 185.729C215.826 185.729 216.281 185.365 216.281 184.82V172.182H221.378V174.273V184.82C221.378 185.274 221.743 185.729 222.289 185.729C222.744 185.729 223.199 185.365 223.199 184.82V175.182H257.514V184.82C257.514 185.274 257.878 185.729 258.424 185.729C258.879 185.729 259.335 185.365 259.335 184.82V174.273V172.182H266.707H267.162V184.82C267.162 185.274 267.526 185.729 268.073 185.729C268.528 185.729 268.983 185.365 268.983 184.82V171.272C268.983 170.818 268.619 170.363 268.073 170.363H267.617V147.178H273.352C273.807 147.178 274.262 146.814 274.262 146.268V141.904V111.172C274.262 110.717 273.898 110.263 273.352 110.263H216.099V106.99C216.099 106.535 215.735 106.08 215.189 106.08H214.916V99.6248H215.189C215.644 99.6248 216.099 99.2611 216.099 98.7156V95.5333C216.099 95.0787 215.735 94.624 215.189 94.624H214.916V92.1691C214.916 91.7145 214.552 91.2599 214.006 91.2599H206.633C206.178 91.2599 205.723 91.6236 205.723 92.1691V94.624H205.45C204.995 94.624 204.539 94.9877 204.539 95.5333V98.8974C204.539 99.352 204.904 99.8067 205.45 99.8067H205.723V106.262H205.45C204.995 106.262 204.539 106.626 204.539 107.171V110.445H193.162L176.505 97.8973C176.232 97.6245 175.777 97.6245 175.413 97.8973L126.989 134.357C126.625 134.63 126.443 134.994 126.352 135.449C126.261 135.903 126.352 136.267 126.625 136.631L128.354 138.995C128.627 139.358 128.992 139.54 129.447 139.631C129.902 139.722 130.266 139.631 130.63 139.358L136.91 134.63V170.636H136.455C136 170.636 135.545 171 135.545 171.545V185.093C135.545 185.547 135.909 186.002 136.455 186.002C137.001 185.729 137.457 185.365 137.457 184.82ZM199.806 115.445C199.715 115.355 199.715 115.355 199.624 115.264L199.806 115.445ZM176.687 97.9882C176.596 97.8973 176.596 97.8973 176.505 97.8064L176.687 97.9882Z" fill="#432D61"/>
    <path d="M197.348 151.904C197.894 151.631 198.44 151.449 198.986 151.268V165.452H197.348V151.904Z" fill="#E6E1F9"/>
    <path d="M66.0951 38.7051C65.64 38.7051 65.1849 38.3414 65.1849 37.7959C65.1849 37.3412 65.549 36.8866 66.0951 36.8866H92.8555C93.3106 36.8866 93.7657 37.2503 93.7657 37.7959C93.7657 38.2505 93.4016 38.7051 92.8555 38.7051H66.0951ZM268.254 38.7051C267.799 38.7051 267.344 38.3414 267.344 37.7959C267.344 37.3412 267.708 36.8866 268.254 36.8866H288.916C289.371 36.8866 289.826 37.2503 289.826 37.7959C289.826 38.2505 289.462 38.7051 288.916 38.7051H268.254ZM223.29 29.34C224.473 24.7939 227.477 21.7025 230.844 20.1568C232.574 19.4294 234.303 19.0657 236.124 19.1566C237.944 19.2475 239.673 19.7931 241.13 20.8842C243.86 22.7026 245.863 25.9759 246.318 30.8857C247.592 29.7946 249.231 29.0672 250.96 28.7035C252.781 28.2489 254.783 28.2489 256.603 28.7035C258.424 29.1582 260.153 30.1583 261.337 31.7949C262.429 33.2497 263.066 35.25 263.066 37.7959C263.066 38.2505 262.702 38.7051 262.156 38.7051H210.182C209.727 38.7051 209.272 38.3414 209.272 37.7959C209.09 34.4317 210 31.704 211.457 29.9765C212.094 29.1582 212.913 28.5217 213.823 28.0671C214.733 27.6125 215.735 27.3397 216.736 27.3397C218.829 27.1579 221.105 27.7943 223.29 29.34ZM231.572 21.7934C228.296 23.2482 225.565 26.4305 224.746 31.0675C224.746 31.2494 224.655 31.3403 224.564 31.5222C224.291 31.8859 223.654 31.9768 223.29 31.6131C221.105 29.7946 218.829 28.9763 216.918 29.0672C216.099 29.0672 215.371 29.34 214.733 29.6128C214.096 29.9765 213.459 30.4311 212.913 31.0675C211.821 32.4314 211.184 34.3408 211.093 36.8866H261.246C261.155 35.1591 260.608 33.8862 259.88 32.886C258.97 31.6131 257.605 30.8857 256.148 30.522C254.692 30.1583 252.963 30.1583 251.415 30.522C249.322 30.9766 247.41 32.0677 246.227 33.6134C246.045 33.7952 245.772 33.9771 245.499 33.9771C245.044 33.9771 244.589 33.6134 244.589 33.0679C244.589 27.7034 242.677 24.2483 240.129 22.4298C238.854 21.6115 237.489 21.1569 236.033 21.066C234.576 20.8842 233.029 21.1569 231.572 21.7934ZM205.085 38.7051H191.796C191.341 38.7051 190.886 38.3414 190.886 37.7959C190.613 34.7045 191.796 32.6132 193.616 31.4312C194.527 30.8857 195.528 30.522 196.62 30.4311C197.712 30.3402 198.805 30.4311 199.897 30.7948C202.719 31.6131 205.358 33.9771 205.995 37.614C206.086 38.0686 205.722 38.5233 205.267 38.6142C205.176 38.7051 205.176 38.7051 205.085 38.7051ZM192.706 36.8866H203.993C203.265 34.6136 201.444 33.1588 199.442 32.5223C198.623 32.2496 197.712 32.1586 196.893 32.2496C196.074 32.3405 195.346 32.5223 194.709 32.9769C193.434 33.7043 192.706 34.9772 192.706 36.8866ZM121.982 18.702C121.527 18.702 121.072 18.3383 121.072 17.7928C121.072 17.3382 121.436 16.8835 121.982 16.8835H130.72C131.54 14.5195 132.996 12.8829 134.725 11.7918C136.091 10.9735 137.638 10.6098 139.186 10.6098C140.733 10.6098 142.28 11.0645 143.555 11.9737C145.102 12.9738 146.467 14.7014 147.104 16.8835H175.867C176.322 16.8835 176.777 17.2472 176.777 17.7928C176.777 18.2474 176.413 18.702 175.867 18.702H139.459C139.003 18.702 138.548 18.3383 138.548 17.7928C138.548 17.3382 138.912 16.8835 139.459 16.8835H145.375C144.829 15.3378 143.828 14.2468 142.735 13.4285C141.734 12.792 140.551 12.4283 139.277 12.3374C138.093 12.3374 136.819 12.6101 135.727 13.2466C134.27 14.1558 132.996 15.7015 132.359 17.8837C132.268 18.2474 131.904 18.6111 131.449 18.6111H121.982V18.702ZM182.421 18.702C181.966 18.702 181.511 18.3383 181.511 17.7928C181.511 17.3382 181.875 16.8835 182.421 16.8835H188.974C189.429 16.8835 189.885 17.2472 189.885 17.7928C189.885 18.2474 189.52 18.702 188.974 18.702H182.421ZM100.501 11.0645C99.5001 6.60922 97.1335 3.88152 94.3118 2.6086C92.8555 1.97213 91.3081 1.69936 89.7607 1.88121C88.2134 2.06306 86.666 2.6086 85.3917 3.51783C82.8431 5.33629 80.8406 8.5186 80.6586 12.9738C80.6586 13.4285 80.2035 13.8831 79.7484 13.7921C79.4753 13.7921 79.2022 13.6103 79.0202 13.4285C77.6549 11.7009 75.7434 10.6098 73.7409 10.2461C72.8307 10.0643 71.9205 10.1552 71.0103 10.3371C70.1001 10.5189 69.2809 10.9735 68.5527 11.5191C67.1874 12.6101 66.0951 14.3377 65.549 16.7926H114.337C114.337 14.2468 113.608 12.3374 112.516 10.9735C111.97 10.3371 111.424 9.88245 110.696 9.51876C109.968 9.15506 109.239 8.97322 108.42 8.97322C106.418 8.88229 104.233 9.7006 101.958 11.5191C101.594 11.7918 101.047 11.7918 100.683 11.4281C100.592 11.3372 100.501 11.2463 100.501 11.0645ZM95.04 1.0629C97.9527 2.42675 100.501 5.15445 101.867 9.42783C104.142 7.88214 106.418 7.24568 108.42 7.3366C109.512 7.42752 110.514 7.60937 111.424 8.06399C112.334 8.5186 113.153 9.15506 113.79 9.97337C115.247 11.7918 116.157 14.4286 115.975 17.7928C115.975 18.2474 115.611 18.702 115.065 18.702H64.2747C64.1837 18.702 64.1837 18.702 64.0926 18.702C63.6375 18.6111 63.2734 18.1565 63.3645 17.7018C63.9106 14.1558 65.458 11.7009 67.2784 10.2461C68.2796 9.51876 69.3719 8.97322 70.4642 8.70045C71.5564 8.42768 72.7397 8.42768 73.923 8.60952C75.7434 8.88229 77.4728 9.7006 78.9292 10.9735C79.5663 6.88199 81.5688 3.88152 84.2084 2.06306C85.7558 0.971979 87.5762 0.335517 89.4877 0.153671C91.3991 -0.0281758 93.3106 0.244594 95.04 1.0629ZM17.4896 31.2494C17.0345 31.2494 16.5793 30.8857 16.5793 30.3402C16.5793 29.8855 16.9434 29.4309 17.4896 29.4309H29.3224C30.2326 26.7942 31.871 24.8848 33.7824 23.7028C35.2388 22.7935 36.8772 22.3389 38.6066 22.4298C40.245 22.4298 41.8834 22.9754 43.3397 23.8846C45.0691 25.0666 46.5255 26.8851 47.3447 29.4309H50.0753C50.5304 29.4309 50.9855 29.7946 50.9855 30.3402C50.9855 30.7948 50.6214 31.2494 50.0753 31.2494H40.7001C40.245 31.2494 39.7899 30.8857 39.7899 30.3402C39.7899 29.8855 40.154 29.4309 40.7001 29.4309H45.4332C44.7961 27.6125 43.6128 26.2486 42.3385 25.3394C41.1552 24.612 39.8809 24.1574 38.6066 24.1574C37.3323 24.1574 35.967 24.5211 34.7837 25.2485C33.0543 26.2486 31.6889 28.0671 30.9608 30.522C30.8697 30.8857 30.5057 31.2494 30.0506 31.2494H17.4896ZM56.0827 31.2494C55.6276 31.2494 55.1725 30.8857 55.1725 30.3402C55.1725 29.8855 55.5366 29.4309 56.0827 29.4309H75.7434C76.1985 29.4309 76.6536 29.7946 76.6536 30.3402C76.6536 30.7948 76.2895 31.2494 75.7434 31.2494H56.0827ZM98.7719 38.7051C98.3168 38.7051 97.8617 38.3414 97.8617 37.7959C97.8617 37.3412 98.2258 36.8866 98.7719 36.8866H105.507C105.963 36.8866 106.418 37.2503 106.418 37.7959C106.418 38.2505 106.054 38.7051 105.507 38.7051H98.7719Z" fill="#E8E8E8"/>
    <path d="M-53.507 185.726C-53.9621 185.726 -54.4172 185.362 -54.4172 184.817C-54.4172 184.362 -54.0531 183.908 -53.507 183.908H429.09C429.545 183.908 430 184.271 430 184.817C430 185.272 429.636 185.726 429.09 185.726H-53.507Z" fill="#432D61"/>
    <path fill-rule="evenodd" clip-rule="evenodd" d="M64.8623 83.6086H111.409C115.953 83.6086 119.721 87.3718 119.721 91.9099V113.936C119.721 118.474 115.953 122.237 111.409 122.237H64.8623C60.3185 122.237 56.5504 118.474 56.5504 113.936V91.9099C56.5504 87.2611 60.2076 83.6086 64.8623 83.6086Z" fill="white"/>
    <path fill-rule="evenodd" clip-rule="evenodd" d="M64.862 87.15H111.409C113.958 87.15 116.174 89.253 116.174 91.9094V113.936C116.174 116.481 114.068 118.695 111.409 118.695H64.862C62.3131 118.695 60.0966 116.592 60.0966 113.936V91.9094C60.0966 89.253 62.2022 87.15 64.862 87.15Z" fill="#431AD8"/>
    <path d="M76.6497 101.331V92.7868H82.6137V94.5508H78.8697V96.1108H82.3737V97.8628H78.8697V101.331H76.6497ZM87.7021 101.439C86.8221 101.439 86.0581 101.259 85.4101 100.899C84.7701 100.539 84.2741 100.031 83.9221 99.3748C83.5781 98.7188 83.4061 97.9428 83.4061 97.0468C83.4061 96.1588 83.5821 95.3868 83.9341 94.7308C84.2861 94.0748 84.7821 93.5708 85.4221 93.2188C86.0621 92.8588 86.8221 92.6788 87.7021 92.6788C88.5821 92.6788 89.3381 92.8588 89.9701 93.2188C90.6101 93.5708 91.1021 94.0748 91.4461 94.7308C91.7981 95.3868 91.9741 96.1588 91.9741 97.0468C91.9741 97.9428 91.7981 98.7188 91.4461 99.3748C91.1021 100.031 90.6101 100.539 89.9701 100.899C89.3381 101.259 88.5821 101.439 87.7021 101.439ZM87.7021 99.7228C88.3261 99.7228 88.8221 99.4988 89.1901 99.0508C89.5661 98.6028 89.7541 97.9348 89.7541 97.0468C89.7541 96.1668 89.5661 95.5068 89.1901 95.0668C88.8221 94.6188 88.3261 94.3948 87.7021 94.3948C87.0781 94.3948 86.5821 94.6148 86.2141 95.0548C85.8461 95.4948 85.6621 96.1588 85.6621 97.0468C85.6621 97.9428 85.8461 98.6148 86.2141 99.0628C86.5821 99.5028 87.0781 99.7228 87.7021 99.7228ZM93.2904 101.331V92.7868H97.2624C98.3024 92.7868 99.0784 93.0108 99.5904 93.4588C100.11 93.9068 100.37 94.5388 100.37 95.3548C100.37 96.1228 100.098 96.7468 99.5544 97.2268C99.0184 97.6988 98.2704 97.9348 97.3104 97.9348L98.3424 97.7188C98.6304 97.7188 98.8944 97.8108 99.1344 97.9948C99.3824 98.1708 99.5744 98.4348 99.7104 98.7868L100.718 101.331H98.3304L97.2264 98.4868C97.1544 98.3108 97.0344 98.1868 96.8664 98.1148C96.6984 98.0428 96.5184 98.0068 96.3264 98.0068H95.5104V101.331H93.2904ZM95.4864 96.3268H96.9024C97.3904 96.3268 97.7384 96.2548 97.9464 96.1108C98.1624 95.9588 98.2704 95.7268 98.2704 95.4148C98.2704 95.0868 98.1624 94.8508 97.9464 94.7068C97.7384 94.5628 97.3904 94.4908 96.9024 94.4908H95.4864V96.3268ZM76.6813 112.439C76.2573 112.439 75.8333 112.403 75.4093 112.331C74.9853 112.251 74.5853 112.143 74.2093 112.007C73.8413 111.863 73.5253 111.695 73.2613 111.503L73.9693 109.907C74.3853 110.179 74.8253 110.383 75.2893 110.519C75.7613 110.655 76.2333 110.723 76.7053 110.723C77.1933 110.723 77.5613 110.655 77.8093 110.519C78.0653 110.383 78.1933 110.199 78.1933 109.967C78.1933 109.831 78.1493 109.711 78.0613 109.607C77.9733 109.495 77.8093 109.395 77.5693 109.307C77.3293 109.211 76.9853 109.115 76.5373 109.019C75.9213 108.899 75.4093 108.759 75.0013 108.599C74.6013 108.431 74.2853 108.243 74.0533 108.035C73.8293 107.819 73.6693 107.579 73.5733 107.315C73.4853 107.051 73.4413 106.755 73.4413 106.427C73.4413 105.907 73.5893 105.439 73.8853 105.023C74.1813 104.607 74.5933 104.279 75.1213 104.039C75.6493 103.799 76.2653 103.679 76.9693 103.679C77.3773 103.679 77.7813 103.719 78.1813 103.799C78.5813 103.871 78.9493 103.979 79.2853 104.123C79.6293 104.259 79.9093 104.423 80.1253 104.615L79.4293 106.211C79.0453 105.939 78.6453 105.735 78.2293 105.599C77.8133 105.463 77.4013 105.395 76.9933 105.395C76.5853 105.395 76.2573 105.475 76.0093 105.635C75.7613 105.787 75.6373 105.995 75.6373 106.259C75.6373 106.387 75.6773 106.503 75.7573 106.607C75.8453 106.711 76.0093 106.811 76.2493 106.907C76.4893 106.995 76.8533 107.091 77.3413 107.195C77.9333 107.315 78.4253 107.459 78.8173 107.627C79.2173 107.795 79.5293 107.987 79.7533 108.203C79.9853 108.411 80.1493 108.647 80.2453 108.911C80.3413 109.167 80.3893 109.451 80.3893 109.763C80.3893 110.315 80.2453 110.791 79.9573 111.191C79.6693 111.591 79.2493 111.899 78.6973 112.115C78.1453 112.331 77.4733 112.439 76.6813 112.439ZM82.7192 112.331H80.4632L84.4592 103.787H86.2352L90.2432 112.331H88.0232L85.1312 105.599H85.6232L82.7192 112.331ZM82.3112 110.567L83.1872 108.875H87.3752L88.2392 110.567H82.3112ZM90.7298 112.331V103.787H92.9858V110.507H96.5978V112.331H90.7298ZM97.679 112.331V103.787H103.775V105.515H99.875V107.123H103.523V108.851H99.875V110.603H103.775V112.331H97.679Z" fill="white"/>
    <path fill-rule="evenodd" clip-rule="evenodd" d="M291.278 89.3631H337.824C342.368 89.3631 346.136 93.1264 346.136 97.6644V108.179C346.136 112.718 342.368 116.481 337.824 116.481H291.278C286.734 116.481 282.966 112.718 282.966 108.179V97.6644C282.966 93.1264 286.734 89.3631 291.278 89.3631Z" fill="white"/>
    <path fill-rule="evenodd" clip-rule="evenodd" d="M291.277 93.0159H337.824C340.373 93.0159 342.589 95.1189 342.589 97.7754V108.18C342.589 110.725 340.484 112.939 337.824 112.939H291.277C288.728 112.939 286.512 110.836 286.512 108.18V97.6647C286.622 95.1189 288.728 93.0159 291.277 93.0159Z" fill="#431AD8"/>
    <path d="M302.6 107.091C302.176 107.091 301.752 107.055 301.328 106.983C300.904 106.903 300.504 106.795 300.128 106.659C299.76 106.515 299.444 106.347 299.18 106.155L299.888 104.559C300.304 104.831 300.744 105.035 301.208 105.171C301.68 105.307 302.152 105.375 302.624 105.375C303.112 105.375 303.48 105.307 303.728 105.171C303.984 105.035 304.112 104.851 304.112 104.619C304.112 104.483 304.068 104.363 303.98 104.259C303.892 104.147 303.728 104.047 303.488 103.959C303.248 103.863 302.904 103.767 302.456 103.671C301.84 103.551 301.328 103.411 300.92 103.251C300.52 103.083 300.204 102.895 299.972 102.687C299.748 102.471 299.588 102.231 299.492 101.967C299.404 101.703 299.36 101.407 299.36 101.079C299.36 100.559 299.508 100.091 299.804 99.6749C300.1 99.2589 300.512 98.9309 301.04 98.6909C301.568 98.4509 302.184 98.3309 302.888 98.3309C303.296 98.3309 303.7 98.3709 304.1 98.4509C304.5 98.5229 304.868 98.6309 305.204 98.7749C305.548 98.9109 305.828 99.0749 306.044 99.2669L305.348 100.863C304.964 100.591 304.564 100.387 304.148 100.251C303.732 100.115 303.32 100.047 302.912 100.047C302.504 100.047 302.176 100.127 301.928 100.287C301.68 100.439 301.556 100.647 301.556 100.911C301.556 101.039 301.596 101.155 301.676 101.259C301.764 101.363 301.928 101.463 302.168 101.559C302.408 101.647 302.772 101.743 303.26 101.847C303.852 101.967 304.344 102.111 304.736 102.279C305.136 102.447 305.448 102.639 305.672 102.855C305.904 103.063 306.068 103.299 306.164 103.563C306.26 103.819 306.308 104.103 306.308 104.415C306.308 104.967 306.164 105.443 305.876 105.843C305.588 106.243 305.168 106.551 304.616 106.767C304.064 106.983 303.392 107.091 302.6 107.091ZM311.635 107.091C310.755 107.091 309.991 106.911 309.343 106.551C308.703 106.191 308.207 105.683 307.855 105.027C307.511 104.371 307.339 103.595 307.339 102.699C307.339 101.811 307.515 101.039 307.867 100.383C308.219 99.7269 308.715 99.2229 309.355 98.8709C309.995 98.5109 310.755 98.3309 311.635 98.3309C312.515 98.3309 313.271 98.5109 313.903 98.8709C314.543 99.2229 315.035 99.7269 315.379 100.383C315.731 101.039 315.907 101.811 315.907 102.699C315.907 103.595 315.731 104.371 315.379 105.027C315.035 105.683 314.543 106.191 313.903 106.551C313.271 106.911 312.515 107.091 311.635 107.091ZM311.635 105.375C312.259 105.375 312.755 105.151 313.123 104.703C313.499 104.255 313.687 103.587 313.687 102.699C313.687 101.819 313.499 101.159 313.123 100.719C312.755 100.271 312.259 100.047 311.635 100.047C311.011 100.047 310.515 100.267 310.147 100.707C309.779 101.147 309.595 101.811 309.595 102.699C309.595 103.595 309.779 104.267 310.147 104.715C310.515 105.155 311.011 105.375 311.635 105.375ZM317.223 106.983V98.4389H319.479V105.159H323.091V106.983H317.223ZM324.172 106.983V98.4389H327.664C328.616 98.4389 329.432 98.6109 330.112 98.9549C330.792 99.2909 331.312 99.7789 331.672 100.419C332.04 101.051 332.224 101.811 332.224 102.699C332.224 103.595 332.044 104.363 331.684 105.003C331.324 105.643 330.804 106.135 330.124 106.479C329.444 106.815 328.624 106.983 327.664 106.983H324.172ZM326.428 105.183H327.508C328.34 105.183 328.96 104.979 329.368 104.571C329.784 104.155 329.992 103.531 329.992 102.699C329.992 101.059 329.164 100.239 327.508 100.239H326.428V105.183Z" fill="white"/>
    <path fill-rule="evenodd" clip-rule="evenodd" d="M247.391 165.072H293.938C298.482 165.072 302.25 168.836 302.25 173.374V195.4C302.25 199.938 298.482 203.701 293.938 203.701H247.391C242.847 203.701 239.079 199.938 239.079 195.4V173.374C239.079 168.836 242.737 165.072 247.391 165.072Z" fill="white"/>
    <path fill-rule="evenodd" clip-rule="evenodd" d="M247.391 168.614H293.937C296.486 168.614 298.703 170.717 298.703 173.374V195.4C298.703 197.946 296.597 200.159 293.937 200.159H247.391C244.842 200.159 242.625 198.056 242.625 195.4V173.374C242.625 170.828 244.731 168.614 247.391 168.614Z" fill="#431AD8"/>
    <path d="M259.114 182.876V174.332H265.078V176.096H261.334V177.656H264.838V179.408H261.334V182.876H259.114ZM270.166 182.984C269.286 182.984 268.522 182.804 267.874 182.444C267.234 182.084 266.738 181.576 266.386 180.92C266.042 180.264 265.87 179.488 265.87 178.592C265.87 177.704 266.046 176.932 266.398 176.276C266.75 175.62 267.246 175.116 267.886 174.764C268.526 174.404 269.286 174.224 270.166 174.224C271.046 174.224 271.802 174.404 272.434 174.764C273.074 175.116 273.566 175.62 273.91 176.276C274.262 176.932 274.438 177.704 274.438 178.592C274.438 179.488 274.262 180.264 273.91 180.92C273.566 181.576 273.074 182.084 272.434 182.444C271.802 182.804 271.046 182.984 270.166 182.984ZM270.166 181.268C270.79 181.268 271.286 181.044 271.654 180.596C272.03 180.148 272.218 179.48 272.218 178.592C272.218 177.712 272.03 177.052 271.654 176.612C271.286 176.164 270.79 175.94 270.166 175.94C269.542 175.94 269.046 176.16 268.678 176.6C268.31 177.04 268.126 177.704 268.126 178.592C268.126 179.488 268.31 180.16 268.678 180.608C269.046 181.048 269.542 181.268 270.166 181.268ZM275.755 182.876V174.332H279.727C280.767 174.332 281.543 174.556 282.055 175.004C282.575 175.452 282.835 176.084 282.835 176.9C282.835 177.668 282.563 178.292 282.019 178.772C281.483 179.244 280.735 179.48 279.775 179.48L280.807 179.264C281.095 179.264 281.359 179.356 281.599 179.54C281.847 179.716 282.039 179.98 282.175 180.332L283.183 182.876H280.795L279.691 180.032C279.619 179.856 279.499 179.732 279.331 179.66C279.163 179.588 278.983 179.552 278.791 179.552H277.975V182.876H275.755ZM277.951 177.872H279.367C279.855 177.872 280.203 177.8 280.411 177.656C280.627 177.504 280.735 177.272 280.735 176.96C280.735 176.632 280.627 176.396 280.411 176.252C280.203 176.108 279.855 176.036 279.367 176.036H277.951V177.872ZM259.146 193.984C258.722 193.984 258.298 193.948 257.874 193.876C257.45 193.796 257.05 193.688 256.674 193.552C256.306 193.408 255.99 193.24 255.726 193.048L256.434 191.452C256.85 191.724 257.29 191.928 257.754 192.064C258.226 192.2 258.698 192.268 259.17 192.268C259.658 192.268 260.026 192.2 260.274 192.064C260.53 191.928 260.658 191.744 260.658 191.512C260.658 191.376 260.614 191.256 260.526 191.152C260.438 191.04 260.274 190.94 260.034 190.852C259.794 190.756 259.45 190.66 259.002 190.564C258.386 190.444 257.874 190.304 257.466 190.144C257.066 189.976 256.75 189.788 256.518 189.58C256.294 189.364 256.134 189.124 256.038 188.86C255.95 188.596 255.906 188.3 255.906 187.972C255.906 187.452 256.054 186.984 256.35 186.568C256.646 186.152 257.058 185.824 257.586 185.584C258.114 185.344 258.73 185.224 259.434 185.224C259.842 185.224 260.246 185.264 260.646 185.344C261.046 185.416 261.414 185.524 261.75 185.668C262.094 185.804 262.374 185.968 262.59 186.16L261.894 187.756C261.51 187.484 261.11 187.28 260.694 187.144C260.278 187.008 259.866 186.94 259.458 186.94C259.05 186.94 258.722 187.02 258.474 187.18C258.226 187.332 258.102 187.54 258.102 187.804C258.102 187.932 258.142 188.048 258.222 188.152C258.31 188.256 258.474 188.356 258.714 188.452C258.954 188.54 259.318 188.636 259.806 188.74C260.398 188.86 260.89 189.004 261.282 189.172C261.682 189.34 261.994 189.532 262.218 189.748C262.45 189.956 262.614 190.192 262.71 190.456C262.806 190.712 262.854 190.996 262.854 191.308C262.854 191.86 262.71 192.336 262.422 192.736C262.134 193.136 261.714 193.444 261.162 193.66C260.61 193.876 259.938 193.984 259.146 193.984ZM265.183 193.876H262.927L266.923 185.332H268.699L272.707 193.876H270.487L267.595 187.144H268.087L265.183 193.876ZM264.775 192.112L265.651 190.42H269.839L270.703 192.112H264.775ZM273.194 193.876V185.332H275.45V192.052H279.062V193.876H273.194ZM280.143 193.876V185.332H286.239V187.06H282.339V188.668H285.987V190.396H282.339V192.148H286.239V193.876H280.143Z" fill="white"/>
</svg>
