<svg width="38" height="24" viewBox="0 0 38 24">
    <path fill="#FF3F55" d="M33.161 14.841c-.77 0-1.452-.74-1.452-2.696 0-2.164 1.305-5.156 3.322-5.156.92 0 1.276.918 1.276 2.103.027 2.31-1.395 5.749-3.146 5.749zm-7.768-1.808c0 .03-.03.06-.03.09-.535.8-1.336 1.362-1.957 1.362-.595 0-1.306-.622-1.306-1.748 0-2.074 1.097-5.778 3.47-5.778.236 0 .474.03.71.12.12.03.18.149.18.266l-1.067 5.688zm-3.233 8.978c-.445 0-1.037-.356-1.037-1.036 0-1.155 1.186-1.984 2.907-2.903.179-.09.385.06.326.267-.625 2.427-1.13 3.672-2.196 3.672zM11.6 7.02c.416 0 .594.445.594.859-.06 1.391-1.216 2.785-3.083 4.058-.18.12-.386-.03-.356-.237.207-1.688.978-4.68 2.845-4.68zm-5.19-5.57c.237 0 .446.267.446.623 0 .652-1.276 3.585-2.907 6.754-.12.237-.505.12-.445-.15C4.335 4.679 5.76 1.45 6.41 1.45zm28.145 3.822c-3.352 0-5.694 4.207-5.694 7.556 0 .415.03.829.119 1.215.03.09-.03.177-.09.236-.355.237-.74.503-1.126.742-.179.09-.386-.03-.356-.236 0-.09.03-.207.06-.327L29.1 5.836c.03-.09-.03-.207-.12-.237-.206-.12-.474-.206-.77-.206-.415 0-.86.149-1.186.473-.09.09-.236.09-.326.03-.475-.386-1.037-.563-1.808-.563-2.698 0-5.16 3.94-5.19 7.586 0 .266.03.562.06.888 0 .09-.03.177-.09.237-.534.386-1.216.682-1.807.682-.565 0-.92-.386-.652-1.63l1.186-5.956c.03-.12.12-.177.236-.177h1.691c.622 0 .95-.445.95-1.065 0-.12-.12-.237-.236-.237H19.02c-.149 0-.266-.149-.236-.296l.564-2.666c.03-.12-.03-.207-.119-.267-.236-.12-.564-.207-.89-.207-.801 0-1.632.386-1.868 1.392l-.385 1.808c-.03.12-.12.177-.237.177h-.236c-.622 0-.95.443-.95 1.065 0 .12.12.237.237.237h.594c.149 0 .266.149.236.296l-1.156 5.422c0 .03-.03.09-.06.12-.98 1.155-2.581 2.074-4.004 2.074-.92 0-1.601-.416-1.78-1.482-.03-.09.03-.206.12-.266 4.063-2.28 4.953-3.732 5.01-5.659.03-1.008-.415-2.134-2.313-2.134-3.469 0-5.368 4.624-5.485 7.497 0 .356 0 .682.03.978 0 .09-.03.177-.12.237-.622.356-1.335.592-1.927.592-.77 0-1.393-.445-1.216-1.6.03-.237.06-.533.09-.77 0-.03.03-.06.03-.09C5.796 7.765 8.08 3.645 8.08 1.897 8.11.802 7.278 0 6.241 0 3.335 0 1.082 5.452.045 13.481c-.296 2.34.92 3.29 2.461 3.29 1.216 0 2.669-.534 3.795-1.422.12-.09.266-.06.326.06.622.918 1.631 1.361 2.818 1.361 1.482 0 3.053-.682 4.389-1.927.149-.149.385-.06.385.15.09 1.274.86 1.777 1.868 1.777 1.246 0 2.638-.712 3.678-1.658.119-.12.296-.06.385.09.415.888 1.097 1.57 2.193 1.57.771 0 1.542-.473 2.196-1.214.179-.177.475-.03.415.206-.03.177-.09.356-.119.533-.03.06-.06.12-.12.15-1.69.888-4.893 2.43-4.893 4.976 0 1.362 1.126 2.577 2.581 2.577 3.233 0 3.767-3.289 4.655-7.377 0-.06.06-.12.12-.15.71-.385 1.422-.858 1.957-1.244.119-.09.266-.06.325.06.505.889 1.393 1.451 2.669 1.451 3.469 0 5.871-4.207 5.871-7.496-.005-2.166-1.012-3.973-3.444-3.973z"/>
</svg>
