<svg width="221" height="42" viewBox="0 0 221 42">
    <g fill="none" fill-rule="evenodd">
        <path fill="#FF3F55" fill-rule="nonzero" d="M211.572 25.924c-1.344 0-2.532-1.288-2.532-4.696 0-3.768 2.276-8.98 5.792-8.98 1.604 0 2.224 1.6 2.224 3.664.048 4.024-2.432 10.012-5.484 10.012zm-13.544-3.148c0 .052-.052.104-.052.156-.932 1.392-2.328 2.372-3.412 2.372-1.036 0-2.276-1.084-2.276-3.044 0-3.612 1.912-10.064 6.048-10.064.412 0 .828.052 1.24.208.208.052.312.26.312.464l-1.86 9.908zm-5.636 15.636c-.776 0-1.808-.62-1.808-1.804 0-2.012 2.068-3.456 5.068-5.056.312-.156.672.104.568.464-1.088 4.228-1.968 6.396-3.828 6.396zM173.984 12.3c.724 0 1.036.776 1.036 1.496-.104 2.424-2.12 4.852-5.376 7.068-.312.208-.672-.052-.62-.412.36-2.94 1.704-8.152 4.96-8.152zm-9.048-9.7c.412 0 .776.464.776 1.084 0 1.136-2.224 6.244-5.068 11.764-.208.412-.88.208-.776-.26C161.316 8.224 163.8 2.6 164.936 2.6zm49.068 6.656c-5.844 0-9.928 7.328-9.928 13.16 0 .724.052 1.444.208 2.116.052.156-.052.308-.156.412-.62.412-1.292.876-1.964 1.292-.312.156-.672-.052-.62-.412 0-.156.052-.36.104-.568l2.844-15.016c.052-.156-.052-.36-.208-.412-.36-.208-.828-.36-1.344-.36-.724 0-1.5.26-2.068.824-.156.156-.412.156-.568.052-.828-.672-1.808-.98-3.152-.98-4.704 0-8.996 6.864-9.048 13.212 0 .464.052.98.104 1.548 0 .156-.052.308-.156.412-.932.672-2.12 1.188-3.152 1.188-.984 0-1.604-.672-1.136-2.84l2.068-10.372c.052-.208.208-.308.412-.308h2.948c1.084 0 1.656-.776 1.656-1.856 0-.208-.208-.412-.412-.412h-3.516c-.26 0-.464-.26-.412-.516l.984-4.644c.052-.208-.052-.36-.208-.464-.412-.208-.984-.36-1.552-.36-1.396 0-2.844.672-3.256 2.424l-.672 3.148c-.052.208-.208.308-.412.308h-.412c-1.084 0-1.656.772-1.656 1.856 0 .208.208.412.412.412h1.036c.26 0 .464.26.412.516l-2.016 9.444c0 .052-.052.156-.104.208-1.708 2.012-4.5 3.612-6.98 3.612-1.604 0-2.792-.724-3.104-2.58-.052-.156.052-.36.208-.464 7.084-3.972 8.636-6.5 8.736-9.856.052-1.756-.724-3.716-4.032-3.716-6.048 0-9.36 8.052-9.564 13.056 0 .62 0 1.188.052 1.704 0 .156-.052.308-.208.412-1.084.62-2.328 1.032-3.36 1.032-1.344 0-2.428-.776-2.12-2.788.052-.412.104-.928.156-1.34 0-.052.052-.104.052-.156 4.964-7.584 8.944-14.76 8.944-17.804.052-1.908-1.396-3.304-3.204-3.304-5.068 0-8.996 9.496-10.804 23.48-.516 4.076 1.604 5.728 4.292 5.728 2.12 0 4.652-.928 6.616-2.476.208-.156.464-.104.568.104 1.084 1.6 2.844 2.372 4.912 2.372 2.584 0 5.324-1.188 7.652-3.356.26-.26.672-.104.672.26.156 2.22 1.5 3.096 3.256 3.096 2.172 0 4.6-1.24 6.412-2.888.208-.208.516-.104.672.156.724 1.548 1.912 2.736 3.824 2.736 1.344 0 2.688-.824 3.828-2.116.312-.308.828-.052.724.36-.052.308-.156.62-.208.928-.052.104-.104.208-.208.26-2.948 1.548-8.532 4.232-8.532 8.668 0 2.372 1.964 4.488 4.5 4.488 5.636 0 6.568-5.728 8.116-12.848 0-.104.104-.208.208-.26 1.24-.672 2.48-1.496 3.412-2.168.208-.156.464-.104.568.104.88 1.548 2.428 2.528 4.652 2.528 6.048 0 10.236-7.328 10.236-13.056-.008-3.772-1.764-6.92-6.004-6.92z"/>
        <path fill="#00A87E" d="M114.512 9.416c1.296 0 2.456.232 3.488.7 1.032.468 1.9 1.116 2.608 1.94.708.828 1.252 1.808 1.636 2.948.384 1.136.576 2.568.576 3.908 0 1.364-.208 2.812-.628 3.964-.42 1.148-1.008 2.14-1.764 2.964-.756.828-1.656 1.472-2.696 1.94-1.044.468-2.188.7-3.436.7-1.152 0-2.144-.172-2.984-.52-.84-.348-1.812-1.276-1.812-1.276v6.7h-5.4V9.98h5.4v1.7c.148-.576.796-1.096 1.704-1.564.908-.468 2.012-.7 3.308-.7zm-26.98-5.92v15.296c0 1.556.404 2.72 1.208 3.488.804.768 1.904 1.152 3.292 1.152 1.392 0 2.488-.384 3.292-1.152.804-.768 1.208-1.928 1.208-3.488V3.496h5.76V19.26c0 1.604-.264 3.012-.788 4.224-.528 1.208-1.244 2.228-2.152 3.056-.908.828-1.98 1.448-3.212 1.868-1.232.42-2.54.628-3.928.628-1.412 0-2.728-.208-3.948-.628-1.22-.42-2.284-1.044-3.192-1.868-.908-.828-1.628-1.844-2.152-3.056-.524-1.212-.788-2.616-.788-4.224V3.496h5.4zm-41.176-.312c.472 0 .96.032 1.456.092.464.056 1.068.14 1.36.252l.056.024-.28 4.572c-.144-.048-.344-.092-.604-.128-.26-.036-.592-.056-.996-.056-.236 0-.492.032-.764.092s-.52.176-.748.348c-.224.172-.416.404-.568.696-.14.264-.216.596-.228.996l-.004.136v1.572h3.84l-1.008 4.68H45.04v12.244h-5.4V16.46h-6.48v12.244h-5.4V16.46h-2.432c-.036 1.832-.368 3.496-1 4.992-.668 1.584-1.576 2.944-2.72 4.072-1.144 1.132-2.468 2-3.976 2.604-1.508.608-3.108.908-4.808.908-1.7 0-3.308-.304-4.824-.908-1.516-.608-2.848-1.476-3.992-2.604-1.144-1.132-2.052-2.488-2.72-4.072C.62 19.868.284 18.096.284 16.136s.332-3.736 1.004-5.332c.668-1.596 1.576-2.96 2.72-4.092C5.152 5.58 6.484 4.712 8 4.108c1.516-.604 3.124-.908 4.82-.908 1.7 0 3.3.304 4.808.908 1.508.608 2.832 1.476 3.976 2.604 1.144 1.132 2.048 2.496 2.72 4.092.132.316.252.64.36.972h3.072v-1.572c0-1.048.148-2 .444-2.852.296-.852.736-1.592 1.316-2.212.58-.62 1.292-1.104 2.132-1.444.84-.34 1.796-.512 2.86-.512.452 0 .924.036 1.42.108.464.068 1.068.156 1.36.268l.056.024-.28 4.536c-.14-.048-.344-.092-.604-.128-.26-.036-.592-.056-.996-.056-.236 0-.492.032-.764.092s-.52.176-.748.348c-.224.172-.416.404-.568.696-.14.264-.216.596-.228.996l-.004.136v1.572h6.48v-1.572c0-1.048.148-2 .444-2.852.296-.852.736-1.592 1.316-2.212.58-.62 1.284-1.104 2.116-1.444.832-.34 1.78-.512 2.848-.512zM58.26 9.928c2.78 0 4.968.804 6.564 2.408 1.596 1.604 2.392 3.856 2.392 6.756 0 .384-.012.748-.036 1.096-.024.348-.048.544-.072.592H54.664c.024.504.148.964.376 1.384.228.42.528.784.9 1.096.372.312.796.552 1.276.72.48.168.984.252 1.512.252 1.008 0 1.792-.216 2.356-.648.564-.432.976-.996 1.24-1.688l4.568 1.296c-.216.768-.552 1.496-1.008 2.192-.456.696-1.032 1.3-1.728 1.816s-1.504.924-2.428 1.22c-.924.3-1.948.448-3.076.448-1.224 0-2.396-.216-3.524-.648-1.128-.432-2.124-1.052-2.984-1.868-.864-.816-1.548-1.808-2.048-2.984-.504-1.172-.756-2.516-.756-4.024 0-1.436.244-2.736.736-3.9.492-1.16 1.152-2.152 1.98-2.964.828-.816 1.78-1.444 2.86-1.888 1.076-.444 2.192-.664 3.344-.664zm20.684-.024c.416 0 1.032.104 1.44.224l-.092 5.036c-.312-.072-1.032-.136-1.632-.088-.604.048-1.08.176-1.584.344-.504.168-.948.444-1.332.828-.384.384-.688.888-.916 1.508-.228.624-.26 2.264-.26 2.264v8.684h-5.4V9.98h5.4v2.108c.132-.976 1.3-1.58 1.732-1.772.432-.192.88-.284 1.304-.34.428-.06.94-.072 1.34-.072zm34.684 4.528c-.528 0-1.036.088-1.528.268-.492.18-.924.456-1.296.828-.372.372-.664.832-.88 1.384-.216.552-.324 1.292-.324 2.036s.108 1.388.324 1.94c.216.552.508 1.012.88 1.384.372.372.804.652 1.296.844.492.192 1 .288 1.528.288s1.036-.092 1.528-.268c.492-.18.928-.456 1.312-.828.384-.372.684-.84.9-1.4.216-.564.324-1.216.324-1.96s-.108-1.484-.324-2.036c-.216-.552-.516-1.012-.9-1.384-.384-.372-.82-.648-1.312-.828-.492-.176-1-.268-1.528-.268zM12.736 9.084c-.816 0-1.628.144-2.436.432-.808.288-1.536.716-2.188 1.292-.652.572-1.176 1.312-1.572 2.22-.396.904-.596 1.964-.596 3.176 0 1.236.2 2.296.596 3.18.396.884.924 1.616 1.572 2.2.652.584 1.38 1.016 2.188 1.292.808.276 1.616.412 2.436.412.816 0 1.628-.136 2.436-.412.808-.276 1.528-.708 2.172-1.292.64-.584 1.16-1.32 1.556-2.2.396-.884.596-1.944.596-3.18 0-1.212-.2-2.272-.596-3.176-.396-.904-.916-1.644-1.556-2.22-.64-.572-1.364-1.004-2.172-1.292-.808-.288-1.616-.432-2.436-.432zm45.712 5.076c-.576 0-1.08.096-1.512.288-.432.192-.796.432-1.096.72-.3.288-.528.612-.684.972-.156.36-.244.708-.268 1.044h7.156c-.024-.336-.1-.684-.232-1.044s-.34-.684-.628-.972c-.288-.288-.652-.528-1.096-.72-.448-.192-.992-.288-1.64-.288z"/>
        <path fill="obsidian" fill-rule="nonzero" d="M137.168 13.864c.6 0 1.136.092 1.608.276.472.184.876.428 1.216.736.336.304.6.656.796 1.052.196.396.308.804.34 1.224l-1.6.336c-.02.008-.044.012-.068.012h-.068c-.116 0-.22-.032-.312-.096s-.164-.164-.22-.3c-.06-.176-.14-.344-.236-.504-.096-.16-.212-.3-.348-.42-.136-.12-.296-.216-.48-.284-.184-.068-.396-.108-.632-.108-.284 0-.54.048-.764.148-.224.1-.416.232-.572.4-.156.168-.276.36-.356.58-.08.22-.124.452-.124.7 0 .204.02.4.068.592.044.192.112.38.208.572.096.192.22.388.372.588.152.2.344.416.568.648l3.92 4.072c.224-.428.404-.88.54-1.356.136-.476.224-.96.264-1.448.012-.156.064-.284.152-.376.088-.096.212-.144.368-.144h1.58c-.008.896-.136 1.756-.388 2.572-.252.816-.612 1.568-1.08 2.256l3.092 3.204h-2.468c-.128 0-.244-.008-.34-.02-.096-.012-.192-.04-.28-.076-.088-.036-.172-.088-.256-.148-.084-.06-.168-.14-.256-.236l-1.02-1.052c-.652.532-1.38.944-2.18 1.244-.8.3-1.664.448-2.596.448-.572 0-1.128-.096-1.672-.292-.544-.192-1.032-.476-1.46-.84-.428-.368-.772-.812-1.036-1.332-.26-.52-.392-1.108-.392-1.76 0-.456.076-.888.224-1.3.148-.412.356-.796.624-1.148.264-.352.58-.672.944-.96.364-.284.764-.532 1.2-.736-.36-.512-.624-1.008-.792-1.496-.168-.488-.248-.972-.248-1.456 0-.512.092-.996.28-1.452.188-.46.46-.86.816-1.2.356-.34.796-.612 1.312-.812.512-.208 1.1-.308 1.752-.308zm-3.552 10.652c0 .376.064.712.192 1.012.128.3.308.552.532.76.224.208.484.368.78.48.296.112.612.168.944.168.6 0 1.144-.092 1.636-.28.492-.188.944-.448 1.352-.78l-3.876-3.98c-.544.352-.94.752-1.188 1.192-.248.444-.372.916-.372 1.428z"/>
    </g>
</svg>
