<svg xmlns="http://www.w3.org/2000/svg" width="20" height="20" viewBox="0 0 20 20">
    <path fill="#3D98D2" fill-rule="evenodd" d="M15.719 2.083c1.444 0 2.614 1.17 2.614 2.615v10.604c0 1.444-1.17 2.615-2.614 2.615H6.845c-.991 0-1.854-.552-2.297-1.365-.109.03-.224.045-.342.045H2.974c-.722 0-1.307-.585-1.307-1.307v-.024c0-.722.585-1.308 1.307-1.308h1.232l.025.001v-2.64H2.975c-.722 0-1.307-.585-1.307-1.307v-.024c0-.722.585-1.307 1.307-1.307H4.23v-2.64H2.975c-.722 0-1.307-.585-1.307-1.307V4.71c0-.722.585-1.307 1.307-1.307h1.232c.118 0 .233.016.343.045.442-.812 1.304-1.365 2.296-1.365h8.874zm-4.434 2.88c-.787 0-1.814.546-2.155 1.386-.471 1.163-.234 2.428.29 3.228.217.33.4.398.294.483-.106.085-.669.299-.975.485-.787.478-1.274 1.306-1.607 2.174-.243.631.086 1.327.683 1.534.124.043.252.058.381.063l.13.002 5.922-.001c.11 0 .22-.004.328-.023.475-.08.776-.378.904-.865.079-.3.003-.582-.1-.876-.446-1.276-1.127-1.811-2.063-2.275-.13-.064-.23-.119-.363-.229-.133-.11.172-.167.363-.575.397-.843.638-2.26.16-3.125-.477-.866-1.108-1.387-2.192-1.387z"/>
</svg>
