<svg xmlns="http://www.w3.org/2000/svg" width="20" height="20" viewBox="0 0 20 20">
    <g fill="none" fill-rule="evenodd">
        <path fill="#FFF" fill-opacity="0" d="M0 0H20V20H0z"/>
        <path fill="#F4BE19" d="M11.956 7.62h3.98c.403 0 .73.281.73.628 0 .158-.07.311-.196.427l-9.923 9.46c-.275.252-.738.266-1.033.03-.206-.165-.283-.417-.198-.647l3.108-5.787c.137-.253.041-.569-.212-.705-.076-.04-.16-.062-.246-.062H4.064c-.403 0-.73-.28-.73-.627 0-.166.076-.326.213-.443l5.178-7.975c.102-.157.284-.252.48-.252h4.618c.31 0 .562.235.562.526 0 .096-.028.19-.08.271L11.517 6.82c-.155.242-.085.565.158.72.083.053.18.082.28.082z"/>
    </g>
</svg>
