<svg width="24" height="24" viewBox="0 0 24 24">
    <path fill="glacialBlue" fill-rule="evenodd" d="M12.237 2c.162 0 .78.162 1.07.325 2.122 1.185 4.25 2.36 6.36 3.563.81.462 1.233 1.195 1.298 2.102.028.38.009.764.013 1.145.006.457.015.915.022 1.372v1.505c-.01.113-.025.227-.028.34-.02.726-.097 1.446-.244 2.158-.505 2.452-1.82 4.378-3.995 5.744-.843.53-2.157 1.058-3.942 1.587l-.39.113a1.25 1.25 0 0 1-.637.013c-1.32-.318-2.279-.606-2.879-.863-1.441-.617-2.721-1.448-3.736-2.631-1.323-1.543-1.91-3.356-2.076-5.32-.032-.37-.05-.74-.073-1.108V7.857c.01-.042.026-.083.032-.126.132-.871.568-1.555 1.365-1.993C6.47 4.6 8.55 3.47 10.633 2.346c.222-.12.854-.28.98-.304.127-.023.462-.042.624-.042zm3.845 7.516c-.391-.117-.717.001-.99.286l-3.471 3.602c-.153.159-.308.316-.473.487L9.2 12.137c-.379-.341-.893-.339-1.22.005-.32.336-.285.831.086 1.166l2.598 2.342c.457.411.91.393 1.339-.05l3.104-3.217c.453-.47.911-.938 1.359-1.413.468-.497.264-1.262-.385-1.454z"/>
</svg>
