<svg width="24" height="24" viewBox="0 0 24 24">
    <path fill="glacialBlue" fill-rule="evenodd" d="M12 2c5.523 0 10 4.477 10 10s-4.477 10-10 10S2 17.523 2 12 6.477 2 12 2zm.154 3.333c-.106 0-.323.013-.405.028-.081.016-.49.123-.635.203a693.7 693.7 0 0 0-4.042 2.262c-.517.291-.8.747-.884 1.328-.005.029-.014.056-.021.084v2.792c.015.246.026.493.047.738.108 1.31.488 2.519 1.346 3.548.657.788 1.487 1.343 2.421 1.754.35.154.891.326 1.622.514.296.076.607.07.9-.02l.31-.096c1.005-.322 1.756-.643 2.255-.965 1.41-.91 2.262-2.194 2.59-3.83.094-.474.144-.954.157-1.438.002-.076.012-.151.018-.227v-1.003l-.014-.915c-.003-.254.01-.51-.008-.763-.043-.605-.317-1.094-.841-1.401-1.368-.803-2.747-1.586-4.122-2.376-.19-.108-.59-.217-.694-.217zm2.398 4.465c.229-.256.502-.363.83-.258.542.173.713.863.321 1.31-.375.429-.758.85-1.138 1.273l-2.598 2.898c-.359.4-.739.416-1.121.046l-2.175-2.11c-.31-.302-.34-.748-.072-1.051.274-.31.704-.312 1.022-.005l1.63 1.58.395-.438 2.906-3.245z"/>
</svg>
