<svg width="24" height="24" viewBox="0 0 24 24">
    <path fill="glacialBlue" fill-rule="evenodd" d="M12.237 2c.162 0 .78.162 1.07.325 2.122 1.185 4.25 2.36 6.36 3.563.81.462 1.233 1.195 1.298 2.102.028.38.009.763.013 1.145.006.457.015.914.022 1.371v1.505c-.01.114-.025.227-.028.34-.02.726-.097 1.446-.244 2.158-.505 2.452-1.82 4.378-3.995 5.744-.904.567-2.347 1.134-4.332 1.7a1.25 1.25 0 0 1-.636.013c-1.32-.319-2.28-.606-2.88-.863-1.441-.617-2.721-1.448-3.736-2.631-1.323-1.543-1.91-3.356-2.076-5.32-.032-.37-.05-.739-.073-1.108V7.856c.01-.042.026-.083.032-.125.132-.872.568-1.556 1.365-1.993C6.47 4.6 8.55 3.47 10.633 2.346c.222-.12.854-.28.98-.304.127-.023.462-.042.624-.042zm-.8 1.822C9.39 4.936 7.343 6.05 5.296 7.162c-.368.2-.552.5-.552.908v3.55c-.003.856.044 1.709.211 2.553.36 1.823 1.27 3.315 2.832 4.414 1.241.873 2.647 1.384 4.123 1.736a.442.442 0 0 0 .198-.004c1.019-.247 2.008-.572 2.94-1.047 1.421-.725 2.57-1.72 3.301-3.127.608-1.172.86-2.43.887-3.726.03-1.411.009-2.824.01-4.236 0-.406-.185-.711-.546-.913-2.052-1.15-4.105-2.296-6.158-3.444a1.08 1.08 0 0 0-1.107-.004zm4.645 5.693c.649.193.853.958.385 1.454-.448.476-.906.943-1.36 1.413l-3.103 3.217c-.429.443-.882.461-1.339.05l-2.598-2.342c-.37-.334-.405-.83-.085-1.166.326-.343.84-.346 1.22-.005l1.946 1.754c.165-.17.32-.328.473-.487 1.157-1.2 2.314-2.4 3.47-3.602.274-.284.6-.402.991-.286z"/>
</svg>
