<svg width="24" height="24" viewBox="0 0 24 24">
    <path fill="#000000" fill-rule="evenodd" d="M12 2c5.523 0 10 4.477 10 10s-4.477 10-10 10S2 17.523 2 12 6.477 2 12 2zm.06 13.657c-.563-.026-1.108.5-1.104 1.064.004.54.519 1.071 1.046 1.079.542.008 1.049-.492 1.062-1.049a1.07 1.07 0 0 0-1.003-1.094zm.13-8.857l-.175.002c-1.385.058-2.751 1.233-3.038 2.611-.094.451.059.845.397 1.022.341.18.749.09 1.061-.228.168-.171.27-.383.367-.6.09-.197.17-.4.286-.582a1.527 1.527 0 0 1 1.892-.603c.948.382 1.158 1.34.454 2.089-.174.185-.366.353-.556.522-.293.26-.605.498-.885.77-.427.415-.78.886-.87 1.504-.06.43.115.778.45.943a.91.91 0 0 0 1.073-.19c.124-.127.226-.274.271-.45.139-.543.484-.934.884-1.293.407-.366.81-.742 1.152-1.173.804-1.012.794-2.193-.017-3.2-.666-.826-1.55-1.144-2.572-1.142-.116 0-.233-.005-.35 0z"/>
</svg>
