<svg width="24" height="24" viewBox="0 0 24 24">
    <path fill="#FFF" fill-rule="evenodd" d="M13.405.009c2.01.004 2.471.022 3.537.07 1.277.059 2.15.262 2.912.558.789.307 1.458.717 2.125 1.384.667.667 1.077 1.336 1.384 2.125.296.763.499 1.635.557 2.912.053 1.151.07 1.597.072 4.05V12.9c-.003 2.453-.02 2.9-.072 4.05-.058 1.278-.26 2.15-.557 2.913-.307.789-.717 1.458-1.384 2.125-.667.666-1.336 1.077-2.125 1.383-.763.297-1.635.5-2.912.558-1.151.052-1.597.069-4.05.072H11.1c-2.453-.003-2.9-.02-4.05-.072-1.278-.058-2.15-.261-2.913-.558-.789-.306-1.458-.717-2.125-1.383C1.347 21.32.936 20.65.63 19.862c-.297-.763-.5-1.635-.558-2.912-.048-1.066-.066-1.528-.07-3.537v-2.818c.004-2.01.022-2.471.07-3.537C.13 5.78.333 4.908.63 4.146c.306-.789.717-1.458 1.383-2.125C2.68 1.354 3.35.944 4.138.637 4.901.341 5.773.138 7.05.08 8.116.03 8.578.013 10.587.009zm-.805 2.16h-1.208c-2.653.002-3.063.016-4.243.07-1.17.053-1.805.249-2.228.413-.56.218-.96.478-1.38.897-.419.42-.679.82-.897 1.38-.164.422-.36 1.058-.413 2.227-.053 1.18-.068 1.59-.07 4.244v1.208c.002 2.653.017 3.063.07 4.243.054 1.17.25 1.805.413 2.228.218.56.478.96.898 1.38.42.419.82.679 1.38.897.422.164 1.057.36 2.227.413 1.265.057 1.644.07 4.847.07h.311c2.919-.001 3.314-.015 4.537-.07 1.17-.054 1.805-.25 2.227-.413.56-.218.96-.478 1.38-.898.42-.42.68-.82.897-1.38.164-.422.36-1.057.413-2.227.058-1.265.07-1.644.07-4.847v-.311c0-2.919-.014-3.314-.07-4.537-.053-1.17-.249-1.805-.413-2.227-.218-.56-.478-.96-.897-1.38-.42-.42-.82-.68-1.38-.897-.422-.164-1.058-.36-2.227-.413-1.18-.054-1.59-.068-4.244-.07zm-.604 3.675c3.402 0 6.16 2.758 6.16 6.16s-2.758 6.16-6.16 6.16-6.16-2.758-6.16-6.16 2.758-6.16 6.16-6.16zm0 2.161c-2.208 0-3.999 1.79-3.999 3.999 0 2.208 1.79 3.999 4 3.999 2.208 0 3.998-1.79 3.998-4 0-2.208-1.79-3.998-3.999-3.998zM18.4 4.161c.795 0 1.44.644 1.44 1.44 0 .794-.645 1.439-1.44 1.439-.795 0-1.44-.645-1.44-1.44 0-.795.645-1.44 1.44-1.44z"/>
</svg>
