<svg width="24" height="24" viewBox="0 0 24 24">
    <path fill="#FFF" fill-rule="evenodd" d="M1.977 24h20.046C23.115 24 24 23.115 24 22.023V1.977C24 .885 23.115 0 22.023 0H1.977C.885 0 0 .885 0 1.977v20.046C0 23.115.885 24 1.977 24zm7.2-14.823h3.352v1.687C12.98 9.964 14.29 9 16.02 9c3.319 0 4.45 1.5 4.45 5.063v6.408h-3.529v-5.659c0-1.875-.366-2.9-1.735-2.9-1.85 0-2.5 1.406-2.5 2.9v5.659H9.177V9.177zM3.53 20.47h3.529V9.177h-3.53V20.47zM7.447 5.294c0 1.19-.964 2.153-2.153 2.153s-2.153-.964-2.153-2.153.964-2.153 2.153-2.153 2.153.964 2.153 2.153z"/>
</svg>
