<svg width="25" height="24" viewBox="0 0 25 24">
    <path fill="#FFFFFE" fill-rule="evenodd" d="M9.217 18.095c5.661 0 8.757-4.69 8.757-8.756 0-.133-.003-.266-.01-.398.602-.434 1.124-.976 1.536-1.593-.551.245-1.145.41-1.767.484.635-.38 1.123-.983 1.353-1.702-.595.353-1.253.609-1.954.747-.562-.598-1.362-.972-2.247-.972-1.7 0-3.077 1.378-3.077 3.077 0 .242.027.476.08.702C9.33 9.555 7.061 8.33 5.543 6.468c-.265.455-.417.983-.417 1.547 0 1.068.544 2.01 1.37 2.562-.505-.016-.98-.155-1.394-.385v.039c0 1.49 1.06 2.735 2.468 3.017-.258.07-.53.108-.811.108-.198 0-.391-.02-.579-.055.392 1.222 1.528 2.112 2.875 2.137-1.053.826-2.38 1.318-3.822 1.318-.248 0-.493-.015-.734-.043 1.362.873 2.98 1.382 4.717 1.382"/>
</svg>
