<svg xmlns="http://www.w3.org/2000/svg" width="209" height="110" viewBox="0 0 209 110">
    <g fill="none" fill-rule="evenodd">
        <path fill="#DADBE2" fill-rule="nonzero" d="M204.139 0H3.153C1.412 0 0 1.412 0 3.153v79.606c0 1.741 1.412 3.153 3.153 3.153h200.986c1.74 0 3.152-1.412 3.152-3.153V3.153c0-1.741-1.411-3.153-3.152-3.153zM3.153 1.576h200.986c.87 0 1.576.706 1.576 1.577v79.606c0 .87-.706 1.576-1.576 1.576H3.153c-.87 0-1.577-.705-1.577-1.576V3.153c0-.87.706-1.577 1.577-1.577z" transform="translate(.5)"/>
        <path fill="#DADBE2" fill-rule="nonzero" d="M8.482 11.823v-1.55l1.451-2.44h-.657c-.062 0-.114.018-.154.053-.04.035-.07.073-.091.113l-.726 1.333c-.042.077-.078.15-.109.222-.03.07-.057.14-.08.21-.027-.067-.055-.137-.086-.208-.032-.07-.068-.145-.11-.224l-.732-1.333c-.026-.048-.057-.087-.095-.118-.038-.032-.089-.047-.153-.047h-.654l1.454 2.438v1.55h.742zm2.566.041c.211 0 .403-.034.575-.102.172-.068.318-.166.44-.292.121-.127.215-.28.281-.461.066-.18.1-.383.1-.607 0-.223-.034-.424-.1-.604s-.16-.333-.281-.458c-.122-.125-.268-.222-.44-.29-.172-.068-.364-.102-.575-.102-.212 0-.404.034-.577.102-.173.068-.32.165-.443.29-.122.125-.217.278-.284.458-.067.18-.1.381-.1.604 0 .224.033.427.1.607s.162.334.284.46c.123.127.27.225.443.293.173.068.365.102.577.102zm0-.524c-.24 0-.416-.08-.53-.239-.114-.159-.171-.39-.171-.693 0-.304.057-.536.17-.697.115-.16.291-.241.53-.241.236 0 .41.08.523.24.113.16.17.392.17.698 0 .305-.057.537-.17.695-.113.158-.287.237-.522.237zm2.824.527c.094 0 .182-.01.264-.03.082-.018.158-.045.229-.08.07-.033.137-.075.2-.123.062-.049.123-.103.182-.162l.047.227c.027.082.085.124.174.124h.416v-2.83h-.681v2.046c-.092.092-.19.164-.293.217-.103.052-.213.078-.33.078-.16 0-.28-.047-.36-.142-.08-.094-.12-.228-.12-.401V8.992h-.682v1.799c0 .158.02.303.062.434.041.132.102.246.183.341.081.096.181.17.3.222.118.053.255.079.41.079zm2.922-.044V10.06c.07-.15.155-.265.256-.344.101-.078.223-.117.364-.117.08 0 .143.007.19.02.049.012.086.019.114.019.031 0 .056-.007.074-.02.019-.015.03-.038.036-.071l.089-.51c-.092-.065-.208-.097-.348-.097-.17 0-.322.05-.458.152-.136.1-.255.239-.356.413l-.041-.342c-.01-.062-.028-.106-.055-.132-.028-.026-.077-.039-.147-.039h-.4v2.83h.682zm3.33 0v-2.45c0-.048-.002-.1-.005-.159-.002-.058-.007-.116-.012-.175l2.085 2.657c.037.048.075.08.114.1.038.018.087.027.146.027h.383v-3.99h-.654v2.426c0 .053.002.11.005.172.002.062.007.125.015.189l-2.094-2.668c-.02-.025-.039-.046-.055-.062-.017-.015-.034-.027-.051-.036-.018-.008-.038-.013-.06-.016-.022-.003-.05-.004-.082-.004h-.39v3.989h.654zm4.16.044c.1 0 .193-.008.275-.025.083-.017.161-.041.235-.074.073-.034.145-.074.214-.123s.139-.106.21-.17l.061.201c.019.06.046.098.083.118.037.019.087.029.152.029h.306v-1.788c0-.16-.023-.307-.07-.441-.047-.135-.116-.25-.206-.346-.09-.097-.2-.172-.33-.227-.13-.054-.277-.081-.442-.081-.46 0-.853.149-1.178.447l.124.218c.02.035.047.064.08.088.033.024.073.036.119.036.055 0 .105-.013.151-.039.046-.025.096-.054.15-.087.055-.032.119-.06.192-.087.074-.025.166-.038.276-.038.153 0 .27.045.35.136.08.091.12.232.12.421v.166c-.323.007-.592.038-.81.093-.216.056-.39.125-.52.209-.131.083-.224.177-.28.281-.057.104-.085.21-.085.316 0 .127.02.238.061.334.04.095.097.175.17.24.072.064.16.112.26.145.102.032.212.048.331.048zm.212-.47c-.114 0-.207-.025-.277-.076-.071-.052-.107-.137-.107-.257 0-.06.017-.117.051-.168.034-.052.092-.097.173-.135.08-.039.188-.07.321-.096.134-.024.3-.041.498-.05v.477c-.05.051-.099.096-.147.133-.05.038-.1.07-.152.096-.053.025-.108.045-.167.058-.059.012-.123.019-.193.019zm2.676.426V9.75c.073-.085.153-.151.238-.2.086-.049.177-.073.275-.073.149 0 .261.043.338.13.076.086.114.224.114.413v1.802h.684V10.02c0-.088.013-.166.039-.234.026-.068.061-.125.106-.17.045-.045.098-.08.157-.103.06-.024.125-.036.195-.036.153 0 .268.045.348.136.079.091.118.227.118.407v1.802h.682V10.02c0-.17-.022-.322-.065-.455-.044-.132-.107-.244-.19-.336-.082-.092-.184-.162-.305-.21-.122-.048-.26-.072-.417-.072-.09 0-.18.01-.269.03-.09.02-.173.052-.252.094-.08.043-.152.097-.218.164-.067.068-.122.148-.166.242-.057-.16-.143-.288-.258-.385-.115-.097-.261-.145-.44-.145-.084 0-.162.01-.233.03-.07.018-.137.045-.199.078-.061.033-.12.072-.173.118-.055.046-.107.097-.156.152l-.044-.21c-.028-.082-.086-.124-.174-.124h-.417v2.83h.682zm5.167.041c.099 0 .201-.007.307-.022.106-.015.21-.04.312-.076.102-.036.2-.084.294-.143.094-.06.178-.134.254-.222l-.2-.249c-.014-.02-.031-.036-.051-.047-.02-.01-.045-.016-.072-.016-.043 0-.086.013-.131.039l-.157.085c-.06.031-.13.06-.21.086-.08.025-.175.038-.286.038-.224 0-.404-.068-.54-.204-.136-.136-.215-.35-.235-.64h1.75c.03 0 .056-.004.076-.012.02-.009.037-.022.049-.042.012-.02.02-.046.024-.08.005-.034.007-.077.007-.128 0-.204-.03-.386-.09-.545-.061-.159-.146-.293-.254-.403-.109-.109-.238-.192-.388-.25-.15-.056-.314-.085-.492-.085-.212 0-.402.037-.57.11-.168.074-.31.174-.428.3-.116.126-.206.274-.269.444-.062.17-.093.352-.093.545 0 .248.035.467.107.655.072.189.17.347.295.474.125.128.272.225.442.29.169.065.352.098.549.098zm.579-1.782h-1.28c.031-.206.103-.365.215-.477.112-.112.268-.169.466-.169.101 0 .19.017.265.052.076.034.138.08.188.139.05.059.086.127.11.205.024.079.036.162.036.25zM9.254 18.128v-.51h-.717v-3.484h-.56l-1.216 1.034.215.295c.015.02.037.038.067.054.03.016.064.024.101.024.024 0 .048-.004.073-.011.025-.008.05-.022.073-.042l.574-.48c-.005.1-.008.194-.008.284v2.326h-.808v.51h2.206zm3.22 0v-.408c0-.068-.022-.123-.065-.164-.043-.042-.102-.062-.175-.062H11.21c-.077 0-.158.007-.242.02-.085.014-.172.034-.26.06l.9-.919c.106-.11.208-.219.306-.325.097-.107.182-.217.255-.332.073-.114.13-.233.174-.358.043-.125.065-.261.065-.408 0-.171-.03-.327-.092-.467-.06-.14-.145-.259-.253-.358-.109-.1-.24-.176-.392-.23-.153-.055-.32-.082-.505-.082-.176 0-.341.024-.495.073-.154.049-.29.122-.408.218-.119.097-.218.217-.297.361-.079.145-.132.313-.16.504l.359.063c.033.006.063.009.09.009.063 0 .115-.016.155-.046.04-.03.071-.08.091-.15.043-.14.117-.251.222-.334.106-.083.24-.124.405-.124.088 0 .167.012.238.037.071.025.132.062.184.112.051.05.09.11.118.183.028.073.042.157.042.253 0 .104-.015.204-.043.299-.029.095-.07.188-.124.28-.055.092-.122.185-.202.279-.08.093-.17.192-.271.295L9.859 17.62c-.043.042-.074.088-.093.137-.02.05-.029.098-.029.144v.226h2.737zm1.873.044c.184 0 .358-.026.523-.08.164-.053.309-.132.434-.236.125-.103.224-.232.298-.384.074-.153.11-.329.11-.527 0-.234-.058-.428-.176-.582-.118-.155-.296-.27-.535-.345.099-.033.188-.075.266-.124.078-.05.144-.11.198-.182.055-.072.096-.156.125-.253.028-.096.042-.208.042-.335 0-.145-.028-.28-.084-.406-.056-.125-.136-.234-.241-.326-.105-.093-.231-.166-.38-.218-.148-.053-.313-.079-.497-.079-.177 0-.342.024-.496.073-.153.049-.29.122-.408.218-.118.097-.217.217-.296.361-.08.145-.133.313-.16.504l.358.063c.033.006.065.009.094.009.063 0 .113-.016.152-.046.038-.03.069-.08.09-.15.043-.134.118-.244.224-.33.107-.085.241-.128.403-.128.178 0 .32.048.422.145.103.096.155.24.155.429 0 .088-.013.169-.04.242-.025.074-.07.137-.136.19-.065.052-.153.093-.263.122-.11.03-.25.045-.417.047v.486c.203 0 .364.015.485.046.12.032.212.075.277.13.064.055.106.122.127.2.02.078.03.165.03.26 0 .076-.014.151-.043.226-.028.074-.071.142-.13.202-.057.061-.13.11-.216.148-.086.038-.188.056-.303.056-.103 0-.192-.015-.267-.045-.074-.03-.139-.07-.194-.119-.055-.048-.103-.104-.142-.167-.04-.062-.076-.126-.11-.19-.02-.039-.048-.068-.086-.088-.038-.02-.08-.03-.128-.03-.054 0-.106.01-.158.033l-.3.124c.055.17.121.322.198.452.078.13.171.241.282.331.11.09.24.158.389.204.149.046.323.07.524.07zm3.68-.044v-2.576c0-.05-.002-.104-.004-.162-.003-.058-.008-.117-.015-.178l1.222 2.27c.027.052.063.092.107.12.044.03.096.043.155.043h.102c.059 0 .11-.014.154-.042.044-.029.08-.069.108-.12l1.205-2.262c-.005.058-.01.116-.012.173-.003.057-.004.11-.004.158v2.576h.654V14.14h-.56c-.034 0-.062.001-.086.003-.024.002-.045.006-.065.014-.02.007-.037.019-.052.036-.016.016-.031.038-.046.066l-1.18 2.21c-.032.058-.061.12-.089.184l-.08.196-.078-.192c-.027-.063-.056-.124-.087-.183l-1.192-2.215c-.015-.028-.03-.05-.047-.066-.016-.017-.034-.029-.054-.036-.019-.008-.04-.012-.064-.014s-.053-.003-.086-.003h-.56v3.99h.654zm5.12.044c.101 0 .193-.008.276-.025.083-.016.16-.04.234-.074.074-.033.145-.074.214-.123s.14-.105.211-.17l.06.202c.02.059.047.098.084.117.036.02.087.03.151.03h.306V16.34c0-.16-.023-.308-.07-.442-.047-.134-.115-.25-.205-.346-.09-.097-.2-.172-.33-.226-.13-.054-.277-.082-.443-.082-.46 0-.852.15-1.178.447l.124.218c.02.035.047.065.08.088.033.024.073.036.119.036.055 0 .106-.013.152-.038l.15-.087c.054-.032.118-.061.192-.087.073-.026.165-.039.276-.039.152 0 .269.046.349.137.08.09.12.231.12.42v.166c-.322.007-.592.039-.809.094-.217.055-.39.124-.521.208-.13.084-.224.178-.28.282-.056.103-.084.209-.084.315 0 .127.02.239.06.334.041.096.098.176.17.24.073.065.16.113.26.145.102.032.212.048.332.048zm.212-.469c-.114 0-.206-.025-.277-.077-.07-.051-.106-.137-.106-.256 0-.061.017-.117.05-.169.035-.051.092-.096.173-.135.081-.039.188-.07.322-.095.133-.025.299-.042.498-.051v.477c-.05.052-.1.096-.148.134-.049.038-.1.07-.152.095-.052.026-.108.045-.167.058-.058.013-.123.02-.193.02zm2.381-2.802c.06 0 .118-.012.171-.035.053-.023.1-.054.14-.092.039-.039.07-.084.095-.136.023-.051.035-.106.035-.165 0-.06-.012-.118-.035-.171-.024-.053-.056-.1-.096-.138-.04-.039-.086-.07-.139-.092-.053-.023-.11-.035-.171-.035-.059 0-.114.012-.167.035-.052.023-.098.053-.136.092-.04.039-.07.085-.093.138-.023.053-.034.11-.034.171 0 .059.011.114.034.165.023.052.054.097.093.136.038.038.084.07.136.092.053.023.108.035.167.035zm.34 3.227v-2.83h-.682v2.83h.681zm1.45 0v-2.047c.092-.092.19-.164.293-.218.103-.053.213-.08.33-.08.16 0 .28.048.36.142.08.095.12.229.12.402v1.801h.682v-1.801c0-.158-.02-.303-.062-.435-.041-.131-.102-.244-.182-.339-.08-.095-.18-.168-.3-.22-.119-.053-.256-.08-.41-.08-.096 0-.184.01-.265.028-.081.019-.157.045-.228.08-.07.035-.138.077-.201.124-.064.048-.124.102-.18.16l-.048-.223c-.027-.083-.085-.124-.173-.124h-.417v2.83h.681zm4.566.044c.22 0 .416-.033.587-.1.172-.068.316-.16.435-.276.119-.117.209-.254.27-.411.062-.158.093-.326.093-.507 0-.165-.026-.306-.079-.422-.052-.115-.122-.213-.208-.293-.087-.08-.185-.147-.295-.199-.11-.052-.223-.098-.338-.138-.115-.04-.228-.077-.338-.112-.11-.035-.209-.074-.295-.118-.087-.044-.156-.098-.209-.16-.052-.063-.078-.141-.078-.235 0-.073.013-.14.038-.203.026-.061.065-.114.118-.158.052-.044.116-.079.193-.104.076-.024.166-.037.269-.037.114 0 .213.014.296.043.084.028.157.06.22.095.062.035.116.067.162.095.046.029.088.043.124.043.037 0 .069-.008.096-.025.026-.016.05-.045.07-.085l.182-.35c-.14-.133-.309-.236-.508-.31-.198-.073-.415-.11-.65-.11-.208 0-.393.032-.555.097-.162.064-.299.15-.41.256-.111.107-.196.23-.254.367-.058.138-.086.28-.086.425 0 .182.026.335.078.46.053.123.122.227.208.31.087.082.185.15.296.2.11.052.222.097.336.133.114.037.226.071.337.102.11.032.208.07.295.115.086.045.156.1.208.167.053.066.079.151.079.256 0 .188-.058.332-.174.432-.116.1-.28.15-.491.15-.138 0-.256-.018-.355-.056-.098-.038-.183-.08-.256-.126-.073-.046-.136-.088-.19-.125-.052-.038-.102-.057-.148-.057-.035 0-.067.009-.095.026-.029.018-.053.04-.073.065l-.215.356c.077.08.165.15.263.215s.204.12.317.166c.113.046.231.081.355.106.123.025.248.037.375.037zm2.844 0c.138 0 .271-.02.4-.063.129-.042.243-.105.342-.188l-.204-.33c-.015-.021-.029-.036-.041-.046-.013-.01-.03-.015-.05-.015-.017 0-.033.005-.05.015l-.056.031c-.021.011-.046.022-.075.032-.028.01-.064.015-.106.015-.074 0-.132-.025-.177-.074-.044-.05-.066-.119-.066-.207v-1.534h.745v-.485h-.745v-.891h-.353c-.04 0-.074.01-.1.03-.027.02-.044.049-.052.085l-.143.773-.455.074v.27c0 .049.013.084.04.108.026.024.058.036.095.036h.287v1.58c0 .245.066.437.199.576.132.139.32.208.565.208zm1.887-.044v-1.763c.07-.15.155-.265.256-.343.102-.078.223-.117.365-.117.079 0 .142.006.19.019.048.013.085.02.113.02.031 0 .056-.008.075-.021.018-.014.03-.038.035-.07l.089-.511c-.092-.064-.208-.097-.348-.097-.17 0-.322.051-.458.152s-.255.24-.356.414l-.041-.342c-.01-.063-.028-.107-.055-.133-.028-.025-.077-.038-.146-.038h-.4v2.83h.68zm2.775.042c.1 0 .202-.008.308-.023.105-.014.21-.04.311-.075.102-.036.2-.084.294-.144.094-.06.179-.134.254-.222l-.199-.248c-.014-.02-.032-.036-.052-.047-.02-.011-.044-.017-.072-.017-.042 0-.086.013-.13.039-.046.026-.098.054-.158.085-.06.032-.13.06-.21.086-.08.026-.175.039-.285.039-.225 0-.405-.068-.54-.205-.137-.136-.215-.349-.235-.64h1.749c.03 0 .057-.004.077-.012.02-.008.036-.022.048-.041.012-.02.02-.046.025-.08.005-.034.007-.077.007-.129 0-.204-.03-.385-.091-.544-.06-.16-.145-.294-.254-.403-.108-.11-.238-.193-.388-.25-.15-.057-.314-.085-.492-.085-.211 0-.401.036-.57.11-.168.074-.31.173-.427.3-.117.125-.207.273-.27.443-.062.17-.093.352-.093.545 0 .249.036.467.108.655.071.189.17.347.295.475.125.128.272.224.441.29.17.065.352.098.55.098zm.58-1.783h-1.28c.03-.206.102-.365.215-.477.112-.112.267-.168.466-.168.101 0 .19.017.265.051.075.034.138.08.187.14.05.058.087.127.11.205.024.078.036.161.036.25zm2.37 1.783c.098 0 .2-.008.307-.023.105-.014.21-.04.311-.075.102-.036.2-.084.294-.144.094-.06.179-.134.254-.222l-.199-.248c-.014-.02-.032-.036-.052-.047-.02-.011-.044-.017-.072-.017-.042 0-.086.013-.13.039-.046.026-.098.054-.158.085-.06.032-.13.06-.21.086-.08.026-.175.039-.285.039-.225 0-.405-.068-.54-.205-.137-.136-.215-.349-.235-.64h1.749c.03 0 .057-.004.077-.012.02-.008.036-.022.048-.041.012-.02.02-.046.025-.08.005-.034.007-.077.007-.129 0-.204-.03-.385-.091-.544-.06-.16-.146-.294-.254-.403-.109-.11-.238-.193-.388-.25-.15-.057-.314-.085-.492-.085-.212 0-.401.036-.57.11-.168.074-.31.173-.427.3-.117.125-.207.273-.27.443-.062.17-.093.352-.093.545 0 .249.036.467.108.655.071.189.17.347.295.475.125.128.272.224.441.29.17.065.352.098.55.098zm.578-1.783h-1.28c.032-.206.103-.365.216-.477.112-.112.267-.168.466-.168.1 0 .19.017.265.051.075.034.138.08.187.14.05.058.087.127.11.205.024.078.036.161.036.25zm2.097 1.785c.138 0 .271-.02.4-.063.129-.042.243-.105.342-.188l-.204-.33c-.015-.021-.029-.036-.041-.046-.013-.01-.03-.015-.05-.015-.017 0-.033.005-.05.015l-.056.031c-.021.011-.046.022-.075.032-.028.01-.064.015-.106.015-.074 0-.132-.025-.177-.074-.044-.05-.066-.119-.066-.207v-1.534h.745v-.485h-.745v-.891h-.353c-.04 0-.074.01-.1.03-.027.02-.044.049-.052.085l-.143.773-.455.074v.27c0 .049.013.084.04.108.026.024.058.036.095.036h.287v1.58c0 .245.066.437.198.576.133.139.321.208.566.208zM6.899 24.434c.062 0 .115-.018.158-.053s.072-.073.087-.116l.298-.813h1.652l.298.813c.019.048.049.088.09.12.041.032.094.049.159.049h.573l-1.566-3.99h-.76l-1.566 3.99h.577zm2.005-1.507H7.632l.486-1.321c.024-.06.048-.132.073-.212.025-.081.05-.169.076-.262.026.093.052.18.078.26.027.08.051.15.074.208l.485 1.327zm2.364 1.507v-2.047c.092-.092.19-.165.293-.218.103-.054.213-.08.33-.08.16 0 .28.047.36.142.08.095.12.228.12.401v1.802h.682v-1.802c0-.158-.02-.303-.062-.434-.041-.132-.102-.245-.182-.34-.08-.094-.18-.168-.3-.22-.119-.053-.256-.079-.41-.079-.096 0-.184.01-.265.028-.081.018-.157.045-.228.08-.07.035-.138.076-.201.124-.064.048-.124.101-.18.16l-.048-.224c-.027-.082-.085-.124-.174-.124h-.416v2.83h.681zm3.134.924c.066 0 .115-.013.148-.038.032-.024.058-.06.078-.108l1.542-3.609h-.546c-.042 0-.08.012-.114.036-.034.024-.059.054-.073.091l-.569 1.465c-.02.051-.039.102-.056.152-.018.05-.034.1-.049.154-.01-.051-.024-.103-.038-.154-.015-.052-.032-.101-.053-.15l-.604-1.467c-.014-.033-.037-.062-.066-.088-.03-.026-.072-.039-.127-.039h-.596l1.145 2.62-.53 1.135h.508zm3.239-.924c.073 0 .123-.04.149-.122l.515-1.63c.017-.055.032-.11.045-.164l.035-.164c.01.053.021.107.035.161.014.054.029.108.045.161l.51 1.636c.027.081.069.122.128.122h.549l.896-2.83h-.516c-.046 0-.086.011-.121.035-.035.024-.057.054-.066.091l-.42 1.512c-.023.084-.043.166-.059.245-.015.08-.03.159-.043.238l-.056-.225c-.02-.075-.041-.151-.065-.23l-.463-1.545c-.011-.037-.034-.068-.067-.091-.033-.024-.074-.036-.124-.036h-.3c-.045 0-.083.012-.116.036-.033.023-.055.054-.067.09l-.468 1.518-.074.243c-.023.079-.044.158-.064.237l-.04-.237c-.014-.08-.032-.16-.054-.243l-.406-1.512c-.009-.037-.031-.067-.066-.09-.035-.025-.078-.037-.13-.037h-.54l.896 2.83h.522zm3.972 0v-2.047c.092-.092.19-.165.293-.218.102-.054.213-.08.33-.08.16 0 .28.047.36.142.08.095.12.228.12.401v1.802h.682v-1.802c0-.158-.02-.303-.062-.434-.042-.132-.102-.245-.182-.34-.08-.094-.18-.168-.3-.22-.12-.053-.256-.079-.41-.079-.179 0-.334.032-.467.097-.132.064-.254.149-.364.253v-1.575h-.681v4.1h.681zm3.658.041c.1 0 .202-.007.308-.022.105-.015.21-.04.311-.076.102-.036.2-.084.294-.143.094-.06.179-.134.254-.222l-.199-.249c-.014-.02-.032-.036-.052-.047-.02-.01-.044-.016-.072-.016-.042 0-.086.013-.13.038-.046.026-.098.055-.158.086-.06.031-.13.06-.21.085-.08.026-.175.04-.285.04-.225 0-.405-.069-.541-.205-.136-.136-.214-.35-.234-.64h1.749c.03 0 .057-.004.077-.012.02-.009.036-.023.048-.042.012-.02.02-.046.025-.08.004-.034.007-.077.007-.128 0-.204-.03-.386-.091-.545-.061-.16-.146-.293-.254-.403-.109-.11-.238-.192-.388-.25-.15-.056-.314-.085-.492-.085-.212 0-.401.037-.57.11-.168.074-.31.174-.427.3-.117.126-.207.274-.27.444-.062.17-.093.352-.093.545 0 .248.036.466.108.655.071.188.17.347.295.474.125.128.272.225.441.29.17.065.352.098.549.098zm.58-1.782h-1.28c.03-.206.102-.365.215-.477.112-.113.267-.169.466-.169.1 0 .19.017.265.051.075.034.137.08.187.14.05.059.087.127.11.205.024.078.036.162.036.25zm1.848 1.74v-1.762c.07-.151.155-.265.256-.344.101-.078.223-.117.364-.117.08 0 .143.007.19.02.048.012.086.019.114.019.031 0 .056-.007.074-.02.019-.015.03-.038.036-.071l.088-.51c-.092-.065-.207-.097-.347-.097-.17 0-.322.05-.458.152-.136.1-.255.239-.356.413l-.041-.342c-.01-.062-.028-.106-.056-.132-.027-.026-.076-.039-.146-.039h-.4v2.83h.682zm2.775.042c.1 0 .202-.007.307-.022.106-.015.21-.04.312-.076.102-.036.2-.084.294-.143.094-.06.178-.134.254-.222l-.199-.249c-.015-.02-.032-.036-.052-.047-.02-.01-.044-.016-.072-.016-.042 0-.086.013-.131.038-.045.026-.098.055-.157.086-.06.031-.13.06-.21.085-.08.026-.175.04-.286.04-.224 0-.404-.069-.54-.205-.136-.136-.214-.35-.235-.64h1.75c.03 0 .056-.004.077-.012.02-.009.036-.023.048-.042.012-.02.02-.046.025-.08.004-.034.007-.077.007-.128 0-.204-.03-.386-.091-.545-.061-.16-.146-.293-.254-.403-.109-.11-.238-.192-.388-.25-.15-.056-.314-.085-.492-.085-.212 0-.402.037-.57.11-.168.074-.31.174-.428.3-.116.126-.206.274-.269.444-.062.17-.093.352-.093.545 0 .248.036.466.107.655.072.188.17.347.295.474.126.128.273.225.442.29.169.065.352.098.549.098zm.58-1.782h-1.28c.03-.206.102-.365.214-.477.112-.113.268-.169.466-.169.102 0 .19.017.265.051.076.034.138.08.188.14.05.059.086.127.11.205.024.078.036.162.036.25zm1.23 2.524c.097-.077.183-.162.259-.254.075-.092.139-.186.19-.284.052-.097.09-.195.117-.292.027-.098.04-.19.04-.279 0-.062-.008-.122-.024-.178-.017-.056-.043-.106-.078-.149s-.078-.077-.13-.102c-.05-.025-.112-.037-.181-.037-.06 0-.114.01-.163.029-.05.02-.092.046-.127.08s-.062.073-.081.118c-.02.046-.03.094-.03.145 0 .06.01.113.03.163.019.05.046.093.08.13.034.036.074.065.122.087.048.02.1.031.158.031-.011.055-.03.107-.054.156-.025.049-.052.094-.082.135-.03.042-.058.079-.088.11l-.074.082c-.015.015-.028.031-.038.05-.01.018-.015.035-.015.05 0 .04.017.074.05.101l.118.108zm3.82-.783l.88-2.726.035-.113c.012-.04.023-.084.034-.13.011.046.023.09.035.13l.034.113.872 2.726h.67l1.239-3.99h-.582c-.063 0-.116.017-.16.05s-.073.073-.086.119l-.678 2.386c-.015.057-.03.119-.043.185-.014.066-.027.135-.04.207-.03-.144-.065-.274-.105-.392l-.778-2.386c-.016-.052-.046-.093-.088-.123-.043-.03-.096-.045-.16-.045h-.218c-.063 0-.116.017-.159.052-.043.035-.072.074-.087.116l-.783 2.386c-.02.059-.04.123-.057.192s-.033.142-.048.22c-.013-.078-.026-.151-.04-.22-.014-.07-.029-.133-.045-.192l-.68-2.386c-.014-.052-.043-.093-.086-.123s-.097-.045-.161-.045h-.624l1.239 3.989h.67zm4.1 0c.062 0 .115-.018.158-.053s.072-.073.087-.116l.298-.813h1.652l.298.813c.019.048.049.088.09.12.041.032.094.049.159.049h.573l-1.567-3.99h-.758l-1.567 3.99h.576zm2.005-1.507h-1.272l.486-1.321c.024-.06.048-.132.073-.212.025-.081.05-.169.076-.262.026.093.052.18.078.26.027.08.051.15.074.208l.485 1.327zm5.043 1.55c.208 0 .401-.04.58-.122.18-.082.335-.206.467-.374.131-.167.234-.38.309-.636.074-.256.111-.558.111-.906 0-.35-.037-.652-.111-.907-.075-.256-.178-.468-.31-.635-.13-.167-.286-.292-.466-.374-.179-.082-.372-.123-.58-.123-.208 0-.4.041-.578.123-.178.082-.332.207-.462.374s-.233.379-.306.635c-.074.255-.11.558-.11.907 0 .348.036.65.11.906.073.257.175.469.306.636.13.168.284.292.462.374.177.082.37.123.578.123zm0-.565c-.098 0-.192-.022-.283-.067-.091-.045-.171-.124-.241-.236-.07-.112-.126-.263-.167-.453-.042-.19-.062-.428-.062-.717s.02-.528.062-.717c.041-.19.097-.34.167-.453.07-.112.15-.19.241-.235.091-.045.185-.068.283-.068.1 0 .195.023.287.068.092.045.173.123.244.235.07.113.127.263.17.453.042.19.063.428.063.717s-.021.528-.064.717c-.042.19-.098.34-.17.453-.07.112-.151.19-.243.236-.092.045-.188.067-.287.067zm3.2.566c.208 0 .401-.041.58-.123.18-.082.335-.206.467-.374.131-.167.234-.38.309-.636.074-.256.111-.558.111-.906 0-.35-.037-.652-.111-.907-.075-.256-.178-.468-.31-.635-.13-.167-.286-.292-.465-.374-.18-.082-.373-.123-.581-.123-.208 0-.4.041-.578.123-.178.082-.332.207-.462.374s-.233.379-.306.635c-.074.255-.11.558-.11.907 0 .348.036.65.11.906.073.257.175.469.306.636.13.168.284.292.462.374.177.082.37.123.578.123zm0-.566c-.098 0-.192-.022-.283-.067-.091-.045-.171-.124-.241-.236-.07-.112-.126-.263-.167-.453-.042-.19-.062-.428-.062-.717s.02-.528.062-.717c.041-.19.097-.34.167-.453.07-.112.15-.19.241-.235.091-.045.185-.068.283-.068.1 0 .195.023.287.068.092.045.173.123.244.235.07.113.127.263.17.453.042.19.063.428.063.717s-.021.528-.063.717c-.043.19-.1.34-.17.453-.071.112-.152.19-.244.236-.092.045-.188.067-.287.067zm3.2.566c.208 0 .401-.041.58-.123.18-.082.335-.206.467-.374.131-.167.234-.38.309-.636.074-.256.111-.558.111-.906 0-.35-.037-.652-.111-.907-.075-.256-.178-.468-.31-.635-.13-.167-.286-.292-.465-.374-.18-.082-.373-.123-.581-.123-.208 0-.4.041-.578.123-.178.082-.332.207-.462.374s-.233.379-.306.635c-.074.255-.11.558-.11.907 0 .348.036.65.11.906.073.257.175.469.306.636.13.168.284.292.462.374.177.082.37.123.578.123zm0-.566c-.098 0-.192-.022-.283-.067-.091-.045-.171-.124-.241-.236-.07-.112-.126-.263-.167-.453-.042-.19-.062-.428-.062-.717s.02-.528.062-.717c.041-.19.097-.34.167-.453.07-.112.15-.19.241-.235.091-.045.185-.068.283-.068.1 0 .195.023.287.068.092.045.173.123.244.235.07.113.127.263.17.453.042.19.063.428.063.717s-.021.528-.063.717c-.043.19-.1.34-.17.453-.07.112-.152.19-.244.236-.092.045-.188.067-.287.067zm3.2.566c.208 0 .401-.041.58-.123.18-.082.335-.206.467-.374.131-.167.234-.38.309-.636.074-.256.111-.558.111-.906 0-.35-.037-.652-.111-.907-.075-.256-.178-.468-.31-.635-.13-.167-.286-.292-.465-.374-.18-.082-.373-.123-.581-.123-.208 0-.4.041-.578.123-.178.082-.332.207-.462.374s-.233.379-.306.635c-.074.255-.11.558-.11.907 0 .348.036.65.11.906.073.257.175.469.306.636.13.168.284.292.462.374.177.082.37.123.578.123zm0-.566c-.098 0-.192-.022-.283-.067-.091-.045-.171-.124-.241-.236-.07-.112-.126-.263-.167-.453-.042-.19-.062-.428-.062-.717s.02-.528.062-.717c.041-.19.097-.34.167-.453.07-.112.15-.19.241-.235.091-.045.185-.068.283-.068.1 0 .195.023.287.068.092.045.173.123.244.235.07.113.127.263.17.453.042.19.063.428.063.717s-.021.528-.063.717c-.043.19-.1.34-.17.453-.07.112-.152.19-.244.236-.092.045-.188.067-.287.067zm3.2.566c.208 0 .401-.041.58-.123.18-.082.335-.206.467-.374.131-.167.234-.38.309-.636.074-.256.111-.558.111-.906 0-.35-.037-.652-.111-.907-.075-.256-.178-.468-.31-.635-.13-.167-.286-.292-.465-.374-.18-.082-.373-.123-.581-.123-.208 0-.4.041-.578.123-.178.082-.332.207-.462.374s-.233.379-.306.635c-.074.255-.11.558-.11.907 0 .348.036.65.11.906.073.257.175.469.306.636.13.168.284.292.462.374.177.082.37.123.578.123zm0-.566c-.098 0-.192-.022-.283-.067-.09-.045-.171-.124-.241-.236-.07-.112-.126-.263-.167-.453-.042-.19-.062-.428-.062-.717s.02-.528.062-.717c.041-.19.097-.34.167-.453.07-.112.15-.19.241-.235.091-.045.185-.068.283-.068.1 0 .195.023.287.068.092.045.173.123.244.235.07.113.127.263.17.453.042.19.063.428.063.717s-.021.528-.063.717c-.043.19-.1.34-.17.453-.07.112-.152.19-.244.236-.092.045-.188.067-.287.067zM7.475 39.409v-1.404h.557c.26 0 .486-.032.679-.097.193-.064.354-.154.483-.27.128-.116.225-.254.29-.415.064-.161.096-.338.096-.531 0-.186-.03-.357-.091-.513-.06-.157-.155-.29-.281-.403-.127-.112-.288-.2-.483-.262-.195-.063-.426-.094-.693-.094H6.733v3.989h.742zm.557-1.983h-.557v-1.432h.557c.136 0 .255.016.356.048.101.032.185.079.251.14.066.06.116.134.15.22.032.087.049.183.049.29 0 .112-.017.214-.05.305-.033.09-.083.168-.149.231-.066.064-.15.112-.25.147-.102.034-.22.05-.357.05zm1.887 1.983c.063 0 .116-.017.159-.052.043-.035.072-.074.087-.116l.298-.814h1.652l.298.814c.018.048.048.088.09.12.041.032.094.048.158.048h.574l-1.567-3.989h-.758l-1.567 3.989h.576zm2.006-1.506h-1.272l.486-1.322c.023-.06.048-.131.073-.212.024-.08.05-.168.076-.262.025.094.051.18.078.26.027.08.051.15.073.209l.486 1.327zm2.993 1.506v-1.55l1.45-2.439h-.656c-.062 0-.114.018-.154.052-.04.035-.07.073-.091.114l-.726 1.332c-.042.077-.078.151-.109.222-.03.07-.057.141-.081.211-.026-.068-.054-.137-.086-.208-.03-.071-.068-.146-.11-.225l-.73-1.332c-.027-.048-.058-.088-.096-.12-.038-.03-.089-.046-.153-.046h-.654l1.454 2.439v1.55h.742zm4.513 0v-3.38h1.2v-.609h-3.148v.61h1.206v3.379h.742zm3.263.044c.302 0 .577-.05.825-.153.249-.102.461-.244.638-.426.176-.182.313-.398.41-.647.098-.25.147-.52.147-.812 0-.293-.049-.564-.146-.813-.098-.25-.235-.464-.411-.645-.177-.182-.39-.324-.638-.427-.248-.103-.523-.154-.825-.154-.301 0-.577.05-.826.153-.249.102-.462.244-.64.426-.177.182-.315.398-.412.647-.098.25-.146.52-.146.813 0 .292.048.563.146.812.097.25.235.465.412.647.178.182.391.324.64.426.25.102.525.153.826.153zm0-.634c-.194 0-.37-.033-.526-.097-.157-.064-.29-.157-.4-.277-.108-.12-.193-.268-.251-.442-.06-.173-.089-.37-.089-.588 0-.22.03-.416.089-.59.058-.173.143-.32.252-.442.11-.122.242-.214.399-.279.156-.064.332-.096.526-.096.195 0 .37.032.526.096.155.065.287.157.396.279.108.121.192.269.25.443.057.173.086.37.086.589 0 .218-.029.415-.086.588-.058.174-.142.321-.25.442-.109.12-.24.213-.396.277-.155.064-.33.097-.526.097zm5.28.59v-3.38h1.2v-.609h-3.147v.61h1.205v3.379h.742zm2.42 0v-1.743h1.87v1.743h.748V35.42h-.748v1.716h-1.87V35.42h-.748v3.989h.748zm5.94 0v-.593h-1.77v-1.128h1.394v-.571h-1.393V36.01h1.768v-.59h-2.516v3.989h2.516zm-27.819 6.35c.302 0 .577-.051.825-.154.248-.102.46-.244.637-.426s.314-.397.411-.647c.098-.249.146-.52.146-.812 0-.292-.048-.563-.146-.812-.097-.25-.234-.465-.41-.646-.177-.181-.39-.323-.638-.426-.248-.103-.523-.155-.825-.155-.302 0-.577.051-.826.153-.25.103-.463.245-.64.427-.178.182-.315.397-.413.647-.097.249-.146.52-.146.812 0 .292.049.563.146.812.098.25.235.465.413.647.177.182.39.324.64.426.25.103.524.154.826.154zm0-.635c-.195 0-.37-.032-.527-.096-.156-.065-.289-.157-.398-.278-.11-.12-.194-.267-.253-.441s-.088-.37-.088-.589c0-.219.03-.415.088-.589.059-.174.143-.321.253-.443.109-.121.242-.214.398-.278.157-.065.332-.097.527-.097s.37.032.526.097c.155.064.287.157.395.278.109.122.192.27.25.443.058.174.087.37.087.589 0 .219-.029.415-.087.589-.058.174-.141.32-.25.441-.108.12-.24.213-.395.278-.156.064-.331.096-.526.096zm3.371.59v-1.558h.317c.074 0 .13.01.167.03.038.02.072.054.104.102l.838 1.277c.032.048.07.085.115.11.045.027.1.04.164.04h.668l-.999-1.474c-.068-.099-.149-.175-.243-.229.14-.044.265-.103.374-.176.11-.074.201-.16.276-.257.074-.097.131-.206.17-.325.04-.12.06-.247.06-.38 0-.17-.029-.325-.087-.466-.058-.14-.149-.261-.273-.363-.124-.1-.283-.18-.477-.235-.194-.056-.427-.085-.7-.085h-1.216v3.99h.742zm.464-2.09h-.464v-1.325h.475c.274 0 .477.055.61.163.134.109.2.264.2.466 0 .101-.016.194-.049.279-.033.084-.083.158-.15.22-.067.06-.153.11-.257.144-.104.035-.226.052-.365.052zm3.906 2.09c.301 0 .576-.048.825-.146.248-.097.46-.234.637-.41.176-.177.313-.388.41-.633.098-.244.147-.513.147-.805 0-.292-.049-.561-.146-.806-.098-.244-.235-.454-.411-.63-.177-.176-.39-.313-.637-.41-.249-.1-.524-.149-.825-.149h-1.523v3.99h1.523zm0-.59h-.775v-2.808h.775c.195 0 .37.032.525.096.156.065.288.157.396.278.109.12.192.267.251.441.06.174.089.37.089.589 0 .219-.03.415-.089.589s-.142.32-.25.441c-.11.12-.241.213-.397.278-.155.064-.33.096-.525.096zm5.117.59v-.593h-1.768v-1.128h1.393v-.571h-1.393v-1.106h1.768v-.59h-2.516v3.988h2.516zm1.41 0v-1.558h.317c.074 0 .13.01.167.03.038.02.072.054.103.102l.839 1.277c.031.048.07.085.114.11.045.027.1.04.165.04h.667l-.998-1.474c-.069-.099-.15-.175-.243-.229.14-.044.264-.103.374-.176.109-.074.201-.16.275-.257.075-.097.132-.206.171-.325.04-.12.06-.247.06-.38 0-.17-.03-.325-.087-.466-.058-.14-.15-.261-.273-.363-.124-.1-.283-.18-.477-.235-.194-.056-.428-.085-.7-.085h-1.216v3.99h.742zm.463-2.09h-.463v-1.325h.474c.274 0 .478.055.611.163.134.109.2.264.2.466 0 .101-.016.194-.05.279-.032.084-.083.158-.15.22-.067.06-.152.11-.256.144-.104.035-.226.052-.366.052zm5.255 2.135c.302 0 .577-.051.825-.154.248-.102.46-.244.637-.426s.314-.397.411-.647c.098-.249.147-.52.147-.812 0-.292-.049-.563-.147-.812-.097-.25-.234-.465-.41-.646-.177-.181-.39-.323-.638-.426-.248-.103-.523-.155-.825-.155-.301 0-.577.051-.826.153-.249.103-.462.245-.64.427-.177.182-.315.397-.412.647-.098.249-.146.52-.146.812 0 .292.048.563.146.812.097.25.235.465.412.647.178.182.391.324.64.426.25.103.525.154.826.154zm0-.635c-.195 0-.37-.032-.527-.096-.156-.065-.289-.157-.398-.278-.11-.12-.194-.267-.253-.441-.058-.174-.088-.37-.088-.589 0-.219.03-.415.088-.589.06-.174.143-.321.253-.443.11-.121.242-.214.398-.278.157-.065.332-.097.527-.097s.37.032.526.097c.155.064.287.157.396.278.108.122.191.27.25.443.057.174.086.37.086.589 0 .219-.029.415-.087.589-.058.174-.14.32-.25.441-.108.12-.24.213-.395.278-.155.064-.33.096-.526.096zm3.352.59V44.09h1.493v-.593h-1.493v-1.181h1.768v-.59h-2.515v3.988h.747zM170.15 43.965c.053 0 .096-.018.129-.054.033-.036.051-.075.055-.117l.033-.405c.206-.015.39-.058.55-.13.16-.072.294-.165.403-.28.11-.115.193-.247.25-.397.057-.15.085-.31.085-.482 0-.173-.032-.317-.096-.431-.065-.115-.149-.212-.253-.289-.103-.077-.22-.14-.35-.189-.13-.048-.26-.093-.393-.134l.097-1.142c.071.017.137.038.195.064.06.026.113.05.162.076.049.025.092.046.13.063.037.018.07.026.097.026.037 0 .068-.009.094-.027.026-.019.052-.046.077-.083l.166-.251c-.105-.1-.228-.189-.37-.268-.141-.079-.31-.134-.505-.165l.047-.544h-.25c-.054 0-.097.018-.13.053s-.052.074-.056.118l-.03.348c-.202.01-.381.048-.538.116-.156.068-.288.154-.394.26-.107.104-.188.223-.244.356-.057.134-.085.27-.085.41 0 .188.032.344.094.47.063.124.145.228.247.31.102.081.217.147.345.197.128.05.257.093.388.13l-.105 1.235c-.103-.018-.192-.047-.268-.085-.075-.039-.142-.078-.201-.116l-.157-.1c-.046-.03-.09-.044-.13-.044-.033 0-.065.01-.095.027s-.055.04-.073.067l-.21.312c.132.13.293.24.481.328.189.088.39.147.606.177l-.05.59h.251zm.002-3.04c-.07-.026-.134-.055-.193-.087-.059-.032-.11-.069-.153-.11-.043-.042-.077-.089-.1-.142-.025-.054-.037-.115-.037-.185 0-.06.01-.118.032-.172.021-.055.055-.104.1-.148.047-.044.105-.081.177-.112.072-.03.158-.052.26-.065l-.086 1.021zm.265 1.892l.094-1.12c.071.024.138.051.198.08.06.03.114.065.159.105.045.04.08.087.105.14.024.052.037.113.037.183 0 .171-.05.31-.15.415-.1.106-.248.172-.443.197zM179.266 58.325c.302 0 .577-.048.825-.146.248-.097.46-.234.637-.41.177-.177.314-.388.411-.633.098-.244.146-.513.146-.805 0-.293-.048-.561-.146-.806-.097-.244-.234-.454-.41-.63-.177-.176-.39-.313-.638-.411-.248-.098-.523-.148-.825-.148h-1.523v3.99h1.523zm0-.59h-.775v-2.808h.775c.195 0 .37.032.526.096.155.065.287.157.395.278.109.12.193.267.252.44.058.175.088.371.088.59 0 .219-.03.415-.088.589-.06.174-.143.32-.252.441-.108.12-.24.213-.395.277-.156.065-.331.097-.526.097zm4.408.634c.302 0 .577-.05.825-.153.248-.102.46-.244.637-.426s.314-.398.411-.647c.098-.249.147-.52.147-.812 0-.293-.049-.563-.147-.813-.097-.249-.234-.464-.41-.645-.177-.181-.39-.323-.638-.426-.248-.103-.523-.155-.825-.155-.301 0-.577.051-.826.153-.249.102-.462.244-.64.427-.177.182-.315.397-.412.646-.098.25-.146.52-.146.813 0 .292.048.563.146.812.097.25.235.465.412.647.178.182.391.324.64.426.25.102.525.153.826.153zm0-.634c-.195 0-.37-.032-.527-.097-.156-.064-.289-.156-.398-.277-.11-.12-.194-.267-.253-.441-.058-.174-.088-.37-.088-.59 0-.218.03-.414.088-.588.06-.174.143-.321.253-.443.11-.121.242-.214.398-.279.157-.064.332-.096.527-.096s.37.032.526.096c.155.065.287.158.396.28.108.12.191.268.25.442.057.174.086.37.086.589 0 .219-.029.415-.087.589-.058.174-.14.32-.25.441-.108.12-.24.213-.395.277-.156.065-.33.097-.526.097zm4.944.59v-.612h-1.597v-3.377h-.742v3.99h2.339zm2.852 0v-.612h-1.597v-3.377h-.742v3.99h2.34zm.704 0c.062 0 .115-.017.158-.052.044-.035.073-.074.087-.116l.298-.814h1.653l.298.814c.018.048.048.088.09.12.04.032.093.048.158.048h.574l-1.567-3.989h-.759l-1.567 3.99h.577zm2.005-1.506h-1.271l.485-1.321c.024-.06.048-.132.073-.213.025-.08.05-.168.076-.262.026.094.052.18.079.26.026.08.05.15.073.21l.485 1.326zm2.489 1.506v-1.558h.317c.073 0 .129.01.167.03.037.02.072.054.103.102l.839 1.277c.031.048.07.085.114.11.045.026.1.04.164.04h.668l-.999-1.474c-.068-.1-.149-.175-.242-.229.14-.044.264-.103.373-.176.11-.074.202-.16.276-.257.075-.097.132-.206.171-.325.04-.12.06-.247.06-.381 0-.17-.03-.324-.087-.465-.058-.14-.15-.261-.273-.363-.125-.1-.284-.18-.478-.236-.194-.056-.427-.084-.699-.084h-1.217v3.99h.743zm.463-2.09h-.463V54.91h.474c.274 0 .478.054.611.163.133.108.2.264.2.466 0 .101-.017.194-.05.279-.033.084-.083.157-.15.22-.067.06-.153.109-.257.144-.103.035-.225.052-.365.052zm3.39 2.134c.221 0 .417-.033.588-.1.171-.067.316-.16.434-.276.119-.117.21-.254.27-.411.062-.157.093-.326.093-.506 0-.166-.026-.307-.078-.422-.053-.116-.122-.214-.209-.294-.086-.08-.185-.146-.295-.199-.11-.052-.223-.098-.338-.138-.115-.04-.227-.077-.338-.111-.11-.035-.209-.075-.295-.12-.086-.043-.156-.097-.208-.16-.053-.062-.079-.14-.079-.234 0-.073.013-.14.039-.202.026-.062.065-.115.117-.159.052-.044.117-.079.193-.103.076-.025.166-.038.27-.038.113 0 .212.015.296.043.083.029.156.06.219.095.062.035.117.067.163.095.046.029.087.043.124.043.037 0 .068-.008.095-.025.027-.016.05-.045.07-.085l.182-.35c-.14-.133-.309-.236-.507-.31-.199-.073-.416-.11-.651-.11-.208 0-.393.032-.555.097-.162.064-.298.15-.41.256-.11.107-.195.23-.253.367-.058.138-.087.28-.087.425 0 .182.026.335.079.46.052.124.121.227.208.31.086.082.185.15.295.201.11.052.223.096.337.133.114.036.226.07.336.102.11.03.209.069.295.114.087.045.156.1.209.167.052.066.078.152.078.257 0 .187-.058.331-.174.431-.115.1-.28.15-.49.15-.139 0-.257-.018-.355-.056-.098-.038-.184-.08-.257-.125-.072-.046-.135-.088-.189-.126-.053-.038-.103-.057-.149-.057-.035 0-.066.01-.095.027-.028.017-.053.039-.073.064l-.215.356c.077.08.165.151.263.216.099.064.205.12.318.165.113.046.23.081.354.106.123.025.248.037.375.037zM146.95 24.434c.302 0 .577-.05.826-.147.248-.097.46-.234.637-.41.176-.177.313-.388.41-.632.098-.245.147-.513.147-.806 0-.292-.049-.56-.146-.805-.098-.245-.235-.455-.411-.63-.177-.176-.39-.313-.637-.412-.249-.098-.524-.147-.825-.147h-1.523v3.989h1.523zm0-.59h-.774v-2.809h.775c.195 0 .37.032.525.097.156.064.288.156.396.277.109.12.192.267.251.441s.088.37.088.59c0 .218-.029.414-.088.588s-.142.321-.25.441c-.11.12-.241.213-.397.278-.155.064-.33.096-.525.096zm2.652.59c.062 0 .115-.018.158-.053.044-.035.073-.073.087-.116l.298-.813h1.653l.298.813c.018.048.048.088.09.12.04.032.093.049.158.049h.574l-1.567-3.99h-.759l-1.567 3.99h.577zm2.005-1.507h-1.271l.485-1.321c.024-.06.048-.132.073-.212.025-.081.05-.169.076-.262.026.093.052.18.079.26.026.08.05.15.073.208l.485 1.327zm2.927 1.507v-3.38h1.2v-.61h-3.147v.61h1.205v3.38h.742zm4.188 0v-.594h-1.769v-1.128h1.394v-.57h-1.394v-1.107h1.769v-.59h-2.516v3.989h2.516zM188.96 11.823v-.51h-.718V7.827h-.56l-1.216 1.035.215.295c.015.02.037.038.067.054.03.015.064.023.101.023.024 0 .048-.004.073-.01.025-.008.05-.022.073-.042l.574-.48c-.005.099-.008.194-.008.284v2.325h-.808v.51h2.207zm3.219 0v-.409c0-.068-.022-.122-.065-.164-.043-.041-.102-.062-.175-.062h-1.024c-.077 0-.158.007-.242.02-.085.015-.171.034-.26.06l.9-.918c.106-.11.208-.22.306-.326.097-.107.182-.217.255-.331.073-.114.13-.234.174-.359.043-.125.065-.26.065-.408 0-.17-.03-.326-.091-.466s-.146-.26-.254-.359c-.109-.099-.24-.176-.392-.23-.153-.054-.32-.081-.505-.081-.176 0-.341.024-.495.073-.153.048-.29.121-.408.218-.119.096-.218.217-.297.361-.079.144-.132.312-.16.503l.359.064c.033.005.063.008.09.008.063 0 .115-.015.155-.045.04-.03.071-.08.091-.15.043-.14.117-.252.222-.334.106-.083.241-.125.405-.125.088 0 .167.013.238.038.071.024.132.062.184.111.051.05.09.111.118.184.028.072.042.157.042.252 0 .105-.015.205-.043.3-.029.094-.07.188-.124.28-.054.091-.122.184-.202.278-.08.094-.17.192-.271.295l-1.211 1.214c-.043.042-.073.088-.093.138-.02.05-.029.098-.029.143v.227h2.737zm1.873.044c.184 0 .358-.027.523-.08.164-.053.31-.132.434-.236.125-.104.225-.232.298-.385.074-.152.11-.328.11-.527 0-.233-.058-.427-.176-.582-.118-.154-.296-.27-.535-.345.1-.033.188-.074.266-.124.078-.05.144-.11.199-.182.054-.072.095-.156.124-.252.028-.097.042-.209.042-.335 0-.146-.028-.28-.084-.406-.056-.125-.136-.234-.241-.327-.105-.093-.231-.165-.38-.218-.147-.052-.313-.078-.497-.078-.177 0-.342.024-.495.073-.154.048-.29.121-.409.218-.118.096-.217.217-.296.361-.08.144-.133.312-.16.503l.358.064c.033.005.065.008.094.008.063 0 .113-.015.152-.045.038-.03.069-.08.09-.15.043-.135.118-.245.224-.33.107-.086.241-.129.403-.129.178 0 .32.049.422.145.103.097.155.24.155.43 0 .087-.013.168-.039.242-.026.073-.071.136-.137.189-.065.052-.153.093-.263.123-.11.03-.25.045-.417.047v.485c.203 0 .364.016.485.047.12.031.212.074.277.13.064.055.107.121.127.2.02.078.03.165.03.26 0 .076-.014.15-.043.225-.028.075-.071.142-.13.203-.057.06-.13.11-.216.147-.086.038-.187.057-.303.057-.103 0-.192-.015-.267-.045-.074-.03-.139-.07-.194-.12-.055-.048-.103-.103-.142-.166-.04-.063-.076-.126-.11-.19-.02-.039-.048-.068-.086-.089-.038-.02-.08-.03-.128-.03-.054 0-.106.011-.157.033l-.301.124c.055.171.121.322.198.453.078.13.172.24.282.33.11.09.24.159.389.205.149.046.323.069.524.069zm4.157-.044v-.974h.362c.046 0 .08-.013.104-.04.024-.027.036-.058.036-.095v-.395h-.502V7.831h-.645l-1.89 2.524.069.345c.01.042.031.078.066.106.035.029.076.043.122.043h1.682v.974h.596zm-.596-1.504H196.4l1.238-1.707c-.009.073-.015.144-.02.212-.003.068-.005.132-.005.19v1.305zm2.577 1.548c.213 0 .41-.034.592-.102.18-.068.338-.164.47-.289.132-.124.236-.273.31-.448.075-.174.112-.368.112-.58 0-.17-.028-.33-.083-.478-.055-.148-.137-.277-.245-.387-.109-.11-.243-.197-.402-.26-.159-.062-.343-.093-.553-.093-.149 0-.313.018-.494.055l.144-.833h1.098c.143 0 .246-.03.307-.091.062-.061.093-.14.093-.238v-.29h-1.97l-.33 1.937.424.122c.195-.07.389-.105.582-.105.245 0 .43.061.556.183.126.123.189.292.189.51 0 .117-.016.226-.048.326-.033.1-.08.187-.144.26-.063.072-.143.129-.238.17-.096.04-.206.06-.331.06-.118 0-.218-.015-.301-.044-.083-.03-.156-.062-.218-.097-.063-.035-.117-.067-.164-.096-.047-.03-.094-.045-.14-.045-.073 0-.132.032-.176.094l-.21.29c.066.062.141.122.225.178.084.056.175.106.273.149.099.043.204.077.316.103.112.026.23.039.356.039z" transform="translate(.5)"/>
        <path fill="#EFF0F3" fill-opacity=".5" d="M173.4 35.468H201.774V46.503H173.4z" transform="translate(.5)"/>
        <path fill="#DADBE2" fill-rule="nonzero" d="M173.794 58.719L173.794 59.508 6.305 59.508 6.305 58.719zM163.941 45.714L163.941 46.503 37.044 46.503 37.044 45.714zM163.937 25.218L163.946 24.43 202.96 24.832 202.952 25.62z" transform="translate(.5)"/>
        <path fill="#8F9096" d="M6.305 68.572H8.67V75.666H6.305zM89.853 68.572H92.21799999999999V75.666H89.853zM11.035 67.784H14.188V70.93700000000001H11.035zM94.582 67.784H97.735V70.93700000000001H94.582zM11.035 73.301H14.188V76.45400000000001H11.035zM94.582 73.301H97.735V76.45400000000001H94.582z" transform="translate(.5)"/>
        <path fill="#8F9096" fill-rule="nonzero" d="M26.151 74.946c.335 0 .647-.065.934-.195.288-.13.536-.328.746-.593.21-.266.373-.602.492-1.006.118-.405.178-.883.178-1.435s-.06-1.03-.178-1.435c-.119-.405-.283-.74-.492-1.006-.21-.266-.458-.463-.746-.591-.287-.129-.599-.193-.934-.193-.335 0-.645.064-.93.193-.284.128-.53.325-.739.591-.208.266-.37.601-.488 1.006-.117.405-.175.883-.175 1.435s.058 1.03.175 1.435c.117.404.28.74.488 1.006.208.265.455.463.74.593.284.13.594.195.929.195zm0-1.079c-.118 0-.235-.03-.349-.089-.114-.059-.215-.169-.303-.33-.089-.16-.16-.379-.213-.656-.053-.277-.08-.636-.08-1.075 0-.436.027-.794.08-1.073.054-.279.124-.498.213-.657.088-.159.189-.268.303-.327.114-.06.23-.089.349-.089.119 0 .236.03.351.089.116.06.22.168.31.327.091.16.164.378.219.657.055.279.082.637.082 1.073 0 .44-.027.798-.082 1.075-.055.277-.128.496-.219.657-.09.16-.194.27-.31.33-.115.058-.232.088-.351.088zm7.213 1.01v-.97h-1.04v-5.35h-1.11l-1.968 1.651.425.564c.029.037.073.073.132.106.06.033.127.05.202.05.043 0 .088-.008.134-.024.046-.016.093-.043.139-.08l.715-.594c-.008.17-.013.334-.013.49v3.186h-1.214v.971h3.598zm5.064 0v-.78c0-.13-.042-.235-.126-.314-.084-.08-.198-.12-.342-.12h-1.18c-.135 0-.28.014-.435.042-.155.027-.312.064-.47.11l1.235-1.266c.168-.17.326-.339.475-.505.148-.166.28-.338.392-.516.113-.177.201-.365.266-.561.066-.197.098-.41.098-.642 0-.268-.047-.515-.14-.739-.095-.224-.23-.417-.406-.578-.176-.162-.39-.289-.64-.38-.25-.09-.53-.136-.843-.136-.289 0-.559.038-.81.115-.252.076-.475.192-.67.349-.195.156-.359.35-.49.585-.131.234-.22.508-.267.823l.711.126c.035.006.069.01.102.013.033.003.065.004.093.004.122 0 .218-.028.289-.086.07-.058.129-.152.175-.282.03-.078.067-.15.115-.217.048-.066.105-.124.171-.173.067-.05.142-.088.226-.117.084-.03.176-.044.277-.044.246 0 .429.068.549.202.12.134.18.327.18.579 0 .153-.02.298-.057.435-.037.138-.094.275-.169.412-.075.137-.17.277-.286.419-.116.141-.251.29-.408.446l-1.82 1.834c-.087.078-.148.164-.182.26-.035.095-.052.185-.052.269v.433h4.439zm2.887.07c.292 0 .572-.042.84-.124.27-.082.506-.206.71-.37.203-.165.366-.372.487-.62.122-.25.182-.541.182-.876 0-.708-.35-1.184-1.049-1.426.15-.053.284-.118.401-.196.117-.078.216-.172.295-.284.08-.11.14-.242.18-.394.04-.152.06-.327.06-.527 0-.22-.043-.428-.13-.626-.086-.198-.213-.372-.38-.522-.169-.15-.374-.27-.616-.358-.243-.088-.52-.132-.833-.132-.289 0-.559.038-.81.115-.252.076-.475.192-.67.349-.195.156-.359.35-.49.585-.132.234-.22.508-.267.823l.711.126c.035.006.069.01.102.013.033.003.064.004.093.004.122 0 .218-.028.289-.086.07-.058.129-.152.175-.282.03-.078.067-.15.115-.217.048-.066.105-.124.171-.173.067-.05.142-.088.226-.117.084-.03.176-.044.277-.044.246 0 .429.068.549.202.12.134.18.326.18.574 0 .122-.015.233-.044.334-.029.101-.087.187-.175.258-.089.07-.214.127-.375.167-.162.04-.375.06-.638.06v.928c.312 0 .556.021.73.063.176.042.306.102.393.18.087.078.14.171.158.28.02.108.029.23.029.366 0 .104-.02.207-.057.308-.037.101-.093.191-.167.27-.073.08-.166.145-.277.196-.111.05-.242.076-.393.076-.196 0-.367-.054-.513-.163-.146-.108-.284-.282-.414-.522-.038-.07-.093-.122-.167-.158-.074-.037-.157-.055-.25-.055-.048 0-.098.005-.149.013-.05.01-.102.025-.154.048l-.598.243c.101.295.22.549.358.763.137.214.297.39.479.526.182.138.39.239.624.304.234.065.501.097.802.097zm6.676-.07v-1.452h.39c.084 0 .148-.025.193-.074.045-.049.067-.107.067-.173v-.754h-.65V68.56h-1.283l-2.922 3.928.138.663c.018.078.06.143.128.195.068.052.144.078.228.078h2.54v1.452h1.17zm-1.17-2.453h-1.626l1.669-2.337c-.015.124-.026.245-.033.362-.007.117-.01.226-.01.327v1.648zm4.109 2.522c.352 0 .677-.055.973-.166.296-.112.551-.268.765-.47.214-.203.38-.444.5-.723.12-.278.18-.587.18-.925 0-.269-.043-.521-.131-.757-.089-.235-.22-.44-.393-.615-.173-.175-.387-.313-.641-.414-.255-.101-.548-.152-.88-.152-.104 0-.211.005-.321.015-.11.01-.224.026-.343.046l.178-1.045h1.509c.141 0 .263-.015.364-.045.101-.03.183-.074.245-.13.062-.057.107-.123.136-.198.03-.075.044-.159.044-.251v-.555H49.88l-.538 3.16.833.226c.271-.107.549-.16.832-.16.318 0 .563.08.737.24.173.16.26.394.26.7 0 .156-.018.303-.054.44-.036.137-.094.257-.174.36-.08.102-.182.183-.31.243-.127.059-.28.088-.46.088-.178 0-.329-.023-.45-.069-.121-.046-.228-.097-.319-.154l-.251-.156c-.077-.048-.158-.071-.245-.071-.066 0-.129.015-.186.045-.058.03-.109.074-.152.132l-.416.555c.112.11.238.213.377.31s.29.182.453.256c.163.074.338.132.524.175.187.044.383.065.588.065zm5.436 0c.344 0 .657-.057.94-.173.284-.116.526-.272.727-.47.2-.198.356-.43.466-.694.11-.264.164-.544.164-.839 0-.323-.054-.604-.162-.843-.108-.238-.25-.436-.427-.592-.176-.156-.376-.271-.598-.346-.223-.076-.448-.113-.677-.113-.127 0-.246.01-.357.03-.111.02-.218.05-.319.087l.08-.098.085-.097 1.873-2.237h-1.197c-.162 0-.306.03-.433.089-.128.06-.223.132-.286.219l-1.422 1.92c-.237.324-.416.642-.538.954-.121.312-.182.626-.182.94 0 .333.051.638.154.915.103.278.251.516.446.716.196.199.433.354.714.466.28.11.596.166.949.166zm-.026-1.062c-.162 0-.302-.023-.42-.071-.12-.048-.217-.116-.295-.206-.078-.09-.136-.197-.174-.32-.037-.125-.056-.265-.056-.421 0-.156.023-.297.07-.42.045-.125.11-.232.192-.322.083-.09.18-.158.293-.206.112-.047.237-.071.373-.071.15 0 .286.023.41.07.122.046.227.112.314.199.086.086.153.193.201.32.048.128.072.272.072.434 0 .145-.026.278-.076.401s-.12.23-.206.32c-.087.092-.19.163-.31.215-.12.052-.25.078-.388.078zm4.647 1.062c.353 0 .677-.055.973-.166.296-.112.551-.268.765-.47.214-.203.381-.444.501-.723.12-.278.18-.587.18-.925 0-.269-.044-.521-.132-.757-.088-.235-.22-.44-.393-.615-.173-.175-.387-.313-.641-.414-.254-.101-.548-.152-.88-.152-.104 0-.211.005-.321.015-.11.01-.224.026-.342.046l.177-1.045h1.509c.142 0 .263-.015.364-.045.101-.03.183-.074.245-.13.062-.057.108-.123.137-.198.028-.075.043-.159.043-.251v-.555h-3.234l-.538 3.16.833.226c.271-.107.549-.16.832-.16.318 0 .564.08.737.24.173.16.26.394.26.7 0 .156-.018.303-.054.44-.036.137-.094.257-.173.36-.08.102-.183.183-.31.243-.128.059-.28.088-.46.088s-.33-.023-.45-.069c-.122-.046-.228-.097-.32-.154l-.25-.156c-.077-.048-.16-.071-.246-.071-.066 0-.128.015-.186.045-.058.03-.109.074-.152.132l-.416.555c.113.11.238.213.377.31s.29.182.453.256c.163.074.338.132.525.175.186.044.382.065.587.065zm7.118-.069v-1.452h.39c.084 0 .148-.025.193-.074.045-.049.067-.107.067-.173v-.754h-.65V68.56h-1.283L63.9 72.489l.139.663c.017.078.06.143.128.195.068.052.144.078.227.078h2.54v1.452h1.171zm-1.17-2.453h-1.626l1.669-2.337c-.014.124-.025.245-.033.362-.007.117-.01.226-.01.327v1.648zM111.291 74.877c.185 0 .334-.043.447-.128.112-.085.198-.19.255-.314l2.207-4.673c.032-.07.065-.153.1-.252.034-.098.052-.226.052-.385v-.564h-4.44v.884c0 .038.01.075.027.11.017.037.04.069.067.096.027.028.059.05.095.065.036.016.075.024.115.024h2.779c-.084.09-.161.184-.232.282-.071.098-.137.21-.197.334l-2.255 4.521h.98zm5.809.07c.335 0 .642-.045.919-.135.277-.09.515-.216.713-.38.198-.162.351-.36.46-.59.108-.232.162-.49.162-.773 0-.17-.02-.331-.06-.483-.041-.152-.104-.29-.19-.416-.084-.126-.194-.238-.329-.336-.134-.098-.295-.18-.483-.247.286-.13.5-.31.642-.542.141-.231.212-.509.212-.832 0-.246-.05-.474-.152-.683-.1-.21-.242-.391-.424-.544-.183-.153-.399-.274-.649-.362-.25-.088-.523-.132-.821-.132-.298 0-.572.044-.822.132-.25.088-.466.209-.648.362s-.323.334-.424.544c-.102.21-.152.437-.152.683 0 .323.07.6.21.832.14.231.355.412.644.542-.19.066-.353.149-.488.247-.134.098-.244.21-.33.336-.085.126-.147.264-.186.416-.039.152-.058.313-.058.483 0 .284.054.54.162.772.109.231.262.429.46.592.198.163.435.29.713.38.277.089.584.133.919.133zm0-3.841c-.15 0-.273-.025-.369-.074-.095-.05-.17-.114-.225-.195-.055-.081-.092-.173-.113-.278-.02-.104-.03-.21-.03-.32 0-.099.013-.194.039-.286.026-.093.069-.175.128-.245.06-.071.135-.128.227-.172.093-.043.207-.065.343-.065.133 0 .246.022.34.065.094.044.17.1.23.172.06.07.102.152.128.245.026.092.039.187.039.286 0 .11-.01.216-.03.32-.02.105-.058.197-.113.278-.055.08-.13.146-.226.195-.095.05-.218.074-.368.074zm0 2.826c-.153 0-.284-.023-.392-.07-.109-.046-.198-.108-.27-.188-.07-.08-.122-.173-.155-.282-.033-.108-.05-.224-.05-.349 0-.135.014-.26.043-.372.03-.113.077-.21.143-.289.067-.08.156-.141.267-.186.111-.045.25-.067.414-.067.165 0 .303.022.414.067.111.045.2.107.267.186.066.08.114.176.143.289.028.112.043.237.043.372 0 .125-.017.241-.05.35-.033.108-.085.202-.156.281-.07.08-.161.142-.27.189-.11.046-.24.07-.391.07zm4.656.945c.156 0 .296-.029.42-.087.124-.057.216-.128.273-.212l1.362-1.933c.104-.148.197-.297.281-.45.084-.15.156-.31.215-.476.06-.166.105-.34.139-.522.033-.182.05-.377.05-.586 0-.312-.05-.597-.15-.856-.1-.258-.243-.482-.43-.67-.186-.187-.413-.333-.682-.437-.269-.104-.574-.156-.915-.156-.335 0-.638.055-.91.167-.272.11-.505.262-.7.453-.195.19-.346.413-.451.667-.106.254-.158.525-.158.81 0 .313.052.583.156.811.104.229.239.418.405.568.166.15.352.263.557.336.205.074.41.11.616.11.167 0 .328-.016.48-.051.154-.035.296-.087.426-.156-.035.046-.07.092-.106.136l-.115.141-2.003 2.393h1.24zm.563-3.442c-.584 0-.875-.315-.875-.945 0-.133.02-.256.058-.37.04-.115.095-.214.17-.297.073-.084.162-.15.268-.198.105-.047.226-.071.362-.071.133 0 .256.02.368.06.113.04.21.1.289.178.08.078.141.176.186.293.045.117.067.252.067.405 0 .286-.077.515-.232.687-.154.172-.375.258-.66.258zm4.83 3.511c.335 0 .646-.065.934-.195.287-.13.536-.328.745-.593.21-.266.374-.602.492-1.006.119-.405.178-.883.178-1.435s-.06-1.03-.178-1.435-.282-.74-.492-1.006c-.21-.266-.458-.463-.745-.591-.288-.129-.6-.193-.935-.193-.335 0-.645.064-.93.193-.284.128-.53.325-.739.591-.208.266-.37.601-.487 1.006-.117.405-.176.883-.176 1.435s.059 1.03.176 1.435c.117.404.28.74.487 1.006.209.265.455.463.74.593.284.13.594.195.93.195zm0-1.079c-.119 0-.235-.03-.35-.089-.114-.059-.215-.169-.303-.33-.088-.16-.159-.379-.212-.656-.054-.277-.08-.636-.08-1.075 0-.436.026-.794.08-1.073.053-.279.124-.498.212-.657.088-.159.19-.268.303-.327.115-.06.231-.089.35-.089.118 0 .235.03.35.089.116.06.22.168.31.327.092.16.165.378.22.657.054.279.082.637.082 1.073 0 .44-.028.798-.083 1.075-.054.277-.127.496-.218.657-.091.16-.195.27-.31.33-.116.058-.233.088-.352.088zm7.213 1.01v-.97h-1.04v-5.35h-1.11l-1.968 1.651.424.564c.03.037.073.073.133.106.059.033.126.05.201.05.044 0 .088-.008.135-.024.046-.016.092-.043.138-.08l.716-.594c-.009.17-.013.334-.013.49v3.186h-1.214v.971h3.598zm5.063 0v-.78c0-.13-.042-.235-.126-.314-.083-.08-.198-.12-.342-.12h-1.18c-.135 0-.28.014-.435.042-.154.027-.311.064-.47.11l1.235-1.266c.168-.17.326-.339.475-.505.149-.166.28-.338.392-.516.113-.177.202-.365.267-.561.065-.197.097-.41.097-.642 0-.268-.047-.515-.14-.739-.094-.224-.23-.417-.406-.578-.176-.162-.39-.289-.64-.38-.25-.09-.53-.136-.842-.136-.29 0-.56.038-.811.115-.251.076-.475.192-.67.349-.195.156-.358.35-.49.585-.131.234-.22.508-.266.823l.71.126c.035.006.07.01.103.013.033.003.064.004.093.004.121 0 .217-.028.288-.086.07-.058.13-.152.176-.282.029-.078.067-.15.115-.217.047-.066.104-.124.17-.173.067-.05.142-.088.226-.117.084-.03.176-.044.278-.044.245 0 .428.068.548.202.12.134.18.327.18.579 0 .153-.019.298-.056.435-.038.138-.094.275-.17.412-.075.137-.17.277-.286.419-.115.141-.251.29-.407.446l-1.82 1.834c-.087.078-.148.164-.183.26-.035.095-.052.185-.052.269v.433h4.44zm2.887.07c.292 0 .572-.042.841-.124.269-.082.505-.206.709-.37.204-.165.366-.372.488-.62.121-.25.182-.541.182-.876 0-.708-.35-1.184-1.05-1.426.151-.053.285-.118.402-.196.117-.078.215-.172.294-.284.08-.11.14-.242.18-.394.04-.152.061-.327.061-.527 0-.22-.043-.428-.13-.626-.087-.198-.214-.372-.381-.522-.168-.15-.373-.27-.616-.358-.243-.088-.52-.132-.832-.132-.29 0-.56.038-.811.115-.251.076-.475.192-.67.349-.195.156-.358.35-.49.585-.131.234-.22.508-.266.823l.71.126c.035.006.07.01.103.013.033.003.064.004.093.004.121 0 .217-.028.288-.086.07-.058.13-.152.176-.282.029-.078.067-.15.115-.217.047-.066.104-.124.17-.173.067-.05.142-.088.226-.117.084-.03.176-.044.278-.044.245 0 .428.068.548.202.12.134.18.326.18.574 0 .122-.015.233-.043.334-.03.101-.088.187-.176.258-.088.07-.213.127-.375.167-.162.04-.374.06-.637.06v.928c.312 0 .555.021.73.063.175.042.306.102.393.18.086.078.139.171.158.28.019.108.028.23.028.366 0 .104-.019.207-.056.308-.038.101-.094.191-.167.27-.074.08-.167.145-.278.196-.111.05-.242.076-.392.076-.197 0-.368-.054-.514-.163-.146-.108-.284-.282-.414-.522-.037-.07-.093-.122-.167-.158-.073-.037-.156-.055-.249-.055-.05 0-.099.005-.15.013-.05.01-.101.025-.153.048l-.599.243c.102.295.22.549.358.763.137.214.297.39.479.526.182.138.39.239.624.304.234.065.502.097.802.097zm6.676-.07v-1.452h.39c.084 0 .148-.025.193-.074.045-.049.067-.107.067-.173v-.754h-.65V68.56h-1.283l-2.922 3.928.139.663c.017.078.06.143.128.195.068.052.144.078.227.078h2.54v1.452h1.171zm-1.17-2.453h-1.626l1.669-2.337c-.014.124-.025.245-.032.362-.008.117-.011.226-.011.327v1.648zm4.11 2.522c.352 0 .676-.055.972-.166.297-.112.552-.268.766-.47.213-.203.38-.444.5-.723.12-.278.18-.587.18-.925 0-.269-.044-.521-.132-.757-.088-.235-.219-.44-.392-.615-.174-.175-.388-.313-.642-.414-.254-.101-.548-.152-.88-.152-.104 0-.21.005-.32.015-.11.01-.225.026-.343.046l.178-1.045h1.508c.142 0 .263-.015.364-.045.101-.03.183-.074.245-.13.062-.057.108-.123.137-.198.029-.075.043-.159.043-.251v-.555h-3.234l-.537 3.16.832.226c.272-.107.55-.16.832-.16.318 0 .564.08.737.24.174.16.26.394.26.7 0 .156-.018.303-.054.44-.036.137-.094.257-.173.36-.08.102-.183.183-.31.243-.127.059-.28.088-.46.088-.179 0-.33-.023-.45-.069-.122-.046-.228-.097-.32-.154l-.25-.156c-.077-.048-.159-.071-.246-.071-.066 0-.128.015-.186.045-.058.03-.108.074-.152.132l-.416.555c.113.11.239.213.377.31.14.097.29.182.453.256.164.074.338.132.525.175.186.044.382.065.587.065zm5.435 0c.344 0 .658-.057.941-.173.283-.116.525-.272.726-.47.201-.198.356-.43.466-.694.11-.264.165-.544.165-.839 0-.323-.054-.604-.163-.843-.108-.238-.25-.436-.427-.592-.176-.156-.375-.271-.598-.346-.222-.076-.448-.113-.676-.113-.127 0-.247.01-.358.03-.111.02-.217.05-.318.087l.08-.098c.027-.033.055-.065.084-.097l1.873-2.237h-1.196c-.162 0-.307.03-.434.089-.127.06-.222.132-.286.219l-1.422 1.92c-.237.324-.416.642-.537.954-.122.312-.183.626-.183.94 0 .333.052.638.154.915.103.278.252.516.447.716.195.199.433.354.713.466.28.11.597.166.95.166zm-.026-1.062c-.162 0-.302-.023-.42-.071-.119-.048-.217-.116-.295-.206-.078-.09-.136-.197-.173-.32-.038-.125-.057-.265-.057-.421 0-.156.023-.297.07-.42.046-.125.11-.232.193-.322.082-.09.18-.158.292-.206.113-.047.237-.071.373-.071.15 0 .287.023.41.07.122.046.227.112.314.199.087.086.154.193.202.32.047.128.071.272.071.434 0 .145-.025.278-.076.401-.05.123-.119.23-.206.32-.086.092-.19.163-.31.215-.12.052-.249.078-.388.078zm4.24.993c.185 0 .334-.043.446-.128.113-.085.198-.19.256-.314l2.207-4.673c.032-.07.065-.153.1-.252.034-.098.051-.226.051-.385v-.564h-4.439v.884c0 .038.01.075.026.11.018.037.04.069.068.096.027.028.059.05.095.065.036.016.074.024.115.024h2.779c-.084.09-.162.184-.232.282-.071.098-.137.21-.198.334l-2.254 4.521h.98zm5.809.07c.335 0 .641-.045.919-.135.277-.09.515-.216.713-.38.198-.162.351-.36.46-.59.108-.232.162-.49.162-.773 0-.17-.02-.331-.06-.483-.041-.152-.104-.29-.19-.416-.084-.126-.194-.238-.329-.336-.134-.098-.295-.18-.483-.247.286-.13.5-.31.642-.542.141-.231.212-.509.212-.832 0-.246-.05-.474-.152-.683-.1-.21-.243-.391-.425-.544-.182-.153-.398-.274-.648-.362-.25-.088-.523-.132-.821-.132-.298 0-.572.044-.822.132-.25.088-.466.209-.648.362s-.323.334-.425.544c-.1.21-.151.437-.151.683 0 .323.07.6.21.832.14.231.355.412.644.542-.191.066-.354.149-.488.247s-.244.21-.33.336c-.085.126-.147.264-.186.416-.039.152-.058.313-.058.483 0 .284.054.54.162.772.109.231.262.429.46.592.198.163.435.29.713.38.277.089.584.133.919.133zm0-3.841c-.15 0-.273-.025-.369-.074-.095-.05-.17-.114-.225-.195-.055-.081-.093-.173-.113-.278-.02-.104-.03-.21-.03-.32 0-.099.013-.194.039-.286.026-.093.069-.175.128-.245.059-.071.135-.128.227-.172.093-.043.207-.065.343-.065.133 0 .246.022.34.065.094.044.17.1.23.172.06.07.102.152.128.245.026.092.039.187.039.286 0 .11-.01.216-.03.32-.02.105-.058.197-.113.278-.055.08-.13.146-.226.195-.095.05-.218.074-.368.074zm0 2.826c-.153 0-.284-.023-.392-.07-.109-.046-.198-.108-.27-.188-.07-.08-.122-.173-.155-.282-.034-.108-.05-.224-.05-.349 0-.135.014-.26.043-.372.03-.113.077-.21.143-.289.067-.08.156-.141.267-.186.111-.045.25-.067.414-.067.165 0 .303.022.414.067.111.045.2.107.266.186.067.08.115.176.143.289.03.112.044.237.044.372 0 .125-.017.241-.05.35-.033.108-.085.202-.156.281-.07.08-.161.142-.271.189-.11.046-.24.07-.39.07z" transform="translate(.5)"/>
        <path fill="#3D98D2" fill-rule="nonzero" d="M74.877 63.054H18.128c-.87 0-1.576.706-1.576 1.577v14.975c0 .87.706 1.577 1.576 1.577h56.75c.87 0 1.575-.706 1.575-1.577V64.631c0-.87-.705-1.577-1.576-1.577zm-56.749 1.577h56.75v14.975h-56.75V64.631zM176.552 63.054h-74.089c-.87 0-1.576.706-1.576 1.577v14.975c0 .87.706 1.577 1.576 1.577h74.09c.87 0 1.576-.706 1.576-1.577V64.631c0-.87-.706-1.577-1.577-1.577zm-74.089 1.577h74.09v14.975h-74.09V64.631zM48.079 81.183L48.079 94.582 46.503 94.582 46.503 81.183zM140.296 81.183L140.296 94.582 138.72 94.582 138.72 81.183zM21.083 107.712v-2.895h.589c.136 0 .24.02.31.057.07.037.134.1.192.19l1.557 2.371c.058.09.13.157.213.205.084.048.185.072.305.072h1.24l-1.855-2.736c-.126-.184-.277-.326-.45-.425.259-.082.49-.191.693-.328.204-.137.374-.295.513-.476.138-.181.244-.383.317-.605.074-.222.11-.458.11-.707 0-.314-.053-.602-.16-.863-.109-.261-.278-.486-.508-.674-.23-.188-.526-.334-.886-.438-.36-.104-.794-.156-1.3-.156h-2.258v7.408h1.378zm.86-3.883h-.86v-2.46h.88c.51 0 .888.101 1.136.303.247.201.371.49.371.866 0 .187-.03.36-.092.517-.062.157-.155.293-.28.407-.124.115-.283.204-.476.27-.193.064-.42.097-.679.097zm6.599 3.96c.393 0 .749-.063 1.068-.19.32-.126.592-.307.817-.543.226-.236.4-.52.523-.855.123-.335.184-.71.184-1.128 0-.413-.061-.787-.184-1.121-.123-.335-.297-.619-.523-.85-.225-.233-.497-.412-.817-.539-.32-.126-.675-.19-1.068-.19s-.75.064-1.07.19c-.322.127-.596.306-.823.538-.227.232-.403.516-.528.85-.124.335-.187.71-.187 1.122 0 .417.063.793.187 1.128.125.334.3.62.528.855.227.236.501.417.822.543.321.127.678.19 1.071.19zm0-.974c-.444 0-.772-.147-.984-.443-.211-.295-.317-.725-.317-1.288 0-.564.106-.995.317-1.294.212-.299.54-.448.984-.448.437 0 .76.148.97.446.21.297.316.729.316 1.296 0 .567-.105.997-.315 1.29-.21.295-.534.441-.971.441zm5.246.979c.174 0 .337-.018.49-.054.151-.036.293-.085.425-.148.131-.064.255-.14.371-.231.116-.09.229-.19.338-.3l.087.42c.051.154.16.23.323.23h.774v-5.255H35.33v3.8c-.17.172-.352.306-.543.403-.191.097-.396.146-.615.146-.297 0-.52-.088-.668-.264-.149-.176-.223-.424-.223-.745v-3.34h-1.266v3.34c0 .294.039.563.116.807.077.244.19.455.34.632.15.178.336.316.556.413.22.097.474.146.761.146zm5.887 0c.256 0 .503-.04.742-.118.24-.078.451-.195.636-.348l-.38-.615c-.027-.038-.052-.066-.076-.085-.024-.018-.055-.028-.092-.028-.031 0-.062.01-.093.028-.03.02-.065.039-.105.06-.039.02-.085.04-.138.058-.053.019-.119.028-.197.028-.137 0-.246-.046-.328-.138-.082-.092-.123-.22-.123-.384v-2.849h1.383v-.901h-1.383v-1.655h-.656c-.075 0-.137.019-.187.056-.05.038-.08.09-.095.159l-.266 1.435-.845.138v.502c0 .089.024.155.074.2.05.044.108.066.177.066h.533v2.936c0 .454.122.81.368 1.068s.596.387 1.05.387zm2.956-6.076c.112 0 .218-.022.317-.064.1-.043.186-.1.26-.172.072-.072.131-.155.176-.25.044-.097.066-.199.066-.308 0-.113-.022-.219-.066-.318-.045-.099-.104-.184-.177-.256-.073-.072-.16-.129-.259-.172-.099-.042-.205-.064-.317-.064-.11 0-.213.022-.31.064-.098.043-.182.1-.254.172-.072.072-.129.157-.171.256-.043.1-.065.205-.065.318 0 .109.022.211.065.307.042.096.1.18.171.251.072.072.156.13.254.172.097.042.2.064.31.064zm.63 5.994v-5.256h-1.266v5.256h1.266zm2.695 0v-3.801c.17-.171.351-.306.543-.405.191-.1.396-.149.614-.149.298 0 .52.088.669.264.149.176.223.424.223.745v3.346h1.265v-3.346c0-.293-.038-.562-.115-.806-.077-.245-.19-.455-.338-.63-.149-.176-.334-.313-.556-.41-.222-.098-.476-.146-.763-.146-.178 0-.342.017-.492.05-.15.035-.291.084-.423.15-.131.064-.256.141-.374.23-.118.089-.23.188-.335.297l-.087-.415c-.052-.154-.16-.23-.323-.23h-.774v5.256h1.266zm6.393 1.85c.403 0 .762-.053 1.076-.157.314-.104.58-.242.797-.412.217-.171.382-.366.497-.584.114-.219.171-.444.171-.677 0-.249-.048-.453-.146-.612-.097-.159-.225-.284-.384-.376-.159-.093-.339-.16-.54-.203-.202-.042-.408-.072-.62-.09-.212-.016-.419-.028-.62-.033-.202-.005-.382-.018-.54-.038-.16-.02-.287-.056-.385-.105-.097-.05-.146-.127-.146-.233 0-.123.082-.234.246-.333.188.037.38.056.579.056.294 0 .566-.04.817-.12.251-.08.468-.194.65-.341.184-.147.327-.325.431-.535.104-.21.156-.445.156-.705 0-.11-.009-.213-.028-.312-.019-.1-.045-.193-.08-.282l.472-.087c.1-.017.17-.048.21-.092.041-.045.062-.106.062-.185v-.471h-1.512c-.164-.089-.345-.156-.543-.203-.198-.046-.41-.069-.635-.069-.3 0-.578.04-.833.118-.254.079-.474.192-.66.34-.187.15-.332.329-.436.539-.104.21-.156.445-.156.704 0 .321.076.601.228.84.152.24.361.43.627.574-.116.058-.216.124-.302.197-.085.074-.156.152-.212.234-.057.082-.099.164-.126.248-.027.084-.041.165-.041.243 0 .192.04.347.118.467.078.12.183.215.312.287-.266.099-.474.232-.625.4-.15.166-.225.373-.225.619 0 .181.048.355.143.523.096.167.24.315.433.443s.437.23.73.307c.294.077.64.115 1.04.115zm-.015-4.606c-.154 0-.29-.022-.407-.064-.118-.043-.215-.103-.292-.18-.077-.077-.135-.168-.175-.274-.039-.106-.058-.22-.058-.343 0-.26.077-.465.233-.617.155-.152.388-.228.699-.228.31 0 .544.076.7.228.155.152.232.357.232.617 0 .126-.02.242-.059.348-.039.106-.097.197-.174.272-.077.075-.173.134-.29.177-.115.042-.252.064-.409.064zm.036 3.704c-.232 0-.429-.017-.59-.049-.16-.032-.29-.078-.391-.136-.101-.058-.174-.127-.22-.207-.047-.08-.07-.167-.07-.259 0-.14.044-.264.13-.371.088-.108.203-.201.347-.28.157.02.32.035.489.044l.492.026c.159.008.309.02.45.038.142.017.266.044.372.08.106.035.19.086.251.15.062.065.092.15.092.252 0 .102-.025.197-.076.284-.052.087-.133.162-.244.225-.11.064-.252.113-.422.149-.171.036-.374.054-.61.054zm6.69-.948v-3.801c.171-.171.353-.306.544-.405.191-.1.396-.149.615-.149.297 0 .52.088.668.264.149.176.223.424.223.745v3.346h1.265v-3.346c0-.293-.038-.562-.115-.806-.077-.245-.19-.455-.338-.63-.149-.176-.334-.313-.556-.41-.222-.098-.476-.146-.763-.146-.178 0-.342.017-.492.05-.15.035-.291.084-.423.15-.131.064-.256.141-.374.23-.118.089-.23.188-.335.297l-.087-.415c-.052-.154-.16-.23-.323-.23h-.774v5.256h1.266zm6.225.082c.175 0 .338-.018.49-.054.152-.036.293-.085.425-.148.131-.064.255-.14.371-.231.116-.09.23-.19.338-.3l.088.42c.05.154.158.23.322.23h.774v-5.255h-1.266v3.8c-.17.172-.351.306-.543.403-.19.097-.396.146-.614.146-.298 0-.52-.088-.669-.264-.149-.176-.223-.424-.223-.745v-3.34h-1.265v3.34c0 .294.038.563.115.807.077.244.19.455.34.632.151.178.336.316.557.413.22.097.473.146.76.146zm5.426-.082v-3.848c.136-.157.284-.28.443-.371.159-.09.329-.136.51-.136.276 0 .486.08.627.241.142.16.213.417.213.768v3.346h1.27v-3.346c0-.163.024-.309.072-.435.048-.126.114-.231.197-.315.084-.084.181-.148.292-.192.111-.045.232-.067.362-.067.283 0 .498.085.645.254.147.169.22.42.22.755v3.346h1.266v-3.346c0-.317-.04-.599-.12-.845-.08-.246-.198-.454-.351-.625-.154-.17-.344-.3-.57-.39-.225-.088-.482-.132-.773-.132-.167 0-.334.018-.5.056-.165.038-.321.096-.468.174-.147.079-.282.18-.405.305-.123.125-.225.274-.307.448-.106-.297-.266-.535-.48-.714-.213-.18-.485-.27-.816-.27-.157 0-.302.019-.433.054-.132.036-.255.085-.37.146-.113.062-.221.135-.322.22-.1.086-.197.18-.29.282l-.081-.389c-.051-.154-.16-.23-.323-.23h-.774v5.256h1.266zm9.954.077c.345 0 .657-.07.935-.208.278-.138.516-.33.712-.576.197-.246.348-.536.454-.871.106-.335.158-.698.158-1.091 0-.43-.047-.811-.14-1.143-.094-.331-.228-.61-.4-.835-.173-.225-.377-.397-.615-.515-.237-.118-.5-.176-.786-.176-.352 0-.66.065-.922.197-.263.131-.5.308-.707.53V100.1h-1.266v7.613h.835c.086 0 .153-.019.203-.056.05-.038.084-.101.105-.19l.056-.353c.085.102.175.195.269.279.094.083.195.154.305.212.11.058.23.104.364.136.133.033.28.049.44.049zm-.292-.963c-.198 0-.382-.035-.55-.105-.17-.07-.326-.194-.47-.372v-2.356c.161-.202.334-.358.52-.47.187-.11.411-.166.674-.166.168 0 .317.031.449.092.131.062.243.16.335.292.092.134.163.307.213.52.05.214.074.474.074.782 0 .304-.029.568-.087.791-.058.224-.14.41-.249.556-.107.147-.238.256-.391.328-.154.072-.327.108-.518.108zm5.774.963c.184 0 .375-.014.571-.041.197-.028.39-.074.58-.141.189-.067.37-.156.545-.267.174-.11.331-.248.471-.412l-.369-.461c-.027-.038-.06-.067-.097-.087-.038-.02-.082-.03-.133-.03-.079 0-.16.023-.244.07-.083.049-.18.102-.292.16-.11.058-.24.11-.39.159-.148.047-.324.071-.53.071-.416 0-.75-.126-1.004-.379-.252-.253-.397-.649-.435-1.188h3.248c.058 0 .106-.008.144-.023.037-.016.067-.041.09-.077.021-.036.037-.086.045-.149.009-.063.013-.143.013-.238 0-.38-.056-.717-.169-1.012-.113-.295-.27-.545-.471-.748-.202-.203-.442-.358-.72-.464-.278-.105-.583-.158-.915-.158-.392 0-.745.068-1.057.205-.313.136-.578.321-.795.555-.216.234-.383.51-.5.825-.115.316-.173.653-.173 1.012 0 .461.066.867.2 1.217.133.35.315.644.548.881.232.237.505.417.82.538.314.121.653.182 1.019.182zm1.076-3.31h-2.377c.058-.382.19-.678.4-.886.208-.208.496-.313.865-.313.188 0 .352.032.492.095s.256.15.348.259c.092.11.16.236.205.382.045.145.067.3.067.463zm3.432 3.233v-3.274c.13-.28.289-.492.477-.638.188-.145.413-.217.676-.217.147 0 .265.012.354.036.088.023.158.035.21.035.058 0 .104-.012.138-.038.034-.026.056-.07.067-.13l.163-.948c-.17-.12-.386-.18-.645-.18-.314 0-.598.094-.85.282-.253.188-.474.444-.661.768l-.077-.635c-.017-.116-.051-.198-.103-.246-.051-.048-.141-.071-.271-.071h-.743v5.256h1.265zM112.204 107.98c.116 0 .214-.032.295-.097.08-.065.134-.136.161-.215l.553-1.511h3.07l.553 1.511c.034.089.09.163.166.223.077.06.175.09.295.09h1.065l-2.91-7.408h-1.409l-2.91 7.408h1.071zm3.725-2.797h-2.362l.902-2.454c.044-.112.09-.244.135-.394.046-.15.093-.313.141-.487.048.174.097.336.146.484.05.149.095.278.136.387l.902 2.464zm5.133 2.875c.185 0 .37-.014.559-.041.187-.028.37-.075.545-.141.176-.067.346-.156.51-.267.164-.11.316-.248.456-.412l-.364-.461c-.051-.079-.128-.118-.23-.118-.079 0-.15.025-.213.074-.063.05-.137.104-.223.164-.085.06-.19.115-.315.164-.125.05-.288.074-.49.074-.2 0-.382-.038-.542-.115-.16-.077-.297-.19-.41-.338-.113-.149-.2-.332-.259-.55-.06-.22-.09-.469-.09-.749 0-.27.028-.511.082-.725.055-.213.138-.395.249-.545.111-.15.25-.266.417-.346.168-.08.363-.12.585-.12.174 0 .32.02.438.058.117.04.219.084.304.134.086.05.16.094.22.133.062.04.125.059.19.059.069 0 .12-.014.156-.041.036-.028.073-.065.11-.113l.334-.461c-.236-.236-.502-.417-.797-.543-.295-.126-.64-.19-1.032-.19-.414 0-.779.069-1.097.205-.317.137-.584.326-.799.566-.215.241-.378.526-.49.856-.11.33-.166.687-.166 1.073 0 .43.063.814.187 1.15.125.337.294.621.508.853.213.233.463.41.75.53.287.122.593.183.917.183zm4.888 0c.184 0 .37-.014.558-.041.188-.028.37-.075.546-.141.176-.067.345-.156.51-.267.163-.11.315-.248.455-.412l-.363-.461c-.052-.079-.128-.118-.23-.118-.08 0-.15.025-.214.074-.063.05-.137.104-.222.164-.086.06-.19.115-.315.164-.125.05-.288.074-.49.074-.201 0-.382-.038-.543-.115-.16-.077-.297-.19-.41-.338-.112-.149-.199-.332-.258-.55-.06-.22-.09-.469-.09-.749 0-.27.027-.511.082-.725.055-.213.137-.395.248-.545.111-.15.25-.266.418-.346.167-.08.362-.12.584-.12.174 0 .32.02.438.058.118.04.22.084.305.134.085.05.159.094.22.133.062.04.125.059.19.059.068 0 .12-.014.156-.041.036-.028.073-.065.11-.113l.333-.461c-.236-.236-.501-.417-.796-.543-.296-.126-.64-.19-1.033-.19-.413 0-.779.069-1.096.205-.318.137-.584.326-.8.566-.215.241-.378.526-.489.856-.11.33-.166.687-.166 1.073 0 .43.062.814.187 1.15.125.337.294.621.507.853.214.233.464.41.75.53.287.122.593.183.918.183zm5.123 0c.393 0 .749-.064 1.068-.19.32-.126.592-.307.817-.543.226-.236.4-.52.523-.856.123-.334.184-.71.184-1.127 0-.413-.061-.787-.184-1.122-.123-.334-.297-.618-.523-.85-.225-.232-.498-.412-.817-.538-.32-.126-.675-.19-1.068-.19s-.75.064-1.07.19c-.322.126-.596.306-.823.538-.227.232-.403.516-.528.85-.125.335-.187.709-.187 1.122 0 .417.062.793.187 1.127.125.335.3.62.528.856.227.236.501.417.822.543.321.126.678.19 1.07.19zm0-.974c-.444 0-.772-.148-.984-.443-.212-.295-.317-.725-.317-1.288 0-.564.105-.995.317-1.294.212-.299.54-.448.984-.448.437 0 .76.148.97.445.21.297.316.73.316 1.297 0 .566-.105.997-.315 1.29-.21.294-.534.441-.971.441zm5.246.979c.174 0 .337-.018.49-.054.151-.036.293-.086.424-.149.132-.063.256-.14.372-.23.116-.09.229-.19.338-.3l.087.42c.051.154.159.23.323.23h.773v-5.256h-1.265v3.802c-.17.17-.352.305-.543.402-.191.097-.396.146-.615.146-.297 0-.52-.088-.668-.264-.149-.176-.223-.424-.223-.745v-3.34h-1.266v3.34c0 .293.039.562.116.807.076.244.19.455.34.632.15.178.336.315.556.413.22.097.474.146.76.146zm5.425-.082v-3.802c.171-.17.352-.305.543-.404.192-.1.397-.149.615-.149.297 0 .52.088.669.264.148.176.223.424.223.745v3.346h1.265v-3.346c0-.293-.038-.562-.115-.807-.077-.244-.19-.454-.338-.63-.149-.176-.334-.312-.556-.41-.222-.097-.477-.146-.764-.146-.177 0-.341.017-.491.052-.15.034-.292.083-.423.148-.132.065-.256.142-.374.23-.118.09-.23.189-.336.298l-.087-.415c-.05-.154-.159-.23-.322-.23h-.774v5.256h1.265zm6.286.082c.257 0 .504-.04.743-.118.24-.079.451-.195.636-.349l-.38-.614c-.027-.038-.052-.066-.076-.085-.024-.019-.055-.028-.093-.028-.03 0-.061.01-.092.028-.03.019-.066.039-.105.06-.04.02-.085.04-.138.058-.053.019-.119.028-.197.028-.137 0-.246-.046-.328-.138-.082-.092-.123-.22-.123-.384v-2.849h1.383v-.902h-1.383v-1.654h-.656c-.075 0-.137.018-.187.056-.05.038-.081.09-.095.159l-.266 1.434-.845.139v.502c0 .089.024.155.074.2.05.044.108.066.177.066h.532v2.936c0 .454.123.81.37 1.068.245.258.595.387 1.05.387zm5.482-.082v-3.802c.171-.17.352-.305.543-.404.192-.1.397-.149.615-.149.297 0 .52.088.669.264.148.176.223.424.223.745v3.346h1.265v-3.346c0-.293-.038-.562-.115-.807-.077-.244-.19-.454-.338-.63-.149-.176-.334-.312-.556-.41-.222-.097-.477-.146-.764-.146-.177 0-.341.017-.491.052-.15.034-.292.083-.423.148-.132.065-.256.142-.374.23-.118.09-.23.189-.336.298l-.087-.415c-.051-.154-.159-.23-.323-.23h-.773v5.256h1.265zm6.225.082c.174 0 .337-.018.49-.054.151-.036.293-.086.424-.149.132-.063.256-.14.372-.23.116-.09.229-.19.338-.3l.087.42c.051.154.159.23.323.23h.773v-5.256h-1.265v3.802c-.17.17-.352.305-.543.402-.191.097-.396.146-.615.146-.297 0-.52-.088-.668-.264-.149-.176-.223-.424-.223-.745v-3.34h-1.266v3.34c0 .293.039.562.116.807.076.244.19.455.34.632.15.178.336.315.556.413.22.097.474.146.76.146zm5.425-.082v-3.848c.137-.157.285-.28.444-.371.158-.09.328-.136.51-.136.276 0 .485.08.627.24.142.161.212.417.212.77v3.345h1.271v-3.346c0-.164.024-.309.072-.435.048-.127.113-.232.197-.315.084-.084.181-.148.292-.192.111-.045.231-.067.361-.067.284 0 .499.085.646.254.147.169.22.42.22.755v3.346h1.265v-3.346c0-.317-.04-.6-.12-.845-.08-.246-.197-.454-.35-.625-.155-.17-.344-.3-.57-.39-.225-.088-.483-.133-.773-.133-.168 0-.334.02-.5.057-.165.037-.322.095-.468.174-.147.078-.282.18-.405.305-.123.124-.226.274-.308.448-.105-.297-.265-.535-.479-.715-.213-.179-.485-.269-.817-.269-.157 0-.301.018-.433.054-.131.036-.254.085-.368.146-.115.062-.222.135-.323.22-.101.086-.197.18-.29.282l-.082-.39c-.05-.153-.158-.23-.322-.23h-.774v5.257h1.265zm9.955.077c.345 0 .656-.07.935-.208.278-.138.515-.33.712-.576.196-.246.347-.537.453-.871.106-.335.159-.699.159-1.091 0-.43-.047-.812-.14-1.143-.095-.331-.228-.61-.4-.835-.173-.225-.378-.397-.615-.515-.238-.118-.5-.177-.787-.177-.351 0-.659.066-.922.198-.263.131-.498.308-.707.53v-3.002h-1.265v7.613h.835c.085 0 .153-.02.202-.057.05-.037.085-.1.105-.19l.057-.353c.085.103.175.196.269.28.093.083.195.154.304.212.11.058.23.103.364.136.133.032.28.049.44.049zm-.292-.964c-.198 0-.382-.035-.551-.105-.17-.07-.325-.193-.469-.371v-2.357c.16-.201.334-.357.52-.468.186-.111.41-.167.674-.167.167 0 .317.03.448.092.132.062.244.159.336.292.092.133.163.307.212.52.05.214.075.474.075.782 0 .303-.03.567-.087.791-.059.224-.141.41-.249.556-.108.147-.238.256-.392.328-.154.072-.326.107-.517.107zm5.774.964c.184 0 .374-.014.57-.041.197-.028.39-.075.58-.141.19-.067.371-.156.545-.267.174-.11.332-.248.472-.412l-.37-.461c-.027-.038-.059-.067-.097-.087-.037-.02-.082-.031-.133-.031-.078 0-.16.024-.243.072-.084.047-.181.1-.292.158-.111.059-.241.111-.39.16-.148.047-.325.071-.53.071-.416 0-.751-.126-1.004-.38-.253-.252-.398-.648-.435-1.188h3.248c.058 0 .106-.007.143-.023.038-.015.068-.04.09-.077.022-.035.037-.085.046-.148.008-.063.013-.143.013-.238 0-.38-.057-.717-.17-1.012-.112-.296-.27-.545-.47-.748-.202-.203-.442-.358-.72-.464-.279-.106-.584-.159-.915-.159-.393 0-.745.069-1.058.205-.312.137-.577.322-.794.556-.217.234-.383.509-.5.825-.116.316-.174.653-.174 1.012 0 .46.067.866.2 1.217.133.35.316.643.548.88.233.238.506.417.82.539.314.12.654.182 1.02.182zm1.075-3.31h-2.377c.058-.383.191-.678.4-.886.208-.209.497-.313.866-.313.187 0 .351.032.491.095s.257.15.349.259c.092.109.16.236.205.381.044.145.066.3.066.464zm3.433 3.233v-3.274c.13-.28.288-.493.476-.638.188-.145.414-.218.677-.218.146 0 .264.012.353.036.089.024.159.036.21.036.058 0 .104-.013.138-.038.035-.026.057-.07.067-.13l.164-.949c-.17-.12-.386-.179-.645-.179-.315 0-.598.094-.85.282-.254.188-.474.444-.662.768l-.077-.635c-.017-.116-.05-.198-.102-.246-.051-.048-.142-.072-.272-.072h-.743v5.257h1.266z" transform="translate(.5)"/>
    </g>
</svg>
