<svg xmlns="http://www.w3.org/2000/svg" xmlns:xlink="http://www.w3.org/1999/xlink" width="193" height="129" viewBox="0 0 193 129">
    <defs>
        <path id="prefix__a" d="M0 0L49.633 0 49.633 51.592 0 51.592z"/>
        <path id="prefix__c" d="M0.06 0.349L10.316 0.349 10.316 10.449 0.06 10.449z"/>
    </defs>
    <g fill="none" fill-rule="evenodd">
        <path fill="#3D98D2" fill-opacity=".15" d="M98.289 128.653c35.505 0 75.425-37.838 75.425-73.364C173.714 19.762 133.794 0 98.29 0c-35.506 0-72.82 35.711-72.82 71.238 0 35.526 37.314 57.415 72.82 57.415z" transform="translate(.5)"/>
        <g transform="translate(.5) translate(25.47 48.98)">
            <mask id="prefix__b" fill="#fff">
                <use xlink:href="#prefix__a"/>
            </mask>
            <path fill="#3D98D2" d="M31.347 41.143c1.994 0 3.191 1.741 3.592 5.224-2.36 3.483-4.537 5.225-6.53 5.225H5.413c-2.99 0-5.414-2.34-5.414-5.225s2.423-5.224 5.414-5.224h25.933zM12.633 20.637h31.584c2.992 0 5.416 2.34 5.416 5.225s-2.424 5.224-5.416 5.224H12.633c-2.99 0-5.414-2.339-5.414-5.224 0-2.886 2.424-5.225 5.414-5.225M9.024.653h15.34c2.992 0 5.416 2.34 5.416 5.225s-2.424 5.224-5.416 5.224H9.024c-2.99 0-5.414-2.339-5.414-5.224C3.61 2.993 6.033.653 9.024.653" mask="url(#prefix__b)"/>
        </g>
        <path fill="#84CEFD" d="M5.458 49.633h14.554c3.014 0 5.457 2.339 5.457 5.224 0 2.886-2.443 5.225-5.457 5.225H5.458C2.443 60.082 0 57.742 0 54.857s2.443-5.224 5.458-5.224" transform="translate(.5)"/>
        <path fill="#3D98D2" d="M24.164 69.224c2.885 0 5.224 2.34 5.224 5.225s-2.339 5.224-5.224 5.224c-2.887 0-5.225-2.339-5.225-5.224 0-2.885 2.338-5.225 5.225-5.225" transform="translate(.5)"/>
        <g transform="translate(.5) translate(11.102 90.122)">
            <mask id="prefix__d" fill="#fff">
                <use xlink:href="#prefix__c"/>
            </mask>
            <path fill="#84CEFD" d="M5.188.349c2.833 0 5.128 2.26 5.128 5.05s-2.295 5.05-5.128 5.05S.06 8.19.06 5.4 2.355.349 5.188.349" mask="url(#prefix__d)"/>
        </g>
        <path fill="#FEFEFE" d="M130.62 96.653c12.088 0 16.112-12.387 16.112-12.387.626-1.455-.218-2.633-1.882-2.633H116.39c-1.665 0-2.544 1.191-1.882 2.633 0 0 4.025 12.387 16.113 12.387" transform="translate(.5)"/>
        <path fill="#4B4A4B" d="M107.429 61.388c2.705 0 4.898 1.9 4.898 4.245 0 2.343-2.193 4.245-4.898 4.245-2.706 0-4.898-1.902-4.898-4.245 0-2.345 2.192-4.245 4.898-4.245" transform="translate(.5)"/>
        <path fill="#3D98D2" d="M40.9 80.041l1.856-10.265h20.952c2.98 0 5.396-2.297 5.396-5.132 0-2.835-2.416-5.133-5.396-5.133H44.612L47.4 44.1c.445-2.463 2.69-4.262 5.318-4.262h95.517c3.973 0 7.194 3.064 7.194 6.844 0 .437-.045.875-.133 1.306l-9.617 47.048c-.657 3.216-3.619 5.536-7.061 5.536H45.724c-3.973 0-7.193-3.063-7.193-6.843 0-.388.034-.776.103-1.16l.409-2.262h14.773c2.98 0 5.397-2.297 5.397-5.132 0-2.835-2.417-5.133-5.397-5.133H40.9z" transform="translate(.5)"/>
        <path fill="#292C4A" d="M46.046 49.633L154.776 49.633 152.739 60.082 44.408 60.082zM91.39 89.47H66.651c-1.464 0-2.651-1.316-2.651-2.94 0-1.622 1.187-2.938 2.651-2.938h24.74c1.463 0 2.65 1.316 2.65 2.939s-1.187 2.938-2.65 2.938M138.682 89.47h-6.344c-1.314 0-2.379-1.316-2.379-2.94 0-1.622 1.065-2.938 2.38-2.938h6.343c1.314 0 2.38 1.316 2.38 2.939s-1.066 2.938-2.38 2.938" transform="translate(.5)"/>
        <path fill="#F3A70C" d="M172.409 0C183.229 0 192 8.04 192 17.96c0 9.918-8.772 17.958-19.591 17.958-10.82 0-19.593-8.04-19.593-17.958C152.816 8.04 161.59 0 172.41 0" transform="translate(.5)"/>
        <path fill="#F3A70C" d="M155.917 33.91c-2.453-.018-3.71-1.668-2.81-3.69l2.702-6.057 7.456 9.796-7.348-.05z" transform="translate(.5)"/>
        <path fill="#FEFEFE" d="M181.874 18.256c.22.095.33.26.33.495 0 .248-.105.419-.312.512L167.75 26.07c-.086.035-.173.052-.259.052-.195 0-.348-.068-.458-.21-.21-.236-.21-.473 0-.707l4.48-5.235-6.611-2.951c-.22-.093-.33-.259-.33-.496 0-.247.103-.418.311-.511l14.144-6.79c.28-.14.514-.094.698.141.207.225.213.461.018.707l-4.481 5.234 6.612 2.952z" transform="translate(.5)"/>
    </g>
</svg>
