<svg  width="48" height="48" viewBox="0 0 48 48">
    <g fill="none" fill-rule="evenodd">
        <path fill="#3D98D2" d="M17.72 0c-.77 0-4.233 2.865-8.677 4.969C4.814 6.97.513 8.054.187 8.555c-.324.5-.161 7.263 0 11.238.325 7.965 1.775 18.848 17.528 22.742 15.75-3.894 17.225-14.942 17.545-22.742.163-3.975.333-10.866-.026-11.238-.36-.373-4.435-1.51-8.952-3.586C21.766 2.892 18.406 0 17.72 0z" transform="translate(6 2.667)"/>
        <path fill="#006399" d="M17.72 4.511c-.602 0-3.31 2.257-6.783 3.915-3.306 1.577-6.67 2.43-6.924 2.825-.254.395-.126 5.723 0 8.855.254 6.276 1.388 14.85 13.704 17.918 12.313-3.068 13.466-11.773 13.717-17.918.127-3.132.26-8.561-.02-8.855-.281-.293-3.468-1.19-7-2.825-3.53-1.636-6.157-3.915-6.694-3.915z" transform="translate(6 2.667)"/>
        <path fill="#FEFEFE" d="M17.723 10.15l-2.135 1.123c-.296.155-.661.042-.817-.254-.062-.118-.083-.253-.06-.384l.407-2.377-1.727-1.684c-.24-.233-.244-.616-.011-.855.093-.095.214-.157.346-.177l2.387-.346 1.068-2.164c.148-.3.51-.422.81-.274.12.059.216.155.274.274l1.068 2.164 2.387.346c.33.048.56.355.512.686-.02.132-.081.253-.177.346l-1.727 1.684.408 2.377c.056.33-.165.642-.494.699-.131.022-.266 0-.384-.061l-2.135-1.123z" transform="translate(6 2.667)"/>
        <path fill="#FFF" d="M17.723 13.534c1.474 0 2.663.44 3.566 1.322.904.881 1.356 2.04 1.356 3.478v3h.595c.334 0 .625.132.875.394.25.263.375.563.375.9v6.488c0 .288-.1.54-.298.76-.199.218-.439.359-.72.421-1.872.425-3.788.638-5.749.638-2 0-3.935-.213-5.806-.638-.282-.062-.512-.203-.692-.422-.18-.218-.269-.471-.269-.759v-6.432c0-.35.115-.662.346-.937.23-.275.513-.413.846-.413h.654v-3c0-1.437.451-2.597 1.355-3.478.904-.881 2.092-1.322 3.566-1.322zm-.039 8.7c-.343.008-.548.421-.552.71l.005.365c-.962.137-1.211.8-1.19 1.576.02.777.512 1.122.739 1.214.227.093.531.18.914.263.328.068.54.135.635.2.096.065.154.193.176.385-.01.342-.286.516-.827.523-.372 0-.757-.072-1.156-.216-.093-.034-.292-.057-.388-.026-.095.03-.255.106-.326.338-.071.23.044.509.272.652.228.143.75.263 1.198.29l.02.47c.01.205.09.616.535.618.444.003.539-.535.539-.617l.02-.49c1.039-.136 1.462-.64 1.455-1.621-.007-.982-.877-1.304-1.06-1.363-.183-.058-.424-.118-.725-.18-.311-.075-.507-.142-.586-.2-.079-.058-.124-.17-.135-.334 0-.287.213-.43.639-.43.29-.007.563.027.82.103.234.075.612.014.67-.347.059-.362-.206-.633-.356-.677-.257-.09-.46-.138-.778-.165l-.004-.34c.024-.196-.21-.708-.554-.7zm.04-5.7c-1.231 0-1.846.6-1.846 1.8v3h3.69v-3c0-1.2-.615-1.8-1.845-1.8z" transform="translate(6 2.667)"/>
    </g>
</svg>
