<svg xmlns="http://www.w3.org/2000/svg" width="24" height="24" viewBox="0 0 24 24">
    <g fill="none" fill-rule="evenodd">
        <g transform="translate(2 6)">
            <rect width="20" height="12.5" fill="#E4E4E4" rx="1.25"/>
            <g fill-rule="nonzero">
                <path fill="#FF5F00" d="M4.58 1.414H7.862V6.701H4.58z" transform="translate(3.75 2.5)"/>
                <path fill="#EB001B" d="M4.919 4.058c-.001-1.032.479-2.006 1.302-2.643C4.823.332 2.816.489 1.61 1.777s-1.206 3.274 0 4.562c1.206 1.288 3.213 1.446 4.61.363-.822-.637-1.303-1.612-1.301-2.644z" transform="translate(3.75 2.5)"/>
                <path fill="#F79E1B" d="M11.476 6.276v-.22h.095v-.045h-.225v.045h.089v.22h.041zm.438 0V6.01h-.068l-.08.189-.08-.19h-.068v.266h.05v-.201l.073.172h.052l.073-.172v.2h.048zM11.737 4.058c0 1.287-.746 2.461-1.92 3.024-1.174.562-2.57.414-3.596-.381.822-.638 1.302-1.612 1.302-2.644 0-1.031-.48-2.006-1.302-2.643C7.247.618 8.643.47 9.817 1.033c1.174.562 1.92 1.737 1.92 3.024z" transform="translate(3.75 2.5)"/>
            </g>
        </g>
    </g>
</svg>
