<svg width="20" height="20" viewBox="0 0 20 20">
    <path fill="#000000" fill-rule="evenodd" d="M11.982 1.934c2.127.581 3.365 2.28 3.459 4.251.03.653.028.916.018 1.57-.004.237.2.359.472.383 1.001.09 1.553.961 1.56 1.87.014 1.852.01 4.095-.004 5.946-.008.892-.572 1.523-1.56 1.767-.93.23-1.886.348-2.844.449-1.732.181-3.467.213-5.205.09-1.26-.09-2.511-.244-3.742-.501-1.036-.217-1.623-.905-1.636-1.862v-4.492c.001-.47.002-.928.005-1.315.007-.968.64-1.952 1.786-2.001.203-.01.276-.148.272-.334-.012-.498-.01-.758-.004-1.256.009-.736.108-1.309.44-1.99.676-1.389 1.604-2.235 3.243-2.63 1.245-.3 2.503-.282 3.74.055zm.523 5.133l-.005-.33c-.003-.278-.035-.41-.108-.68-.25-.914-.827-1.46-2.052-1.561-1.68-.14-2.93.46-2.923 2.15l.002.843c0 .414.314.7.763.702.72.004 2.91.004 3.664 0 .451-.002.655-.286.656-.702l.003-.376V7.09l.001.024c.002.069.002 0 0-.024v-.006l-.001.003z"/>
</svg>
