<svg xmlns="http://www.w3.org/2000/svg" xmlns:xlink="http://www.w3.org/1999/xlink" width="24" height="24" viewBox="0 0 24 24">
    <defs>
        <rect id="prefix__a" width="20" height="12.5" x="0" y="0" rx="1.25"/>
    </defs>
    <g fill="none" fill-rule="evenodd">
        <g transform="translate(2 5.5)">
            <mask id="prefix__b" fill="#fff">
                <use xlink:href="#prefix__a"/>
            </mask>
            <use fill="#FFF" xlink:href="#prefix__a"/>
            <g fill="#0079C1" mask="url(#prefix__b)">
                <g>
                    <path d="M19.164 14.066H12.62l-.416-.54v.54h-1.419v-.861c-.179.067-.382.107-.61.107h-.23v.754H7.841l-.322-.45-.312.45h-3.42v-3.3h3.433l.319.443.315-.442h12.06V0H0v8.089l.69-1.61h1.376l.355.826V6.48H4.1l.22.654.222-.654h7.3v.307c.272-.21.628-.307 1.015-.307h2.267l.355.826V6.48h1.358l.395.614v-.614h1.456v3.3h-1.432l-.372-.577v.576h-2.032l-.191-.49h-.43l-.19.49h-1.22c-.323 0-.688-.065-.98-.284v.284H9.78l-.416-.54v.54h-7.57l-.191-.49h-.43l-.19.49H0v10.138h19.916V13.85c-.203.134-.46.215-.752.215" transform="translate(0 -3.75)"/>
                    <path d="M6.195 11.77v-.527h-1.91v2.347h1.91v-.527H4.881v-.399h1.284v-.513H4.881v-.382h1.314zm1.885 1.82h.748l-.946-1.184.939-1.163h-.728l-.553.72-.553-.72h-.748l.939 1.176-.935 1.171h.727l.553-.728.557.728zm.798-2.347v2.347h.596v-.765h.704c.517 0 .835-.338.835-.79 0-.47-.311-.792-.814-.792H8.878zm1.535.795c0 .144-.094.26-.275.26h-.664v-.529h.664c.181 0 .275.12.275.269zm1.452.72h.231l.701.832h.734l-.76-.855c.385-.084.616-.369.616-.734 0-.45-.311-.758-.814-.758h-1.305v2.347h.597v-.832zm.647-.989c.181 0 .275.11.275.242 0 .134-.094.238-.275.238h-.647v-.48h.647zm3.024 0v-.526h-1.91v2.347h1.91v-.527h-1.314v-.399h1.284v-.513h-1.284v-.382h1.314zm1.479 1.294h-1.214v.527h1.21c.51 0 .812-.309.812-.761 0-.426-.265-.674-.73-.674h-.558c-.123 0-.21-.077-.21-.194 0-.118.087-.192.21-.192h1.013l.232-.526h-1.238c-.51 0-.815.312-.815.738 0 .442.289.697.735.697h.553c.124 0 .215.077.215.194 0 .118-.09.191-.215.191zm2.149 0H17.95v.527h1.21c.51 0 .812-.309.812-.761 0-.426-.265-.674-.73-.674h-.557c-.124 0-.211-.077-.211-.194 0-.118.087-.192.21-.192h1.013l.231-.526h-1.237c-.51 0-.815.312-.815.738 0 .442.29.697.735.697h.553c.124 0 .215.077.215.194 0 .118-.09.191-.215.191zM2.116 9.302h.67L1.784 6.955h-.775L.003 9.302h.658l.194-.479h1.066l.195.48zM1.06 8.313l.325-.804.328.804H1.06zm2.997.99h.52l.62-1.738v1.737h.59V6.955h-.939l-.523 1.496-.526-1.496H2.85v2.347h.59V7.565l.617 1.737zm4.037-1.821v-.527H6.183v2.347h1.91v-.526H6.78v-.399h1.285v-.513H6.779v-.382h1.315zm.932.989h.231l.7.831h.735l-.761-.855c.386-.084.617-.369.617-.734 0-.45-.312-.758-.815-.758H8.43v2.347h.597v-.831zm.647-.99c.18 0 .275.111.275.242 0 .134-.094.238-.275.238h-.647v-.48h.647zm1.113 1.821h.597V6.955h-.597v2.347zm1.975 0h.047l.244-.526h-.19c-.376 0-.597-.228-.597-.63v-.034c0-.352.198-.614.586-.614h.63v-.543h-.677c-.737 0-1.133.49-1.133 1.157v.033c0 .722.416 1.157 1.09 1.157zm2.414 0h.67l-1.002-2.347h-.774l-1.006 2.347h.656l.195-.479h1.066l.195.48zm-1.056-.989l.325-.804.328.804h-.653zm3.35.99h.723V6.954H17.6v1.456l-.936-1.456h-.754v2.347h.593V7.794l.966 1.508z" transform="translate(0 -3.75)"/>
                </g>
            </g>
        </g>
    </g>
</svg>
