<svg xmlns="http://www.w3.org/2000/svg" width="24" height="24" viewBox="0 0 24 24">
    <g fill="none" fill-rule="evenodd">
        <g fill-rule="nonzero">
            <path fill="#3C4043" d="M18.2.004H1.584l-.173.003c-.125.004-.252.011-.376.033C.911.063.793.1.68.158.567.215.464.29.375.378.285.469.21.572.154.684.096.797.059.914.036 1.04c-.022.124-.03.25-.033.376C0 1.473 0 1.53 0 1.588v9.621c0 .058.001.115.003.173.003.125.01.251.033.375.023.126.06.243.118.358.057.112.132.215.22.304.09.089.193.164.305.22.114.059.232.096.357.118.124.023.25.03.376.033.058.002.115.003.173.003h16.819c.058 0 .115-.001.173-.003.125-.003.252-.01.376-.033.126-.022.243-.06.357-.117.112-.057.215-.132.304-.221.09-.09.164-.192.221-.304.059-.115.096-.232.118-.358.022-.124.03-.25.033-.375l.003-.173V1.794v-.206c0-.057-.001-.115-.003-.172-.003-.125-.01-.252-.033-.376-.022-.126-.06-.243-.118-.357-.057-.112-.132-.215-.22-.304-.09-.09-.193-.164-.305-.221-.114-.058-.231-.095-.357-.118-.124-.022-.25-.03-.376-.033l-.173-.002h-.205" transform="translate(2 5.6)"/>
            <path fill="#FFFFFE" d="M18.2.43h.201l.164.003c.096.003.208.008.312.027.09.016.167.041.24.078.072.037.138.085.195.142.058.058.106.124.143.197.037.072.062.148.078.239.019.103.024.215.027.312l.002.164v9.615c0 .055 0 .109-.002.163-.003.096-.008.208-.027.313-.016.09-.04.165-.078.238-.037.073-.085.139-.142.196-.058.058-.124.106-.197.143-.072.037-.148.062-.238.078-.106.019-.223.024-.31.026l-.167.003H1.79h-.203c-.055 0-.11-.001-.163-.003-.09-.002-.207-.007-.312-.026-.09-.016-.167-.041-.24-.079-.072-.036-.138-.084-.196-.142-.057-.057-.105-.123-.142-.196-.037-.073-.062-.148-.078-.24-.019-.104-.024-.215-.027-.31l-.002-.164V1.59c0-.054 0-.109.002-.164.003-.095.008-.207.027-.312.016-.09.04-.166.078-.239C.571.804.619.738.676.68.734.623.8.575.873.538.945.5 1.02.476 1.112.46c.104-.019.216-.024.312-.027l.164-.002H18.2" transform="translate(2 5.6)"/>
            <g>
                <g fill="#3C4043">
                    <path d="M.573 2.713v1.822h-.57v-4.5h1.511c.364-.006.718.134.976.392.517.488.549 1.31.064 1.837l-.064.065c-.265.254-.59.384-.976.384H.573zm0-2.125V2.16h.955c.212.007.418-.079.563-.233.297-.312.29-.815-.018-1.116-.145-.144-.34-.223-.545-.223H.573zM4.213 1.356c.42 0 .753.115.997.341.245.226.365.542.365.94v1.898H5.03v-.427h-.025c-.237.352-.548.528-.94.528-.333 0-.616-.1-.839-.302-.22-.186-.343-.462-.336-.753 0-.32.12-.57.357-.76.237-.19.556-.284.952-.284.34 0 .615.064.835.186v-.132c0-.198-.085-.384-.234-.513-.152-.137-.347-.212-.548-.212-.319 0-.57.136-.754.409l-.502-.32c.269-.398.676-.599 1.217-.599zm-.736 2.236c0 .15.07.29.188.376.127.101.283.155.442.151.24 0 .47-.097.64-.269.188-.18.283-.391.283-.635-.177-.144-.424-.215-.743-.212-.23 0-.424.058-.58.169-.152.111-.23.251-.23.42zM8.702 1.457L6.799 5.888 6.211 5.888 6.919 4.338 5.67 1.457 6.289 1.457 7.191 3.667 7.202 3.667 8.083 1.457z" transform="translate(2 5.6) translate(2.295 3.623) translate(6.756 .359)"/>
                </g>
                <path fill="#4285F4" d="M5.026 2.677c0-.176-.014-.352-.042-.524H2.582v.994h1.376c-.056.32-.24.606-.51.786v.645h.822c.48-.448.756-1.112.756-1.901z" transform="translate(2 5.6) translate(2.295 3.623)"/>
                <path fill="#34A853" d="M2.582 5.203c.686 0 1.267-.23 1.688-.625l-.821-.645c-.23.157-.524.247-.867.247-.665 0-1.227-.456-1.429-1.065H.308v.667c.431.872 1.312 1.42 2.274 1.42z" transform="translate(2 5.6) translate(2.295 3.623)"/>
                <path fill="#FBBC04" d="M1.153 3.115c-.106-.32-.106-.668 0-.99V1.46H.308c-.365.729-.365 1.59 0 2.318l.845-.663z" transform="translate(2 5.6) translate(2.295 3.623)"/>
                <path fill="#EA4335" d="M2.582 1.059c.365-.008.715.132.977.387l.728-.74C3.824.27 3.215.03 2.582.037 1.62.036.74.588.308 1.46l.845.668c.202-.614.764-1.07 1.43-1.07z" transform="translate(2 5.6) translate(2.295 3.623)"/>
            </g>
        </g>
    </g>
</svg>
