<svg xmlns="http://www.w3.org/2000/svg" width="24" height="24" viewBox="0 0 24 24">
    <g fill="none" fill-rule="evenodd">
        <g fill-rule="nonzero">
            <path fill="#000" d="M18.156 0H1.581c-.057 0-.115.001-.172.003-.125.003-.251.01-.375.032C.908.057.792.093.678.15.565.206.463.28.374.366S.21.553.154.663C.094.775.057.89.035 1.013c-.022.12-.03.244-.033.366C0 1.435 0 1.492 0 1.548V10.948c0 .056.001.113.003.169.003.122.01.246.033.367.022.123.06.237.117.349.057.11.132.21.22.297.09.087.192.16.305.216.114.057.23.093.356.115.124.021.25.029.375.032l.172.002H18.361c.057 0 .115 0 .172-.002.125-.003.251-.01.375-.032.126-.022.243-.058.357-.115.112-.056.214-.129.303-.216.09-.087.164-.188.22-.297.059-.112.096-.226.118-.35.023-.12.03-.244.033-.366.002-.056.003-.113.003-.169v-9.2-.2c0-.056-.001-.113-.003-.169-.003-.122-.01-.246-.033-.367-.022-.123-.059-.237-.117-.349-.057-.11-.132-.21-.22-.297-.09-.087-.192-.16-.304-.216-.114-.057-.231-.093-.357-.115-.124-.022-.25-.029-.375-.032C18.476 0 18.418 0 18.361 0h-.205z" transform="translate(2 5.5)"/>
            <path fill="#FFF" d="M18.156.417h.202c.054 0 .109 0 .164.002.095.003.207.008.31.026.091.016.167.04.24.077.072.035.138.082.195.138.058.057.106.121.143.193.037.07.061.144.077.233.019.101.024.21.027.305l.002.16v9.395c0 .053 0 .106-.002.16-.003.093-.008.203-.027.305-.016.088-.04.162-.077.233-.037.07-.085.135-.143.191-.057.057-.123.104-.196.14-.072.036-.148.06-.237.076-.106.018-.223.023-.31.026l-.166.002H1.583l-.162-.002c-.09-.003-.206-.008-.312-.026-.09-.016-.166-.04-.239-.077-.072-.036-.138-.082-.195-.139-.058-.056-.106-.12-.142-.191-.037-.071-.062-.145-.078-.234-.019-.102-.024-.211-.027-.304l-.002-.16V1.55c0-.054 0-.107.002-.16.003-.094.008-.203.027-.305C.47.997.495.923.533.852.569.782.617.717.675.66.732.604.798.557.87.52c.072-.036.148-.06.238-.076.104-.018.216-.023.312-.026l.163-.002H18.156" transform="translate(2 5.5)"/>
            <g fill="#000">
                <path d="M2.832.798c.17-.207.284-.485.254-.769-.248.013-.55.16-.724.367-.157.178-.296.467-.26.74.278.023.555-.137.73-.338M3.083 1.189c-.404-.024-.747.224-.94.224-.192 0-.487-.213-.806-.207-.416.006-.801.236-1.012.601-.433.732-.114 1.817.307 2.412.205.295.452.62.777.608.307-.012.427-.195.8-.195.374 0 .482.195.807.189.338-.006.548-.295.753-.59.235-.336.331-.66.337-.678-.006-.006-.65-.248-.656-.973-.006-.607.506-.896.53-.914-.29-.418-.74-.466-.897-.477" transform="translate(2 5.5) translate(2.41 3.42)"/>
                <g>
                    <path d="M1.804.013c.877 0 1.488.592 1.488 1.453 0 .864-.624 1.459-1.51 1.459h-.97v1.511H.11V.013h1.694zM.811 2.349h.805c.61 0 .958-.322.958-.88S2.227.592 1.62.592H.811V2.35zM3.466 3.52c0-.567.441-.892 1.255-.941l.874-.052V2.28c0-.358-.241-.555-.67-.555-.354 0-.61.178-.664.451h-.633c.02-.573.57-.99 1.316-.99.801 0 1.324.41 1.324 1.048v2.201H5.62v-.53h-.015c-.185.346-.592.564-1.034.564-.651 0-1.105-.38-1.105-.95zm2.13-.285v-.249l-.78.05c-.44.027-.668.186-.668.465 0 .27.238.445.61.445.477 0 .837-.298.837-.711zM6.864 5.62v-.53c.044.005.15.011.207.011.31 0 .485-.128.592-.46l.063-.196-1.187-3.218h.732l.827 2.611h.016l.827-2.611h.714l-1.231 3.38c-.282.776-.604 1.03-1.287 1.03-.053 0-.226-.005-.273-.018z" transform="translate(2 5.5) translate(2.41 3.42) translate(5.301 .354)"/>
                </g>
            </g>
        </g>
    </g>
</svg>
