<svg xmlns="http://www.w3.org/2000/svg" width="24" height="24" viewBox="0 0 24 24">
    <g fill="none" fill-rule="evenodd">
        <g transform="translate(2 6)">
            <rect width="20" height="12" fill="#15195A" rx="1.25"/>
            <path fill="#FFFFFE" d="M9.927 3.838L8.925 8.674H7.713l1.002-4.836h1.212zm5.1 3.123l.638-1.816.367 1.816h-1.005zm1.352 1.713H17.5l-.978-4.836h-1.035c-.233 0-.429.14-.516.355l-1.819 4.481h1.273l.253-.722h1.555l.146.722zm-3.163-1.579c.005-1.276-1.71-1.346-1.699-1.916.004-.174.164-.358.514-.406.174-.023.653-.041 1.196.217l.212-1.026c-.291-.109-.667-.214-1.134-.214-1.197 0-2.04.657-2.048 1.599-.007.696.602 1.084 1.061 1.316.472.237.631.389.63.6-.004.325-.378.468-.726.474-.61.01-.963-.17-1.245-.306l-.22 1.06c.283.134.806.251 1.348.257 1.273 0 2.107-.65 2.11-1.655zm-5.02-3.257L6.231 8.674H4.95l-.966-3.859c-.059-.238-.11-.325-.288-.425-.291-.163-.773-.316-1.196-.411l.029-.14h2.062c.263 0 .5.18.56.492l.51 2.799 1.26-3.292h1.274z"/>
        </g>
    </g>
</svg>
