<svg xmlns="http://www.w3.org/2000/svg" xmlns:xlink="http://www.w3.org/1999/xlink" width="24" height="24" viewBox="0 0 24 24">
    <defs>
        <rect id="prefix__a" width="20" height="12.5" x="0" y="0" rx="1.25"/>
    </defs>
    <g fill="none" fill-rule="evenodd">
        <g transform="translate(2 5.5)">
            <rect width="19.375" height="11.875" x=".313" y=".313" stroke="#D8D8D8" stroke-width=".625" rx="1.25"/>
            <path fill="#F48025" d="M19.375 6.875s-4.856 3.454-13.75 5H18.75c.345 0 .625-.28.625-.625V6.875z"/>
            <g>
                <path fill="#231F20" d="M11.434.72l.747 1.877.757-1.877h.593l-1.21 2.867h-.295L10.837.72h.597zM4.592.674c.308 0 .589.104.824.31l-.286.373c-.143-.16-.277-.226-.44-.226-.236 0-.408.133-.408.31 0 .15.096.23.424.351.622.227.806.428.806.873 0 .54-.398.917-.966.917-.416 0-.718-.163-.97-.532l.353-.339c.126.243.336.373.596.373.244 0 .425-.168.425-.394 0-.118-.055-.219-.164-.29-.055-.033-.164-.084-.378-.159-.513-.184-.69-.381-.69-.767 0-.457.379-.8.874-.8zM7.176.656c.235 0 .433.05.672.172v.642c-.227-.222-.424-.315-.685-.315-.512 0-.915.424-.915.96 0 .566.39.965.94.965.248 0 .442-.088.66-.307v.642c-.248.117-.45.163-.685.163-.832 0-1.479-.637-1.479-1.459 0-.812.664-1.463 1.492-1.463zM1.068.72c.886 0 1.504.574 1.504 1.4 0 .41-.189.809-.509 1.072-.269.223-.575.323-1 .323H.267V.72zm2.302 0v2.795h-.547V.72h.547zm11.957 0v.473h-1.003v.62h.967v.474h-.967v.755h1.003v.473h-1.55V.72h1.55zm1.173 0c.63 0 .991.302.991.825 0 .428-.226.709-.638.793l.882 1.177h-.672l-.756-1.123h-.072v1.123h-.546V.72zM.959 1.193H.812v1.849h.147c.353 0 .576-.068.747-.222.19-.168.303-.436.303-.705 0-.267-.114-.528-.303-.696-.18-.163-.394-.226-.747-.226zm15.445-.033h-.169v.847h.16c.349 0 .534-.152.534-.433 0-.272-.185-.414-.525-.414z" transform="translate(.625 3.794)"/>
                <path fill="#F48025" d="M11.001 2.12c0 .82-.666 1.486-1.49 1.486-.822 0-1.489-.666-1.489-1.487 0-.82.667-1.486 1.49-1.486s1.49.665 1.49 1.486" transform="translate(.625 3.794)"/>
                <path fill="#231F20" d="M17.767.851h-.02V.718h.021c.06 0 .091.022.091.066 0 .045-.032.067-.092.067m.214-.07c0-.1-.07-.156-.193-.156h-.163v.508h.121V.936l.143.197h.148l-.168-.21c.072-.019.112-.07.112-.141" transform="translate(.625 3.794)"/>
                <path fill="#231F20" d="M17.813 1.15c-.138 0-.25-.114-.25-.256 0-.143.11-.257.25-.257.138 0 .25.116.25.257 0 .14-.112.256-.25.256m.002-.57c-.176 0-.315.14-.315.313 0 .174.14.313.315.313.17 0 .31-.141.31-.313 0-.171-.14-.312-.31-.312" transform="translate(.625 3.794)"/>
            </g>
        </g>
    </g>
</svg>
