<svg width="24" height="24"  viewBox="0 0 24 24">
    <path fill="#000000" fill-rule="evenodd" d="M21.996 14.756c0 .48-.018.96-.008 1.44.033 1.438-1.263 2.514-2.418 2.718-.31.055-.624.086-.941.086-4.399-.003-8.798-.002-13.197-.002-.466 0-.926-.041-1.37-.193C2.845 18.39 1.992 17.253 2 16c.01-1.684.014-3.367.011-5.05H22c0 1.268-.004 2.536-.004 3.805zm-5.016-1.282c-.293.174-.523.108-.814-.01-.8-.323-1.668.245-1.672 1.06-.004.86.925 1.422 1.762 1.042.237-.107.421-.18.648-.007.084.064.204.088.312.111a1.248 1.248 0 0 0 1.45-.905c.135-.547-.23-1.15-.82-1.329-.289-.087-.604-.12-.866.038zM5.574 5l3.23.002h9.744c.484 0 .964.028 1.427.185 1.269.43 2.004 1.424 2.015 2.805l.004 1.208H2.007L2 7.963c-.008-1.42 1.134-2.678 2.575-2.897.331-.05.664-.065.999-.065z"/>
</svg>
