<svg width="24" height="24"  viewBox="0 0 24 24">
    <path fill="#000000" fill-rule="evenodd" d="M5.574 5l3.23.002h9.744c.484 0 .964.028 1.427.185 1.269.43 2.004 1.424 2.015 2.805.018 2.255.006 4.51.006 6.764 0 .48-.018.96-.008 1.44.033 1.438-1.263 2.513-2.418 2.718-.31.055-.624.086-.941.086-4.399-.003-8.798-.002-13.197-.002-.466 0-.926-.041-1.37-.193C2.845 18.39 1.992 17.253 2 16c.015-2.68.017-5.36 0-8.039-.008-1.42 1.134-2.678 2.575-2.897.331-.05.664-.065.999-.065zm14.315 6.032c-.13.01-.26 0-.39 0H4.802c-.223 0-.446.01-.668 0-.239-.01-.327.093-.326.328.006 1.534-.006 3.067.008 4.6.005.555.313.918.842 1.117.27.102.547.087.824.087l13.083.001c.13 0 .26.004.39-.004.793-.05 1.253-.526 1.258-1.32.006-1.108.002-2.216.001-3.325 0-.388-.009-.776.002-1.164.007-.239-.09-.339-.327-.32zm-2.043 2.404c.59.179.955.782.82 1.329a1.248 1.248 0 0 1-1.45.905c-.108-.023-.228-.047-.312-.11-.227-.173-.411-.101-.648.006-.837.38-1.766-.183-1.762-1.041.004-.816.873-1.384 1.672-1.06.291.117.52.183.814.009.262-.157.577-.125.866-.038zM5.03 6.836c-.758.075-1.205.558-1.22 1.317-.004.24.01.48-.001.72-.01.245.107.33.335.318.13-.007.26 0 .39 0H19.506c.149 0 .297-.006.445-.002.19.006.264-.088.262-.27-.004-.276-.016-.555.004-.83.043-.57-.356-1.04-.944-1.206-.22-.063-.441-.054-.663-.054H5.42c-.13 0-.261-.005-.39.007z"/>
</svg>
