<svg xmlns="http://www.w3.org/2000/svg" width="100" height="22" viewBox="0 0 100 22">
    <g fill="#FFF" fill-rule="evenodd">
        <path d="M99.16 5.077c0-2.336-1.882-4.23-4.202-4.23H5.042C2.722.846.84 2.74.84 5.076v11.846c0 2.336 1.882 4.23 4.202 4.23h89.916c2.32 0 4.202-1.894 4.202-4.23V5.077zM94.958 22H5.042C2.257 22 0 19.727 0 16.923V5.077C0 2.273 2.257 0 5.042 0h89.916C97.743 0 100 2.273 100 5.077v11.846C100 19.727 97.743 22 94.958 22z"/>
        <path d="M8.754 8.452H7.89v2.074h.864c.659 0 1.122-.419 1.122-1.033 0-.622-.463-1.041-1.122-1.041zm.16 3H7.89v2.199H6.75V7.526h2.164c1.247 0 2.137.81 2.137 1.967 0 1.158-.89 1.959-2.137 1.959zm5.005-1.406c-.668 0-1.13.56-1.13 1.38 0 .818.462 1.38 1.13 1.38.66 0 1.122-.562 1.122-1.38 0-.82-.463-1.38-1.122-1.38zm0 3.712c-1.345 0-2.298-.97-2.298-2.333 0-1.37.953-2.332 2.298-2.332 1.344 0 2.289.961 2.289 2.332 0 1.362-.945 2.333-2.29 2.333zm6.965-.107l-.909-3.027-.9 3.027h-1.023L16.52 9.2h1.14l.9 3.027.899-3.027h1.032l.9 3.027.9-3.027h1.139l-1.522 4.451h-1.024zm5.013-3.677c-.551 0-.979.41-1.032 1.024h1.941c-.035-.605-.4-1.024-.909-1.024zm-1.032 1.763c.071.676.605 1.14 1.353 1.14.41 0 .864-.152 1.327-.42v.954c-.508.23-1.015.347-1.514.347-1.344 0-2.288-.98-2.288-2.368 0-1.344.926-2.297 2.2-2.297 1.165 0 1.958.917 1.958 2.225 0 .125 0 .267-.018.419h-3.018zm5.085-1.06v2.974h-1.14V9.2h1.14v.445c.32-.356.712-.552 1.095-.552.125 0 .25.009.374.044v1.015c-.125-.035-.267-.053-.4-.053-.374 0-.776.205-1.07.579zm4.034-.703c-.552 0-.98.41-1.033 1.024h1.941c-.035-.605-.4-1.024-.908-1.024zm-1.033 1.763c.071.676.606 1.14 1.353 1.14.41 0 .864-.152 1.327-.42v.954c-.507.23-1.014.347-1.514.347-1.344 0-2.288-.98-2.288-2.368 0-1.344.926-2.297 2.2-2.297 1.166 0 1.958.917 1.958 2.225 0 .125 0 .267-.017.419H32.95zm6.786-1.264c-.258-.267-.57-.401-.881-.401-.65 0-1.096.552-1.096 1.353 0 .802.445 1.353 1.096 1.353.311 0 .623-.133.88-.4v-1.905zm0 2.866c-.347.276-.739.419-1.13.419-1.185 0-2.013-.962-2.013-2.333 0-1.37.828-2.332 2.012-2.332.392 0 .784.142 1.13.41V7.25h1.15v6.401h-1.15v-.312zm6.644-3.267c-.311 0-.624.134-.89.4v1.906c.266.267.579.4.89.4.641 0 1.087-.551 1.087-1.353 0-.8-.446-1.353-1.087-1.353zm.24 3.686c-.382 0-.775-.143-1.13-.42v.313h-1.14V7.25h1.14v2.253c.355-.268.748-.41 1.13-.41 1.193 0 2.013.961 2.013 2.332 0 1.37-.82 2.333-2.013 2.333zm4.24 1.842h-1.105l.855-2.109-1.7-4.291h1.166l1.069 2.92 1.077-2.92h1.167l-2.53 6.4zM63.723 12.66c0 1.73-1.377 2.717-3.375 2.717-.83 0-1.734-.16-2.628-.545v-2.294c.806.438 1.834.767 2.63.767.536 0 .922-.144.922-.588 0-1.147-3.652-.715-3.652-3.375 0-1.701 1.298-2.72 3.248-2.72.795 0 1.591.122 2.387.44v2.264c-.73-.395-1.66-.619-2.389-.619-.504 0-.817.146-.817.52 0 1.082 3.674.568 3.674 3.433zm2.995-.41c0 1.417 1.516.976 1.822.853v1.956c-.32.176-.9.318-1.685.318-1.425 0-2.496-1.05-2.496-2.473l.011-7.71 2.346-.499.002 2.088h1.823v2.049h-1.823v3.419zm5.15-2.755v5.71h-2.402V6.783h2.077l.151.71c.563-1.035 1.686-.825 2.006-.71v2.21c-.306-.1-1.265-.244-1.832.502zm2.571-5.402l2.412-.513v1.958l-2.412.512V4.093zm0 11.112h2.412V6.783h-2.412v8.422zm7.021-6.454c-.55 0-.898.202-1.148.477l.015 3.57c.233.253.57.457 1.133.457.889 0 1.484-.968 1.484-2.262 0-1.257-.605-2.242-1.484-2.242zm.56 6.626c-.84 0-1.355-.354-1.7-.607l-.006 2.719-2.401.511-.001-11.217h2.116l.125.593c.332-.31.94-.753 1.882-.753 1.687 0 3.276 1.52 3.276 4.318 0 3.053-1.573 4.436-3.29 4.436zm7.551-6.795c-.6 0-1.268.454-1.268 1.536h2.483c0-1.082-.626-1.536-1.215-1.536zm3.457 3.31h-4.705c.107 1.126.933 1.458 1.87 1.458.953 0 1.705-.201 2.36-.531v1.935c-.652.363-1.515.623-2.663.623-2.341 0-3.98-1.466-3.98-4.364 0-2.447 1.39-4.39 3.675-4.39 2.284 0 3.475 1.942 3.475 4.403 0 .233-.021.736-.032.866z"/>
    </g>
</svg>
