<svg width="25" height="24" viewBox="0 0 25 24">
    <path fill="#F4BE19" fill-rule="evenodd" d="M14.878 2.321c2.553.697 4.039 2.736 4.15 5.101.038.784.035 1.1.022 1.884-.005.284.24.43.568.46 1.2.109 1.863 1.153 1.871 2.244.017 2.222.013 4.913-.005 7.135-.009 1.07-.686 1.827-1.87 2.12-1.118.276-2.265.418-3.415.539-2.078.217-4.16.255-6.245.107-1.513-.107-3.014-.292-4.491-.6-1.243-.26-1.947-1.086-1.963-2.235v-5.6c.002-.49.003-.961.006-1.367.009-1.162.767-2.343 2.144-2.403.243-.01.33-.177.325-.4-.014-.598-.012-.91-.005-1.507.011-.883.13-1.571.529-2.388.811-1.666 1.925-2.682 3.892-3.157 1.494-.36 3.003-.338 4.487.067zm.928 10.16c-.337-.115-.618.003-.853.287-.996 1.202-1.91 2.311-2.907 3.512-.131.159-.264.317-.407.487l-1.676-1.754c-.326-.341-.851-.248-1.133.095-.275.337-.245.832.074 1.166.745.782 1.49 1.562 2.237 2.342.393.412.784.394 1.153-.05l2.672-3.217c.391-.47.785-.937 1.171-1.413.403-.497.227-1.262-.331-1.454zM9.4 7.976c.004 1.177 0-.164.002 1.012.002.496.378.84.917.842.864.005 3.49.005 4.396 0 .542-.003.786-.344.788-.842l.002-.374V8.53l.003.016c.002.078.001-.044 0-.046l-.002.005v-.06l-.003-.208-.003-.152c-.004-.334-.041-.492-.13-.816-.299-1.098-.992-1.752-2.461-1.874-2.018-.168-3.516.552-3.51 2.58z"/>
</svg>
