<svg xmlns="http://www.w3.org/2000/svg" width="100" height="22" viewBox="0 0 100 22">
    <g fill="#424770" fill-rule="evenodd">
        <path d="M94.958 22H5.042C2.257 22 0 19.727 0 16.923V5.077C0 2.273 2.257 0 5.042 0h89.916C97.743 0 100 2.273 100 5.077v11.846C100 19.727 97.743 22 94.958 22zM99.16 5.077c0-2.336-1.882-4.23-4.202-4.23H5.042C2.722.846.84 2.74.84 5.076v11.846c0 2.336 1.882 4.23 4.202 4.23h89.916c2.32 0 4.202-1.894 4.202-4.23V5.077z" opacity=".349"/>
        <path d="M50.86 15.6h-1.105l.855-2.11L48.909 9.2h1.167l1.068 2.92 1.077-2.92h1.167L50.86 15.6zm-4.24-1.842c-.383 0-.775-.143-1.13-.42v.313h-1.14V7.248h1.14v2.253c.355-.267.747-.41 1.13-.41 1.193 0 2.012.962 2.012 2.334 0 1.37-.819 2.333-2.012 2.333zm-.24-3.687c-.312 0-.624.134-.89.401v1.906c.266.266.578.4.89.4.641 0 1.086-.552 1.086-1.353 0-.802-.445-1.354-1.086-1.354zm-6.644 3.268c-.347.276-.74.419-1.13.419-1.185 0-2.013-.962-2.013-2.333 0-1.372.828-2.333 2.012-2.333.392 0 .784.142 1.13.41V7.247h1.15v6.403h-1.15v-.312zm0-2.867c-.258-.267-.57-.401-.881-.401-.65 0-1.096.552-1.096 1.354 0 .801.445 1.353 1.096 1.353.311 0 .623-.134.88-.4v-1.906zm-6.786 1.264c.071.677.606 1.14 1.353 1.14.41 0 .864-.152 1.327-.419v.954c-.507.23-1.014.347-1.514.347-1.344 0-2.288-.98-2.288-2.369 0-1.344.926-2.297 2.2-2.297 1.166 0 1.958.917 1.958 2.225 0 .126 0 .268-.017.42H32.95zm1.033-1.763c-.552 0-.98.41-1.033 1.024h1.941c-.035-.605-.4-1.024-.908-1.024zm-4.034.704v2.974h-1.14V9.199h1.14v.445c.32-.357.712-.552 1.095-.552.125 0 .25.008.374.044v1.015c-.124-.035-.267-.053-.4-.053-.374 0-.775.205-1.069.579zm-5.085 1.06c.072.676.605 1.139 1.353 1.139.41 0 .864-.152 1.327-.419v.954c-.507.23-1.015.347-1.514.347-1.344 0-2.288-.98-2.288-2.369 0-1.344.926-2.297 2.2-2.297 1.166 0 1.958.917 1.958 2.225 0 .126 0 .268-.017.42h-3.019zm1.033-1.764c-.552 0-.98.41-1.033 1.024h1.942c-.036-.605-.402-1.024-.91-1.024zm-5.014 3.678l-.908-3.028-.9 3.028h-1.024L16.52 9.199h1.14l.899 3.027.9-3.027h1.032l.9 3.027.899-3.027h1.14l-1.523 4.452h-1.024zm-6.964.107c-1.345 0-2.298-.97-2.298-2.333 0-1.372.953-2.333 2.298-2.333 1.344 0 2.288.961 2.288 2.333 0 1.362-.944 2.333-2.288 2.333zm0-3.713c-.668 0-1.13.56-1.13 1.38 0 .819.462 1.38 1.13 1.38.659 0 1.122-.561 1.122-1.38 0-.82-.463-1.38-1.122-1.38zM8.914 11.45H7.89v2.2H6.75V7.524h2.164c1.247 0 2.137.81 2.137 1.968s-.89 1.959-2.137 1.959zm-.16-3H7.89v2.074h.864c.659 0 1.122-.419 1.122-1.033 0-.623-.463-1.041-1.122-1.041zM93.021 11.89h-4.704c.108 1.126.933 1.457 1.87 1.457.953 0 1.705-.201 2.36-.531v1.935c-.653.362-1.515.623-2.663.623-2.34 0-3.98-1.466-3.98-4.363 0-2.447 1.39-4.39 3.676-4.39 2.282 0 3.473 1.942 3.473 4.403 0 .232-.02.736-.032.865zm-3.456-3.31c-.601 0-1.269.454-1.269 1.536h2.485c0-1.082-.627-1.536-1.216-1.536zm-7.55 6.794c-.842 0-1.355-.355-1.7-.608l-.006 2.719-2.402.511V6.781h2.115l.125.593c.332-.31.94-.753 1.882-.753 1.687 0 3.276 1.52 3.276 4.317 0 3.053-1.572 4.436-3.29 4.436zm-.56-6.625c-.552 0-.898.202-1.148.477l.014 3.57c.234.253.57.456 1.133.456.889 0 1.484-.968 1.484-2.261 0-1.257-.605-2.242-1.484-2.242zm-7.021-1.968h2.411v8.421h-2.411v-8.42zm0-2.689l2.411-.513v1.957l-2.411.513V4.092zm-2.572 5.401v5.709h-2.401v-8.42h2.077l.15.709c.564-1.034 1.686-.824 2.006-.71v2.21c-.305-.1-1.264-.243-1.832.502zm-5.15 2.755c0 1.416 1.517.975 1.824.852v1.956c-.32.176-.9.318-1.685.318-1.426 0-2.497-1.05-2.497-2.473l.011-7.707 2.346-.5.002 2.087h1.824V8.83h-1.824v3.418zm-2.994.41c0 1.73-1.377 2.716-3.374 2.716-.829 0-1.734-.161-2.628-.545v-2.294c.807.438 1.834.767 2.63.767.536 0 .922-.143.922-.588 0-1.146-3.652-.715-3.652-3.374 0-1.7 1.298-2.719 3.247-2.719.796 0 1.592.122 2.388.44v2.263c-.731-.395-1.66-.619-2.39-.619-.503 0-.816.146-.816.52 0 1.082 3.673.568 3.673 3.433z" opacity=".502"/>
    </g>
</svg>
