<svg width="24" height="24" viewBox="0 0 24 24">
    <path fill="#000000" fill-rule="evenodd" d="M15.887 21.219A9.916 9.916 0 0 1 12 22c-1.354 0-2.65-.26-3.887-.781A9.96 9.96 0 0 1 4.93 19.07a9.96 9.96 0 0 1-2.149-3.183A9.916 9.916 0 0 1 2 12c0-.195.068-.361.205-.498a.678.678 0 0 1 .498-.205c.195 0 .361.068.498.205a.678.678 0 0 1 .205.498 8.33 8.33 0 0 0 .684 3.34 8.425 8.425 0 0 0 1.836 2.734A8.694 8.694 0 0 0 8.66 19.93a8.542 8.542 0 0 0 3.34.664 8.33 8.33 0 0 0 3.34-.684 8.425 8.425 0 0 0 2.734-1.836 8.694 8.694 0 0 0 1.856-2.734 8.542 8.542 0 0 0 .664-3.34 8.33 8.33 0 0 0-.684-3.34 8.425 8.425 0 0 0-1.836-2.734A8.694 8.694 0 0 0 15.34 4.07 8.542 8.542 0 0 0 12 3.406a.678.678 0 0 1-.498-.205.678.678 0 0 1-.205-.498c0-.195.068-.361.205-.498A.678.678 0 0 1 12 2c1.354 0 2.65.26 3.887.781A9.96 9.96 0 0 1 19.07 4.93a9.96 9.96 0 0 1 2.149 3.183A9.916 9.916 0 0 1 22 12c0 1.354-.26 2.65-.781 3.887a9.96 9.96 0 0 1-2.149 3.183 9.96 9.96 0 0 1-3.183 2.149z"/>
</svg>
