<svg width="32" height="32" viewBox="0 0 32 32">
    <g fill="none" fill-rule="evenodd">
        <circle cx="16" cy="16" r="16" fill="paintbrushRed"/>
        <g fill="crystal">
            <path fill-opacity="0" d="M0 0H22V22H0z" transform="translate(5 4)"/>
            <path d="M11.021 18.49h6.236c.824 0 1.473-.942 1.024-1.854-.044-.09-.088-.178-.135-.266-2.114-4.02-3.966-7.793-6.082-11.812-.077-.146-.152-.297-.25-.426-.436-.573-1.18-.56-1.603.025-.095.132-.169.283-.246.43C7.858 8.59 5.915 12.356 3.81 16.36c-.07.132-.145.263-.197.403-.247.663.03 1.402.608 1.65.194.083.395.066.594.066 2.13.002 4.078.01 6.207.01zm-.04 1.67H4.682c-.341.001-.68-.023-1.007-.13-1.496-.494-2.254-2.338-1.615-3.933.074-.186.166-.364.258-.54L8.663 3.495c.093-.176.186-.354.295-.517.98-1.475 2.954-1.535 4.004-.119.145.196.267.415.383.635 2.124 4.034 4.244 8.071 6.368 12.106.234.445.42.902.448 1.426.093 1.756-1.004 3.088-2.606 3.129-.895.023-1.79.005-2.685.005h-3.89zm.979-7.228c.003.543-.59.955-1.161.735-.343-.133-.538-.392-.54-.744-.01-1.285-.016-2.57 0-3.855.007-.483.367-.806.831-.819.486-.013.85.313.867.828.021.642.005 1.285.005 1.927-.003.643-.006 1.285-.002 1.928zm.014 3.059c-.004.487-.362.844-.85.846-.478.001-.858-.365-.869-.838-.01-.485.4-.892.888-.88.474.01.834.389.831.872z" transform="translate(5 4)"/>
        </g>
    </g>
</svg>
