<svg width="248" height="178" viewBox="0 0 248 178">
    <defs>
        <path id="gnfzqe4qea" d="M0 0.104L17.803 0.104 17.803 17.909 0 17.909z"/>
    </defs>
    <g fill="none" fill-rule="evenodd" transform="translate(1)">
        <circle cx="124.505" cy="81.561" r="81.561" fill="#84CEFD" fill-opacity=".1" fill-rule="nonzero"/>
        <g fill-rule="nonzero" transform="rotate(-38 105.062 -36.938)">
            <path fill="#DADBE2" d="M41.356 0C39.25 0 29.964 4.99 12.994 15.176l-2.105 1.265h60.612l-2.583-1.57C52.466 4.89 43.442 0 41.356 0zm.057 1.03c1.878.098 10.7 4.872 26.018 14.141l.4.242H14.597l1.334-.797c15.088-9 23.708-13.588 25.425-13.588l.057.001z"/>
            <rect width="71.723" height="52.816" x="5.343" y="17.365" fill="#FFF" rx=".8"/>
            <g transform="translate(0 13.46)">
                <path fill="#FFF" d="M3.083 1.952H79.378V57.952999999999996H3.083z"/>
                <path fill="#84CEFD" d="M2.986 21.208c10.292-1.429 17.928-.216 22.908 3.638 7.47 5.78 12.957 15.323 21.583 18.263 5.751 1.96 16.39 1.96 31.918 0v14.933H2.986V21.208z"/>
                <path fill="#3D98D2" d="M2.986 27.787c9.581-1.821 17.217-.527 22.908 3.883 8.537 6.614 10.112 17.48 25.525 19.114 10.275 1.09 19.6 1.09 27.976 0v7.258H2.986V27.787z"/>
                <path fill="#FFB589" d="M81.176 0c.681 0 1.233.552 1.233 1.233v58.159c0 .681-.552 1.233-1.233 1.233H1.233c-.68 0-1.233-.552-1.233-1.233V1.233C0 .553.552 0 1.233 0h79.943zm-5.138 3.905H6.371c-.568 0-1.028.46-1.028 1.027v50.76c0 .568.46 1.028 1.028 1.028h69.667c.568 0 1.028-.46 1.028-1.027V4.933c0-.568-.46-1.028-1.028-1.028z"/>
                <circle cx="35.759" cy="15.208" r="5.343" fill="#F4BE19"/>
                <path fill="#F2A698" d="M51.043 39.663h18.343c.894 6.104-2.094 9.156-8.966 9.156s-9.997-3.052-9.377-9.156z"/>
                <path fill="#DADBE2" d="M60.214 22.811L60.214 36.822 69.541 36.822z"/>
                <path fill="#EFF0F3" d="M50.966 22.811L50.966 36.822 60.293 36.822z" transform="matrix(-1 0 0 1 111.259 0)"/>
            </g>
        </g>
        <g>
            <path fill="#FFF" fill-rule="nonzero" d="M.095 38.17c-.436-5.785.634-11.16 3.209-16.124C7.167 14.6 23.3 2.865 25.784 2.036 28.268 1.205 30.15.331 35.932.331c3.855 0 9.012 5.79 15.472 17.37-1.151 7.349-2.739 12.125-4.761 14.33-3.035 3.306-17.197 16.734-21.863 17.918-4.666 1.183-9.334 2.378-14.224.394C7.296 49.02 3.809 44.963.095 38.17z" transform="rotate(43 -113.398 97.256)"/>
            <path fill="#DD8677" fill-rule="nonzero" d="M51.54 17.909c.43-4.318.184-8.514-1.062-12.374-.002-.005-.706-1.935-1.525-2.753-.815-.816-2.726-1.517-2.727-1.517-3.867-1.253-8.07-1.5-12.399-1.07 3.161 2.517 6.298 5.31 9.35 8.362 3.053 3.053 5.846 6.19 8.363 9.352z" transform="rotate(43 -113.398 97.256)"/>
            <g transform="rotate(43 -113.398 97.256) translate(0 33.496)">
                <mask id="3fmgauuf5b" fill="#fff">
                    <use href="#gnfzqe4qea"/>
                </mask>
                <path fill="#DD8677" fill-rule="nonzero" d="M8.509 9.402C5.474 6.368 2.697 3.248.195.104-.233 4.397.01 8.57 1.25 12.406c.002.005.703 1.924 1.516 2.738.81.81 2.71 1.507 2.712 1.508 3.843 1.245 8.023 1.49 12.325 1.062-3.141-2.502-6.26-5.278-9.294-8.312" mask="url(#3fmgauuf5b)"/>
            </g>
            <path fill="#DD8677" fill-rule="nonzero" d="M34.018 19.292l-2.151 2.152 1.303 1.302c.59.59.436 1.213-.043 1.692-.48.479-1.101.633-1.692.043l-1.302-1.303-2.61 2.61 1.303 1.302c.59.59.435 1.213-.043 1.692-.48.479-1.101.633-1.692.043l-1.302-1.303-2.61 2.61 1.302 1.303c.59.59.436 1.213-.043 1.692-.479.479-1.1.633-1.691.043l-1.303-1.303-2.15 2.151c-.676.676-1.406.551-1.933.025-.526-.526-.65-1.257.026-1.932l2.15-2.15-1.303-1.303c-.59-.59-.436-1.213.043-1.692.48-.478 1.102-.633 1.692-.043l1.303 1.303 2.61-2.61-1.303-1.303c-.59-.59-.436-1.212.043-1.691.479-.48 1.102-.634 1.692-.044l1.302 1.303 2.61-2.61-1.302-1.303c-.59-.59-.436-1.212.043-1.691.478-.479 1.101-.633 1.69-.043l1.304 1.303 2.15-2.151c.677-.676 1.407-.552 1.932-.026.526.527.651 1.257-.025 1.932m5.255-7.161C35.269 8.127 31.18 4.507 27.138 1.327 21.52 2.829 15.717 5.89 10.804 10.804S2.83 21.52 1.327 27.138c3.18 4.043 6.8 8.131 10.804 12.135 4.004 4.004 8.092 7.624 12.135 10.805 5.618-1.503 11.421-4.566 16.334-9.478 4.913-4.913 7.974-10.716 9.478-16.334-3.181-4.043-6.801-8.131-10.805-12.135" transform="rotate(43 -113.398 97.256)"/>
        </g>
        <g fill-rule="nonzero" transform="translate(43.308 64.846)">
            <rect width="121.661" height="97.822" x="12.742" fill="#F4BE19" rx="3.318"/>
            <path fill="#F3A70C" d="M4.854.19h46.523v97.823H4.29c-2.354 0-4.262-1.908-4.262-4.262v-.027L.593 4.425C.608 2.082 2.51.191 4.854.191z"/>
        </g>
        <g fill-rule="nonzero" transform="translate(109.07 115.856)">
            <rect width="46.609" height="29.83" fill="#FFF" stroke="#DADBE2" stroke-width="1.452" rx="1.452"/>
            <rect width="39.152" height="3.729" x="3.729" y="5.593" fill="#DADBE2" rx="1.452"/>
            <rect width="39.152" height="3.729" x="3.729" y="13.051" fill="#DADBE2" rx="1.452"/>
            <rect width="39.152" height="3.729" x="3.729" y="20.508" fill="#DADBE2" rx="1.452"/>
        </g>
        <path fill="#FFDB6E" fill-rule="nonzero" d="M42.173 70.935c-.771 1.423-4.384 8.253-10.84 20.49-.529 1.004-.144 2.247.86 2.777.295.156.624.237.959.237h46.174c1.296 0 2.471-.761 3.001-1.945L94.685 64.89H52.9c-2.78 0-5.595-.288-7.154.605-1.559.893-2.323 3.136-3.572 5.44zM94.685 64.846l14.317 26.77c.93 1.738 2.74 2.823 4.712 2.823h79.37c.909 0 1.645-.736 1.645-1.644 0-.332-.1-.656-.288-.93-7.04-10.268-11.366-16.682-12.978-19.242-2.616-4.151-4.366-7.733-7.77-7.733-2.27 0-28.606-.015-79.008-.044z"/>
        <g fill-rule="nonzero" transform="translate(167.64 128.186)">
            <path fill="#3D98D2" d="M73.161 27.456v6.905c0 .908-.736 1.644-1.644 1.644H4.44c-.908 0-1.644-.736-1.644-1.644v-6.905c0-.908.736-1.644 1.644-1.644h67.078c.908 0 1.644.736 1.644 1.644z"/>
            <path fill="#7BCCB1" d="M78.915 15.274v8.91c0 1.171-.736 2.121-1.644 2.121H10.193c-.908 0-1.644-.95-1.644-2.121v-8.91c0-1.172.736-2.121 1.644-2.121h67.078c.908 0 1.644.95 1.644 2.12z"/>
            <rect width="3.946" height="13.481" x="14.797" y="12.824" fill="#00A87E" rx=".256"/>
            <rect width="3.946" height="13.481" x="69.38" y="12.824" fill="#00A87E" rx=".256"/>
            <path fill="#A4A7FE" d="M70.366 2.121v8.91c0 1.172-.736 2.122-1.644 2.122H1.644C.736 13.153 0 12.203 0 11.03v-8.91C0 .95.736 0 1.644 0h67.078c.908 0 1.644.95 1.644 2.121z"/>
            <rect width="7.563" height="13.153" x="5.919" fill="#787BEF" rx=".256"/>
            <rect width="7.563" height="13.153" x="56.885" fill="#787BEF" rx=".256"/>
        </g>
        <g fill="#F4BE19" fill-rule="nonzero" transform="translate(180.228 17.982)">
            <rect width="8.22" height="28.771" x="6.679" rx="3.2"/>
            <path d="M21.322 13.219v1.82c0 1.767-1.433 3.2-3.2 3.2H3.457c-1.767 0-3.2-1.433-3.2-3.2v-1.82c0-1.768 1.433-3.2 3.2-3.2h14.665c1.767 0 3.2 1.432 3.2 3.2z"/>
        </g>
        <g fill="#F4BE19" fill-rule="nonzero" transform="translate(213.623 47.524)">
            <rect width="5.754" height="20.14" x="4.675" rx="2.24"/>
            <path d="M14.925 9.253v1.274c0 1.237-1.003 2.24-2.24 2.24H2.42c-1.237 0-2.24-1.003-2.24-2.24V9.253c0-1.237 1.003-2.24 2.24-2.24h10.265c1.237 0 2.24 1.003 2.24 2.24z"/>
        </g>
    </g>
</svg>
