<svg width="48" height="48" viewBox="0 0 48 48">
    <g fill="none" fill-rule="evenodd">
        <path fill="crystal" fill-opacity="0" d="M0 0H48V48H0z"/>
        <path fill="glacialBlue" d="M25.193 4.027c6.685.346 13.443 5.26 14.642 13.277.432 2.893-.033 6.042-.841 8.864-1.719 6-12.06 17.832-15.02 17.832-2.96 0-12.471-10.61-14.978-18.36-1.217-3.763-1.435-7.873 0-11.626 2.516-6.578 8.716-10.374 16.197-9.987zm-7.336 10.529h-2c-.552 0-1 .459-1 1.025v11.282c0 .567.448 1.026 1 1.026h2c.552 0 1-.46 1-1.026V15.581c0-.566-.448-1.025-1-1.025zM24 11.222h-2.286c-.63 0-1.143.467-1.143 1.042v14.583c0 .576.512 1.042 1.143 1.042H24c.631 0 1.143-.466 1.143-1.042V12.264c0-.575-.512-1.042-1.143-1.042zm6.649 3.408c-.233-.497-.843-.752-1.406-.572l-2.195.701c-.59.189-.903.784-.7 1.33l4.114 11.093.032.077c.233.497.843.752 1.405.572l2.196-.701c.59-.189.903-.784.7-1.331l-4.114-11.092z"/>
    </g>
</svg>
