<svg xmlns="http://www.w3.org/2000/svg" width="48" height="48" viewBox="0 0 48 48">
    <g fill="none" fill-rule="evenodd">
        <path fill="crystal" fill-opacity="0" d="M0 0H48V48H0z"/>
        <path fill="glacialBlue" d="M25.193 4.027c6.685.346 13.443 5.26 14.642 13.277.432 2.893-.033 6.042-.841 8.864-1.719 6-12.06 17.832-15.02 17.832-2.96 0-12.471-10.61-14.978-18.36-1.217-3.763-1.435-7.873 0-11.626 2.516-6.578 8.716-10.374 16.197-9.987zM15.543 24s-.841-.019-.66.324c.813 1.542 3.533 5.787 8.847 5.787 5.233 0 7.95-4.116 8.809-5.715.207-.385-.642-.396-.642-.396s-3.584.839-8.167.839c-4.582 0-8.187-.839-8.187-.839zm8.225-12.778c-2 0-5.665 3.481-10.331 4.895-.778.218-1.11 1.088-.667 1.74 1 1.306 2.111 1.415 2.111 2.938 0 1.49 4.257 1.537 8.604 1.538h.85c4.247-.004 8.32-.08 8.32-1.538 0-1.523 1.111-1.632 2-3.046.444-.544.11-1.414-.556-1.632-4.665-1.414-8.331-4.895-10.33-4.895zm-.018 3.687c.394 0 .752.428 1.254.638.64.267 1.074.041 1.074.962 0 .921-1.088 3.416-2.31 3.416s-2.347-2.495-2.347-3.416c0-.92.525-.645 1.103-.962.517-.284.857-.638 1.226-.638z"/>
    </g>
</svg>
