<svg xmlns="http://www.w3.org/2000/svg" width="48" height="48" viewBox="0 0 48 48">
    <g fill="none" fill-rule="evenodd">
        <path fill="crystal" fill-opacity="0" d="M0 0H48V48H0z"/>
        <path fill="glacialBlue" d="M25.193 4.027c6.685.346 13.443 5.26 14.642 13.277.432 2.893-.033 6.042-.841 8.864-1.719 6-12.06 17.832-15.02 17.832-2.96 0-12.471-10.61-14.978-18.36-1.217-3.763-1.435-7.873 0-11.626 2.516-6.578 8.716-10.374 16.197-9.987zm5.36 17.195l-.608.236c-.893.348-1.888.4-2.818.148l-1.42-.384-.583.22c-.94.357-1.99.387-2.953.084l-.969-.304-.78.266c-.956.327-2.008.322-2.96-.013l-.718-.253-.32.178c-.473.263-1.015.401-1.567.401v6.928c0 .15.132.271.294.271h2.754v-4.206h3.564V29h10.808c.163 0 .294-.121.294-.271v-6.928c-.626 0-1.24-.154-1.779-.448l-.24-.13zm-.387 1.944v3.304h-5.453v-3.304h5.453zM31.636 14h-2.58l1.706 5.744c.595.615 1.236.923 1.924.923.883 0 1.6-.68 1.6-1.516 0-.246-.063-.488-.184-.705L31.636 14zm-5.196 0h-4.984l.218 5.752c.608.61 1.297.915 2.067.915.772 0 1.584-.308 2.434-.923l.014.012.25-5.757zm-7.531 0h-3.082l-2.51 4.552-.062.126c-.293.682.005 1.477.707 1.824.219.108.46.165.707.165.754 0 1.549-.308 2.386-.923l-.017.011-.007.005L18.909 14zM32 11.222H16v1.667h16v-1.667z"/>
    </g>
</svg>
