<svg xmlns="http://www.w3.org/2000/svg" width="51" height="97" viewBox="0 0 51 97">
    <g fill="none" fill-rule="evenodd" transform="translate(.347)">
        <path d="M0 0.05L0 95.984 50.535 95.984 50.535 0.05 0 0.05z"/>
        <path fill="#686868" d="M7.031 95.962c-3.517-.204-6.46-3.321-6.527-6.844-.493-27.251-.493-54.502 0-81.754C.571 3.842 3.514.724 7.031.52c12.241-.693 24.483-.693 36.725 0 3.517.205 6.46 3.322 6.527 6.844.493 27.252.493 54.503 0 81.754-.067 3.522-3.01 6.64-6.527 6.844-12.242.694-24.484.694-36.725 0z"/>
        <path fill="#949393" d="M29.088 5.548h-7.87c-.482 0-.876-.272-.876-.603 0-.332.394-.603.876-.603h7.87c.482 0 .876.271.876.603 0 .331-.394.603-.876.603z"/>
        <path fill="#FFF" d="M4.946 81.042c0 .535.431.968.97.968h38.955c.536 0 .97-.425.97-.968V10.616c0-.534-.43-.968-.97-.968H5.916c-.536 0-.97.425-.97.968v70.426z"/>
        <ellipse cx="25.153" cy="89.246" fill="#949393" rx="3.368" ry="3.377"/>
        <rect width="1.8" height="21.226" x="11.615" y="36.578" fill="#F4BE19" rx=".724"/>
        <rect width="28.868" height="1.8" x="11.615" y="56.357" fill="#F4BE19" rx=".724"/>
        <g fill="#E4E4E4" transform="translate(10.653 63)">
            <rect width="12.97" height="2.573" x=".297" y=".884" rx="1.286"/>
            <rect width="12.321" height="2.573" x="16.158" y=".884" rx="1.286"/>
        </g>
        <path stroke="#F4BE19" stroke-linecap="round" stroke-linejoin="round" stroke-width="2" d="M12.275 55.064L17.24 52.662 19.998 47.86 25.33 47.952 29.559 45.828 34.156 46.567 38.017 42.873" transform="rotate(-6 25.146 48.968)"/>
        <path fill="#F4BE19" d="M41.306 37.33l-.357 7.37c-.013.266-.239.472-.505.459-.103-.005-.201-.043-.28-.108l-6.759-5.487c-.207-.168-.238-.472-.07-.679.064-.08.152-.136.25-.162l7.116-1.883c.258-.068.522.086.59.343.012.048.018.098.015.147z"/>
        <g fill="#E4E4E4" transform="translate(10.653 24)">
            <rect width="8.119" height="8.141" x="1.083" rx="1.628"/>
            <rect width="14.614" height="2.171" x="11.908" y=".543" rx="1.085"/>
            <rect width="10.825" height="2.171" x="11.908" y="5.427" rx="1.085"/>
        </g>
    </g>
</svg>
