<svg xmlns="http://www.w3.org/2000/svg" width="51" height="97" viewBox="0 0 51 97">
    <g fill="none" fill-rule="evenodd" transform="translate(.347)">
        <path d="M0 0.05L0 95.984 50.535 95.984 50.535 0.05 0 0.05z"/>
        <path fill="#686868" d="M7.031 95.962c-3.517-.204-6.46-3.321-6.527-6.844-.493-27.251-.493-54.502 0-81.754C.571 3.842 3.514.724 7.031.52c12.241-.693 24.483-.693 36.725 0 3.517.205 6.46 3.322 6.527 6.844.493 27.252.493 54.503 0 81.754-.067 3.522-3.01 6.64-6.527 6.844-12.242.694-24.484.694-36.725 0z"/>
        <path fill="#949393" d="M29.088 5.548h-7.87c-.482 0-.876-.272-.876-.603 0-.332.394-.603.876-.603h7.87c.482 0 .876.271.876.603 0 .331-.394.603-.876.603z"/>
        <path fill="#FFF" d="M4.946 81.042c0 .535.431.968.97.968h38.955c.536 0 .97-.425.97-.968V10.616c0-.534-.43-.968-.97-.968H5.916c-.536 0-.97.425-.97.968v70.426z"/>
        <rect width="11" height="11" x="6.653" y="13" fill="#E4E4E4" rx="1.447"/>
        <rect width="11" height="11" x="6.653" y="27" fill="#E4E4E4" rx="1.447"/>
        <rect width="11" height="11" x="6.653" y="41" fill="#E4E4E4" rx="1.447"/>
        <rect width="11" height="11" x="6.653" y="55" fill="#E4E4E4" rx="1.447"/>
        <rect width="11" height="11" x="6.653" y="69" fill="#E4E4E4" rx="1.447"/>
        <rect width="12" height="11" x="19.653" y="13" fill="#E4E4E4" rx="1.447"/>
        <rect width="12" height="11" x="19.653" y="27" fill="#E4E4E4" rx="1.447"/>
        <rect width="12" height="11" x="19.653" y="41" fill="#E4E4E4" rx="1.447"/>
        <rect width="12" height="11" x="19.653" y="55" fill="#FFE184" rx="1.447"/>
        <rect width="12" height="11" x="19.653" y="69" fill="#E4E4E4" rx="1.447"/>
        <rect width="11" height="11" x="33.653" y="13" fill="#F4BE19" rx="1.447"/>
        <rect width="11" height="11" x="33.653" y="27" fill="#E4E4E4" rx="1.447"/>
        <rect width="11" height="11" x="33.653" y="41" fill="#E4E4E4" rx="1.447"/>
        <rect width="11" height="11" x="33.653" y="55" fill="#E4E4E4" rx="1.447"/>
        <rect width="11" height="11" x="33.653" y="69" fill="#E4E4E4" rx="1.447"/>
        <ellipse cx="25.153" cy="89.246" fill="#949393" rx="3.368" ry="3.377"/>
    </g>
</svg>
