<svg xmlns="http://www.w3.org/2000/svg" width="76" height="97" viewBox="0 0 76 97">
    <g fill="none" fill-rule="evenodd">
        <rect width="11" height="11" y="27" fill="#F4BE19" rx="1.447"/>
        <rect width="11" height="11" x="13" y="27" fill="#F4BE19" rx="1.447"/>
        <path d="M25.118 0.05L25.118 95.984 75.653 95.984 75.653 0.05 25.118 0.05z" transform="matrix(-1 0 0 1 100.77 0)"/>
        <path fill="#686868" d="M68.622 95.962c3.517-.204 6.46-3.321 6.527-6.844.493-27.251.493-54.502 0-81.754-.067-3.522-3.01-6.64-6.527-6.844-12.241-.693-24.483-.693-36.725 0-3.517.205-6.46 3.322-6.527 6.844-.493 27.252-.493 54.503 0 81.754.067 3.522 3.01 6.64 6.527 6.844 12.242.694 24.484.694 36.725 0z"/>
        <path fill="#949393" d="M46.565 5.548h7.87c.482 0 .876-.272.876-.603 0-.332-.394-.603-.876-.603h-7.87c-.482 0-.876.271-.876.603 0 .331.394.603.876.603z"/>
        <path fill="#FFF" d="M70.708 81.042c0 .535-.432.968-.971.968H30.782c-.536 0-.97-.425-.97-.968V10.616c0-.534.43-.968.97-.968h38.955c.536 0 .97.425.97.968v70.426z"/>
        <ellipse cx="50.5" cy="89.246" fill="#949393" rx="3.368" ry="3.377" transform="matrix(-1 0 0 1 101 0)"/>
        <path stroke="#00A87E" stroke-linecap="round" stroke-linejoin="round" stroke-width="3" d="M17.018 52.877L4.813 44.009" transform="scale(-1 1) rotate(-36 0 82.612)"/>
        <path fill="#00A87E" d="M21.694 48.072l-7.212-5.416c-.236-.177-.572-.13-.75.107-.072.095-.11.211-.108.33l.168 11.115c.004.296.248.533.544.528.12-.002.236-.044.329-.12l7.044-5.698c.23-.186.266-.524.08-.754-.028-.034-.06-.065-.095-.092z"/>
        <rect width="11" height="11" x="31" y="13" fill="#E4E4E4" rx="1.447"/>
        <rect width="11" height="11" x="31" y="41" fill="#E4E4E4" rx="1.447"/>
        <rect width="11" height="11" x="31" y="55" fill="#E4E4E4" rx="1.447"/>
        <rect width="11" height="11" x="31" y="69" fill="#E4E4E4" rx="1.447"/>
        <rect width="12" height="11" x="44" y="13" fill="#E4E4E4" rx="1.447"/>
        <rect width="12" height="11" x="44" y="27" fill="#E4E4E4" rx="1.447"/>
        <rect width="12" height="11" x="31" y="27" fill="#F4BE19" rx="1.447"/>
        <rect width="12" height="11" x="44" y="41" fill="#E4E4E4" rx="1.447"/>
        <rect width="12" height="11" x="44" y="55" fill="#E4E4E4" rx="1.447"/>
        <rect width="12" height="11" x="44" y="69" fill="#E4E4E4" rx="1.447"/>
        <rect width="11" height="11" x="58" y="13" fill="#E4E4E4" rx="1.447"/>
        <rect width="11" height="11" x="58" y="27" fill="#E4E4E4" rx="1.447"/>
        <rect width="11" height="11" x="58" y="41" fill="#E4E4E4" rx="1.447"/>
        <rect width="11" height="11" x="58" y="55" fill="#E4E4E4" rx="1.447"/>
        <rect width="11" height="11" x="58" y="69" fill="#E4E4E4" rx="1.447"/>
    </g>
</svg>
