<svg xmlns="http://www.w3.org/2000/svg" width="106" height="200" viewBox="0 0 106 200">
    <g fill="none" fill-rule="evenodd" transform="translate(.5)">
        <path d="M0 0.103L0 198.966 105.034 198.966 105.034 0.103 0 0.103z"/>
        <path fill="#686868" d="M14.614 198.922c-7.31-.424-13.426-6.885-13.566-14.187-1.025-56.49-1.025-112.98 0-169.47.139-7.301 6.256-13.763 13.566-14.187C40.056-.36 65.5-.36 90.944 1.078c7.31.424 13.426 6.887 13.566 14.187 1.025 56.49 1.025 112.98 0 169.47-.14 7.3-6.256 13.762-13.566 14.187-25.444 1.437-50.888 1.437-76.33 0z"/>
        <path fill="#949393" d="M60.457 11.5H44.1c-1.002 0-1.821-.562-1.821-1.25S43.099 9 44.1 9h16.357c1.003 0 1.822.562 1.822 1.25s-.82 1.25-1.822 1.25z"/>
        <path fill="#FFF" d="M10.279 167.993c0 1.108.897 2.007 1.997 2.007h81.006c1.103 0 1.997-.9 1.997-2.007V22.007c0-1.108-.897-2.007-1.997-2.007H12.276c-1.103 0-1.997.9-1.997 2.007v145.986z"/>
        <circle cx="52.279" cy="185" r="7" fill="#949393"/>
        <rect width="3" height="44" x="23.279" y="79" fill="#F4BE19" rx="1.5"/>
        <rect width="60" height="3" x="23.279" y="120" fill="#F4BE19" rx="1.5"/>
        <rect width="20" height="4" x="23.279" y="131" fill="#E4E4E4" rx="2"/>
        <rect width="19" height="4" x="49.279" y="131" fill="#E4E4E4" rx="2"/>
        <path stroke="#F4BE19" stroke-linecap="round" stroke-linejoin="round" stroke-width="3" d="M24.648 117.321L34.967 112.344 40.699 102.389 51.782 102.58 60.572 98.177 70.126 99.709 78.152 92.051" transform="rotate(-6 51.4 104.686)"/>
        <path fill="#F4BE19" d="M82.537 83.447l-.479 9.789c-.027.551-.496.977-1.047.95-.212-.01-.416-.088-.58-.222l-8.998-7.286c-.43-.347-.495-.977-.148-1.406.134-.165.317-.284.522-.338l9.475-2.503c.534-.14 1.082.178 1.223.712.026.099.037.201.032.304z"/>
        <rect width="15" height="15" x="23.279" y="55" fill="#E4E4E4" rx="3"/>
        <rect width="27" height="4" x="43.279" y="56" fill="#E4E4E4" rx="2"/>
        <rect width="20" height="4" x="43.279" y="65" fill="#E4E4E4" rx="2"/>
    </g>
</svg>
